<?xml version="1.0" encoding="utf-8"?><svg xmlns="http://www.w3.org/2000/svg" xmlns:xlink="http://www.w3.org/1999/xlink"><symbol viewBox="0 0 304 148" id="Rectangle_79" xmlns="http://www.w3.org/2000/svg"><path d="M0 10C0 4.477 4.477 0 10 0h284c5.523 0 10 4.477 10 10v108c0 5.523-4.477 10-10 10H163l-11 20-11-20H10c-5.523 0-10-4.477-10-10V10z"/></symbol><symbol viewBox="0 0 304 148" id="Rectangle_79_(1)" xmlns="http://www.w3.org/2000/svg"><path d="M0 10C0 4.477 4.477 0 10 0h284c5.523 0 10 4.477 10 10v108c0 5.523-4.477 10-10 10H163l-11 20-11-20H10c-5.523 0-10-4.477-10-10V10z"/></symbol></svg>