<svg width="50" height="50" viewBox="0 0 50 50" fill="none" xmlns="http://www.w3.org/2000/svg">
<path fill-rule="evenodd" clip-rule="evenodd" d="M45.972 32.7579C46.9212 31.6589 47.959 30.1547 48.4055 28.4618C48.6179 27.6566 48.2103 26.8131 47.4363 26.4562C47.3009 26.3937 44.5873 25.1578 41.0203 24.6505C44.0186 22.6884 47.469 20.0056 49.6769 16.9328C50.2823 16.0905 50.0073 14.9249 49.0898 14.4208C49.0255 14.3854 47.6954 13.6597 45.7313 13.0432C47.1178 10.9465 48.8078 7.42368 48.3576 3.14923C48.2716 2.33086 47.5967 1.67627 46.753 1.59277C42.3471 1.15585 38.7147 2.79532 36.5532 4.14035C35.917 2.23184 35.1692 0.944328 35.133 0.882316C34.6116 -0.00870663 33.4112 -0.273552 32.5434 0.312878C31.1378 1.2634 30.4115 1.98303 30.0749 2.31664L30.0748 2.31665C30.0051 2.38573 29.9521 2.43826 29.9132 2.47286C29.6172 2.75772 29.6151 3.22159 29.9088 3.5087C30.2026 3.79591 30.6807 3.79777 30.9767 3.513L31.671 2.84493C32.2504 2.34932 32.8344 1.90185 33.4067 1.51474C33.545 1.42119 33.7361 1.46328 33.8195 1.60566C33.858 1.67148 34.7707 3.24337 35.3935 5.50169C35.4579 5.73489 35.6365 5.92239 35.8712 6.00286C36.1057 6.08333 36.3662 6.04661 36.5673 5.90452C38.3521 4.64406 42.0289 2.59688 46.5994 3.0502C46.7338 3.06348 46.8411 3.16768 46.8549 3.29806C47.3218 7.73129 45.2118 11.2979 43.9124 13.0294C43.7659 13.2246 43.728 13.4771 43.811 13.7048C43.8939 13.9323 44.0872 14.1056 44.3276 14.168C46.6507 14.7707 48.2763 15.6575 48.3447 15.6952C48.4901 15.7751 48.5341 15.9607 48.4375 16.0949C45.9063 19.6178 41.574 22.642 38.385 24.5586C38.1028 24.7282 37.9679 25.0567 38.0526 25.3682C38.1374 25.6796 38.4218 25.9008 38.7535 25.9132C43.0448 26.0741 46.6367 27.7098 46.7875 27.7792C46.9108 27.8361 46.9758 27.9705 46.942 28.0987C46.4869 29.8244 45.2667 31.3672 44.3231 32.3577C44.1763 32.5118 44.1048 32.7196 44.1265 32.9285C44.1589 33.2394 44.2975 33.3429 44.6062 33.5732C44.8109 33.726 45.0903 33.9345 45.4631 34.2962C48.0536 36.8089 48.4086 40.3314 48.4224 40.4798C48.4321 40.5845 48.381 40.6842 48.289 40.7399C45.5504 42.4003 42.5333 42.2991 40.4848 41.9216C39.9803 41.8282 39.5275 42.2426 39.5954 42.7377C39.895 44.9222 39.5004 46.7399 39.4835 46.8163C39.4501 46.9671 39.2944 47.0644 39.1362 47.0276C38.0839 46.7793 37.0143 46.4131 35.9569 45.9394C35.5781 45.77 35.1295 45.93 34.9547 46.2973C34.7799 46.6646 34.9451 47.0999 35.3237 47.2695C36.4697 47.7827 37.6322 48.1802 38.7795 48.451C39.7604 48.682 40.7474 48.0819 40.9598 47.1246C40.9764 47.0498 41.313 45.5 41.1881 43.5083C43.2109 43.7432 46.2771 43.6871 49.0893 41.9822C49.6666 41.6322 49.9875 41.0063 49.9264 40.3484C49.6969 37.8718 48.2882 34.6828 45.972 32.7579ZM28.5026 4.91447C28.1827 4.65519 27.7065 4.6966 27.4391 5.00686C26.476 6.12484 25.5211 7.36459 24.5869 8.70903C24.0637 5.25237 22.79 2.61807 22.7256 2.48633C22.3577 1.73564 21.4883 1.34023 20.6578 1.54609C18.9124 1.97929 17.3619 2.98614 16.2292 3.90685C14.2291 1.64179 10.9292 0.290414 8.40362 0.0703931C7.72597 0.0114082 7.08034 0.322153 6.71931 0.882216C4.96161 3.61026 4.90392 6.58431 5.14604 8.54663C3.08923 8.42485 1.49452 8.752 1.41861 8.76802C0.431883 8.97369 -0.187879 9.93112 0.0506228 10.8834C0.544398 12.8524 1.15524 13.9676 1.40087 14.416L1.40087 14.416C1.44596 14.4983 1.47874 14.5581 1.49623 14.5967C1.6854 14.9578 2.14046 15.1008 2.51155 14.9178C2.88335 14.7346 3.03154 14.2936 2.84267 13.9329C2.82785 13.8988 2.79714 13.8428 2.75381 13.7636C2.52939 13.3538 1.96642 12.3256 1.51818 10.5373C1.48063 10.3878 1.57607 10.2335 1.73685 10.2C1.81527 10.1835 3.68382 9.80045 5.94048 10.0917C6.4503 10.1571 6.87798 9.71949 6.78193 9.22886C6.39292 7.24174 6.28842 4.31525 8.00011 1.65869C8.0575 1.56953 8.15948 1.51933 8.26851 1.52939C10.6874 1.73945 13.7931 3.06983 15.5162 5.39514C15.781 5.75227 16.3087 5.80403 16.642 5.50549C17.6627 4.59025 19.253 3.40675 21.0322 2.96514C21.1644 2.93243 21.3031 2.99542 21.3617 3.11485C21.4333 3.26134 23.1198 6.74994 23.2855 10.9082C23.3141 11.6279 24.2907 11.8784 24.6819 11.2656C25.9502 9.28013 27.2677 7.49037 28.5979 5.94602C28.8652 5.63577 28.8226 5.17395 28.5026 4.91447ZM30.2346 31.6793C34.6463 33.0118 37.8914 34.6575 38.1304 34.7801C38.8244 35.1364 38.5615 36.1602 37.7761 36.16C37.6571 36.16 37.5365 36.1327 37.4241 36.075C37.3482 36.0361 31.6894 33.1701 25.1857 31.9639L26.2746 33.8924C26.552 34.3836 26.18 34.9769 25.6131 34.9769C25.3462 34.9769 25.0873 34.8394 24.9501 34.5962L23.3801 31.8154C23.3534 31.768 23.333 31.7189 23.3179 31.6691C20.8828 31.3561 19.4054 31.4372 18.6734 31.4773C18.4325 31.4905 18.2723 31.4993 18.1854 31.4882C17.8056 31.8614 17.4244 32.2388 17.0416 32.6212C17.3732 33.313 18.3825 35.5521 18.9413 38.2681C19.0345 38.7199 18.6787 39.1441 18.2002 39.1441C17.8475 39.1441 17.5322 38.9033 17.4605 38.5549C17.0383 36.5029 16.3261 34.7075 15.9104 33.7622C14.6805 35.0126 13.446 36.3042 12.2285 37.6248C12.5631 40.9491 12.7235 42.9233 12.8193 44.1025C12.9603 45.8377 12.9614 45.8515 13.1722 45.9128C13.2844 45.9451 13.4051 45.9089 13.4783 45.8197C13.6665 45.5952 18.0566 40.5171 25.8016 45.1217C25.8855 45.1714 25.9882 45.1764 26.0765 45.1347C26.2318 45.0613 26.2329 45.0511 26.3371 44.0821C26.4054 43.4469 26.5181 42.3998 26.7475 40.653C26.8216 40.0363 27.6064 39.7839 28.0458 40.2341C29.5186 41.7425 31.1892 43.1497 32.9776 44.3081C33.3244 44.5328 33.4179 44.9876 33.1864 45.3236C32.955 45.66 32.486 45.7507 32.1391 45.526C30.7397 44.6195 29.3721 43.5468 28.0664 42.3316L27.7355 45.0864C27.5838 46.3514 26.13 47.0348 25.0125 46.3703C18.3817 42.4279 14.8043 46.5597 14.6553 46.7374C13.6585 47.9533 11.6096 47.3731 11.4652 45.8014L10.8517 39.1388C6.02048 44.5305 4.14365 47.3249 3.20719 48.7191C2.53402 49.7214 2.3468 50.0001 1.89737 50.0001C1.30681 50.0001 0.936722 49.3601 1.26432 48.8695C3.69686 45.2253 6.70295 41.5234 9.87747 37.9932L2.78161 37.3785C1.16727 37.2384 0.539555 35.2234 1.85378 34.2524C2.07809 34.0575 2.9727 33.2199 3.51947 31.8196C4.39797 29.5695 3.95248 27.0185 2.19517 24.2374C1.51027 23.1535 2.2143 21.7437 3.51876 21.596L6.35874 21.2751C5.21959 20.1232 4.19893 18.9181 3.31922 17.6858C3.08173 17.3531 3.1673 16.8969 3.51011 16.6666C3.85301 16.4363 4.32357 16.5192 4.56086 16.8517C5.70857 18.4596 7.07455 19.9662 8.52136 21.2949C8.98639 21.7219 8.72463 22.4827 8.08966 22.5544C6.3169 22.7735 5.24398 22.8805 4.5865 22.9461C3.58727 23.0458 3.54762 23.0497 3.46923 23.2057C3.42644 23.2912 3.43148 23.3907 3.48282 23.4718C5.49695 26.6595 5.98452 29.6427 4.93185 32.3386C4.36324 33.7947 3.29083 35.0494 2.77366 35.4146C2.62637 35.518 2.61499 35.7184 2.73681 35.8369C2.74758 35.8474 2.75509 35.8564 2.76352 35.8644C2.86657 35.9622 3.10837 35.9137 11.1201 36.6301C12.3053 35.3451 13.5056 34.088 14.7021 32.8693C13.6619 32.4638 12.0531 31.9112 10.252 31.5625C9.84294 31.4834 9.57766 31.0976 9.65931 30.7009C9.74105 30.3042 10.1386 30.0464 10.5476 30.126C12.8365 30.5691 14.7966 31.3043 15.8257 31.7336C16.4117 31.1469 16.9946 30.5715 17.5728 30.0067C17.6269 28.6433 17.5382 27.2529 17.3507 25.8797C17.3375 25.876 17.3264 25.8729 17.3153 25.8694C17.1924 25.8309 17.0826 25.7506 14.3332 24.2974C13.9674 24.1031 13.8333 23.6579 14.0336 23.3031C14.2341 22.9483 14.6929 22.8181 15.0587 23.0124L17.047 24.0688C15.8036 17.7601 12.8486 12.271 12.8085 12.1973C12.6136 11.8396 12.7546 11.3965 13.1232 11.2075C13.4921 11.0185 13.9486 11.155 14.1436 11.5125C14.2701 11.7444 15.9664 14.8925 17.3399 19.1719L18.9722 17.2783C19.2396 16.9679 19.7158 16.9268 20.0358 17.1862C20.3556 17.4457 20.3982 17.9077 20.1307 18.2181L17.8476 20.8668C18.5118 23.2604 19.018 25.9048 19.0905 28.5393C20.6824 27.0156 22.2799 25.5325 23.8899 24.0782L23.5838 20.5865C23.5485 20.1834 23.8567 19.8289 24.2722 19.7946C24.6862 19.7609 25.0532 20.0593 25.0885 20.4624L25.295 22.8186C27.6742 20.7021 29.8716 18.8284 31.7188 17.2898C31.7126 17.2732 31.7075 17.2596 31.7031 17.2457C31.6619 17.1181 31.675 16.973 31.4526 14.3464C31.4198 13.9431 31.7302 13.5904 32.1459 13.5587C32.5614 13.5259 32.9254 13.828 32.9581 14.2312L33.113 16.1369C35.67 14.038 37.2785 12.8034 37.3096 12.7796C37.637 12.529 38.1119 12.5832 38.3701 12.9007C38.6286 13.2184 38.5726 13.679 38.2453 13.9296C38.1977 13.9661 34.4402 16.8503 29.2434 21.3337L32.2892 21.4714C32.7058 21.4903 33.0278 21.833 33.0084 22.2371C32.9896 22.6296 32.6556 22.9355 32.2548 22.9355C32.2532 22.9355 32.2522 22.9355 32.2511 22.9355C32.2303 22.9358 32.2094 22.9339 27.6409 22.7278C24.8035 25.2166 22.1967 27.6125 19.7432 29.9733C22.7321 29.9523 25.7671 30.4766 28.4875 31.1868L31.2176 28.9725C31.5374 28.7132 32.0136 28.7544 32.2812 29.0646C32.5488 29.375 32.5063 29.8369 32.1863 30.0964L30.2346 31.6793Z" fill="white"/>
</svg>
