<svg width="43" height="43" viewBox="0 0 43 43" fill="none" xmlns="http://www.w3.org/2000/svg">
<path d="M33.7617 13.9414C33.2981 13.9414 32.9219 14.3177 32.9219 14.7812C32.9219 15.2448 33.2981 15.6211 33.7617 15.6211C34.2253 15.6211 34.6016 15.2448 34.6016 14.7812C34.6016 14.3177 34.2253 13.9414 33.7617 13.9414Z" fill="white"/>
<path d="M40.4805 10.582H31.2573L28.5945 5.25633C28.1647 4.39709 27.3012 3.86328 26.3409 3.86328H16.6591C15.6986 3.86328 14.8351 4.39709 14.4055 5.25641L11.7427 10.582H10.0781V9.74219C10.0781 8.35292 8.94786 7.22266 7.55859 7.22266H5.87891C4.48964 7.22266 3.35938 8.35292 3.35938 9.74219V10.582H2.51953C1.13026 10.582 0 11.7123 0 13.1016C0 15.3838 0 35.7294 0 36.6172C0 38.0065 1.13026 39.1367 2.51953 39.1367H40.4805C41.8697 39.1367 43 38.0065 43 36.6172C43 34.3349 43 13.9894 43 13.1016C43 11.7123 41.8697 10.582 40.4805 10.582ZM15.9079 6.00757C16.0512 5.72102 16.339 5.54297 16.6591 5.54297H26.3409C26.661 5.54297 26.9489 5.72102 27.0922 6.00757L29.3794 10.582H13.6206L15.9079 6.00757ZM5.03906 9.74219C5.03906 9.2791 5.41582 8.90234 5.87891 8.90234H7.55859C8.02168 8.90234 8.39844 9.2791 8.39844 9.74219V10.582H5.03906V9.74219ZM1.67969 18.9721H12.2996C11.1834 20.7157 10.582 22.7591 10.582 24.8594C10.582 26.9598 11.1835 28.995 12.2995 30.7383H1.67969V18.9721ZM21.5 15.6211C26.5502 15.6211 30.7383 19.7127 30.7383 24.8594C30.7383 30.0002 26.5561 34.0977 21.5 34.0977C16.4394 34.0977 12.2617 29.9957 12.2617 24.8594C12.2617 19.7191 16.4433 15.6211 21.5 15.6211ZM41.3203 36.6172C41.3203 37.0803 40.9436 37.457 40.4805 37.457H2.51953C2.05644 37.457 1.67969 37.0803 1.67969 36.6172V32.418H13.6244C15.6766 34.5572 18.5249 35.7773 21.5 35.7773C24.4757 35.7773 27.3241 34.5569 29.3756 32.418H41.3203V36.6172ZM41.3203 30.7383H30.7004C31.8166 28.9947 32.418 26.9597 32.418 24.8594C32.418 22.759 31.8166 20.7241 30.7004 18.9805H41.3203V30.7383ZM41.3203 17.3008H29.3755C27.3235 15.1615 24.4752 13.9414 21.5 13.9414C18.5244 13.9414 15.6759 15.1619 13.6244 17.3008H1.67969V13.1016C1.67969 12.6385 2.05644 12.2617 2.51953 12.2617C3.28219 12.2617 39.2998 12.2617 40.4805 12.2617C40.9436 12.2617 41.3203 12.6385 41.3203 13.1016V17.3008Z" fill="white"/>
<path d="M24.0195 7.22266H18.9805C18.5166 7.22266 18.1406 7.59865 18.1406 8.0625C18.1406 8.52635 18.5166 8.90234 18.9805 8.90234H24.0195C24.4833 8.90234 24.8594 8.52635 24.8594 8.0625C24.8594 7.59865 24.4833 7.22266 24.0195 7.22266Z" fill="white"/>
<path d="M21.5 17.3008C17.3322 17.3008 13.9414 20.6916 13.9414 24.8594C13.9414 29.0272 17.3322 32.418 21.5 32.418C25.6678 32.418 29.0586 29.0272 29.0586 24.8594C29.0586 20.6916 25.6678 17.3008 21.5 17.3008ZM21.5 30.7383C18.2584 30.7383 15.6211 28.101 15.6211 24.8594C15.6211 21.6177 18.2584 18.9805 21.5 18.9805C24.7416 18.9805 27.3789 21.6177 27.3789 24.8594C27.3789 28.101 24.7416 30.7383 21.5 30.7383Z" fill="white"/>
<path d="M21.5 20.6602C19.1846 20.6602 17.3008 22.5439 17.3008 24.8594C17.3008 25.3232 17.6768 25.6992 18.1406 25.6992C18.6045 25.6992 18.9805 25.3232 18.9805 24.8594C18.9805 23.4701 20.1107 22.3398 21.5 22.3398C21.9638 22.3398 22.3398 21.9638 22.3398 21.5C22.3398 21.0362 21.9638 20.6602 21.5 20.6602Z" fill="white"/>
<path d="M38.8008 13.9414H37.1211C36.6573 13.9414 36.2812 14.3174 36.2812 14.7812C36.2812 15.2451 36.6573 15.6211 37.1211 15.6211H38.8008C39.2645 15.6211 39.6406 15.2451 39.6406 14.7812C39.6406 14.3174 39.2645 13.9414 38.8008 13.9414Z" fill="white"/>
</svg>
