<svg width="33" height="43" viewBox="0 0 33 43" fill="none" xmlns="http://www.w3.org/2000/svg">
<path d="M30.824 24.4656C30.7251 16.9212 28.8266 11.3341 25.1716 7.8647C24.0957 6.84035 22.8535 6.00644 21.498 5.39865C21.508 5.27037 21.5166 5.14208 21.5166 5.01667C21.5166 2.24604 19.2706 0 16.4999 0C13.7293 0 11.4833 2.24604 11.4833 5.01667C11.4833 5.14208 11.4919 5.27037 11.5012 5.39865C10.1459 6.00651 8.90392 6.84041 7.82827 7.8647C4.17327 11.3341 2.27553 16.9212 2.17664 24.4656C0.909799 24.7878 0.0213655 25.9262 0.0166016 27.2333V30.1C0.0166016 31.6832 1.30005 32.9667 2.88327 32.9667H4.3166V35.905C2.51421 36.2729 1.28319 37.9459 1.46808 39.7761C1.65297 41.6063 3.19371 42.9993 5.03327 42.9993C6.87283 42.9993 8.41356 41.6063 8.59846 39.7761C8.78335 37.9459 7.55233 36.2729 5.74994 35.905V32.9667H27.2499V35.905C25.4475 36.2729 24.2165 37.9459 24.4014 39.7761C24.5863 41.6063 26.127 42.9993 27.9666 42.9993C29.8062 42.9993 31.3469 41.6063 31.5318 39.7761C31.7167 37.9459 30.4857 36.2729 28.6833 35.905V32.9667H30.1166C31.6998 32.9667 32.9833 31.6832 32.9833 30.1V27.2333C32.9786 25.9264 32.0905 24.7881 30.824 24.4656ZM7.18327 39.4167C7.18327 40.6041 6.22068 41.5667 5.03327 41.5667C3.84586 41.5667 2.88327 40.6041 2.88327 39.4167C2.88327 38.2293 3.84586 37.2667 5.03327 37.2667C6.22068 37.2667 7.18327 38.2293 7.18327 39.4167ZM30.1166 39.4167C30.1166 40.6041 29.154 41.5667 27.9666 41.5667C26.7792 41.5667 25.8166 40.6041 25.8166 39.4167C25.8166 38.2293 26.7792 37.2667 27.9666 37.2667C29.154 37.2667 30.1166 38.2293 30.1166 39.4167ZM16.4999 1.43333C18.4126 1.43988 19.983 2.94746 20.0675 4.85828C17.7475 4.11295 15.2524 4.11295 12.9324 4.85828C13.0169 2.94746 14.5873 1.43988 16.4999 1.43333ZM8.79147 8.9268C10.8556 6.93535 13.5944 5.79507 16.462 5.73333H16.5379C19.3965 5.78534 22.1292 6.91877 24.1855 8.9053C27.5323 12.0816 29.2788 17.2846 29.3892 24.3674H3.61068C3.72105 17.3011 5.46327 12.1045 8.79147 8.9268ZM31.5499 30.1C31.5499 30.8916 30.9082 31.5333 30.1166 31.5333H2.88327C2.09166 31.5333 1.44993 30.8916 1.44993 30.1V27.2333C1.44993 26.4417 2.09166 25.8 2.88327 25.8H30.1166C30.9082 25.8 31.5499 26.4417 31.5499 27.2333V30.1Z" fill="white"/>
<path d="M5.95983 19.8566C6.23969 20.1364 6.69334 20.1364 6.9732 19.8566L7.89985 18.93L8.8265 19.8566C9.1077 20.1282 9.55469 20.1243 9.83113 19.8479C10.1076 19.5714 10.1115 19.1244 9.83986 18.8432L8.91321 17.9166L9.83986 16.9899C10.1115 16.7087 10.1076 16.2617 9.83113 15.9853C9.55469 15.7089 9.1077 15.705 8.8265 15.9766L7.89985 16.9032L6.9732 15.9766C6.69199 15.705 6.245 15.7089 5.96856 15.9853C5.69212 16.2617 5.68823 16.7087 5.95983 16.9899L6.88648 17.9166L5.95983 18.8432C5.68006 19.1231 5.68006 19.5767 5.95983 19.8566Z" fill="white"/>
<path d="M15.5734 15.9764C15.2936 15.6967 14.8399 15.6967 14.5601 15.9764L13.6334 16.9031L12.7068 15.9764C12.4256 15.7048 11.9786 15.7087 11.7021 15.9852C11.4257 16.2616 11.4218 16.7086 11.6934 16.9898L12.6201 17.9164L11.6934 18.8431C11.5071 19.023 11.4324 19.2895 11.498 19.5401C11.5636 19.7906 11.7593 19.9863 12.0098 20.0519C12.2604 20.1175 12.5268 20.0428 12.7068 19.8565L13.6334 18.9298L14.5601 19.8565C14.8413 20.1281 15.2883 20.1242 15.5647 19.8477C15.8412 19.5713 15.845 19.1243 15.5734 18.8431L14.6468 17.9164L15.5734 16.9898C15.8532 16.7099 15.8532 16.2563 15.5734 15.9764Z" fill="white"/>
<path d="M14.5599 11.257C14.8398 11.5368 15.2934 11.5368 15.5733 11.257L16.4999 10.3303L17.4266 11.257C17.7078 11.5286 18.1548 11.5247 18.4312 11.2483C18.7077 10.9718 18.7116 10.5248 18.44 10.2436L17.5133 9.31697L18.44 8.39032C18.7116 8.10912 18.7077 7.66213 18.4312 7.38569C18.1548 7.10925 17.7078 7.10536 17.4266 7.37696L16.4999 8.30361L15.5733 7.37696C15.2921 7.10536 14.8451 7.10925 14.5687 7.38569C14.2922 7.66213 14.2883 8.10912 14.5599 8.39032L15.4866 9.31697L14.5599 10.2436C14.2802 10.5235 14.2802 10.9771 14.5599 11.257Z" fill="white"/>
<path d="M21.3068 15.9764C21.027 15.6967 20.5733 15.6967 20.2935 15.9764L19.3668 16.9031L18.4402 15.9764C18.159 15.7048 17.712 15.7087 17.4355 15.9852C17.1591 16.2616 17.1552 16.7086 17.4268 16.9898L18.3535 17.9164L17.4268 18.8431C17.2405 19.023 17.1658 19.2895 17.2314 19.5401C17.297 19.7906 17.4927 19.9863 17.7432 20.0519C17.9938 20.1175 18.2602 20.0428 18.4402 19.8565L19.3668 18.9298L20.2935 19.8565C20.5747 20.1281 21.0217 20.1242 21.2981 19.8477C21.5746 19.5713 21.5784 19.1243 21.3068 18.8431L20.3802 17.9164L21.3068 16.9898C21.5866 16.7099 21.5866 16.2563 21.3068 15.9764Z" fill="white"/>
<path d="M24.1731 15.9766C23.8919 15.705 23.4449 15.7089 23.1685 15.9853C22.892 16.2617 22.8881 16.7087 23.1597 16.9899L24.0864 17.9166L23.1597 18.8432C22.9734 19.0232 22.8987 19.2896 22.9643 19.5402C23.0299 19.7908 23.2256 19.9864 23.4761 20.052C23.7267 20.1176 23.9932 20.0429 24.1731 19.8566L25.0997 18.93L26.0264 19.8566C26.3076 20.1282 26.7546 20.1243 27.031 19.8479C27.3075 19.5714 27.3114 19.1244 27.0398 18.8432L26.1131 17.9166L27.0398 16.9899C27.3114 16.7087 27.3075 16.2617 27.031 15.9853C26.7546 15.7089 26.3076 15.705 26.0264 15.9766L25.0997 16.9032L24.1731 15.9766Z" fill="white"/>
<path d="M7.89977 14.3337H25.0998C25.4956 14.3337 25.8164 14.0129 25.8164 13.6171C25.8164 13.2213 25.4956 12.9004 25.0998 12.9004H7.89977C7.50397 12.9004 7.18311 13.2213 7.18311 13.6171C7.18311 14.0129 7.50397 14.3337 7.89977 14.3337Z" fill="white"/>
<path d="M5.74987 22.9333H27.2499C27.6457 22.9333 27.9665 22.6125 27.9665 22.2167C27.9665 21.8209 27.6457 21.5 27.2499 21.5H5.74987C5.35407 21.5 5.0332 21.8209 5.0332 22.2167C5.0332 22.6125 5.35407 22.9333 5.74987 22.9333Z" fill="white"/>
<path d="M3.59997 27.2334C3.20416 27.2334 2.8833 27.5543 2.8833 27.9501V29.1512C2.8833 29.547 3.20416 29.8679 3.59997 29.8679C3.99577 29.8679 4.31664 29.547 4.31664 29.1512V27.9501C4.31664 27.5543 3.99577 27.2334 3.59997 27.2334Z" fill="white"/>
<path d="M7.89977 27.2334C7.50397 27.2334 7.18311 27.5543 7.18311 27.9501V29.1512C7.18311 29.547 7.50397 29.8679 7.89977 29.8679C8.29558 29.8679 8.61644 29.547 8.61644 29.1512V27.9501C8.61644 27.5543 8.29558 27.2334 7.89977 27.2334Z" fill="white"/>
<path d="M12.2001 27.2334C11.8043 27.2334 11.4834 27.5543 11.4834 27.9501V29.1512C11.4834 29.547 11.8043 29.8679 12.2001 29.8679C12.5959 29.8679 12.9167 29.547 12.9167 29.1512V27.9501C12.9167 27.5543 12.5959 27.2334 12.2001 27.2334Z" fill="white"/>
<path d="M16.4999 27.2334C16.1041 27.2334 15.7832 27.5543 15.7832 27.9501V29.1512C15.7832 29.547 16.1041 29.8679 16.4999 29.8679C16.8957 29.8679 17.2165 29.547 17.2165 29.1512V27.9501C17.2165 27.5543 16.8957 27.2334 16.4999 27.2334Z" fill="white"/>
<path d="M20.8002 27.2334C20.4044 27.2334 20.0835 27.5543 20.0835 27.9501V29.1512C20.0835 29.547 20.4044 29.8679 20.8002 29.8679C21.196 29.8679 21.5168 29.547 21.5168 29.1512V27.9501C21.5168 27.5543 21.196 27.2334 20.8002 27.2334Z" fill="white"/>
<path d="M25.1 27.2334C24.7042 27.2334 24.3833 27.5543 24.3833 27.9501V29.1512C24.3833 29.547 24.7042 29.8679 25.1 29.8679C25.4958 29.8679 25.8166 29.547 25.8166 29.1512V27.9501C25.8166 27.5543 25.4958 27.2334 25.1 27.2334Z" fill="white"/>
<path d="M29.3998 27.2334C29.004 27.2334 28.6831 27.5543 28.6831 27.9501V29.1512C28.6831 29.547 29.004 29.8679 29.3998 29.8679C29.7956 29.8679 30.1164 29.547 30.1164 29.1512V27.9501C30.1164 27.5543 29.7956 27.2334 29.3998 27.2334Z" fill="white"/>
</svg>
