<svg width="43" height="43" viewBox="0 0 43 43" fill="none" xmlns="http://www.w3.org/2000/svg">
<path d="M40.0181 8.06249H38.3383V7.43252C38.3383 6.15907 37.3022 5.12296 36.0287 5.12296H33.9291C32.6557 5.12296 31.6196 6.15899 31.6196 7.43252V8.06249H30.0107V5.70556C30.0107 4.2266 28.8074 3.02344 27.3284 3.02344H15.4975C14.0186 3.02344 12.8154 4.22668 12.8154 5.70556V8.06249H11.3804V7.43252C11.3804 6.15907 10.3443 5.12296 9.0708 5.12296H6.97119C5.69774 5.12296 4.66163 6.15899 4.66163 7.43252V8.06249H2.98194C1.3377 8.06249 0 9.40019 0 11.0444V36.9945C0 38.6387 1.3377 39.9764 2.98194 39.9764H40.0181C41.6623 39.9764 43 38.6387 43 36.9944V11.0444C43 9.40019 41.6623 8.06249 40.0181 8.06249ZM33.2992 7.43252C33.2992 7.08525 33.5818 6.80273 33.9291 6.80273H36.0287C36.3761 6.80273 36.6586 7.08525 36.6586 7.43252V8.06249H33.2992V7.43252ZM14.4951 5.70556C14.4951 5.15277 14.9447 4.70312 15.4975 4.70312H27.3284C27.8812 4.70312 28.331 5.15277 28.331 5.70556V8.06249H14.4951V5.70556ZM6.34131 7.43252C6.34131 7.08525 6.62384 6.80273 6.97119 6.80273H9.0708C9.41816 6.80273 9.70068 7.08525 9.70068 7.43252V8.06249H6.34131V7.43252ZM41.3203 36.9945C41.3203 37.7126 40.7361 38.2968 40.0181 38.2968H2.98194C2.26388 38.2967 1.67968 37.7125 1.67968 36.9945V11.0444C1.67968 10.3264 2.26388 9.74217 2.98194 9.74217H40.0181C40.7361 9.74217 41.3203 10.3264 41.3203 11.0444V36.9945Z" fill="white"/>
<path d="M29.98 20.0002H25.5199V15.54C25.5199 15.0762 25.1438 14.7002 24.6801 14.7002H18.32C17.8562 14.7002 17.4802 15.0762 17.4802 15.54V20.0002H13.02C12.5563 20.0002 12.1802 20.3762 12.1802 20.84V27.2001C12.1802 27.6639 12.5563 28.0399 13.02 28.0399H17.4802V32.5001C17.4802 32.9639 17.8562 33.3399 18.32 33.3399H24.6801C25.1438 33.3399 25.5199 32.9639 25.5199 32.5001V28.0399H29.98C30.4437 28.0399 30.8198 27.6639 30.8198 27.2001V20.84C30.8198 20.3762 30.4437 20.0002 29.98 20.0002ZM29.1401 26.3602H24.6801C24.2163 26.3602 23.8402 26.7362 23.8402 27.2001V31.6602H19.1599V27.2001C19.1599 26.7362 18.7838 26.3602 18.32 26.3602H13.8599V21.6799H18.32C18.7838 21.6799 19.1599 21.3039 19.1599 20.84V16.3799H23.8402V20.84C23.8402 21.3039 24.2163 21.6799 24.6801 21.6799H29.1401V26.3602Z" fill="white"/>
<path d="M11.8417 11.002H11.8145C11.3507 11.002 10.9746 11.378 10.9746 11.8418C10.9746 12.3056 11.3507 12.6816 11.8145 12.6816H11.8417C12.3056 12.6816 12.6816 12.3056 12.6816 11.8418C12.6816 11.378 12.3056 11.002 11.8417 11.002Z" fill="white"/>
<path d="M9.31822 11.002H3.7793C3.31553 11.002 2.93945 11.378 2.93945 11.8418C2.93945 12.3056 3.31553 12.6816 3.7793 12.6816H9.31822C9.78198 12.6816 10.1581 12.3056 10.1581 11.8418C10.1581 11.378 9.78207 11.002 9.31822 11.002Z" fill="white"/>
<path d="M39.2206 35.3574H33.6816C33.2179 35.3574 32.8418 35.7334 32.8418 36.1973C32.8418 36.6611 33.2179 37.0371 33.6816 37.0371H39.2206C39.6843 37.0371 40.0604 36.6611 40.0604 36.1973C40.0604 35.7334 39.6843 35.3574 39.2206 35.3574Z" fill="white"/>
<path d="M31.1854 35.3574H31.1582C30.6944 35.3574 30.3184 35.7334 30.3184 36.1973C30.3184 36.6611 30.6944 37.0371 31.1582 37.0371H31.1854C31.6492 37.0371 32.0253 36.6611 32.0253 36.1973C32.0253 35.7334 31.6493 35.3574 31.1854 35.3574Z" fill="white"/>
</svg>
