<svg width="28" height="28" viewBox="0 0 28 28" fill="none" xmlns="http://www.w3.org/2000/svg">
<path d="M20.4206 0H7.57933C3.40002 0 0 3.40002 0 7.57933V20.4208C0 24.5999 3.40002 27.9999 7.57933 27.9999H20.4208C24.5999 27.9999 27.9999 24.5999 27.9999 20.4208V7.57933C27.9999 3.40002 24.5999 0 20.4206 0V0ZM26.3585 20.4208C26.3585 23.6948 23.6948 26.3585 20.4206 26.3585H7.57933C4.30514 26.3585 1.64148 23.6948 1.64148 20.4208V7.57933C1.64148 4.30514 4.30514 1.64148 7.57933 1.64148H20.4208C23.6948 1.64148 26.3585 4.30514 26.3585 7.57933V20.4208Z" fill="white" fill-opacity="0.9"/>
<path d="M14 6.34393C9.77841 6.34393 6.34399 9.77834 6.34399 14C6.34399 18.2216 9.77841 21.656 14 21.656C18.2216 21.656 21.656 18.2216 21.656 14C21.656 9.77834 18.2216 6.34393 14 6.34393ZM14 20.0145C10.6837 20.0145 7.98547 17.3164 7.98547 14C7.98547 10.6837 10.6837 7.98541 14 7.98541C17.3165 7.98541 20.0146 10.6837 20.0146 14C20.0146 17.3164 17.3165 20.0145 14 20.0145Z" fill="white" fill-opacity="0.9"/>
<path d="M21.8392 3.62494C20.5916 3.62494 19.5769 4.63986 19.5769 5.8872C19.5769 7.13476 20.5916 8.14968 21.8392 8.14968C23.0867 8.14968 24.1016 7.13476 24.1016 5.8872C24.1016 4.63965 23.0867 3.62494 21.8392 3.62494ZM21.8392 6.50799C21.4969 6.50799 21.2184 6.22943 21.2184 5.8872C21.2184 5.54477 21.4969 5.26642 21.8392 5.26642C22.1816 5.26642 22.4602 5.54477 22.4602 5.8872C22.4602 6.22943 22.1816 6.50799 21.8392 6.50799Z" fill="white" fill-opacity="0.9"/>
</svg>
