<svg width="32" height="32" viewBox="0 0 32 32" fill="none" xmlns="http://www.w3.org/2000/svg">
<path d="M25.9089 22.1953C25.782 22.1953 25.6551 22.1489 25.556 22.055L19.6187 16.485C19.4113 16.291 19.401 15.9639 19.596 15.7565C19.791 15.547 20.116 15.5377 20.3255 15.7338L26.2628 21.3038C26.4702 21.4978 26.4806 21.8249 26.2855 22.0323C26.1834 22.1406 26.0472 22.1953 25.9089 22.1953Z" fill="white"/>
<path d="M6.09005 22.1953C5.95281 22.1953 5.81558 22.1406 5.71342 22.0322C5.5184 21.8248 5.52872 21.4977 5.73612 21.3037L11.6755 15.7338C11.8839 15.5398 12.211 15.548 12.405 15.7565C12.6 15.9639 12.5897 16.291 12.3823 16.485L6.44295 22.0549C6.34389 22.1488 6.21697 22.1953 6.09005 22.1953Z" fill="white"/>
<path d="M29.4204 27.3742H2.57965C1.15775 27.3742 0 26.2175 0 24.7946V7.20446C0 5.78153 1.15775 4.62482 2.57965 4.62482H29.4204C30.8423 4.62482 32 5.78153 32 7.20446V24.7946C32 26.2175 30.8423 27.3742 29.4204 27.3742ZM2.57965 5.65668C1.7263 5.65668 1.03186 6.35112 1.03186 7.20446V24.7946C1.03186 25.6479 1.7263 26.3423 2.57965 26.3423H29.4204C30.2737 26.3423 30.9681 25.6479 30.9681 24.7946V7.20446C30.9681 6.35112 30.2737 5.65668 29.4204 5.65668H2.57965Z" fill="white"/>
<path d="M15.9999 18.592C15.3137 18.592 14.6276 18.364 14.1054 17.9089L0.856376 6.35109C0.64175 6.16432 0.619049 5.83825 0.805815 5.62259C0.994645 5.40797 1.31968 5.38836 1.53431 5.57307L14.7834 17.1299C15.4427 17.7046 16.5571 17.7046 17.2155 17.1299L30.448 5.59164C30.6616 5.40487 30.9867 5.42551 31.1765 5.64117C31.3633 5.85683 31.3416 6.18186 31.127 6.36966L17.8944 17.9079C17.3713 18.364 16.6861 18.592 15.9999 18.592Z" fill="white"/>
</svg>
