<svg width="43" height="43" viewBox="0 0 43 43" fill="none" xmlns="http://www.w3.org/2000/svg">
<g clip-path="url(#clip0)">
<path d="M35.5346 7.2207C35.1745 7.2207 34.8826 7.51263 34.8826 7.87267L34.8824 26.6505C34.8808 26.6608 34.8792 26.6711 34.8777 26.6814C34.8651 26.7225 34.8422 26.8043 34.8422 26.9092C34.8422 29.5306 32.6114 31.6408 29.9486 31.441C27.7266 31.2742 25.9327 29.4805 25.7659 27.2585C25.5658 24.5956 27.6759 22.3645 30.2973 22.3645C30.9357 22.3645 31.5432 22.4944 32.1538 22.7616C32.3135 22.8315 32.4948 22.8488 32.6588 22.7897C32.9242 22.6942 33.0921 22.446 33.0921 22.1753V11.237C33.0921 11.054 33.0245 10.8739 32.892 10.7476C32.6805 10.5461 32.3701 10.5119 32.1249 10.6473L23.0824 15.6445C22.7672 15.8187 22.6529 16.2153 22.8271 16.5305C23.0013 16.8456 23.398 16.9599 23.713 16.7859L31.7883 12.3233V21.256C31.2987 21.1261 30.8 21.0606 30.2975 21.0606C26.9672 21.0606 24.2782 23.8585 24.4575 27.2272C24.6153 30.1929 27.015 32.5922 29.9806 32.7496C33.3149 32.9266 36.0898 30.2932 36.1456 27.0099C36.1733 26.9354 36.187 26.8578 36.1865 26.7782V7.87267C36.1865 7.51263 35.8946 7.2207 35.5346 7.2207Z" fill="white"/>
<path d="M35.0945 0.302225C34.4303 -0.0893099 33.5986 -0.101152 32.9243 0.270983L15.2859 9.99864C14.5804 10.3881 14.1422 11.1191 14.1422 11.9062V31.4976C13.656 31.3668 13.164 31.3026 12.6557 31.3026C9.43429 31.3026 6.81348 33.9263 6.81348 37.1513C6.81348 40.3763 9.43874 42.9999 12.6655 42.9999C14.1923 42.9999 15.6381 42.4153 16.7365 41.3539C17.8235 40.3035 18.4547 38.8991 18.5165 37.3951C18.5169 37.3935 18.5171 37.3919 18.5174 37.3902C18.5265 37.3348 18.5404 37.2511 18.5404 37.1512V19.6441L20.6921 18.4549C21.0073 18.2807 21.1216 17.8841 20.9474 17.5689C20.7733 17.2538 20.3765 17.1396 20.0614 17.3136L17.5731 18.6887C17.3654 18.8035 17.2365 19.022 17.2365 19.2593V37.1426C17.2351 37.1543 17.2329 37.1657 17.2311 37.1768C17.2273 37.1996 17.2236 37.2222 17.2206 37.2445C17.2175 37.2664 17.2157 37.2884 17.2149 37.3104C17.1303 39.7696 15.132 41.6959 12.6655 41.6959C10.1577 41.6959 8.1175 39.6571 8.1175 37.1512C8.1175 34.6453 10.1533 32.6065 12.6557 32.6065C13.2982 32.6065 13.9107 32.7405 14.5283 33.0163C14.73 33.1063 14.9636 33.0883 15.1489 32.968C15.3343 32.8478 15.4461 32.6419 15.4461 32.421V11.9061C15.4461 11.5984 15.6307 11.2976 15.9159 11.1401L33.5542 1.41267C33.827 1.26208 34.1635 1.26704 34.4322 1.42535C34.7096 1.58912 34.8821 1.87785 34.8821 2.17877V4.02155C34.8821 4.38168 35.174 4.67352 35.534 4.67352C35.8941 4.67352 36.186 4.38168 36.186 4.02155V2.17877C36.1861 1.41854 35.7679 0.699471 35.0945 0.302225Z" fill="white"/>
</g>
<defs>
<clipPath id="clip0">
<rect width="43" height="43" fill="white"/>
</clipPath>
</defs>
</svg>
