<svg width="32" height="32" viewBox="0 0 32 32" fill="none" xmlns="http://www.w3.org/2000/svg">
<path d="M25.2899 19.8229C24.6348 19.1407 23.8446 18.776 23.0071 18.776C22.1764 18.776 21.3794 19.134 20.6973 19.8161L18.5631 21.9436C18.3875 21.849 18.2119 21.7612 18.043 21.6734C17.7999 21.5518 17.5703 21.437 17.3744 21.3155C15.3753 20.0457 13.5585 18.3911 11.816 16.2501C10.9718 15.183 10.4045 14.2847 9.99248 13.373C10.5463 12.8664 11.0596 12.3396 11.5594 11.8331C11.7485 11.644 11.9376 11.4481 12.1267 11.259C13.545 9.84072 13.545 8.00368 12.1267 6.58538L10.2829 4.74159C10.0735 4.53222 9.85741 4.3161 9.65479 4.09997C9.24956 3.68124 8.82407 3.24899 8.38507 2.84376C7.72995 2.1954 6.94651 1.85095 6.12255 1.85095C5.29858 1.85095 4.50163 2.1954 3.82625 2.84376C3.81949 2.85052 3.81949 2.85052 3.81274 2.85727L1.51644 5.17383C0.651952 6.03832 0.158923 7.09192 0.0508623 8.31436C-0.111229 10.2865 0.469599 12.1235 0.915351 13.3257C2.00947 16.2771 3.64389 19.0124 6.08202 21.9436C9.0402 25.4758 12.5995 28.2651 16.6653 30.2305C18.2186 30.9667 20.2921 31.8379 22.6086 31.9865C22.7504 31.9932 22.899 32 23.0341 32C24.5942 32 25.9045 31.4394 26.9311 30.3251C26.9378 30.3115 26.9513 30.3048 26.9581 30.2913C27.3093 29.8658 27.7145 29.4808 28.14 29.0688C28.4304 28.7919 28.7276 28.5015 29.018 28.1976C29.6866 27.502 30.0378 26.6915 30.0378 25.8608C30.0378 25.0233 29.6799 24.2196 28.9977 23.5442L25.2899 19.8229ZM27.7078 26.9346C27.701 26.9346 27.701 26.9414 27.7078 26.9346C27.4444 27.2183 27.1742 27.4749 26.8838 27.7586C26.4448 28.1773 25.999 28.6163 25.5803 29.1094C24.8982 29.8388 24.0945 30.1832 23.0409 30.1832C22.9396 30.1832 22.8315 30.1832 22.7302 30.1765C20.7243 30.0481 18.8602 29.2647 17.4622 28.5961C13.6395 26.7455 10.2829 24.1183 7.49357 20.7887C5.19052 18.0128 3.65065 15.4464 2.63082 12.6908C2.00272 11.0091 1.77309 9.69889 1.87439 8.46294C1.94193 7.67274 2.24585 7.01762 2.80642 6.45706L5.10947 4.154C5.44041 3.84333 5.79161 3.67448 6.13605 3.67448C6.56154 3.67448 6.90599 3.93113 7.12211 4.14725C7.12886 4.154 7.13562 4.16076 7.14237 4.16751C7.55435 4.55248 7.94608 4.95096 8.35806 5.37645C8.56743 5.59257 8.78355 5.80869 8.99967 6.03157L10.8435 7.87536C11.5594 8.59126 11.5594 9.25314 10.8435 9.96904C10.6476 10.1649 10.4585 10.3608 10.2626 10.5499C9.69532 11.1307 9.15501 11.671 8.56743 12.1978C8.55392 12.2113 8.54041 12.2181 8.53366 12.2316C7.95283 12.8124 8.06089 13.3797 8.18246 13.7647C8.18921 13.7849 8.19597 13.8052 8.20272 13.8255C8.68224 14.9871 9.35762 16.0812 10.3842 17.3847L10.391 17.3915C12.255 19.6878 14.2204 21.4775 16.3883 22.8486C16.6653 23.0242 16.9489 23.166 17.2191 23.3011C17.4622 23.4226 17.6918 23.5375 17.8877 23.659C17.9147 23.6725 17.9417 23.6928 17.9687 23.7063C18.1984 23.8211 18.4145 23.8752 18.6374 23.8752C19.1979 23.8752 19.5491 23.524 19.664 23.4091L21.9738 21.0993C22.2034 20.8697 22.5681 20.5928 22.9936 20.5928C23.4123 20.5928 23.7568 20.8562 23.9661 21.0858C23.9729 21.0926 23.9729 21.0926 23.9796 21.0993L27.701 24.8207C28.3966 25.5096 28.3966 26.2187 27.7078 26.9346Z" fill="white"/>
<path d="M17.2935 7.61195C19.063 7.90911 20.6704 8.74659 21.9536 10.0298C23.2368 11.313 24.0675 12.9204 24.3715 14.6899C24.4457 15.1357 24.8307 15.4464 25.2697 15.4464C25.3237 15.4464 25.371 15.4396 25.4251 15.4329C25.9248 15.3518 26.2558 14.8791 26.1747 14.3793C25.81 12.2383 24.7969 10.2865 23.2503 8.73983C21.7037 7.19321 19.7519 6.18014 17.6109 5.81543C17.1111 5.73438 16.6451 6.06532 16.5573 6.55835C16.4695 7.05138 16.7937 7.5309 17.2935 7.61195Z" fill="white"/>
<path d="M31.9628 14.1159C31.3617 10.5904 29.7002 7.38232 27.1473 4.82937C24.5944 2.27643 21.3863 0.61499 17.8608 0.0139004C17.3678 -0.0738993 16.9018 0.263792 16.814 0.756821C16.7329 1.2566 17.0638 1.72262 17.5636 1.81042C20.7109 2.34397 23.5813 3.83656 25.8641 6.1126C28.1469 8.39539 29.6327 11.2658 30.1663 14.413C30.2406 14.8588 30.6255 15.1695 31.0645 15.1695C31.1185 15.1695 31.1658 15.1627 31.2199 15.156C31.7129 15.0817 32.0506 14.6089 31.9628 14.1159Z" fill="white"/>
</svg>
