<svg width="43" height="43" viewBox="0 0 43 43" fill="none" xmlns="http://www.w3.org/2000/svg">
<g clip-path="url(#clip0)">
<path d="M8.75464 3.35938C9.12552 3.35938 9.42652 3.05905 9.42652 2.6875C9.42652 2.31595 9.12552 2.01562 8.75464 2.01562H8.74792C8.37705 2.01562 8.08008 2.31595 8.08008 2.6875C8.08008 3.05905 8.38377 3.35938 8.75464 3.35938Z" fill="white"/>
<path d="M10.75 3.35938H12.7656C13.1372 3.35938 13.4375 3.05905 13.4375 2.6875C13.4375 2.31595 13.1372 2.01562 12.7656 2.01562H10.75C10.3785 2.01562 10.0781 2.31595 10.0781 2.6875C10.0781 3.05905 10.3785 3.35938 10.75 3.35938Z" fill="white"/>
<path d="M8.73438 31.5723C8.73438 32.6835 9.63872 33.5879 10.75 33.5879C11.8613 33.5879 12.7656 32.6835 12.7656 31.5723C12.7656 30.461 11.8613 29.5566 10.75 29.5566C9.63872 29.5566 8.73438 30.461 8.73438 31.5723ZM10.75 30.9004C11.1209 30.9004 11.4219 31.2014 11.4219 31.5723C11.4219 31.9431 11.1209 32.2441 10.75 32.2441C10.3791 32.2441 10.0781 31.9431 10.0781 31.5723C10.0781 31.2014 10.3791 30.9004 10.75 30.9004Z" fill="white"/>
<path d="M39.6394 0.00134375H26.21C24.3576 0.00134375 22.8506 1.50836 22.8506 3.36072V7.38928V31.5808V34.2629C22.8506 36.1153 24.3576 37.6223 26.21 37.6223H30.9144V38.9688C30.9144 39.3403 31.2148 39.6406 31.5863 39.6406H32.2528V40.9844C32.2528 41.3553 31.9518 41.6562 31.5809 41.6562H12.0939C11.723 41.6562 11.422 41.3553 11.422 40.9844V39.6406H12.0939C12.4654 39.6406 12.7657 39.3403 12.7657 38.9688V37.6196H16.7957C19.3884 37.6196 21.4988 35.5093 21.4988 32.9165V4.03259C21.4988 1.81205 19.6948 0.00671875 17.4763 0.00201563C17.4729 0.00201563 17.4709 0 17.4675 0H4.03271C1.80948 0 0.00146484 1.80802 0.00146484 4.03125V32.9165C0.00146484 35.5093 2.11182 37.6196 4.70459 37.6196H8.7345V38.9688C8.7345 39.3403 9.03482 39.6406 9.40637 39.6406H10.0782V40.9844C10.0782 42.0957 10.9826 43 12.0939 43H31.5809C32.6922 43 33.5966 42.0957 33.5966 40.9844V39.6406H34.2725C34.644 39.6406 34.9443 39.3403 34.9443 38.9688V37.6223H39.6394C41.4918 37.6223 42.9988 36.1153 42.9988 34.2629V31.5808V7.38928V3.36072C42.9988 1.50836 41.4918 0.00134375 39.6394 0.00134375ZM11.422 38.2969H10.0782V36.9531H11.422V38.2969ZM20.155 28.2134H1.34521V5.37634H20.155V28.2134ZM1.34521 29.5571H10.7501H20.155V30.229C20.155 32.0814 18.648 33.5884 16.7957 33.5884H10.7501H4.70459C2.85223 33.5884 1.34521 32.0814 1.34521 30.229V29.5571ZM4.03271 1.34375H17.4608C17.4635 1.34375 17.4648 1.34509 17.4675 1.34509C18.9497 1.34509 20.155 2.55044 20.155 4.03259H1.34521V4.03125C1.34521 2.54909 2.55056 1.34375 4.03271 1.34375ZM1.4124 33.5817C2.26232 34.4155 3.424 34.9321 4.70459 34.9321H16.7957C18.0762 34.9321 19.2386 34.4155 20.0878 33.5817C19.7781 35.1162 18.4202 36.2759 16.7957 36.2759H12.7644C12.7617 35.907 12.4634 35.6094 12.0939 35.6094H9.40637C9.03684 35.6094 8.73853 35.907 8.73584 36.2759H4.70459C3.08 36.2759 1.72214 35.1169 1.4124 33.5817ZM24.1943 3.36072C24.1943 2.24944 25.0987 1.34509 26.21 1.34509H39.6394C40.7507 1.34509 41.655 2.24944 41.655 3.36072V7.38928V31.5808C41.655 32.6921 40.7507 33.5964 39.6394 33.5964H26.21C25.0987 33.5964 24.1943 32.6921 24.1943 31.5808V7.38928V3.36072ZM33.6006 38.2969H32.2582V36.9531H33.6006V38.2969ZM39.6394 36.2786H34.9437C34.9423 35.9084 34.6427 35.6094 34.2725 35.6094H31.5863C31.2161 35.6094 30.9165 35.9084 30.9151 36.2786H26.21C25.0987 36.2786 24.1943 35.3742 24.1943 34.2629V34.2508C24.7574 34.6775 25.4507 34.9395 26.21 34.9395H39.6394C40.3986 34.9395 41.092 34.6768 41.655 34.2508V34.2629C41.655 35.3742 40.7507 36.2786 39.6394 36.2786Z" fill="white"/>
<path d="M30.2548 17.5312C30.2595 17.5776 30.2682 17.6213 30.2816 17.6656C30.2951 17.7073 30.3099 17.7442 30.3293 17.7819C30.3488 17.8195 30.3717 17.8517 30.3992 17.8853C30.4288 17.9216 30.4604 17.9532 30.4973 17.9834C30.5134 17.9969 30.5235 18.0157 30.5417 18.0278C30.5645 18.0425 30.59 18.0493 30.6135 18.062C30.6364 18.0735 30.6572 18.0849 30.6821 18.0943C30.758 18.1218 30.8359 18.1406 30.9139 18.1406H30.9146H33.6901L31.6993 21.1258C31.493 21.4342 31.5763 21.8514 31.8854 22.0577C31.9996 22.1336 32.1293 22.1705 32.2576 22.1705C32.4746 22.1705 32.6883 22.0657 32.8173 21.8716L35.5048 17.8417C35.5169 17.8242 35.5182 17.8034 35.5276 17.7859C35.5491 17.7456 35.5653 17.7053 35.5787 17.6609C35.5928 17.6166 35.6015 17.5736 35.6056 17.5279C35.6076 17.5077 35.6177 17.4896 35.6177 17.4688C35.6177 17.4466 35.6069 17.4278 35.6049 17.4063C35.6002 17.3599 35.5915 17.3162 35.578 17.2719C35.5646 17.2302 35.5498 17.1933 35.5303 17.1557C35.5108 17.118 35.488 17.0858 35.4605 17.0529C35.4309 17.0159 35.3993 16.9843 35.3624 16.9548C35.3456 16.9413 35.3362 16.9225 35.318 16.9104C35.3012 16.8983 35.2804 16.897 35.2623 16.8876C35.2219 16.8661 35.181 16.8493 35.1359 16.8365C35.0923 16.8231 35.0499 16.8144 35.0056 16.8103C34.9848 16.8076 34.9673 16.7969 34.9458 16.7969H32.1703L34.161 13.8118C34.3673 13.5034 34.284 13.0861 33.9749 12.8799C33.6665 12.6736 33.248 12.7569 33.043 13.066L30.3556 17.0959C30.3435 17.1133 30.3421 17.1342 30.3327 17.1516C30.3112 17.192 30.2951 17.2323 30.2816 17.2766C30.2675 17.321 30.2588 17.364 30.2548 17.4096C30.2528 17.4298 30.2427 17.4479 30.2427 17.4688C30.2427 17.4909 30.2528 17.5097 30.2548 17.5312Z" fill="white"/>
<path d="M4.69775 20.1572H15.4491C15.8206 20.1572 16.121 19.8569 16.121 19.4854V18.8135H17.4647C17.8363 18.8135 18.1366 18.5131 18.1366 18.1416V16.126C18.1366 15.7544 17.8363 15.4541 17.4647 15.4541H16.121V14.7822C16.121 14.4107 15.8206 14.1104 15.4491 14.1104H4.69775C4.32621 14.1104 4.02588 14.4107 4.02588 14.7822V19.4854C4.02588 19.8569 4.32621 20.1572 4.69775 20.1572ZM9.40088 18.8135H8.05713V15.4541H9.40088V18.8135ZM10.7446 15.4541H12.0884V18.8135H10.7446V15.4541ZM16.7928 16.7979V17.4697H16.121V16.7979H16.7928ZM14.7772 16.126V18.1416V18.8135H13.4321V15.4541H14.7772V16.126ZM5.36963 15.4541H6.71338V18.8135H5.36963V15.4541Z" fill="white"/>
</g>
<defs>
<clipPath id="clip0">
<rect width="43" height="43" fill="white"/>
</clipPath>
</defs>
</svg>
