<svg width="50" height="50" viewBox="0 0 50 50" fill="none" xmlns="http://www.w3.org/2000/svg">
<path d="M48.6529 18.4381C48.2441 17.6557 47.5433 17.0711 46.706 16.8137C45.8352 16.5442 45.3456 15.6123 45.6123 14.7322C45.6123 14.7316 45.6126 14.7312 45.6126 14.7306C45.8718 13.8856 45.7859 12.9711 45.3735 12.1907L44.7963 11.0916C43.0979 7.84542 39.117 6.60565 35.9051 8.32251C35.8875 8.33202 35.8703 8.3412 35.8528 8.35071C35.8892 8.1543 35.9352 7.95756 35.9641 7.76082C35.9719 7.71557 35.9758 7.66999 35.9758 7.62409C35.9709 3.4149 32.5955 0.00445431 28.4306 0.000191691H28.2253C27.36 -0.00734993 26.5281 0.337268 25.9165 0.956007C25.2596 1.6118 24.2032 1.6118 23.5462 0.956007C22.933 0.335301 22.0979 -0.00931732 21.23 0.000191691H21.0247C16.8598 0.00445431 13.484 3.41555 13.4795 7.62507C13.4798 7.67065 13.4837 7.71656 13.4912 7.76148C13.497 7.79755 13.5051 7.8323 13.5116 7.86739H10.2821C7.90855 7.86444 5.72864 9.19012 4.61938 11.3106C4.20507 12.0802 4.11618 12.9862 4.37216 13.823C4.64988 14.6932 4.18204 15.6277 3.32325 15.9162C2.4797 16.1831 1.77048 16.7694 1.34449 17.5521L0.767314 18.6529C-0.140142 20.3789 -0.24818 22.422 0.472399 24.2359C1.19882 26.0754 2.69189 27.4972 4.5519 28.1202C5.48466 28.4333 6.42521 28.6943 7.37257 28.915C6.18123 29.7033 4.85363 30.6384 4.07465 31.2706C1.23743 33.58 0.789701 37.7767 3.07473 40.6441C3.30151 40.9288 3.551 41.1937 3.82061 41.437L4.74007 42.2702C5.39155 42.8601 6.24969 43.1624 7.12275 43.1096C8.02859 43.067 8.80205 43.7634 8.86434 44.6776C8.91041 45.5613 9.30591 46.3889 9.9616 46.9752L11.4407 48.3084C13.959 50.4879 17.6787 50.4672 20.1733 48.2602L20.8774 47.6109C22.4165 46.1898 23.7178 44.5264 24.731 42.6853C25.7297 44.5091 27.0128 46.158 28.5312 47.5683C29.6596 48.9658 31.3042 49.836 33.0834 49.9767C33.269 49.9918 33.4546 50 33.6392 50C35.2542 50.0023 36.8132 49.3996 38.0142 48.3084L39.4934 46.9752C40.1445 46.3702 40.5387 45.534 40.5932 44.6418C40.6656 43.7546 41.4137 43.0801 42.2942 43.1086C43.1774 43.1594 44.0452 42.8604 44.7142 42.2751L45.6343 41.4419C47.08 40.1415 47.884 38.262 47.8308 36.3064C47.7792 34.3266 46.8653 32.471 45.3342 31.2358C44.6383 30.6725 43.9103 30.1525 43.1657 29.6524C43.9628 29.4557 44.7438 29.2357 45.4942 28.9858C48.9488 27.8182 50.813 24.0412 49.6577 20.5494C49.5425 20.2015 49.3991 19.8638 49.2291 19.5395L48.6529 18.4381ZM47.9933 24.5209C47.4548 25.8866 46.3478 26.9427 44.9679 27.4077C43.7075 27.827 42.4195 28.1572 41.1136 28.3959C38.6148 27.0086 35.9294 25.9967 33.1421 25.3918L32.7976 27.0207C37.003 27.9352 40.941 29.8239 44.3012 32.5382C45.4536 33.4668 46.1414 34.8627 46.18 36.352C46.219 37.818 45.6155 39.2263 44.5312 40.2002L43.6118 41.0288C43.2594 41.3272 42.8065 41.4763 42.3478 41.4452C40.578 41.3649 39.0674 42.7256 38.9434 44.512C38.9217 44.9763 38.7231 45.4144 38.3893 45.7344L36.9108 47.0676C34.8714 48.9051 31.7444 48.7238 29.9263 46.6627C29.8721 46.6014 29.8192 46.5384 29.7683 46.4741C29.743 46.441 29.7154 46.4099 29.6859 46.381C27.9887 44.813 26.6125 42.9237 25.6349 40.8202C26.6384 38.4558 27.1708 35.9143 27.2016 33.3416L25.5525 33.3232C25.4954 38.2964 23.4008 43.0234 19.7678 46.3784L19.0637 47.0283C17.1995 48.6766 14.4207 48.692 12.5393 47.064L11.0601 45.7308C10.7325 45.4373 10.5349 45.0235 10.5118 44.5818C10.4019 42.7463 8.8465 41.3452 7.02964 41.4452C6.59359 41.4727 6.16436 41.3229 5.8383 41.0284L4.91981 40.2002C2.88039 38.3627 2.70097 35.2021 4.51913 33.1409C4.70049 32.9357 4.89807 32.7455 5.11026 32.573C6.60073 31.4237 8.1509 30.3554 9.75396 29.3731C11.2311 29.5964 12.7226 29.7095 14.2163 29.7105C15.213 29.7105 16.2135 29.6613 17.2183 29.5632L17.06 27.9008C13.0139 28.3035 8.92891 27.8392 5.0723 26.5384C3.67267 26.0718 2.54849 25.0045 2.00018 23.6218C1.45869 22.2623 1.53883 20.7311 2.21886 19.4369L2.79603 18.3371C3.02476 17.9341 3.39819 17.6357 3.83878 17.5036C5.55831 16.9245 6.49529 15.0539 5.93985 13.3105C5.82175 12.9019 5.87139 12.4625 6.07741 12.0913C6.90116 10.5165 8.51979 9.53179 10.2825 9.53408H13.8445C14.6459 13.1222 16.0753 16.5369 18.0661 19.6169L19.4479 18.707C17.2638 15.3296 15.7947 11.5319 15.1332 7.55326C15.1763 4.29365 17.8 1.67279 21.0253 1.66656H21.2303C21.6508 1.6577 22.0573 1.81968 22.3584 2.11676C23.625 3.43949 25.7131 3.47424 27.0219 2.19414C27.0479 2.16856 27.0735 2.14299 27.0985 2.11676C27.3989 1.81936 27.8054 1.65738 28.2256 1.66656H28.431C31.6594 1.67049 34.2861 4.29464 34.327 7.5572C34.1992 8.31464 34.036 9.07798 33.8471 9.83312C30.8299 12.4038 28.3268 15.5339 26.4726 19.0552L27.9307 19.8349C29.8981 16.0936 32.6376 12.8232 35.9638 10.2446C38.134 8.56712 41.2388 8.98551 42.8987 11.1788C43.0641 11.3975 43.2114 11.6297 43.3389 11.873L43.9161 12.9721C44.1228 13.3623 44.1663 13.82 44.0365 14.2427C43.5031 16.0031 44.4813 17.8675 46.2222 18.4092C46.6408 18.5374 46.9915 18.8296 47.1952 19.2208L47.7724 20.3215C48.455 21.6187 48.5371 23.1535 47.9966 24.5173L47.9933 24.5209Z" fill="white"/>
<path d="M23.9033 17.4998H25.5524V19.1664H23.9033V17.4998Z" fill="white"/>
<path d="M30.4995 24.166H32.1483V25.8324H30.4995V24.166Z" fill="white"/>
<path d="M17.3071 24.166H18.9559V25.8324H17.3071V24.166Z" fill="white"/>
<path d="M23.9033 30.8323H25.5524V32.499H23.9033V30.8323Z" fill="white"/>
<path d="M27.5585 26.6817C27.7143 26.4167 27.8324 26.1308 27.9089 25.8324H29.6749V24.1661H27.9089C27.8324 23.8677 27.7143 23.5818 27.5585 23.3168L28.8083 22.0534L27.6426 20.8753L26.3925 22.1387C26.1304 21.981 25.8474 21.8616 25.5525 21.7842V19.9995H23.9034V21.7842C23.6082 21.8616 23.3253 21.981 23.0631 22.1387L21.8134 20.8753L20.6473 22.0534L21.8974 23.3168C21.7413 23.5818 21.6236 23.8677 21.547 24.1661H19.7808V25.8324H21.547C21.6236 26.1308 21.7413 26.4167 21.8974 26.6817L20.6473 27.9451L21.8134 29.1232L23.0631 27.8601C23.3253 28.0175 23.6082 28.1369 23.9034 28.2143V29.999H25.5525V28.2143C25.8474 28.1369 26.1304 28.0175 26.3925 27.8601L27.6426 29.1232L28.8083 27.9451L27.5585 26.6817ZM24.7278 26.6659C23.8171 26.6659 23.079 25.9197 23.079 24.9993C23.079 24.0789 23.8171 23.3329 24.7278 23.3329C25.6385 23.3329 26.3769 24.0789 26.3769 24.9993C26.3769 25.9197 25.6385 26.6659 24.7278 26.6659Z" fill="white"/>
<path d="M18.897 20.2854L20.063 19.1069L21.229 20.2854L20.063 21.4638L18.897 20.2854Z" fill="white"/>
<path d="M28.2256 20.2851L29.3916 19.1069L30.5577 20.2851L29.3916 21.4635L28.2256 20.2851Z" fill="white"/>
<path d="M18.897 29.7134L20.063 28.5349L21.229 29.7134L20.063 30.8918L18.897 29.7134Z" fill="white"/>
<path d="M28.2256 29.7134L29.3916 28.5349L30.5577 29.7134L29.3916 30.8918L28.2256 29.7134Z" fill="white"/>
<path d="M33.5068 20.0556L40.102 17.5537L40.6818 19.1145L34.0866 21.6163L33.5068 20.0556Z" fill="white"/>
<path d="M33.5703 23.3008L34.0236 21.6978L39.795 23.3641L39.3417 24.9675L33.5703 23.3008Z" fill="white"/>
<path d="M32.3296 18.6453L35.6275 14.4788L36.9159 15.5205L33.6179 19.6871L32.3296 18.6453Z" fill="white"/>
<path d="M23.0786 6.66675H24.7278V14.9999H23.0786V6.66675Z" fill="white"/>
<path d="M18.3188 11.3498L19.6075 10.3074L22.9071 14.4746L21.6184 15.517L18.3188 11.3498Z" fill="white"/>
<path d="M7.8374 19.0602L8.63779 17.604L16.059 21.7702L15.2586 23.2264L7.8374 19.0602Z" fill="white"/>
<path d="M9.77002 24.1735L15.5411 23.3394L15.7747 24.9897L10.0036 25.8241L9.77002 24.1735Z" fill="white"/>
<path d="M32.0298 30.8252L32.2631 29.1746L38.0342 30.0077L37.8009 31.6584L32.0298 30.8252Z" fill="white"/>
<path d="M28.0342 38.2167L28.8596 32.3838L30.4928 32.6199L29.6674 38.4528L28.0342 38.2167Z" fill="white"/>
<path d="M30.7407 32.2546L31.9068 31.0762L37.6779 36.9091L36.5119 38.0876L30.7407 32.2546Z" fill="white"/>
<path d="M11.7769 39.4089L18.373 32.7424L19.5391 33.9209L12.9429 40.5874L11.7769 39.4089Z" fill="white"/>
<path d="M18.9629 40.727L19.7873 34.0605L21.4234 34.2674L20.5994 40.9336L18.9629 40.727Z" fill="white"/>
<path d="M11.334 32.5231L17.9295 30.8567L18.3292 32.4726L11.7337 34.1389L11.334 32.5231Z" fill="white"/>
<path d="M24.9087 14.4783L28.2066 10.3118L29.495 11.3535L26.197 15.5201L24.9087 14.4783Z" fill="white"/>
<path d="M13.271 16.2058L14.7456 15.4604L17.2191 20.4599L15.7442 21.2052L13.271 16.2058Z" fill="white"/>
</svg>
