<svg width="50" height="50" viewBox="0 0 50 50" fill="none" xmlns="http://www.w3.org/2000/svg">
<path fill-rule="evenodd" clip-rule="evenodd" d="M44.4362 24.8902L49.7538 29.6485C49.953 29.8267 50.0401 30.0958 49.9825 30.3545C49.9249 30.6129 49.731 30.8215 49.4742 30.9016L42.6166 33.0421L45.3411 39.5787C45.4432 39.8235 45.4044 40.1033 45.2393 40.3123C45.0743 40.5214 44.8085 40.6285 44.5409 40.5927L37.4106 39.6402L37.0153 46.6917C37.0006 46.956 36.8433 47.1923 36.6027 47.3117C36.362 47.4313 36.0749 47.4156 35.8494 47.271L29.8243 43.4096L26.3861 49.6135C26.2573 49.8459 26.0118 49.9932 25.7424 49.9999L25.7232 50C25.461 50 25.217 49.8662 25.0796 49.6459L21.324 43.6217L15.5069 47.779C15.289 47.9348 15.003 47.9646 14.7565 47.8572C14.5101 47.7499 14.3408 47.5217 14.3123 47.2586L13.5521 40.2358L6.48058 41.5431C6.2152 41.5921 5.94424 41.4987 5.76861 41.298C5.59298 41.0973 5.53975 40.8199 5.62891 40.5702L8.01058 33.906L1.05113 32.1106C0.790424 32.0434 0.586138 31.8448 0.515091 31.5895C0.444044 31.3343 0.517181 31.0613 0.706939 30.8734L5.7709 25.8558L0.268316 21.3048C0.0622392 21.1343 -0.0356748 20.8689 0.0117896 20.6084C0.059254 20.3479 0.244534 20.132 0.498076 20.0421L7.26518 17.6406L4.28319 11.2134C4.17154 10.9727 4.1992 10.6916 4.35583 10.4763C4.51255 10.261 4.77415 10.1442 5.04252 10.1695L12.2053 10.8483L12.3201 3.78697C12.3245 3.52252 12.4722 3.28024 12.7078 3.15162C12.9434 3.02301 13.2311 3.0276 13.4622 3.16334L20.5525 7.32964L24.7809 0.361693C24.9188 0.13435 25.1687 -0.00363792 25.4394 7.30065e-05C25.7089 0.00368628 25.956 0.148119 26.0876 0.379076L29.6007 6.54243L35.5788 2.61081C35.8027 2.46364 36.0897 2.44469 36.3316 2.56149C36.5735 2.67819 36.7337 2.91266 36.7517 3.17662L37.2321 10.2233L44.3505 9.18754C44.6169 9.14867 44.8846 9.25258 45.0522 9.45981C45.2197 9.66703 45.262 9.94623 45.1629 10.1923L42.5179 16.7603L49.4008 18.8206C49.6587 18.8979 49.855 19.1041 49.9158 19.3619C49.9767 19.6196 49.8928 19.8897 49.6957 20.0702L44.4362 24.8902ZM40.925 32.2658C41.0142 32.0785 41.179 31.9364 41.3798 31.8737L47.7713 29.8787L42.8151 25.4438C42.6594 25.3045 42.5701 25.1077 42.5689 24.9011C42.5675 24.6943 42.6545 24.4966 42.8084 24.3555L47.7107 19.8631L41.2957 17.9428C41.0942 17.8825 40.9276 17.7423 40.8361 17.5561C40.7447 17.3698 40.7367 17.1546 40.8141 16.9623L43.2793 10.8409L36.6448 11.8062C36.4363 11.8366 36.2246 11.78 36.0606 11.6502C35.8967 11.5205 35.7954 11.3293 35.7813 11.1231L35.3335 4.55543L29.7617 8.21987C29.5868 8.33501 29.3707 8.37299 29.1658 8.32485C28.961 8.27671 28.786 8.14663 28.6831 7.96626L25.4087 2.22175L21.4619 8.72543C21.3595 8.89448 21.1924 9.01635 20.9982 9.06459C20.804 9.11283 20.598 9.08295 20.4261 8.98198L13.8082 5.09322L13.7012 11.6744C13.6979 11.8813 13.6066 12.0772 13.4495 12.2149C13.2926 12.3527 13.0838 12.4196 12.8742 12.3998L6.19838 11.7671L8.97768 17.7574C9.06505 17.9457 9.06813 18.161 8.98654 18.3516C8.90474 18.5421 8.74573 18.6904 8.54772 18.7608L2.24043 20.999L7.36897 25.2408C7.53007 25.374 7.62699 25.5673 7.63644 25.7738C7.64599 25.9804 7.56698 26.1813 7.41872 26.3282L2.69895 31.0048L9.18525 32.6782C9.38894 32.7307 9.56099 32.8644 9.65989 33.047C9.75861 33.2295 9.77522 33.4444 9.70547 33.6394L7.48569 39.8505L14.0766 38.6322C14.2839 38.5939 14.4975 38.6423 14.6665 38.7657C14.8356 38.889 14.9445 39.0761 14.9666 39.2817L15.675 45.8271L21.0967 41.9523C21.2266 41.8591 21.3824 41.8101 21.5407 41.8101C21.5897 41.8101 21.639 41.8148 21.6878 41.8243C21.8945 41.8646 22.0745 41.9878 22.1844 42.1642L25.6846 47.7789L28.8891 41.9967C28.9898 41.8151 29.1634 41.683 29.3676 41.6325C29.5716 41.582 29.7884 41.6174 29.9647 41.7305L35.5802 45.3295L35.9487 38.7573C35.9601 38.5507 36.0592 38.3585 36.2216 38.2269C36.3839 38.0953 36.5944 38.0362 36.8038 38.0642L43.4495 38.9521L40.9102 32.8598C40.8305 32.6684 40.8358 32.4531 40.925 32.2658ZM24.95 9.85167C22.2133 9.85167 19.5241 10.5615 17.1728 11.9044C16.8126 12.1102 16.6906 12.5635 16.9002 12.917C17.1099 13.2706 17.5719 13.3902 17.932 13.1846C20.053 11.9731 22.4798 11.3328 24.9501 11.3328C32.6425 11.3328 38.9008 17.4605 38.9008 24.9926C38.9008 32.5247 32.6425 38.6524 24.95 38.6524C24.3845 38.6524 23.8151 38.6189 23.2575 38.5529C22.845 38.5042 22.4679 38.7935 22.4181 39.1995C22.3681 39.6056 22.6633 39.9744 23.077 40.0233C23.6943 40.0964 24.3244 40.1334 24.9501 40.1334C33.4747 40.1334 40.4099 33.3413 40.4099 24.9925C40.4099 16.6438 33.4746 9.85167 24.95 9.85167ZM20.9727 38.0891C18.1503 37.2686 15.6112 35.5439 13.8231 33.2327C11.9761 30.8454 10.9998 27.9959 10.9998 24.9924C10.9998 20.9441 12.8181 17.1283 15.9888 14.5232C16.3083 14.2607 16.3506 13.7936 16.083 13.4801C15.8155 13.1665 15.3396 13.1251 15.02 13.3877C11.5059 16.2748 9.49055 20.5047 9.49055 24.9924C9.49055 28.3222 10.5731 31.4813 12.6211 34.1283C14.602 36.6888 17.4157 38.5997 20.5439 39.5092C20.6154 39.53 20.6876 39.5398 20.7585 39.5398C21.0841 39.5398 21.3845 39.3314 21.4818 39.0093C21.6002 38.6174 21.3723 38.2053 20.9727 38.0891Z" fill="white"/>
</svg>
