<svg width="43" height="43" viewBox="0 0 43 43" fill="none" xmlns="http://www.w3.org/2000/svg">
<g clip-path="url(#clip0)">
<path d="M31.8261 18.298C31.4977 17.9697 30.9661 17.9697 30.6377 18.298C30.3102 18.6256 30.3102 19.1572 30.6377 19.4856C30.9661 19.8139 31.4977 19.8139 31.8261 19.4856C32.1537 19.1572 32.1537 18.6256 31.8261 18.298Z" fill="white"/>
<path d="M42.2575 5.49148L37.5063 0.740424C36.5217 -0.244036 34.9283 -0.244372 33.9435 0.740424L32.42 2.26389C31.7953 2.88856 31.5562 3.76813 31.7447 4.60393L24.857 5.81927C23.3209 6.09112 21.9272 6.81716 20.827 7.91836L19.3546 9.38992C18.385 10.3596 17.9898 11.6895 18.1687 12.9529C16.8959 12.7731 15.5771 13.1683 14.6046 14.1407C13.6335 15.1112 13.2364 16.429 13.416 17.7044C12.1438 17.5254 10.8253 17.9201 9.85354 18.8919C8.91006 19.8353 8.48032 21.1417 8.66592 22.4569C7.40238 22.2778 6.07241 22.673 5.10257 23.6427L1.71877 27.0257C-0.572896 29.3175 -0.57298 33.0474 1.71886 35.3404L7.65753 41.2789C9.95003 43.5704 13.6797 43.5709 15.9721 41.2788L19.3549 37.8951C20.3247 36.9252 20.7199 35.595 20.5407 34.3314C21.85 34.5161 23.1587 34.0913 24.1058 33.1442C25.0753 32.1747 25.4703 30.8448 25.2914 29.5812C26.5938 29.7651 27.9044 29.3465 28.8568 28.3932C29.8264 27.4236 30.2215 26.0939 30.0426 24.8306C31.3574 25.0162 32.6641 24.5868 33.608 23.6428L35.079 22.1711C36.1807 21.0704 36.9067 19.6766 37.1785 18.1401L38.3938 11.253C39.228 11.4411 40.1079 11.2037 40.7339 10.5777L42.2574 9.05424C43.2421 8.06961 43.2423 6.47619 42.2575 5.49148ZM18.1671 36.7074L14.7843 40.091C13.1473 41.7281 10.4828 41.728 8.84514 40.091L2.90672 34.1527C1.26963 32.5149 1.26963 29.8505 2.90656 28.2135L6.29035 24.8305C7.27271 23.8481 8.87118 23.8481 9.85362 24.8305L18.1672 33.144C19.1496 34.1265 19.1496 35.7249 18.1671 36.7074ZM22.918 31.9564C21.936 32.9383 20.3409 32.9425 19.3548 31.9564L11.0412 23.6428C10.0569 22.6584 10.0566 21.0643 11.0413 20.0796C12.025 19.0958 13.618 19.0954 14.6038 20.079C14.6041 20.0792 14.6043 20.0794 14.6045 20.0796L22.9177 28.3928L22.9178 28.3929C22.9178 28.3929 22.9178 28.3929 22.9178 28.393C23.9 29.3758 23.9002 30.9743 22.918 31.9564ZM27.6688 27.2058C26.6853 28.1905 25.0899 28.1906 24.1059 27.2054L15.792 18.8917C14.8071 17.9074 14.8066 16.3136 15.7923 15.3286C16.7773 14.3435 18.3695 14.3434 19.3547 15.3286L27.6691 23.643C28.6514 24.6251 28.6514 26.2232 27.6688 27.2058ZM35.5245 17.8479C35.313 19.0429 34.7485 20.127 33.8913 20.9833L32.4201 22.4553C31.4377 23.4377 29.8393 23.4377 28.8568 22.4553L20.5424 14.1409C19.5601 13.1585 19.5601 11.5601 20.5422 10.5778L22.0149 9.10598C22.8707 8.24934 23.9549 7.6848 25.1494 7.47333L32.7292 6.13588L36.8618 10.2686L35.5245 17.8479ZM41.0697 7.86654L39.5462 9.39001C39.218 9.71813 38.6871 9.71822 38.3588 9.39001L33.6079 4.63896C33.2798 4.31066 33.2797 3.77988 33.608 3.45159L35.1314 1.92812C35.4597 1.59991 35.9906 1.6 36.3188 1.92812L41.0697 6.67918C41.3973 7.00688 41.3985 7.53758 41.0697 7.86654Z" fill="white"/>
<path d="M42.4465 31.8122L38.7041 24.4805C38.5606 24.1994 38.2717 24.0225 37.9561 24.0225C37.6405 24.0225 37.3516 24.1994 37.2081 24.4805L33.466 31.8119C31.7651 35.1394 34.1888 39.1396 37.9561 39.1396C41.7227 39.1396 44.1472 35.1401 42.4465 31.8122ZM37.9561 37.4599C35.4421 37.4599 33.8301 34.79 34.9619 32.5759L37.9561 26.7096L40.9505 32.5762C42.0809 34.7879 40.4725 37.4599 37.9561 37.4599Z" fill="white"/>
<path d="M29.4504 15.9218L25.3957 11.8671C25.0676 11.5391 24.536 11.5391 24.2079 11.8671C23.8799 12.195 23.8799 12.7268 24.2079 13.0548L28.2626 17.1095C28.5907 17.4375 29.1223 17.4375 29.4504 17.1095C29.7784 16.7815 29.7784 16.2498 29.4504 15.9218Z" fill="white"/>
</g>
<defs>
<clipPath id="clip0">
<rect width="43" height="43" fill="white"/>
</clipPath>
</defs>
</svg>
