<svg width="28" height="28" viewBox="0 0 28 28" fill="none" xmlns="http://www.w3.org/2000/svg">
<g clip-path="url(#clip0)">
<path d="M28 17.9048C28 13.8355 24.5103 10.4838 20.0735 10.1281C19.8695 8.00317 18.843 6.03421 17.1306 4.51706C15.236 2.83841 12.7236 1.91406 10.0563 1.91406C7.38858 1.91406 4.87616 2.83841 2.98154 4.51685C1.05872 6.22028 0 8.49301 0 10.9166C0 13.7319 1.46118 16.3635 3.93814 18.0633L3.43805 20.1914C3.36221 20.5136 3.4874 20.8496 3.75549 21.0436C3.89862 21.1472 4.06738 21.1995 4.23657 21.1995C4.3844 21.1995 4.53265 21.1596 4.66425 21.079L7.1756 19.5444C8.10742 19.7932 9.07471 19.9193 10.0563 19.9193C10.3272 19.9193 10.5989 19.9092 10.8689 19.89C11.851 23.2373 15.2548 25.7134 19.2919 25.7134C20.3316 25.7134 21.3456 25.5515 22.311 25.2314L24.4654 26.0443C24.5596 26.08 24.6577 26.0973 24.7549 26.0973C24.961 26.0973 25.1635 26.0195 25.3186 25.873C25.5468 25.6572 25.6318 25.3304 25.5376 25.0309L25.1216 23.7079C26.9586 22.2279 28 20.1432 28 17.9048ZM10.0563 18.2784C9.10953 18.2784 8.18005 18.1417 7.2933 17.8719C7.06921 17.8038 6.82675 17.8345 6.6268 17.9567L5.48434 18.6551L5.66763 17.8749C5.74924 17.5282 5.59756 17.1685 5.29251 16.9847C3.00589 15.6071 1.64062 13.3386 1.64062 10.9166C1.64062 6.8573 5.41577 3.55469 10.0563 3.55469C14.3946 3.55469 17.9764 6.4418 18.4239 10.1351C14.028 10.5269 10.5835 13.862 10.5835 17.9048C10.5835 18.0247 10.5869 18.1439 10.5929 18.2624C10.4143 18.2722 10.2351 18.2784 10.0563 18.2784ZM23.6957 22.7274C23.4018 22.9322 23.2747 23.3046 23.3823 23.6464L23.4663 23.9138L22.6114 23.591C22.4268 23.5216 22.2232 23.5208 22.038 23.5889C21.1673 23.91 20.2436 24.0728 19.2919 24.0728C15.3947 24.0728 12.2242 21.3059 12.2242 17.905C12.2242 14.5039 15.3947 11.7371 19.2919 11.7371C23.189 11.7371 26.3594 14.5039 26.3594 17.905C26.3594 19.79 25.3885 21.5477 23.6957 22.7274Z" fill="white" fill-opacity="0.9"/>
<path d="M6.76929 7.71545C6.5531 7.71545 6.34204 7.80304 6.18887 7.95557C6.03635 8.10809 5.94897 8.31979 5.94897 8.53577C5.94897 8.75174 6.03635 8.96301 6.18887 9.11554C6.34204 9.26871 6.5531 9.35608 6.76929 9.35608C6.98505 9.35608 7.19632 9.26871 7.34927 9.11554C7.50201 8.96301 7.5896 8.75195 7.5896 8.53577C7.5896 8.31979 7.50201 8.10809 7.34927 7.95557C7.19632 7.80304 6.98526 7.71545 6.76929 7.71545Z" fill="white" fill-opacity="0.9"/>
<path d="M13.7971 9.35608C14.0131 9.35608 14.2248 9.26871 14.3773 9.11554C14.5298 8.96301 14.6174 8.75195 14.6174 8.53577C14.6174 8.31979 14.5301 8.10809 14.3773 7.95557C14.2248 7.80304 14.0131 7.71545 13.7971 7.71545C13.5811 7.71545 13.3701 7.80304 13.2176 7.95557C13.0644 8.10809 12.9768 8.31979 12.9768 8.53577C12.9768 8.75174 13.0644 8.96301 13.2176 9.11554C13.3701 9.26871 13.5811 9.35608 13.7971 9.35608Z" fill="white" fill-opacity="0.9"/>
<path d="M16.2366 14.9976C16.0206 14.9976 15.8091 15.0852 15.6564 15.2377C15.5038 15.3903 15.4163 15.602 15.4163 15.8175C15.4163 16.0335 15.5038 16.2452 15.6564 16.3977C15.8095 16.5509 16.0206 16.6382 16.2366 16.6382C16.4521 16.6382 16.6638 16.5509 16.8168 16.3977C16.9695 16.2452 17.0569 16.0335 17.0569 15.8175C17.0569 15.602 16.9695 15.3903 16.8168 15.2377C16.6638 15.0852 16.4528 14.9976 16.2366 14.9976Z" fill="white" fill-opacity="0.9"/>
<path d="M21.9219 14.9976C21.7059 14.9976 21.4942 15.0852 21.3417 15.2377C21.1891 15.3903 21.1016 15.602 21.1016 15.8175C21.1016 16.0335 21.1891 16.2452 21.3417 16.3977C21.4948 16.5509 21.7059 16.6382 21.9219 16.6382C22.1378 16.6382 22.3491 16.5509 22.5016 16.3977C22.6548 16.2452 22.7422 16.0335 22.7422 15.8175C22.7422 15.602 22.6546 15.3903 22.5016 15.2377C22.3491 15.0852 22.1381 14.9976 21.9219 14.9976Z" fill="white" fill-opacity="0.9"/>
</g>
<defs>
<clipPath id="clip0">
<rect width="28" height="28" fill="white"/>
</clipPath>
</defs>
</svg>
