<svg width="50" height="50" viewBox="0 0 50 50" fill="none" xmlns="http://www.w3.org/2000/svg">
<path d="M49.0194 24.0195H44.8766L45.8859 23.0103C46.2687 22.6275 46.2687 22.0067 45.8859 21.6237C45.5029 21.241 44.8823 21.241 44.4993 21.6237L42.1036 24.0196H37.8175L40.7771 21.0601C41.1599 20.6773 41.1599 20.0565 40.7771 19.6736C40.3942 19.2908 39.7736 19.2908 39.3906 19.6736L35.0446 24.0197H27.3669L32.7959 18.5907H38.942C39.4834 18.5907 39.9224 18.1517 39.9224 17.6104C39.9224 17.069 39.4833 16.63 38.942 16.63H34.7567L37.7874 13.5993H43.9335C44.4749 13.5993 44.9139 13.1602 44.9139 12.6189C44.9139 12.0775 44.4748 11.6385 43.9335 11.6385H39.7483L42.6777 8.70915C43.0605 8.32633 43.0605 7.70554 42.6777 7.32263C42.2948 6.93991 41.6742 6.93991 41.2911 7.32263L38.3618 10.252V6.06638C38.3618 5.52498 37.9227 5.08602 37.3814 5.08602C36.8401 5.08602 36.401 5.52508 36.401 6.06638V12.2125L33.3703 15.2432V11.0579C33.3703 10.5165 32.9312 10.0775 32.3899 10.0775C31.8486 10.0775 31.4095 10.5166 31.4095 11.0579V17.204L25.9806 22.633V14.9553L30.3266 10.6093C30.7094 10.2265 30.7094 9.60572 30.3266 9.22282C29.9439 8.8403 29.3233 8.8401 28.9401 9.22282L25.9807 12.1824V7.89626L30.3267 3.55028C30.7095 3.16747 30.7095 2.54667 30.3267 2.16376C29.944 1.78124 29.3234 1.78105 28.9402 2.16376L25.9808 5.12332V0.980367C25.9803 0.439061 25.5413 0 24.9999 0C24.4585 0 24.0195 0.439061 24.0195 0.980367V5.12322L21.06 2.16366C20.6771 1.78095 20.0565 1.78095 19.6735 2.16366C19.2906 2.54647 19.2906 3.16727 19.6735 3.55018L24.0196 7.89616V12.1823L21.0601 9.22272C20.6772 8.84 20.0566 8.84 19.6736 9.22272C19.2907 9.60553 19.2907 10.2263 19.6736 10.6092L24.0197 14.9552V22.6329L18.5907 17.2039V11.0578C18.5907 10.5164 18.1517 10.0774 17.6104 10.0774C17.069 10.0774 16.63 10.5165 16.63 11.0578V15.2431L13.5993 12.2124V6.06638C13.5993 5.52498 13.1602 5.08602 12.6189 5.08602C12.0775 5.08602 11.6385 5.52508 11.6385 6.06638V10.2516L8.70875 7.32224C8.32585 6.93952 7.70524 6.93952 7.32224 7.32224C6.93943 7.70505 6.93943 8.32585 7.32224 8.70876L10.2516 11.6381H6.06638C5.52498 11.6381 5.08602 12.0772 5.08602 12.6185C5.08602 13.1599 5.52508 13.5989 6.06638 13.5989H12.2125L15.2432 16.6296H11.0579C10.5165 16.6296 10.0775 17.0687 10.0775 17.61C10.0775 18.1514 10.5166 18.5904 11.0579 18.5904H17.204L22.633 24.0193H14.9553L10.6093 19.6733C10.2266 19.2906 9.60602 19.2906 9.22282 19.6733C8.84 20.0561 8.84 20.6769 9.22282 21.0598L12.1824 24.0192H7.89626L3.55028 19.6732C3.16747 19.2906 2.54686 19.2905 2.16376 19.6732C1.78095 20.056 1.78095 20.6768 2.16376 21.0597L5.12332 24.0191H0.980367C0.439061 24.0195 0 24.4585 0 24.9999C0 25.5413 0.439061 25.9803 0.980367 25.9803H5.12322L2.16366 28.9398C1.78085 29.3226 1.78085 29.9434 2.16366 30.3263C2.35517 30.5178 2.60604 30.6135 2.85692 30.6135C3.1078 30.6135 3.35868 30.5177 3.55018 30.3263L7.89626 25.9802H12.1824L9.22282 28.9397C8.84 29.3225 8.84 29.9433 9.22282 30.3262C9.41432 30.5177 9.6652 30.6134 9.91607 30.6134C10.167 30.6134 10.4178 30.5176 10.6093 30.3262L14.9554 25.9801H22.6331L17.2041 31.4091H11.058C10.5166 31.4091 10.0776 31.8481 10.0776 32.3894C10.0776 32.9307 10.5167 33.3698 11.058 33.3698H15.2433L12.2125 36.4005H6.06638C5.52498 36.4005 5.08602 36.8396 5.08602 37.3809C5.08602 37.9222 5.52508 38.3613 6.06638 38.3613H10.2516L7.32224 41.291C6.93943 41.6739 6.93943 42.2947 7.32224 42.6776C7.51374 42.869 7.76462 42.9647 8.0155 42.9647C8.26637 42.9647 8.51725 42.8689 8.70875 42.6776L11.6381 39.7482V43.9334C11.6381 44.4748 12.0772 44.9138 12.6185 44.9138C13.1598 44.9138 13.5989 44.4747 13.5989 43.9334V37.7874L16.6296 34.7566V38.9419C16.6296 39.4833 17.0687 39.9223 17.61 39.9223C18.1514 39.9223 18.5904 39.4832 18.5904 38.9419V32.7958L24.0194 27.3668V35.0445L19.6734 39.3905C19.2905 39.7733 19.2905 40.3941 19.6734 40.777C20.0563 41.1596 20.6769 41.1598 21.0599 40.777L24.0193 37.8174V42.1035L19.6733 46.4495C19.2905 46.8323 19.2905 47.4531 19.6733 47.836C20.0562 48.2188 20.6768 48.2189 21.0598 47.836L24.0192 44.8765V49.0193C24.0192 49.5607 24.4583 49.9997 24.9996 49.9997C25.541 49.9997 25.98 49.5606 25.98 49.0193V44.8765L28.9395 47.836C29.131 48.0274 29.3819 48.1231 29.6328 48.1231C29.8837 48.1231 30.1346 48.0274 30.3261 47.836C30.7089 47.4532 30.7089 46.8324 30.3261 46.4495L25.98 42.1035V37.8174L28.9395 40.777C29.131 40.9684 29.3819 41.0641 29.6328 41.0641C29.8837 41.0641 30.1346 40.9683 30.3261 40.777C30.7089 40.3942 30.7089 39.7734 30.3261 39.3905L25.98 35.0445V27.3668L31.409 32.7958V38.9419C31.409 39.4833 31.848 39.9223 32.3893 39.9223C32.9306 39.9223 33.3697 39.4832 33.3697 38.9419V34.7566L36.4004 37.7874V43.9334C36.4004 44.4748 36.8395 44.9138 37.3808 44.9138C37.9221 44.9138 38.3612 44.4747 38.3612 43.9334V39.7482L41.2906 42.6776C41.4821 42.869 41.7329 42.9647 41.9838 42.9647C42.2347 42.9647 42.4856 42.8689 42.6771 42.6776C43.0599 42.2948 43.0599 41.674 42.6771 41.291L39.7477 38.3617H43.9329C44.4743 38.3617 44.9133 37.9226 44.9133 37.3813C44.9133 36.84 44.4742 36.4009 43.9329 36.4009H37.7869L34.7561 33.3702H38.9414C39.4828 33.3702 39.9218 32.9311 39.9218 32.3898C39.9218 31.8485 39.4828 31.4094 38.9414 31.4094H32.7958L27.3669 25.9805H35.0446L39.3906 30.3265C39.5821 30.5179 39.8329 30.6136 40.0838 30.6136C40.3347 30.6136 40.5856 30.5179 40.7771 30.3265C41.1599 29.9437 41.1599 29.3229 40.7771 28.94L37.8176 25.9806H42.1037L46.4497 30.3266C46.6412 30.518 46.8921 30.6137 47.143 30.6137C47.3939 30.6137 47.6447 30.5179 47.8362 30.3266C48.219 29.9438 48.219 29.323 47.8362 28.9401L44.8768 25.9807H49.0196C49.561 25.9807 50 25.5416 50 25.0003C49.9998 24.4585 49.5607 24.0195 49.0194 24.0195Z" fill="white"/>
</svg>
