<svg width="48" height="51" viewBox="0 0 48 51" fill="none" xmlns="http://www.w3.org/2000/svg">
<g opacity="0.4" filter="url(#filter0_f)">
<path d="M25.932 7.30875C16.8824 6.37023 8.91808 11.4109 8.1782 18.5451C7.92822 20.9555 8.53121 23.3957 9.92246 25.6028L21.2339 43.5048C21.4506 43.8477 21.8703 44.086 22.3431 44.135C22.3468 44.1354 22.3503 44.1357 22.354 44.1361C22.8312 44.1826 23.2924 44.0297 23.5708 43.7325L37.9998 28.3379C39.7214 26.4973 40.7596 24.2881 41.0022 21.9492C41.742 14.815 34.9816 8.24726 25.932 7.30875Z" fill="#263C43"/>
</g>
<path d="M21.5 0C12.4019 0 5 7.2547 5 16.1719C5 19.1847 5.85149 22.1249 7.46299 24.6758L20.5608 45.3629C20.8117 45.7592 21.2537 46 21.7291 46C21.7327 46 21.7363 46 21.74 46C22.2195 45.9963 22.6624 45.7481 22.9087 45.3449L35.6727 24.4573C37.1953 21.9603 38 19.0953 38 16.1719C38 7.2547 30.5981 0 21.5 0Z" fill="white"/>
<circle cx="21.5" cy="16.5" r="12" stroke="#F76363"/>
<path d="M15.1923 22.02C16.0923 22.02 16.7523 21.46 16.9123 21.32C17.3123 20.96 17.3923 20.68 17.3723 20.6C17.2123 20.54 17.1323 20.54 17.1123 20.46C17.1723 20.38 17.4723 19.94 17.4923 19.88C17.6723 19.64 17.8723 19.42 18.0123 19.18C18.0923 19.04 18.1123 18.88 18.1723 18.74C18.2723 18.64 18.3523 18.56 18.3923 18.48L18.6723 18.22C18.6123 18.34 18.5923 18.5 18.4923 18.62C18.3523 18.86 18.3323 18.88 18.3323 19.14C18.0923 19.52 17.6923 19.98 17.6523 20.02C17.5723 20.1 17.4523 20.16 17.5123 20.26C17.5323 20.34 17.7123 20.24 17.8123 20.1C17.8523 20.02 18.6723 18.84 18.6923 18.76C19.2723 17.92 19.6323 17.02 20.0123 16.12C20.3923 15.2 20.8523 13.5 21.1123 12.44C21.1123 12.44 21.4323 14.86 21.5323 16.56C21.5923 17.5 21.6523 18.24 21.5723 19.04C21.5523 19.22 21.6323 19.34 21.8323 19.42L22.1723 19.58C22.3523 19.66 22.3923 19.7 22.5523 19.6C22.6323 19.52 22.6923 19.42 22.6923 19.34C22.7923 18.94 22.9723 18.56 23.1323 18.18C23.2923 17.8 23.5323 17.48 23.6923 17.12C23.9323 16.6 24.1923 16.06 24.5923 15.6C24.7323 15.46 24.8323 15.34 24.8123 15.16C24.8123 15.1 24.8723 15.04 24.9323 14.98L25.2123 14.72C25.1723 14.62 24.9323 14.76 24.8323 14.84C24.4323 15.16 24.1723 15.54 23.9523 15.98L23.8523 16.18C23.8323 16.22 23.7323 16.26 23.6723 16.32C23.3923 16.68 23.0723 17 22.8323 17.4L22.5323 17.78C22.4723 17.66 22.4923 17.6 22.5123 17.52C22.6123 17.34 22.6923 17.14 22.7923 16.96C22.9323 16.7 23.0923 16.7 23.1523 16.54C22.8323 16.62 22.8323 16.76 22.6723 16.9C22.5523 17 22.5123 17.22 22.3923 17.42C22.3923 17.32 22.3723 17.04 22.3523 16.88C22.2723 15.74 22.1323 14.8 21.9723 13.68C21.8523 12.86 21.8723 12.22 21.6523 11.42C21.5923 11.2 21.5323 10.84 21.4123 10.62C21.2523 10.42 21.0523 10.38 20.9723 10.4C20.7123 10.4 20.5323 10.56 20.5323 10.8C20.5323 11.02 20.4923 11.46 20.4323 11.68C20.3323 11.98 20.3123 12.28 20.2523 12.58C20.1323 13.22 19.9923 13.7 19.7723 14.38C19.6123 14.86 19.3923 15.34 19.2523 15.82C19.1523 16.16 18.9523 16.44 18.7923 16.74C18.6723 17.08 18.4323 17.42 18.3923 17.78C18.0323 18.08 17.8523 18.42 17.8723 18.84C17.6523 19.06 17.4523 19.28 17.3123 19.52C17.2523 19.6 17.3523 19.7 17.3323 19.78C17.2523 19.94 17.1723 19.96 17.1323 20.12C16.9323 20.32 16.9323 20.34 16.8123 20.5C16.5323 20.88 16.0723 21.3 15.5723 21.4C14.6523 21.58 14.1523 21.16 13.8123 19.62C13.8123 19.5 13.7523 19.42 13.6723 19.46C13.5723 19.48 13.5523 19.56 13.5323 19.64L13.4523 19.88C13.4923 20.18 13.4723 20.48 13.5923 20.76C13.7923 21.66 14.5923 22.02 15.1923 22.02ZM28.0523 23.12C28.7123 23.22 28.8123 23.06 29.0923 22.86C29.1523 22.7 28.5923 22.86 28.0923 22.58C27.9123 22.48 27.4723 22.2 27.2723 21.38C27.1523 20.9 27.0923 20.48 27.1923 19.98C27.2123 19.88 27.1923 18.78 27.2323 18.32C27.3123 17.32 27.5523 16.34 27.8923 15.36C28.3323 14.12 28.7523 12.88 29.4323 11.7C29.5523 11.54 29.6523 11.38 29.6923 11.2C29.7723 10.94 29.7923 10.7 29.4723 10.68C29.1123 10.64 28.7523 10.66 28.4923 11.02C28.3923 11.16 28.2123 11.28 28.1723 11.48C28.1723 11.56 28.0923 11.64 27.9923 11.7L26.2523 13.26C26.0723 13.4 25.8923 13.52 25.7523 13.68C25.5723 13.92 25.3523 14.16 25.1923 14.4C25.1523 14.44 25.1723 14.52 25.2123 14.56C25.2323 14.58 25.3123 14.58 25.3523 14.56C25.4323 14.54 25.4523 14.5 25.4923 14.48C25.7523 14.2 26.1323 14.1 26.1523 13.74C26.1923 13.62 27.4923 12.6 27.8523 12.4L27.8723 12.42C27.7523 12.7 27.6723 12.96 27.5323 13.24C27.3523 13.76 27.0123 14.7 27.0123 14.78C26.9123 15.2 26.7723 15.62 26.6923 16.04C26.5923 16.38 26.5123 16.7 26.4323 17.04L26.2523 18.42C26.1723 19.06 26.1923 21.16 26.6323 21.96C26.9323 22.5 27.3323 23.02 28.0523 23.12ZM26.5723 20.28C26.4723 19.96 26.4923 19.68 26.4923 19.4C26.4923 19.08 26.5123 18.74 26.5523 18.42C26.5723 18.24 26.5923 18.06 26.5723 17.9C26.5323 17.58 26.6323 17.32 26.7123 17.06L26.8323 16.34C26.8323 16.28 26.8123 16.22 26.7923 16.16C26.8123 16.1 26.7923 16.04 26.8323 15.98C26.9123 15.78 27.0123 15.6 27.0523 15.38C27.0723 15.28 27.1323 15.26 27.2123 15.24C27.1923 15.56 27.1523 15.88 27.0123 16.18C26.9523 16.32 26.9523 16.44 26.9523 16.56C26.9123 16.72 26.8923 16.88 26.8523 17.02C26.7523 17.44 26.7523 17.88 26.6723 18.3C26.6723 18.42 26.7123 18.54 26.7323 18.66C26.8323 18.46 26.8523 18.24 26.8723 18.02C26.8923 17.86 26.9123 17.7 27.0923 17.58C27.0523 18.14 26.9923 18.68 26.9123 19.2C26.8123 19.22 26.7923 19.16 26.7923 19.1C26.7923 18.94 26.8323 18.78 26.7323 18.66C26.5323 19.02 26.5723 19.4 26.5723 19.78C26.5723 19.92 26.6323 20.06 26.5723 20.28ZM23.1523 16.54C23.3723 16.32 23.5123 16.06 23.6523 15.8C23.3523 16 23.2123 16.26 23.1523 16.54ZM27.2923 16.54C27.1923 16.26 27.1923 16.26 27.2923 15.84C27.4923 16.12 27.3723 16.32 27.2923 16.54ZM18.6923 18.14C18.7723 17.78 18.8723 17.42 19.1123 17.08C19.1923 16.94 19.2523 16.76 19.3123 16.58C19.4123 16.84 19.4123 16.86 19.3123 17.02C19.1923 17.2 19.1323 17.38 19.1123 17.6C19.0923 17.8 18.8523 17.96 18.6923 18.14Z" fill="black"/>
<path d="M16.9123 21.32L17.0441 21.4705L17.0461 21.4687L16.9123 21.32ZM17.3723 20.6L17.5664 20.5515L17.5409 20.4496L17.4426 20.4127L17.3723 20.6ZM17.1123 20.46L16.9523 20.34L16.8952 20.4162L16.9183 20.5085L17.1123 20.46ZM17.4923 19.88L17.3323 19.76L17.3129 19.786L17.3026 19.8168L17.4923 19.88ZM18.0123 19.18L18.1851 19.2808L18.186 19.2792L18.0123 19.18ZM18.1723 18.74L18.0309 18.5986L18.0037 18.6258L17.9885 18.6612L18.1723 18.74ZM18.3923 18.48L18.2563 18.3334L18.2297 18.3581L18.2135 18.3906L18.3923 18.48ZM18.6723 18.22L18.8512 18.3094L18.5363 18.0734L18.6723 18.22ZM18.4923 18.62L18.3387 18.492L18.328 18.5048L18.3196 18.5192L18.4923 18.62ZM18.3323 19.14L18.5014 19.2468L18.5323 19.1979V19.14H18.3323ZM17.6523 20.02L17.5109 19.8786L17.5109 19.8786L17.6523 20.02ZM17.5123 20.26L17.7064 20.2115L17.6992 20.1826L17.6838 20.1571L17.5123 20.26ZM17.8123 20.1L17.9751 20.2162L17.9842 20.2035L17.9912 20.1894L17.8123 20.1ZM18.6923 18.76L18.5278 18.6464L18.5071 18.6763L18.4983 18.7115L18.6923 18.76ZM20.0123 16.12L20.1966 16.1978L20.1972 16.1964L20.0123 16.12ZM21.1123 12.44L21.3106 12.4138L20.9181 12.3924L21.1123 12.44ZM21.5323 16.56L21.3327 16.5717L21.3328 16.5727L21.5323 16.56ZM21.5723 19.04L21.7711 19.0621L21.7714 19.0599L21.5723 19.04ZM21.8323 19.42L21.9177 19.2387L21.9066 19.2343L21.8323 19.42ZM22.1723 19.58L22.0872 19.761L22.0911 19.7628L22.1723 19.58ZM22.5523 19.6L22.6583 19.7696L22.6777 19.7575L22.6938 19.7414L22.5523 19.6ZM22.6923 19.34L22.4983 19.2915L22.4923 19.3154V19.34H22.6923ZM23.6923 17.12L23.5107 17.0362L23.5096 17.0388L23.6923 17.12ZM24.5923 15.6L24.4506 15.4582L24.4414 15.4688L24.5923 15.6ZM24.8123 15.16H24.6123V15.1711L24.6136 15.1821L24.8123 15.16ZM24.9323 14.98L24.7962 14.8333L24.7909 14.8386L24.9323 14.98ZM25.2123 14.72L25.3484 14.8666L25.449 14.7732L25.398 14.6457L25.2123 14.72ZM24.8323 14.84L24.7074 14.6838V14.6838L24.8323 14.84ZM23.9523 15.98L24.1312 16.0694H24.1312L23.9523 15.98ZM23.8523 16.18L23.6735 16.0906L23.6735 16.0906L23.8523 16.18ZM23.6723 16.32L23.5309 16.1786L23.5221 16.1874L23.5145 16.1972L23.6723 16.32ZM22.8323 17.4L22.9893 17.5239L22.9973 17.5139L23.0038 17.5029L22.8323 17.4ZM22.5323 17.78L22.3535 17.8694L22.4942 18.151L22.6893 17.9039L22.5323 17.78ZM22.5123 17.52L22.3375 17.4229L22.3247 17.4459L22.3183 17.4715L22.5123 17.52ZM22.7923 16.96L22.9672 17.0571L22.9684 17.0548L22.7923 16.96ZM23.1523 16.54L23.3396 16.6102L23.4733 16.2536L23.1038 16.346L23.1523 16.54ZM22.6723 16.9L22.8004 17.0537L22.804 17.0505L22.6723 16.9ZM22.3923 17.42H22.1923V18.1421L22.5638 17.5229L22.3923 17.42ZM22.3523 16.88L22.1525 16.894L22.1539 16.9048L22.3523 16.88ZM21.9723 13.68L22.1703 13.6517L22.1702 13.651L21.9723 13.68ZM21.6523 11.42L21.4594 11.4726L21.4595 11.473L21.6523 11.42ZM21.4123 10.62L21.5879 10.5242L21.5795 10.5088L21.5685 10.4951L21.4123 10.62ZM20.9723 10.4V10.6H20.997L21.0209 10.594L20.9723 10.4ZM20.4323 11.68L20.6224 11.7433L20.6253 11.7326L20.4323 11.68ZM20.2523 12.58L20.0562 12.5408L20.0558 12.5431L20.2523 12.58ZM19.7723 14.38L19.9621 14.4432L19.9626 14.4416L19.7723 14.38ZM19.2523 15.82L19.4442 15.8764L19.4443 15.876L19.2523 15.82ZM18.7923 16.74L18.6159 16.6459L18.6088 16.6592L18.6037 16.6734L18.7923 16.74ZM18.3923 17.78L18.5204 17.9336L18.5822 17.8821L18.5911 17.8021L18.3923 17.78ZM17.8723 18.84L18.0138 18.9814L18.0763 18.9189L18.0721 18.8305L17.8723 18.84ZM17.3123 19.52L17.4723 19.64L17.4793 19.6308L17.4851 19.6208L17.3123 19.52ZM17.3323 19.78L17.5112 19.8694L17.521 19.8498L17.5264 19.8285L17.3323 19.78ZM17.1323 20.12L17.2738 20.2614L17.3129 20.2222L17.3264 20.1685L17.1323 20.12ZM16.8123 20.5L16.6523 20.38L16.6513 20.3814L16.8123 20.5ZM15.5723 21.4L15.6107 21.5963L15.6116 21.5961L15.5723 21.4ZM13.8123 19.62H13.6123V19.6418L13.617 19.6631L13.8123 19.62ZM13.6723 19.46L13.7116 19.6561L13.7378 19.6509L13.7618 19.6389L13.6723 19.46ZM13.5323 19.64L13.7221 19.7032L13.7245 19.696L13.7264 19.6885L13.5323 19.64ZM13.4523 19.88L13.2626 19.8168L13.248 19.8606L13.2541 19.9064L13.4523 19.88ZM13.5923 20.76L13.7876 20.7166L13.7835 20.6984L13.7762 20.6812L13.5923 20.76ZM28.0523 23.12L28.0823 22.9222L28.0799 22.9219L28.0523 23.12ZM29.0923 22.86L29.2086 23.0227L29.2582 22.9873L29.2796 22.9302L29.0923 22.86ZM28.0923 22.58L28.1901 22.4055L28.1895 22.4052L28.0923 22.58ZM27.2723 21.38L27.4667 21.3326L27.4664 21.3315L27.2723 21.38ZM27.1923 19.98L27.3885 20.0192H27.3885L27.1923 19.98ZM27.2323 18.32L27.4316 18.3373L27.4317 18.3359L27.2323 18.32ZM27.8923 15.36L27.7039 15.2931L27.7034 15.2944L27.8923 15.36ZM29.4323 11.7L29.2723 11.58L29.2651 11.5897L29.2591 11.6001L29.4323 11.7ZM29.6923 11.2L29.5012 11.1412L29.4988 11.1488L29.4971 11.1566L29.6923 11.2ZM29.4723 10.68L29.4502 10.879L29.4599 10.8796L29.4723 10.68ZM28.4923 11.02L28.3302 10.9029L28.3296 10.9038L28.4923 11.02ZM28.1723 11.48L27.9762 11.4408L27.9723 11.4602V11.48H28.1723ZM27.9923 11.7L27.8894 11.5285L27.8731 11.5383L27.8588 11.5511L27.9923 11.7ZM26.2523 13.26L26.3754 13.4183L26.3859 13.4089L26.2523 13.26ZM25.7523 13.68L25.6018 13.5483L25.5969 13.554L25.5923 13.56L25.7523 13.68ZM25.1923 14.4L25.3338 14.5414L25.3478 14.5274L25.3588 14.5109L25.1923 14.4ZM25.2123 14.56L25.3538 14.4186L25.3538 14.4186L25.2123 14.56ZM25.3523 14.56L25.3038 14.366L25.2825 14.3713L25.2629 14.3811L25.3523 14.56ZM25.4923 14.48L25.5818 14.6589L25.6142 14.6427L25.6389 14.6161L25.4923 14.48ZM26.1523 13.74L25.9626 13.6768L25.9541 13.7022L25.9527 13.7289L26.1523 13.74ZM27.8523 12.4L27.9938 12.2586L27.8871 12.1519L27.7552 12.2252L27.8523 12.4ZM27.8723 12.42L28.0562 12.4988L28.1095 12.3743L28.0138 12.2786L27.8723 12.42ZM27.5323 13.24L27.3535 13.1506L27.3476 13.1622L27.3433 13.1746L27.5323 13.24ZM27.0123 14.78L27.2069 14.8263L27.2123 14.8035V14.78H27.0123ZM26.6923 16.04L26.8842 16.0964L26.887 16.087L26.8888 16.0774L26.6923 16.04ZM26.4323 17.04L26.2377 16.9942L26.2353 17.0041L26.234 17.0141L26.4323 17.04ZM26.2523 18.42L26.054 18.3941L26.0539 18.3952L26.2523 18.42ZM26.6323 21.96L26.4571 22.0564L26.4575 22.0571L26.6323 21.96ZM26.5723 20.28L26.3814 20.3397L26.5854 20.9923L26.7653 20.3326L26.5723 20.28ZM26.5523 18.42L26.7508 18.4448L26.7511 18.4421L26.5523 18.42ZM26.5723 17.9L26.3739 17.9248L26.3739 17.9248L26.5723 17.9ZM26.7123 17.06L26.9035 17.1188L26.9074 17.1061L26.9096 17.0929L26.7123 17.06ZM26.8323 16.34L27.0296 16.3729L27.0323 16.3566V16.34H26.8323ZM26.7923 16.16L26.6026 16.0968L26.5815 16.16L26.6026 16.2232L26.7923 16.16ZM26.8323 15.98L26.9988 16.0909L27.0103 16.0736L27.018 16.0543L26.8323 15.98ZM27.0523 15.38L26.8562 15.3408L26.8556 15.3442L27.0523 15.38ZM27.2123 15.24L27.412 15.2525L27.429 14.9797L27.1638 15.046L27.2123 15.24ZM27.0123 16.18L26.831 16.0954L26.8285 16.1012L27.0123 16.18ZM26.9523 16.56L27.1464 16.6085L27.1523 16.5846V16.56H26.9523ZM26.8523 17.02L26.6598 16.965L26.6578 16.9737L26.8523 17.02ZM26.6723 18.3L26.4759 18.2626L26.4723 18.2811V18.3H26.6723ZM26.7323 18.66L26.5351 18.6929L26.6362 19.2996L26.9112 18.7494L26.7323 18.66ZM26.8723 18.02L26.6738 17.9952L26.6732 18.0019L26.8723 18.02ZM27.0923 17.58L27.2918 17.5942L27.3209 17.1873L26.9814 17.4136L27.0923 17.58ZM26.9123 19.2L26.9516 19.3961L27.0887 19.3687L27.11 19.2304L26.9123 19.2ZM26.7323 18.66L26.886 18.532L26.6992 18.3078L26.5575 18.5629L26.7323 18.66ZM23.1523 16.54L22.9568 16.4981L22.8149 17.1603L23.2938 16.6814L23.1523 16.54ZM23.6523 15.8L23.8284 15.8948L23.5414 15.6336L23.6523 15.8ZM27.2923 16.54L27.104 16.6073L27.2906 17.1299L27.4803 16.6083L27.2923 16.54ZM27.2923 15.84L27.4551 15.7238L27.1996 15.3661L27.0978 15.7937L27.2923 15.84ZM18.6923 18.14L18.4971 18.0966L18.33 18.8487L18.8418 18.2729L18.6923 18.14ZM19.1123 17.08L19.2757 17.1953L19.2812 17.1875L19.286 17.1792L19.1123 17.08ZM19.3123 16.58L19.499 16.5082L19.2989 15.9879L19.1226 16.5168L19.3123 16.58ZM19.3123 17.02L19.4788 17.131L19.4819 17.126L19.3123 17.02ZM19.1123 17.6L19.3114 17.6199L19.3115 17.6181L19.1123 17.6ZM15.1923 22.22C16.1709 22.22 16.8795 21.6145 17.044 21.4705L16.7806 21.1695C16.6252 21.3055 16.0138 21.82 15.1923 21.82V22.22ZM17.0461 21.4687C17.2599 21.2763 17.3955 21.0987 17.4758 20.95C17.5159 20.8759 17.5433 20.8067 17.559 20.7448C17.5732 20.6889 17.5831 20.6185 17.5664 20.5515L17.1783 20.6485C17.1716 20.6215 17.179 20.6161 17.1713 20.6465C17.1651 20.6708 17.1513 20.7091 17.1239 20.76C17.0691 20.8613 16.9648 21.0037 16.7786 21.1713L17.0461 21.4687ZM17.4426 20.4127C17.3975 20.3959 17.3584 20.3833 17.3279 20.3736C17.2946 20.3629 17.278 20.3575 17.266 20.3526C17.2547 20.3479 17.2637 20.3499 17.2767 20.3623C17.2937 20.3784 17.3029 20.3978 17.3064 20.4115L16.9183 20.5085C16.9317 20.5622 16.9585 20.6116 17.0011 20.6521C17.0397 20.6889 17.0825 20.7096 17.1137 20.7224C17.1442 20.735 17.1788 20.7458 17.2061 20.7546C17.2362 20.7642 17.2671 20.7741 17.3021 20.7873L17.4426 20.4127ZM17.2723 20.58C17.306 20.5351 17.3988 20.4009 17.4838 20.2734C17.5267 20.209 17.5692 20.1441 17.6025 20.0908C17.6191 20.0643 17.6343 20.0393 17.6464 20.018C17.6552 20.0027 17.6723 19.9725 17.6821 19.9432L17.3026 19.8168C17.3074 19.8025 17.3108 19.7991 17.299 19.8197C17.2907 19.8343 17.2787 19.8542 17.2634 19.8786C17.233 19.9272 17.193 19.9885 17.1509 20.0516C17.0659 20.1791 16.9786 20.3049 16.9523 20.34L17.2723 20.58ZM17.6523 20C17.8159 19.7819 18.0378 19.5332 18.1851 19.2808L17.8396 19.0792C17.7069 19.3068 17.5287 19.4981 17.3323 19.76L17.6523 20ZM18.186 19.2792C18.238 19.1882 18.2683 19.0946 18.2914 19.0175C18.3165 18.934 18.332 18.8752 18.3562 18.8188L17.9885 18.6612C17.9527 18.7448 17.9282 18.836 17.9083 18.9025C17.8864 18.9754 17.8667 19.0318 17.8387 19.0808L18.186 19.2792ZM18.3138 18.8814C18.4045 18.7907 18.5133 18.6852 18.5712 18.5694L18.2135 18.3906C18.1913 18.4348 18.1402 18.4893 18.0309 18.5986L18.3138 18.8814ZM18.5284 18.6266L18.8084 18.3666L18.5363 18.0734L18.2563 18.3334L18.5284 18.6266ZM18.4935 18.1306C18.4563 18.2049 18.4277 18.3003 18.409 18.3527C18.3861 18.4169 18.3656 18.4597 18.3387 18.492L18.646 18.748C18.7191 18.6603 18.7586 18.5631 18.7857 18.4873C18.817 18.3997 18.8284 18.3551 18.8512 18.3094L18.4935 18.1306ZM18.3196 18.5192C18.2559 18.6284 18.201 18.7167 18.1701 18.8093C18.1364 18.9104 18.1323 19.0095 18.1323 19.14H18.5323C18.5323 19.0105 18.5383 18.9696 18.5496 18.9357C18.5637 18.8933 18.5888 18.8516 18.6651 18.7208L18.3196 18.5192ZM18.1632 19.0332C18.0493 19.2136 17.8949 19.4167 17.7616 19.582C17.6955 19.6641 17.6355 19.7356 17.5899 19.7889C17.567 19.8155 17.548 19.8374 17.5337 19.8535C17.5265 19.8615 17.5208 19.8679 17.5165 19.8726C17.5116 19.8779 17.5102 19.8793 17.5109 19.8786L17.7938 20.1614C17.8435 20.1117 18.253 19.6402 18.5014 19.2468L18.1632 19.0332ZM17.5109 19.8786C17.4979 19.8916 17.4831 19.904 17.4583 19.9252C17.4375 19.943 17.406 19.97 17.3787 20.0015C17.3513 20.0331 17.3148 20.0839 17.3013 20.1535C17.2865 20.2298 17.3043 20.3021 17.3408 20.3629L17.6838 20.1571C17.6862 20.1611 17.691 20.1704 17.6939 20.1845C17.6968 20.1992 17.6969 20.2148 17.694 20.2297C17.6886 20.2573 17.6758 20.2694 17.681 20.2635C17.6862 20.2575 17.6959 20.2483 17.7183 20.2292C17.7366 20.2135 17.7668 20.1884 17.7938 20.1614L17.5109 19.8786ZM17.3183 20.3085C17.3313 20.3603 17.3624 20.4128 17.4166 20.4487C17.4671 20.482 17.5195 20.489 17.5565 20.4884C17.6256 20.4874 17.6871 20.4603 17.7276 20.4384C17.8152 20.3909 17.908 20.3101 17.9751 20.2162L17.6496 19.9838C17.6167 20.0299 17.5695 20.0691 17.5371 20.0866C17.5176 20.0972 17.5241 20.0889 17.5507 20.0885C17.5665 20.0882 17.6008 20.0909 17.6372 20.115C17.6773 20.1415 17.6984 20.1797 17.7064 20.2115L17.3183 20.3085ZM17.9912 20.1894C17.9896 20.1926 17.9984 20.1776 18.0281 20.1324C18.0537 20.0934 18.0885 20.0412 18.1299 19.9797C18.2127 19.8566 18.3188 19.7002 18.4256 19.5418C18.5319 19.3843 18.6383 19.2257 18.7195 19.1011C18.7601 19.039 18.7952 18.984 18.8212 18.9413C18.8341 18.9201 18.8459 18.9002 18.8552 18.883C18.86 18.8743 18.8779 18.8426 18.8864 18.8085L18.4983 18.7115C18.5043 18.6874 18.5135 18.6743 18.504 18.6917C18.4991 18.7006 18.4911 18.7143 18.4796 18.7332C18.4568 18.7706 18.4243 18.8216 18.3845 18.8826C18.3051 19.0043 18.2003 19.1607 18.094 19.3182C17.9884 19.4748 17.8807 19.6334 17.798 19.7565C17.7565 19.8182 17.7205 19.872 17.6936 19.913C17.6707 19.948 17.6451 19.9874 17.6335 20.0106L17.9912 20.1894ZM18.8569 18.8736C19.4511 18.0131 19.8192 17.0917 20.1966 16.1978L19.8281 16.0422C19.4455 16.9483 19.0936 17.8269 18.5278 18.6464L18.8569 18.8736ZM20.1972 16.1964C20.5837 15.2605 21.0468 13.5467 21.3066 12.4876L20.9181 12.3924C20.6579 13.4533 20.201 15.1395 19.8275 16.0436L20.1972 16.1964ZM21.1123 12.44C20.9141 12.4662 20.9141 12.4662 20.9141 12.4662C20.9141 12.4663 20.9141 12.4663 20.9141 12.4663C20.9141 12.4664 20.9141 12.4665 20.9141 12.4666C20.9142 12.4669 20.9142 12.4673 20.9143 12.4679C20.9144 12.469 20.9147 12.4708 20.915 12.4731C20.9156 12.4776 20.9165 12.4845 20.9176 12.4935C20.92 12.5115 20.9235 12.5382 20.9279 12.5728C20.9368 12.6421 20.9497 12.743 20.9654 12.8694C20.9969 13.1223 21.04 13.4771 21.0861 13.885C21.1785 14.7015 21.283 15.7273 21.3327 16.5717L21.732 16.5483C21.6817 15.6927 21.5762 14.6585 21.4836 13.84C21.4372 13.4304 21.394 13.074 21.3624 12.82C21.3466 12.693 21.3336 12.5915 21.3247 12.5218C21.3202 12.4869 21.3167 12.46 21.3143 12.4417C21.3131 12.4326 21.3122 12.4256 21.3116 12.4209C21.3113 12.4186 21.311 12.4168 21.3109 12.4156C21.3108 12.415 21.3107 12.4146 21.3107 12.4143C21.3107 12.4141 21.3106 12.414 21.3106 12.4139C21.3106 12.4139 21.3106 12.4138 21.3106 12.4138C21.3106 12.4138 21.3106 12.4138 21.1123 12.44ZM21.3328 16.5727C21.3931 17.5189 21.4513 18.2401 21.3733 19.0201L21.7714 19.0599C21.8534 18.2399 21.7915 17.4811 21.7319 16.5473L21.3328 16.5727ZM21.3736 19.0179C21.3596 19.1436 21.3792 19.2692 21.4545 19.38C21.5272 19.487 21.6366 19.5571 21.7581 19.6057L21.9066 19.2343C21.8281 19.2029 21.7975 19.173 21.7852 19.155C21.7755 19.1408 21.7651 19.1164 21.7711 19.0621L21.3736 19.0179ZM21.7472 19.601L22.0872 19.761L22.2575 19.399L21.9175 19.239L21.7472 19.601ZM22.0911 19.7628C22.126 19.7782 22.1756 19.8017 22.2068 19.815C22.2432 19.8304 22.2892 19.848 22.3416 19.8555C22.4637 19.8729 22.5638 19.8287 22.6583 19.7696L22.4463 19.4304C22.4131 19.4512 22.3971 19.4576 22.3912 19.4594C22.3893 19.46 22.3937 19.4589 22.3981 19.4595C22.3987 19.4596 22.3966 19.4594 22.3908 19.4575C22.3848 19.4555 22.3762 19.4523 22.3635 19.4469C22.3506 19.4414 22.3361 19.4348 22.3172 19.4262C22.2991 19.4178 22.2774 19.4078 22.2536 19.3972L22.0911 19.7628ZM22.6938 19.7414C22.7448 19.6904 22.7918 19.6308 22.8272 19.5671C22.8612 19.5059 22.8923 19.4266 22.8923 19.34H22.4923C22.4923 19.3334 22.4935 19.3441 22.4775 19.3729C22.4629 19.3992 22.4399 19.4296 22.4109 19.4586L22.6938 19.7414ZM22.8864 19.3885C22.9815 19.008 23.1518 18.6492 23.3167 18.2576L22.948 18.1024C22.7929 18.4708 22.6032 18.872 22.4983 19.2915L22.8864 19.3885ZM23.3167 18.2576C23.3911 18.0808 23.485 17.9159 23.5854 17.7428C23.6838 17.573 23.7899 17.393 23.8751 17.2012L23.5096 17.0388C23.4348 17.207 23.3409 17.367 23.2393 17.5422C23.1397 17.7141 23.0336 17.8992 22.948 18.1024L23.3167 18.2576ZM23.8739 17.2038C24.1144 16.6828 24.3642 16.1672 24.7433 15.7312L24.4414 15.4688C24.0205 15.9528 23.7503 16.5172 23.5108 17.0362L23.8739 17.2038ZM24.7338 15.7414C24.8717 15.6035 25.0426 15.4214 25.0111 15.1379L24.6136 15.1821C24.6221 15.2586 24.593 15.3165 24.4509 15.4586L24.7338 15.7414ZM25.0123 15.16C25.0123 15.1788 25.0076 15.1912 25.0059 15.1952C25.0044 15.1987 25.0045 15.1972 25.0098 15.19C25.015 15.1831 25.0228 15.1739 25.0342 15.1618C25.0457 15.1496 25.0583 15.1369 25.0738 15.1214L24.7909 14.8386C24.7635 14.866 24.7225 14.9064 24.6898 14.95C24.6587 14.9915 24.6123 15.0647 24.6123 15.16H25.0123ZM25.0684 15.1266L25.3484 14.8666L25.0763 14.5734L24.7963 14.8334L25.0684 15.1266ZM25.398 14.6457C25.3757 14.5899 25.3353 14.5444 25.282 14.5163C25.2329 14.4904 25.184 14.4849 25.1481 14.4853C25.0795 14.486 25.014 14.5086 24.9675 14.5281C24.8695 14.5691 24.7687 14.6348 24.7074 14.6838L24.9573 14.9962C24.996 14.9652 25.0652 14.9209 25.1222 14.8969C25.1532 14.8839 25.1615 14.8852 25.1523 14.8853C25.146 14.8854 25.1232 14.8848 25.0953 14.87C25.0631 14.8531 25.039 14.8251 25.0266 14.7943L25.398 14.6457ZM24.7074 14.6838C24.2777 15.0276 24.0016 15.4343 23.7735 15.8906L24.1312 16.0694C24.3431 15.6457 24.587 15.2924 24.9573 14.9962L24.7074 14.6838ZM23.7735 15.8906L23.6735 16.0906L24.0312 16.2694L24.1312 16.0694L23.7735 15.8906ZM23.6735 16.0906C23.6824 16.0726 23.6922 16.0617 23.696 16.0576C23.7002 16.0532 23.7024 16.0517 23.7007 16.053C23.6961 16.0566 23.6877 16.0624 23.6692 16.0743C23.6406 16.0927 23.5795 16.13 23.5309 16.1786L23.8138 16.4614C23.8252 16.45 23.8441 16.4373 23.8855 16.4107C23.902 16.4001 23.9261 16.3846 23.9478 16.3676C23.9658 16.3534 24.0055 16.3208 24.0312 16.2694L23.6735 16.0906ZM23.5145 16.1972C23.3767 16.3744 23.2339 16.5356 23.0833 16.7174C22.9362 16.895 22.7886 17.0841 22.6608 17.2971L23.0038 17.5029C23.1161 17.3159 23.2485 17.145 23.3913 16.9726C23.5308 16.8044 23.688 16.6256 23.8302 16.4428L23.5145 16.1972ZM22.6754 17.2761L22.3754 17.6561L22.6893 17.9039L22.9893 17.5239L22.6754 17.2761ZM22.7112 17.6906C22.6918 17.6517 22.6923 17.6373 22.6923 17.635C22.6923 17.6253 22.694 17.6181 22.7064 17.5685L22.3183 17.4715C22.3107 17.5019 22.2923 17.5647 22.2923 17.635C22.2923 17.7127 22.3129 17.7883 22.3535 17.8694L22.7112 17.6906ZM22.6872 17.6171C22.7409 17.5205 22.7886 17.4195 22.8331 17.3256C22.8786 17.2295 22.9209 17.1405 22.9672 17.0571L22.6175 16.8629C22.5638 16.9595 22.5161 17.0605 22.4716 17.1544C22.4261 17.2505 22.3838 17.3395 22.3375 17.4229L22.6872 17.6171ZM22.9684 17.0548C23.0205 16.9581 23.0727 16.9128 23.128 16.8681C23.1823 16.8242 23.2869 16.7508 23.3396 16.6102L22.9651 16.4698C22.9578 16.4892 22.9524 16.4958 22.8767 16.5569C22.802 16.6172 22.7042 16.7019 22.6163 16.8652L22.9684 17.0548ZM23.1038 16.346C22.9116 16.394 22.797 16.4663 22.7081 16.559C22.6702 16.5984 22.6364 16.6428 22.6142 16.6703C22.5895 16.701 22.5679 16.7257 22.5406 16.7495L22.804 17.0505C22.8568 17.0043 22.8952 16.959 22.9255 16.9216C22.9582 16.881 22.9745 16.8591 22.9966 16.836C23.0277 16.8037 23.0731 16.766 23.2009 16.734L23.1038 16.346ZM22.5443 16.7464C22.443 16.8308 22.3872 16.9542 22.3488 17.0431C22.3043 17.1461 22.2719 17.232 22.2208 17.3171L22.5638 17.5229C22.6328 17.408 22.6804 17.2839 22.7159 17.2019C22.7574 17.1058 22.7817 17.0692 22.8004 17.0536L22.5443 16.7464ZM22.5923 17.42C22.5923 17.3091 22.5714 17.0203 22.5508 16.8552L22.1539 16.9048C22.1733 17.0597 22.1923 17.3309 22.1923 17.42H22.5923ZM22.5519 16.866C22.4713 15.7175 22.3301 14.7701 22.1703 13.6517L21.7744 13.7083C21.9346 14.8299 22.0734 15.7625 22.1528 16.894L22.5519 16.866ZM22.1702 13.651C22.111 13.2464 22.0872 12.893 22.0488 12.5219C22.0108 12.1545 21.9594 11.7822 21.8452 11.367L21.4595 11.473C21.5653 11.8578 21.6139 12.2055 21.6509 12.5631C21.6875 12.917 21.7137 13.2936 21.7745 13.709L22.1702 13.651ZM21.8453 11.3674C21.8314 11.3165 21.8173 11.2564 21.8011 11.1876C21.7853 11.12 21.7679 11.0451 21.7485 10.9699C21.7104 10.8228 21.6605 10.6573 21.5879 10.5242L21.2368 10.7158C21.2842 10.8027 21.3243 10.9272 21.3612 11.0701C21.3793 11.1399 21.3956 11.21 21.4117 11.2787C21.4274 11.3461 21.4433 11.4135 21.4594 11.4726L21.8453 11.3674ZM21.5685 10.4951C21.4668 10.3679 21.3487 10.2873 21.2376 10.2422C21.1335 10.1999 21.0184 10.1823 20.9238 10.206L21.0209 10.594C21.0063 10.5977 21.0312 10.5901 21.0871 10.6128C21.1359 10.6326 21.1979 10.6721 21.2562 10.7449L21.5685 10.4951ZM20.9723 10.2C20.8017 10.2 20.6411 10.2529 20.5208 10.3616C20.3986 10.4719 20.3323 10.6271 20.3323 10.8H20.7323C20.7323 10.7329 20.756 10.6881 20.7889 10.6584C20.8236 10.6271 20.883 10.6 20.9723 10.6V10.2ZM20.3323 10.8C20.3323 11.0104 20.293 11.4309 20.2394 11.6274L20.6253 11.7326C20.6917 11.4891 20.7323 11.0296 20.7323 10.8H20.3323ZM20.2426 11.6168C20.1877 11.7815 20.1557 11.9435 20.1301 12.0971C20.1036 12.2562 20.0855 12.3945 20.0562 12.5408L20.4485 12.6192C20.4792 12.4655 20.5011 12.3038 20.5246 12.1629C20.549 12.0165 20.577 11.8785 20.6221 11.7432L20.2426 11.6168ZM20.0558 12.5431C19.938 13.171 19.801 13.6418 19.5821 14.3184L19.9626 14.4416C20.1837 13.7582 20.3266 13.269 20.4489 12.6169L20.0558 12.5431ZM19.5826 14.3168C19.5045 14.5512 19.4117 14.7855 19.3182 15.0281C19.2257 15.2683 19.1329 15.5152 19.0603 15.764L19.4443 15.876C19.5118 15.6448 19.599 15.4117 19.6915 15.1719C19.783 14.9345 19.8802 14.6888 19.9621 14.4432L19.5826 14.3168ZM19.0605 15.7636C19.0163 15.9136 18.9491 16.0541 18.8696 16.1986C18.8297 16.2711 18.788 16.3424 18.7447 16.4171C18.7019 16.4908 18.6577 16.5674 18.6159 16.6459L18.9688 16.8341C19.0069 16.7626 19.0478 16.6917 19.0906 16.6179C19.1329 16.5451 19.1775 16.4689 19.2201 16.3914C19.3056 16.2359 19.3883 16.0664 19.4442 15.8764L19.0605 15.7636ZM18.6037 16.6734C18.5479 16.8315 18.4672 16.9823 18.3809 17.1684C18.2994 17.3441 18.2174 17.5438 18.1936 17.7579L18.5911 17.8021C18.6073 17.6562 18.6653 17.5059 18.7438 17.3366C18.8175 17.1777 18.9167 16.9885 18.9809 16.8066L18.6037 16.6734ZM18.2643 17.6264C17.868 17.9566 17.6489 18.3529 17.6726 18.8495L18.0721 18.8305C18.0558 18.4871 18.1967 18.2034 18.5204 17.9336L18.2643 17.6264ZM17.7309 18.6986C17.5087 18.9208 17.2932 19.1558 17.1396 19.4192L17.4851 19.6208C17.6115 19.4042 17.796 19.1992 18.0138 18.9814L17.7309 18.6986ZM17.1523 19.4C17.0551 19.5296 17.103 19.6695 17.1176 19.7132C17.1296 19.7491 17.1322 19.7536 17.1355 19.7667C17.1377 19.7753 17.1316 19.7585 17.1383 19.7315L17.5264 19.8285C17.5431 19.7615 17.532 19.7022 17.5229 19.6671C17.515 19.6364 17.5001 19.5959 17.4971 19.5868C17.4906 19.5673 17.4926 19.5682 17.4929 19.5774C17.4933 19.5931 17.4888 19.6181 17.4723 19.64L17.1523 19.4ZM17.1535 19.6906C17.1245 19.7486 17.0999 19.7753 17.0595 19.8272C17.0143 19.8852 16.9674 19.9553 16.9383 20.0715L17.3264 20.1685C17.3373 20.1247 17.3503 20.1048 17.3752 20.0728C17.4048 20.0347 17.4602 19.9714 17.5112 19.8694L17.1535 19.6906ZM16.9909 19.9786C16.7788 20.1907 16.7699 20.2233 16.6523 20.38L16.9723 20.62C17.0948 20.4567 17.0859 20.4493 17.2738 20.2614L16.9909 19.9786ZM16.6513 20.3814C16.3831 20.7454 15.9613 21.1183 15.5331 21.2039L15.6116 21.5961C16.1834 21.4817 16.6816 21.0146 16.9734 20.6186L16.6513 20.3814ZM15.5339 21.2037C15.1121 21.2863 14.8335 21.225 14.6144 21.0117C14.3766 20.7802 14.1763 20.3409 14.0076 19.5769L13.617 19.6631C13.7884 20.4391 14.0081 20.9798 14.3353 21.2983C14.6812 21.635 15.1126 21.6937 15.6107 21.5963L15.5339 21.2037ZM14.0123 19.62C14.0123 19.5335 13.9918 19.4309 13.926 19.352C13.891 19.31 13.8395 19.2712 13.7714 19.256C13.7023 19.2407 13.6367 19.2542 13.5829 19.2811L13.7618 19.6389C13.748 19.6458 13.7199 19.6543 13.6846 19.6465C13.6502 19.6388 13.6287 19.62 13.6187 19.608C13.6095 19.597 13.6084 19.5903 13.6096 19.5944C13.6106 19.5977 13.6123 19.6062 13.6123 19.62H14.0123ZM13.6331 19.2639C13.5258 19.2854 13.4496 19.3454 13.402 19.4227C13.3628 19.4864 13.3466 19.5585 13.3383 19.5915L13.7264 19.6885C13.7317 19.6672 13.735 19.6543 13.7386 19.6432C13.7421 19.6328 13.7438 19.6306 13.7427 19.6323C13.741 19.6351 13.736 19.6419 13.727 19.6483C13.718 19.6547 13.7112 19.6562 13.7116 19.6561L13.6331 19.2639ZM13.3426 19.5768L13.2626 19.8168L13.6421 19.9432L13.7221 19.7032L13.3426 19.5768ZM13.2541 19.9064C13.2743 20.0581 13.2759 20.1764 13.2934 20.3477C13.3092 20.5033 13.3368 20.6715 13.4085 20.8388L13.7762 20.6812C13.7279 20.5685 13.7055 20.4467 13.6913 20.3073C13.6787 20.1836 13.6704 20.0019 13.6506 19.8536L13.2541 19.9064ZM13.3971 20.8034C13.6232 21.8209 14.5282 22.22 15.1923 22.22V21.82C14.6565 21.82 13.9615 21.4991 13.7876 20.7166L13.3971 20.8034ZM28.0224 23.3177C28.3664 23.3699 28.5955 23.3596 28.784 23.2902C28.9601 23.2253 29.0947 23.1041 29.2086 23.0227L28.9761 22.6973C28.8099 22.8159 28.7546 22.8747 28.6457 22.9148C28.5492 22.9504 28.3983 22.9701 28.0823 22.9223L28.0224 23.3177ZM29.2796 22.9302C29.291 22.8999 29.3009 22.858 29.2951 22.8096C29.2888 22.7579 29.2663 22.7129 29.2344 22.6782C29.1801 22.6191 29.1086 22.6006 29.0763 22.5932C29.0053 22.5769 28.9005 22.572 28.8177 22.5656C28.6272 22.5509 28.3997 22.5229 28.1901 22.4055L27.9946 22.7545C28.285 22.9171 28.5875 22.9491 28.787 22.9644C28.8992 22.973 28.9543 22.9756 28.9871 22.9831C29.0067 22.9876 28.973 22.985 28.9398 22.9488C28.9185 22.9256 28.9023 22.8938 28.8979 22.8575C28.8939 22.8245 28.9012 22.8001 28.9051 22.7898L29.2796 22.9302ZM28.1895 22.4052C28.0437 22.3242 27.65 22.0842 27.4666 21.3326L27.078 21.4274C27.2947 22.3158 27.781 22.6358 27.9952 22.7548L28.1895 22.4052ZM27.4664 21.3315C27.3496 20.8645 27.2968 20.4777 27.3885 20.0192L26.9962 19.9408C26.8879 20.4823 26.9551 20.9355 27.0783 21.4285L27.4664 21.3315ZM27.3885 20.0192C27.3948 19.9875 27.3968 19.9414 27.398 19.906C27.3996 19.863 27.4006 19.8082 27.4014 19.7456C27.403 19.6206 27.4036 19.4579 27.4048 19.2864C27.4074 18.9388 27.4124 18.5577 27.4316 18.3373L27.0331 18.3027C27.0123 18.5423 27.0073 18.9412 27.0048 19.2836C27.0036 19.4571 27.003 19.6169 27.0014 19.7406C27.0006 19.8024 26.9997 19.8535 26.9983 19.8917C26.9967 19.9373 26.9949 19.9475 26.9962 19.9408L27.3885 20.0192ZM27.4317 18.3359C27.51 17.3573 27.7452 16.3943 28.0813 15.4256L27.7034 15.2944C27.3595 16.2857 27.1147 17.2827 27.033 18.3041L27.4317 18.3359ZM28.0808 15.4269C28.5227 14.1817 28.9366 12.9608 29.6056 11.7999L29.2591 11.6001C28.5681 12.7992 28.142 14.0583 27.7039 15.2931L28.0808 15.4269ZM29.5923 11.82C29.7165 11.6545 29.838 11.4664 29.8876 11.2434L29.4971 11.1566C29.4667 11.2936 29.3882 11.4255 29.2723 11.58L29.5923 11.82ZM29.8835 11.2588C29.9232 11.1299 29.9667 10.9548 29.9258 10.7991C29.9028 10.7119 29.8532 10.6293 29.7678 10.5694C29.6863 10.5122 29.588 10.4868 29.4848 10.4804L29.4599 10.8796C29.5166 10.8832 29.5359 10.8953 29.5381 10.8969C29.5389 10.8974 29.538 10.8968 29.5372 10.8956C29.5365 10.8945 29.5375 10.8957 29.5389 10.9009C29.5422 10.9134 29.5448 10.9394 29.5386 10.9848C29.5325 11.029 29.5197 11.0811 29.5012 11.1412L29.8835 11.2588ZM29.4944 10.4812C29.3065 10.4603 29.0968 10.4521 28.893 10.5068C28.6823 10.5634 28.4879 10.6846 28.3302 10.9029L28.6545 11.1371C28.7568 10.9954 28.8724 10.9266 28.9967 10.8932C29.1279 10.8579 29.2782 10.8597 29.4503 10.8788L29.4944 10.4812ZM28.3296 10.9038C28.3124 10.9278 28.2898 10.9538 28.2591 10.9869C28.2311 11.0171 28.1927 11.057 28.1584 11.0969C28.0877 11.1789 28.0063 11.2905 27.9762 11.4408L28.3685 11.5192C28.3784 11.4695 28.407 11.4211 28.4613 11.3581C28.4895 11.3255 28.5174 11.2966 28.5525 11.2587C28.5849 11.2237 28.6223 11.1822 28.6551 11.1362L28.3296 10.9038ZM27.9723 11.48C27.9723 11.4528 27.9849 11.4478 27.9687 11.4665C27.9542 11.4832 27.9277 11.5055 27.8894 11.5285L28.0952 11.8715C28.157 11.8345 28.2205 11.7868 28.271 11.7285C28.3198 11.6722 28.3723 11.5872 28.3723 11.48H27.9723ZM27.8588 11.5511L26.1188 13.1111L26.3859 13.4089L28.1259 11.8489L27.8588 11.5511ZM26.1296 13.1021C25.9656 13.2297 25.7585 13.3692 25.6018 13.5483L25.9029 13.8117C26.0261 13.6708 26.1791 13.5703 26.3751 13.4179L26.1296 13.1021ZM25.5923 13.56C25.5054 13.6759 25.4094 13.7911 25.3096 13.9139C25.2118 14.0342 25.1116 14.1606 25.0259 14.2891L25.3588 14.5109C25.4331 14.3994 25.5229 14.2858 25.6201 14.1661C25.7153 14.0489 25.8193 13.9241 25.9123 13.8L25.5923 13.56ZM25.0509 14.2586C24.9684 14.3411 24.9641 14.4469 24.9751 14.5129C24.9864 14.5807 25.0192 14.6497 25.0709 14.7014L25.3538 14.4186C25.3609 14.4257 25.3642 14.4314 25.3656 14.4343C25.3671 14.4374 25.3687 14.4414 25.3696 14.4471C25.3706 14.4531 25.3762 14.4989 25.3338 14.5414L25.0509 14.2586ZM25.0709 14.7014C25.1165 14.747 25.1706 14.7612 25.1925 14.7662C25.2216 14.7729 25.2502 14.775 25.2748 14.775C25.3189 14.775 25.3835 14.768 25.4418 14.7389L25.2629 14.3811C25.2748 14.3752 25.2816 14.3743 25.2798 14.3746C25.2792 14.3747 25.2771 14.375 25.2748 14.375C25.2719 14.375 25.2744 14.3746 25.2816 14.3763C25.2853 14.3771 25.2936 14.3793 25.3043 14.3841C25.3142 14.3885 25.3337 14.3986 25.3538 14.4186L25.0709 14.7014ZM25.4009 14.754C25.4716 14.7363 25.5204 14.7077 25.5573 14.68C25.5654 14.674 25.5724 14.6683 25.5775 14.6642C25.5834 14.6594 25.5856 14.6576 25.5884 14.6554C25.593 14.6518 25.5895 14.655 25.5818 14.6589L25.4029 14.3011C25.3752 14.315 25.3542 14.3307 25.3413 14.3409C25.3353 14.3455 25.3288 14.3509 25.3256 14.3534C25.3216 14.3567 25.3193 14.3585 25.3173 14.36C25.3141 14.3624 25.3132 14.3629 25.3129 14.363C25.3126 14.3631 25.3101 14.3644 25.3038 14.366L25.4009 14.754ZM25.6389 14.6161C25.6919 14.559 25.7533 14.5086 25.8223 14.4569C25.8854 14.4096 25.97 14.3505 26.038 14.2956C26.184 14.1777 26.3373 14.0156 26.352 13.7511L25.9527 13.7289C25.9473 13.8244 25.9007 13.8923 25.7867 13.9844C25.7246 14.0345 25.6643 14.0754 25.5823 14.1369C25.5064 14.1939 25.4228 14.261 25.3458 14.3439L25.6389 14.6161ZM26.3421 13.8032C26.3313 13.8357 26.315 13.8506 26.3275 13.8357C26.3337 13.8283 26.345 13.816 26.363 13.7981C26.3985 13.7629 26.4502 13.7158 26.5154 13.6591C26.6452 13.5464 26.8199 13.4036 27.006 13.2572C27.3834 12.9603 27.7859 12.6657 27.9495 12.5748L27.7552 12.2252C27.5588 12.3343 27.1313 12.6497 26.7587 12.9428C26.5698 13.0914 26.3895 13.2386 26.2531 13.3571C26.1852 13.4161 26.1259 13.4699 26.0812 13.5142C26.0591 13.5361 26.0381 13.5582 26.0207 13.579C26.0096 13.5923 25.9784 13.6293 25.9626 13.6768L26.3421 13.8032ZM27.7109 12.5414L27.7309 12.5614L28.0138 12.2786L27.9938 12.2586L27.7109 12.5414ZM27.6885 12.3412C27.6267 12.4854 27.5745 12.6263 27.5234 12.7575C27.4716 12.8908 27.4193 13.0189 27.3535 13.1506L27.7112 13.3294C27.7854 13.1811 27.8431 13.0392 27.8962 12.9025C27.9502 12.7637 27.998 12.6346 28.0562 12.4988L27.6885 12.3412ZM27.3433 13.1746C27.2501 13.4441 27.1275 13.7875 27.0159 14.1095C26.962 14.2647 26.9133 14.4077 26.8779 14.5173C26.8603 14.572 26.8454 14.6201 26.8347 14.6581C26.8294 14.677 26.8246 14.6954 26.821 14.7119C26.8185 14.7229 26.8123 14.7506 26.8123 14.78H27.2123C27.2123 14.7994 27.2088 14.8104 27.2114 14.7986C27.2129 14.7923 27.2155 14.7817 27.2199 14.7662C27.2285 14.7355 27.2416 14.693 27.2586 14.6402C27.2926 14.5348 27.3401 14.3953 27.3938 14.2405C27.4972 13.9425 27.6346 13.5559 27.7213 13.3054L27.3433 13.1746ZM26.8178 14.7337C26.7688 14.9394 26.7103 15.1442 26.6519 15.3572C26.5943 15.5679 26.5375 15.7843 26.4959 16.0026L26.8888 16.0774C26.9272 15.8757 26.9804 15.6721 27.0377 15.4628C27.0944 15.2558 27.1559 15.0406 27.2069 14.8263L26.8178 14.7337ZM26.5005 15.9836C26.399 16.3285 26.3181 16.6525 26.2377 16.9942L26.627 17.0858C26.7066 16.7475 26.7857 16.4315 26.8842 16.0964L26.5005 15.9836ZM26.234 17.0141L26.054 18.3941L26.4507 18.4459L26.6307 17.0659L26.234 17.0141ZM26.0539 18.3952C26.0117 18.7326 25.9973 19.4315 26.0478 20.1441C26.0732 20.5019 26.1153 20.868 26.1798 21.1978C26.2437 21.5243 26.3323 21.8294 26.4571 22.0564L26.8076 21.8636C26.7124 21.6906 26.6335 21.4332 26.5724 21.121C26.5119 20.812 26.4715 20.4631 26.4468 20.1159C26.3974 19.4185 26.413 18.7474 26.4508 18.4448L26.0539 18.3952ZM26.4575 22.0571C26.7642 22.6091 27.2062 23.2044 28.0248 23.3181L28.0799 22.9219C27.4585 22.8356 27.1005 22.3909 26.8072 21.8629L26.4575 22.0571ZM26.7632 20.2203C26.6747 19.9369 26.6923 19.6954 26.6923 19.4H26.2923C26.2923 19.6646 26.27 19.9831 26.3814 20.3397L26.7632 20.2203ZM26.6923 19.4C26.6923 19.0878 26.7119 18.7561 26.7508 18.4448L26.3539 18.3952C26.3128 18.7239 26.2923 19.0722 26.2923 19.4H26.6923ZM26.7511 18.4421C26.7704 18.2682 26.7943 18.0632 26.7708 17.8752L26.3739 17.9248C26.3904 18.0568 26.3742 18.2118 26.3536 18.3979L26.7511 18.4421ZM26.7708 17.8752C26.7373 17.6075 26.8186 17.3949 26.9035 17.1188L26.5212 17.0012C26.4461 17.2451 26.3274 17.5525 26.3739 17.9248L26.7708 17.8752ZM26.9096 17.0929L27.0296 16.3729L26.6351 16.3071L26.5151 17.0271L26.9096 17.0929ZM27.0323 16.34C27.0323 16.2417 26.9998 16.15 26.9821 16.0968L26.6026 16.2232C26.6248 16.29 26.6323 16.3183 26.6323 16.34H27.0323ZM26.9821 16.2232C26.9934 16.1893 26.9979 16.1586 27.0003 16.1357C27.0015 16.1244 27.0023 16.1139 27.0028 16.106C27.0034 16.0971 27.0037 16.0921 27.0042 16.0866C27.0057 16.0681 27.0069 16.0788 26.9988 16.0909L26.6659 15.8691C26.6178 15.9412 26.609 16.0118 26.6055 16.0534C26.6031 16.0825 26.6041 16.0789 26.6025 16.0943C26.6017 16.1014 26.6013 16.1007 26.6026 16.0968L26.9821 16.2232ZM27.018 16.0543C27.0863 15.8837 27.2043 15.6621 27.2491 15.4158L26.8556 15.3442C26.8204 15.5379 26.7384 15.6763 26.6466 15.9057L27.018 16.0543ZM27.2485 15.4192C27.25 15.4117 27.2505 15.4141 27.2463 15.4212C27.2442 15.4247 27.2414 15.4286 27.2378 15.4325C27.2342 15.4364 27.2306 15.4395 27.2275 15.4417C27.2215 15.4461 27.2188 15.4464 27.2248 15.4442C27.2276 15.4432 27.2318 15.4418 27.2381 15.44C27.2443 15.4382 27.2516 15.4363 27.2609 15.434L27.1638 15.046C27.1274 15.0551 27.0554 15.0723 26.9922 15.1183C26.917 15.173 26.8742 15.2509 26.8562 15.3408L27.2485 15.4192ZM27.0127 15.2275C26.9931 15.5418 26.9546 15.8307 26.8311 16.0954L27.1936 16.2646C27.3501 15.9293 27.3916 15.5782 27.412 15.2525L27.0127 15.2275ZM26.8285 16.1012C26.7508 16.2827 26.7523 16.4401 26.7523 16.56H27.1523C27.1523 16.4399 27.1539 16.3573 27.1962 16.2588L26.8285 16.1012ZM26.7583 16.5115C26.7367 16.5979 26.7206 16.684 26.706 16.7595C26.6909 16.8376 26.6773 16.9045 26.66 16.9651L27.0446 17.0749C27.0674 16.9955 27.0838 16.9124 27.0987 16.8355C27.1141 16.756 27.128 16.6821 27.1464 16.6085L26.7583 16.5115ZM26.6578 16.9737C26.6045 17.1976 26.5784 17.4242 26.5559 17.6392C26.533 17.8581 26.5139 18.0629 26.4759 18.2626L26.8688 18.3374C26.9108 18.1171 26.9317 17.8919 26.9538 17.6808C26.9763 17.4658 27.0002 17.2624 27.0469 17.0663L26.6578 16.9737ZM26.4723 18.3C26.4723 18.3809 26.4858 18.457 26.499 18.5208C26.5139 18.5919 26.5258 18.6375 26.5351 18.6929L26.9296 18.6271C26.9188 18.5625 26.9008 18.4881 26.8906 18.4392C26.8789 18.383 26.8723 18.3391 26.8723 18.3H26.4723ZM26.9112 18.7494C27.0309 18.5101 27.0521 18.2516 27.0715 18.0381L26.6732 18.0019C26.6526 18.2284 26.6338 18.4099 26.5535 18.5706L26.9112 18.7494ZM27.0708 18.0448C27.0814 17.9604 27.0892 17.9064 27.108 17.8593C27.1237 17.82 27.1485 17.7829 27.2033 17.7464L26.9814 17.4136C26.719 17.5885 26.6936 17.8371 26.6739 17.9952L27.0708 18.0448ZM26.8929 17.5658C26.8532 18.1207 26.7938 18.6553 26.7147 19.1696L27.11 19.2304C27.1909 18.7047 27.2515 18.1593 27.2918 17.5942L26.8929 17.5658ZM26.8731 19.0039C26.867 19.0051 26.8773 19.0019 26.8972 19.0066C26.9203 19.012 26.9456 19.0257 26.9654 19.0483C26.9832 19.0687 26.9892 19.0878 26.9911 19.0952C26.9929 19.1025 26.9923 19.105 26.9923 19.1H26.5923C26.5923 19.141 26.5968 19.2345 26.6643 19.3117C26.7469 19.406 26.8628 19.4139 26.9516 19.3961L26.8731 19.0039ZM26.9923 19.1C26.9923 19.0669 26.9944 19.0335 26.9967 18.9917C26.9989 18.9527 27.0013 18.9058 26.9997 18.8583C26.9965 18.7615 26.9762 18.6402 26.886 18.532L26.5787 18.788C26.5885 18.7998 26.5982 18.8185 26.6 18.8717C26.6009 18.8992 26.5995 18.9298 26.5973 18.9695C26.5953 19.0065 26.5923 19.0531 26.5923 19.1H26.9923ZM26.5575 18.5629C26.3257 18.9802 26.3723 19.4296 26.3723 19.78H26.7723C26.7723 19.3704 26.739 19.0598 26.9072 18.7571L26.5575 18.5629ZM26.3723 19.78C26.3723 19.8284 26.3775 19.8739 26.3824 19.9119C26.3878 19.9532 26.3924 19.9833 26.3957 20.0187C26.4017 20.0821 26.4014 20.1468 26.3794 20.2274L26.7653 20.3326C26.8033 20.1932 26.803 20.0779 26.794 19.9813C26.7898 19.9367 26.7832 19.8918 26.7791 19.8606C26.7747 19.8261 26.7723 19.8016 26.7723 19.78H26.3723ZM23.2938 16.6814C23.5377 16.4375 23.6903 16.1513 23.8284 15.8948L23.4763 15.7052C23.3343 15.9687 23.207 16.2025 23.0109 16.3986L23.2938 16.6814ZM23.5414 15.6336C23.1917 15.8667 23.026 16.1752 22.9568 16.4981L23.3479 16.5819C23.3987 16.3448 23.513 16.1333 23.7633 15.9664L23.5414 15.6336ZM27.4807 16.4727C27.4275 16.3238 27.4173 16.2886 27.4173 16.2425C27.4173 16.1845 27.4341 16.1081 27.4869 15.8863L27.0978 15.7937C27.0506 15.9919 27.0173 16.1255 27.0173 16.2425C27.0173 16.3714 27.0572 16.4762 27.104 16.6073L27.4807 16.4727ZM27.1296 15.9562C27.2009 16.056 27.2072 16.1252 27.1991 16.1861C27.1879 16.2699 27.1534 16.3368 27.1044 16.4717L27.4803 16.6083C27.5113 16.5232 27.5768 16.3801 27.5956 16.2389C27.6175 16.0748 27.5838 15.904 27.4551 15.7238L27.1296 15.9562ZM18.8876 18.1834C18.9663 17.829 19.0596 17.5015 19.2757 17.1953L18.949 16.9647C18.6851 17.3385 18.5783 17.731 18.4971 18.0966L18.8876 18.1834ZM19.286 17.1792C19.3778 17.0185 19.4439 16.8178 19.5021 16.6432L19.1226 16.5168C19.0608 16.7022 19.0069 16.8615 18.9387 16.9808L19.286 17.1792ZM19.1257 16.6518C19.1511 16.7178 19.1672 16.7613 19.1773 16.7943C19.1821 16.8102 19.1847 16.8209 19.1861 16.8281C19.1874 16.8351 19.1873 16.8377 19.1873 16.8375C19.1873 16.829 19.1973 16.8267 19.1427 16.914L19.4819 17.126C19.5274 17.0533 19.5873 16.961 19.5873 16.8375C19.5873 16.7802 19.5749 16.7267 19.5599 16.6775C19.545 16.6287 19.5236 16.5722 19.499 16.5082L19.1257 16.6518ZM19.1459 16.9091C19.006 17.119 18.9359 17.3314 18.9132 17.5819L19.3115 17.6181C19.3288 17.4286 19.3787 17.281 19.4788 17.1309L19.1459 16.9091ZM18.9133 17.5801C18.9104 17.6092 18.8879 17.657 18.8093 17.7403C18.7724 17.7794 18.7314 17.8183 18.6843 17.8634C18.6391 17.9067 18.5888 17.9555 18.5429 18.0071L18.8418 18.2729C18.8759 18.2345 18.9156 18.1958 18.9611 18.1522C19.0046 18.1105 19.0548 18.0631 19.1004 18.0147C19.1868 17.923 19.2943 17.7908 19.3114 17.6199L18.9133 17.5801Z" fill="black"/>
<defs>
<filter id="filter0_f" x="0.703308" y="0.606689" width="46.6407" height="50.2067" filterUnits="userSpaceOnUse" color-interpolation-filters="sRGB">
<feFlood flood-opacity="0" result="BackgroundImageFix"/>
<feBlend mode="normal" in="SourceGraphic" in2="BackgroundImageFix" result="shape"/>
<feGaussianBlur stdDeviation="2.5" result="effect1_foregroundBlur"/>
</filter>
</defs>
</svg>
