<svg width="48" height="51" viewBox="0 0 48 51" fill="none" xmlns="http://www.w3.org/2000/svg">
<g opacity="0.4" filter="url(#filter0_f)">
<path d="M25.932 7.30875C16.8824 6.37023 8.91808 11.4109 8.1782 18.5451C7.92822 20.9555 8.53121 23.3957 9.92246 25.6028L21.2339 43.5048C21.4506 43.8477 21.8703 44.086 22.3431 44.135C22.3468 44.1354 22.3503 44.1357 22.354 44.1361C22.8312 44.1826 23.2924 44.0297 23.5708 43.7325L37.9998 28.3379C39.7214 26.4973 40.7596 24.2881 41.0022 21.9492C41.742 14.815 34.9816 8.24726 25.932 7.30875Z" fill="#263C43"/>
</g>
<path d="M21.5 0C12.4019 0 5 7.2547 5 16.1719C5 19.1847 5.85149 22.1249 7.46299 24.6758L20.5608 45.3629C20.8117 45.7592 21.2537 46 21.7291 46C21.7327 46 21.7363 46 21.74 46C22.2195 45.9963 22.6624 45.7481 22.9087 45.3449L35.6727 24.4573C37.1953 21.9603 38 19.0953 38 16.1719C38 7.2547 30.5981 0 21.5 0Z" fill="white"/>
<circle cx="21.5" cy="16.5" r="12" stroke="#8FC5D7"/>
<path d="M26.3024 11.66C26.2224 11.48 26.0824 11.28 25.9224 11.16C25.4424 10.8 24.5824 10.74 23.9624 10.8C23.1224 10.88 22.5224 11.12 21.3624 11.66C20.9024 11.88 20.5224 12.16 20.1024 12.48C19.7824 12.72 19.5024 13 19.3024 13.34C18.9024 13.94 18.8424 14.62 19.1624 15.34C19.4424 16 20.1824 16.54 20.5424 16.76C20.9424 17.02 21.3424 17.3 21.7824 17.52C22.4224 17.82 23.0424 18.2 23.5624 18.68C23.8624 18.96 24.1424 19.24 24.3024 19.62C24.5024 20.04 24.4224 20.42 24.2024 20.76C24.0224 21.04 23.7624 21.32 23.4824 21.5C22.7824 21.96 21.7424 22.48 20.6624 22.64C20.2024 22.72 19.7424 22.74 19.2824 22.72C18.9024 22.7 18.5024 22.58 18.1024 22.34C17.5424 22 17.3224 21.1 17.3624 20.5C17.4224 19.72 17.9224 19.32 18.5824 19.12C18.9224 19 18.3224 18.4 17.8424 18.64C17.7424 18.68 17.2824 18.86 16.9224 19.24C16.9624 19.24 16.9824 19.26 16.9824 19.28L16.8424 19.34C16.6224 19.62 16.4624 19.96 16.4824 20.44C16.5424 21.82 17.4824 22.84 18.9424 23.1C19.8024 23.24 20.6624 23.26 21.5224 23.12C22.8024 22.92 24.3224 22.26 24.9224 21.42C25.1824 21.04 25.2824 20.62 25.1024 20.12C24.8624 19.54 24.5224 19.04 24.0424 18.62C23.4224 18.08 22.7424 17.64 22.0024 17.26C21.8624 17.18 21.7224 17.12 21.5824 17.02C21.2424 16.82 20.8624 16.62 20.5224 16.38C19.8624 15.86 19.4024 15.02 19.9024 14.1C20.4224 13.2 21.3424 12.78 21.6424 12.52L22.1224 12.16C22.1624 12.02 22.2224 11.96 22.3224 11.96C22.4024 11.96 22.5424 11.92 22.6024 11.88C22.6824 11.84 22.7224 11.8 22.8024 11.74C22.8824 11.6 23.1224 11.52 23.4824 11.56C23.4624 11.54 23.4824 11.48 23.5224 11.48C23.6824 11.42 23.8824 11.42 24.0624 11.38C24.0624 11.38 24.3224 11.42 24.4424 11.34L24.8024 11.38C25.0224 11.4 25.3824 11.6 25.5224 11.88C25.6824 12.2 25.6824 12.5 25.6424 12.82C25.5624 13.4 25.3824 13.62 25.0024 13.98C24.7424 14.24 24.4824 14.32 24.5424 14.48C24.8424 14.98 25.1824 14.86 25.6024 14.54C26.4424 13.84 26.7224 12.62 26.3024 11.66ZM21.4224 12.08C21.2424 12.2 21.0224 12.3 20.8024 12.42C20.6224 12.5 20.4824 12.62 20.3624 12.74C20.2024 12.8 20.0824 12.92 19.9824 13.06C19.9424 13.1 19.9224 13.12 19.8824 13.14L19.8624 13.1C20.2224 12.56 20.9024 12.26 21.4824 11.92C21.4824 11.98 21.4824 12.02 21.4224 12.08ZM24.7424 20.58C24.6824 20.44 24.6624 20.38 24.6624 20.34C24.6424 20.3 24.6624 20.26 24.6424 20.18C24.7624 20.28 24.7624 20.38 24.7424 20.58ZM16.9024 21.62C16.8424 21.36 16.7624 21.1 16.7024 20.88C16.8024 20.94 16.9624 21.46 16.9024 21.62ZM24.2024 21.26C24.0824 21.42 23.9824 21.48 23.8224 21.58C23.8824 21.36 23.9624 21.32 24.1224 21.2L24.3224 20.98C24.3224 21.12 24.3024 21.16 24.2024 21.26Z" fill="black"/>
<path d="M26.3024 11.66L26.4857 11.5798L26.4852 11.5788L26.3024 11.66ZM25.9224 11.16L26.0424 11L25.9224 11.16ZM23.9624 10.8L23.9814 10.9991L23.9817 10.9991L23.9624 10.8ZM21.3624 11.66L21.278 11.4787L21.2761 11.4796L21.3624 11.66ZM20.1024 12.48L20.2224 12.64L20.2236 12.6391L20.1024 12.48ZM19.3024 13.34L19.4691 13.4511L19.4748 13.4414L19.3024 13.34ZM19.1624 15.34L19.3466 15.2619L19.3452 15.2588L19.1624 15.34ZM20.5424 16.76L20.6515 16.5922L20.6467 16.5893L20.5424 16.76ZM21.7824 17.52L21.693 17.6989L21.6975 17.7011L21.7824 17.52ZM23.5624 18.68L23.6989 18.5338L23.6981 18.533L23.5624 18.68ZM24.3024 19.62L24.1179 19.6977L24.1219 19.706L24.3024 19.62ZM24.2024 20.76L24.0345 20.6513L24.0342 20.6518L24.2024 20.76ZM23.4824 21.5L23.3743 21.3318L23.3726 21.3329L23.4824 21.5ZM20.6624 22.64L20.6331 22.4421L20.6282 22.443L20.6624 22.64ZM19.2824 22.72L19.2719 22.9197L19.2737 22.9198L19.2824 22.72ZM18.1024 22.34L17.9986 22.511L17.9995 22.5115L18.1024 22.34ZM17.3624 20.5L17.163 20.4847L17.1629 20.4867L17.3624 20.5ZM18.5824 19.12L18.6405 19.3116L18.649 19.3086L18.5824 19.12ZM17.8424 18.64L17.9167 18.8257L17.9244 18.8226L17.9319 18.8189L17.8424 18.64ZM16.9224 19.24L16.7772 19.1025L16.4574 19.44H16.9224V19.24ZM16.9824 19.28L17.0612 19.4638L17.1824 19.4119V19.28H16.9824ZM16.8424 19.34L16.7636 19.1562L16.7167 19.1763L16.6852 19.2164L16.8424 19.34ZM16.4824 20.44L16.2826 20.4483L16.2826 20.4487L16.4824 20.44ZM18.9424 23.1L18.9074 23.2969L18.9103 23.2974L18.9424 23.1ZM21.5224 23.12L21.4915 22.9224L21.4903 22.9226L21.5224 23.12ZM24.9224 21.42L25.0852 21.5363L25.0875 21.5329L24.9224 21.42ZM25.1024 20.12L25.2908 20.0522L25.2872 20.0435L25.1024 20.12ZM24.0424 18.62L24.1741 18.4695L24.1738 18.4692L24.0424 18.62ZM22.0024 17.26L21.9031 17.4338L21.9111 17.4379L22.0024 17.26ZM21.5824 17.02L21.6987 16.8573L21.6915 16.8521L21.6838 16.8476L21.5824 17.02ZM20.5224 16.38L20.3985 16.5373L20.4071 16.5434L20.5224 16.38ZM19.9024 14.1L19.7292 13.9999L19.7267 14.0045L19.9024 14.1ZM21.6424 12.52L21.5221 12.3596L21.5114 12.3689L21.6424 12.52ZM22.1224 12.16L22.2424 12.32L22.2962 12.2796L22.3147 12.2149L22.1224 12.16ZM22.6024 11.88L22.513 11.7011L22.5018 11.7067L22.4915 11.7136L22.6024 11.88ZM22.8024 11.74L22.9224 11.9L22.9555 11.8752L22.9761 11.8392L22.8024 11.74ZM23.4824 11.56L23.4603 11.7588L24.027 11.8217L23.6238 11.4186L23.4824 11.56ZM23.5224 11.48V11.68H23.5587L23.5926 11.6673L23.5224 11.48ZM24.0624 11.38L24.0928 11.1823L24.0557 11.1766L24.019 11.1848L24.0624 11.38ZM24.4424 11.34L24.4645 11.1412L24.3921 11.1332L24.3315 11.1736L24.4424 11.34ZM24.8024 11.38L24.7803 11.5788L24.7843 11.5792L24.8024 11.38ZM25.5224 11.88L25.3435 11.9694L25.5224 11.88ZM25.6424 12.82L25.8406 12.8473L25.8409 12.8448L25.6424 12.82ZM25.0024 13.98L24.8648 13.8348L24.861 13.8386L25.0024 13.98ZM24.5424 14.48L24.3552 14.5502L24.3616 14.5673L24.3709 14.5829L24.5424 14.48ZM25.6024 14.54L25.7237 14.6992L25.7305 14.6936L25.6024 14.54ZM21.4224 12.08L21.5334 12.2464L21.5498 12.2354L21.5638 12.2214L21.4224 12.08ZM20.8024 12.42L20.8836 12.6028L20.8911 12.5995L20.8982 12.5956L20.8024 12.42ZM20.3624 12.74L20.4326 12.9273L20.4732 12.9121L20.5038 12.8814L20.3624 12.74ZM19.9824 13.06L20.1238 13.2014L20.1355 13.1897L20.1452 13.1762L19.9824 13.06ZM19.8824 13.14L19.7035 13.2294L19.793 13.4083L19.9719 13.3189L19.8824 13.14ZM19.8624 13.1L19.696 12.9891L19.6316 13.0856L19.6835 13.1894L19.8624 13.1ZM21.4824 11.92H21.6824V11.5709L21.3813 11.7475L21.4824 11.92ZM24.7424 20.58L24.5586 20.6588L24.9414 20.5999L24.7424 20.58ZM24.6624 20.34H24.8624V20.2928L24.8413 20.2506L24.6624 20.34ZM24.6424 20.18L24.7705 20.0264L24.2998 19.6341L24.4484 20.2285L24.6424 20.18ZM16.9024 21.62L16.7075 21.665L16.8567 22.3114L17.0897 21.6902L16.9024 21.62ZM16.7024 20.88L16.8053 20.7085L16.3785 20.4524L16.5095 20.9326L16.7024 20.88ZM24.2024 21.26L24.061 21.1186L24.051 21.1286L24.0424 21.14L24.2024 21.26ZM23.8224 21.58L23.6295 21.5274L23.495 22.0205L23.9284 21.7496L23.8224 21.58ZM24.1224 21.2L24.2424 21.36L24.2576 21.3486L24.2704 21.3345L24.1224 21.2ZM24.3224 20.98H24.5224V20.4627L24.1744 20.8455L24.3224 20.98ZM26.4852 11.5788C26.3954 11.3767 26.2367 11.1457 26.0424 11L25.8024 11.32C25.9282 11.4143 26.0495 11.5833 26.1197 11.7412L26.4852 11.5788ZM26.0424 11C25.7645 10.7915 25.392 10.6794 25.0244 10.6247C24.6533 10.5694 24.2667 10.5696 23.9432 10.6009L23.9817 10.9991C24.2781 10.9704 24.6316 10.9706 24.9655 11.0203C25.3029 11.0706 25.6004 11.1685 25.8024 11.32L26.0424 11ZM23.9435 10.6009C23.0665 10.6844 22.4395 10.938 21.278 11.4787L21.4468 11.8413C22.6054 11.302 23.1784 11.0756 23.9814 10.9991L23.9435 10.6009ZM21.2761 11.4796C20.7957 11.7094 20.4012 12.0009 19.9812 12.3209L20.2236 12.6391C20.6436 12.3191 21.0092 12.0506 21.4487 11.8404L21.2761 11.4796ZM19.9824 12.32C19.648 12.5708 19.3471 12.8695 19.13 13.2386L19.4748 13.4414C19.6577 13.1305 19.9169 12.8692 20.2224 12.64L19.9824 12.32ZM19.136 13.2291C18.6963 13.8887 18.6331 14.6415 18.9797 15.4212L19.3452 15.2588C19.0517 14.5985 19.1086 13.9913 19.4688 13.4509L19.136 13.2291ZM18.9783 15.4181C19.134 15.785 19.4117 16.1077 19.6867 16.3619C19.9634 16.6177 20.2496 16.8154 20.4381 16.9307L20.6467 16.5893C20.4753 16.4846 20.2114 16.3023 19.9582 16.0681C19.7031 15.8323 19.4709 15.555 19.3465 15.2619L18.9783 15.4181ZM20.4334 16.9277C20.8256 17.1826 21.2398 17.4723 21.693 17.6989L21.8719 17.3411C21.4451 17.1277 21.0593 16.8574 20.6514 16.5923L20.4334 16.9277ZM21.6975 17.7011C22.3245 17.995 22.9258 18.3645 23.4268 18.827L23.6981 18.533C23.1591 18.0355 22.5203 17.645 21.8673 17.3389L21.6975 17.7011ZM23.426 18.8262C23.7262 19.1065 23.9764 19.361 24.1181 19.6976L24.4867 19.5424C24.3085 19.119 23.9986 18.8135 23.6989 18.5338L23.426 18.8262ZM24.1219 19.706C24.2854 20.0494 24.226 20.3554 24.0345 20.6514L24.3703 20.8687C24.6189 20.4846 24.7195 20.0306 24.483 19.534L24.1219 19.706ZM24.0342 20.6518C23.8666 20.9125 23.6258 21.1701 23.3743 21.3318L23.5906 21.6682C23.8991 21.4699 24.1783 21.1675 24.3707 20.8682L24.0342 20.6518ZM23.3726 21.3329C22.6864 21.7838 21.6741 22.2879 20.6331 22.4422L20.6917 22.8378C21.8107 22.6721 22.8784 22.1362 23.5923 21.6671L23.3726 21.3329ZM20.6282 22.443C20.1849 22.5201 19.7396 22.5397 19.2911 22.5202L19.2737 22.9198C19.7453 22.9403 20.22 22.92 20.6967 22.837L20.6282 22.443ZM19.2929 22.5203C18.9483 22.5021 18.5797 22.3931 18.2053 22.1685L17.9995 22.5115C18.4252 22.7669 18.8566 22.8979 19.2719 22.9197L19.2929 22.5203ZM18.2062 22.169C17.9815 22.0326 17.8083 21.7713 17.6962 21.4514C17.5851 21.1342 17.5438 20.7863 17.562 20.5133L17.1629 20.4867C17.1411 20.8137 17.1898 21.2158 17.3187 21.5836C17.4466 21.9487 17.6634 22.3074 17.9986 22.511L18.2062 22.169ZM17.5618 20.5153C17.5885 20.1686 17.7107 19.9183 17.8912 19.7315C18.075 19.5413 18.3308 19.4052 18.6404 19.3114L18.5244 18.9286C18.1741 19.0348 17.8498 19.1987 17.6036 19.4535C17.3541 19.7117 17.1963 20.0514 17.163 20.4847L17.5618 20.5153ZM18.649 19.3086C18.7248 19.2818 18.7981 19.2328 18.8429 19.152C18.8876 19.0714 18.8888 18.9861 18.8727 18.9158C18.8425 18.7846 18.7462 18.6705 18.6454 18.5893C18.4423 18.4256 18.088 18.2936 17.753 18.4611L17.9319 18.8189C18.0768 18.7464 18.2625 18.7944 18.3944 18.9007C18.4248 18.9252 18.4476 18.9495 18.463 18.9704C18.4706 18.9807 18.4756 18.9893 18.4789 18.9958C18.4821 19.0024 18.4829 19.0056 18.4828 19.0054C18.4826 19.0046 18.4787 18.984 18.493 18.9581C18.5073 18.9322 18.525 18.9282 18.5159 18.9314L18.649 19.3086ZM17.7681 18.4543C17.666 18.4952 17.1696 18.6883 16.7772 19.1025L17.0676 19.3775C17.3952 19.0317 17.8189 18.8648 17.9167 18.8257L17.7681 18.4543ZM16.9224 19.44C16.9104 19.44 16.8801 19.437 16.8474 19.4125C16.8135 19.3871 16.7824 19.3406 16.7824 19.28H17.1824C17.1824 19.1 17.0158 19.04 16.9224 19.04V19.44ZM16.9036 19.0962L16.7636 19.1562L16.9212 19.5238L17.0612 19.4638L16.9036 19.0962ZM16.6852 19.2164C16.442 19.5259 16.2602 19.9114 16.2826 20.4483L16.6822 20.4317C16.6646 20.0086 16.8028 19.7141 16.9997 19.4636L16.6852 19.2164ZM16.2826 20.4487C16.3471 21.9313 17.3643 23.0221 18.9074 23.2969L18.9775 22.9031C17.6005 22.6579 16.7378 21.7087 16.6822 20.4313L16.2826 20.4487ZM18.9103 23.2974C19.7884 23.4403 20.6703 23.4614 21.5546 23.3174L21.4903 22.9226C20.6546 23.0586 19.8165 23.0397 18.9746 22.9026L18.9103 23.2974ZM21.5533 23.3176C22.2126 23.2146 22.9314 22.9938 23.5639 22.6903C24.1925 22.3888 24.757 21.9957 25.0852 21.5362L24.7597 21.3038C24.4878 21.6843 23.9923 22.0412 23.3909 22.3297C22.7935 22.6162 22.1122 22.8254 21.4915 22.9224L21.5533 23.3176ZM25.0875 21.5329C25.3778 21.1086 25.4957 20.622 25.2906 20.0523L24.9142 20.1877C25.0691 20.618 24.987 20.9714 24.7574 21.3071L25.0875 21.5329ZM25.2872 20.0435C25.0367 19.4381 24.6796 18.9118 24.1741 18.4695L23.9107 18.7705C24.3653 19.1682 24.6882 19.6419 24.9176 20.1965L25.2872 20.0435ZM24.1738 18.4692C23.5395 17.9167 22.8454 17.4681 22.0938 17.0821L21.9111 17.4379C22.6394 17.8119 23.3054 18.2433 23.9111 18.7708L24.1738 18.4692ZM22.1016 17.0864C21.9356 16.9915 21.8293 16.9506 21.6987 16.8573L21.4662 17.1827C21.6155 17.2894 21.7893 17.3685 21.9032 17.4336L22.1016 17.0864ZM21.6838 16.8476C21.3326 16.641 20.9688 16.4502 20.6378 16.2166L20.4071 16.5434C20.7561 16.7897 21.1523 16.999 21.481 17.1924L21.6838 16.8476ZM20.6462 16.2229C20.3374 15.9796 20.0857 15.669 19.9664 15.3246C19.8494 14.9865 19.8556 14.605 20.0781 14.1955L19.7267 14.0045C19.4492 14.515 19.4355 15.0135 19.5884 15.4554C19.7392 15.891 20.0475 16.2604 20.3986 16.5371L20.6462 16.2229ZM20.0756 14.2001C20.3169 13.7823 20.6539 13.4714 20.9751 13.2299C21.1358 13.1091 21.2902 13.0072 21.4272 12.917C21.559 12.8301 21.6861 12.7468 21.7734 12.6711L21.5114 12.3689C21.4488 12.4232 21.3484 12.4899 21.2071 12.583C21.0708 12.6728 20.9066 12.7809 20.7347 12.9101C20.391 13.1686 20.0079 13.5177 19.7292 13.9999L20.0756 14.2001ZM21.7624 12.68L22.2424 12.32L22.0024 12L21.5224 12.36L21.7624 12.68ZM22.3147 12.2149C22.3223 12.1885 22.3293 12.1711 22.3349 12.16C22.3404 12.1491 22.3432 12.147 22.3413 12.1489C22.3387 12.1515 22.3334 12.1555 22.3264 12.1582C22.32 12.1607 22.3176 12.16 22.3224 12.16V11.76C22.227 11.76 22.1336 11.791 22.0585 11.8661C21.9912 11.9334 21.9541 12.0212 21.9301 12.1051L22.3147 12.2149ZM22.3224 12.16C22.3886 12.16 22.4637 12.1448 22.5249 12.1273C22.5845 12.1103 22.6578 12.0835 22.7134 12.0464L22.4915 11.7136C22.4916 11.7135 22.4848 11.7177 22.4686 11.7244C22.4536 11.7305 22.4351 11.7369 22.415 11.7427C22.3711 11.7552 22.3362 11.76 22.3224 11.76V12.16ZM22.6919 12.0589C22.7934 12.0081 22.8617 11.9456 22.9224 11.9L22.6824 11.58C22.5832 11.6544 22.5715 11.6719 22.513 11.7011L22.6919 12.0589ZM22.9761 11.8392C22.9809 11.8307 23.0062 11.7992 23.0918 11.775C23.1752 11.7514 23.298 11.7407 23.4603 11.7588L23.5045 11.3612C23.3069 11.3393 23.1296 11.3486 22.983 11.39C22.8387 11.4308 22.7039 11.5093 22.6288 11.6408L22.9761 11.8392ZM23.6238 11.4186C23.6663 11.4611 23.6736 11.5092 23.6745 11.5317C23.6754 11.5563 23.6702 11.5763 23.6638 11.5913C23.6543 11.6133 23.6139 11.68 23.5224 11.68V11.28C23.3909 11.28 23.3205 11.3767 23.2961 11.4337C23.2822 11.4662 23.2732 11.5049 23.2747 11.5465C23.2762 11.5858 23.2885 11.6489 23.341 11.7014L23.6238 11.4186ZM23.5926 11.6673C23.6498 11.6458 23.7202 11.6331 23.8117 11.6207C23.896 11.6093 24.0049 11.5977 24.1058 11.5752L24.019 11.1848C23.9399 11.2023 23.8589 11.2107 23.7581 11.2243C23.6647 11.2369 23.5551 11.2542 23.4522 11.2927L23.5926 11.6673ZM24.0624 11.38C24.032 11.5777 24.032 11.5777 24.0321 11.5777C24.0321 11.5777 24.0321 11.5777 24.0322 11.5777C24.0322 11.5777 24.0323 11.5777 24.0323 11.5777C24.0325 11.5777 24.0326 11.5778 24.0328 11.5778C24.0331 11.5778 24.0335 11.5779 24.0339 11.578C24.0348 11.5781 24.036 11.5783 24.0374 11.5785C24.0401 11.5789 24.0439 11.5794 24.0485 11.58C24.0577 11.5811 24.0705 11.5826 24.086 11.5841C24.1167 11.587 24.1595 11.59 24.2074 11.59C24.2548 11.59 24.3113 11.5871 24.3682 11.5768C24.4231 11.5668 24.4916 11.5476 24.5534 11.5064L24.3315 11.1736C24.3332 11.1724 24.3243 11.1782 24.2966 11.1832C24.271 11.1879 24.2401 11.19 24.2074 11.19C24.1754 11.19 24.1457 11.188 24.1239 11.1859C24.1131 11.1849 24.1046 11.1839 24.0992 11.1832C24.0964 11.1828 24.0945 11.1826 24.0934 11.1824C24.0928 11.1823 24.0925 11.1823 24.0924 11.1823C24.0924 11.1823 24.0924 11.1823 24.0924 11.1823C24.0925 11.1823 24.0925 11.1823 24.0926 11.1823C24.0926 11.1823 24.0927 11.1823 24.0927 11.1823C24.0927 11.1823 24.0928 11.1823 24.0928 11.1823C24.0928 11.1823 24.0928 11.1823 24.0624 11.38ZM24.4203 11.5388L24.7803 11.5788L24.8245 11.1812L24.4645 11.1412L24.4203 11.5388ZM24.7843 11.5792C24.8526 11.5854 24.9667 11.6245 25.0836 11.7003C25.1992 11.7752 25.2943 11.871 25.3435 11.9694L25.7013 11.7906C25.6105 11.609 25.4556 11.4647 25.3012 11.3647C25.1482 11.2655 24.9722 11.1946 24.8205 11.1808L24.7843 11.5792ZM25.3435 11.9694C25.4779 12.2381 25.4819 12.4917 25.444 12.7952L25.8409 12.8448C25.8829 12.5083 25.887 12.1619 25.7013 11.7906L25.3435 11.9694ZM25.4443 12.7927C25.4067 13.0651 25.3479 13.2374 25.263 13.3803C25.1759 13.527 25.054 13.6557 24.8649 13.8348L25.14 14.1252C25.3309 13.9443 25.489 13.783 25.6069 13.5847C25.7269 13.3826 25.7981 13.1549 25.8405 12.8473L25.4443 12.7927ZM24.861 13.8386C24.7405 13.959 24.6363 14.0237 24.527 14.1117C24.4801 14.1495 24.4198 14.2018 24.38 14.2697C24.3321 14.3512 24.3172 14.449 24.3552 14.5502L24.7297 14.4098C24.7377 14.431 24.7327 14.4588 24.7249 14.4722C24.7238 14.474 24.7257 14.4704 24.7353 14.4606C24.7447 14.4511 24.7583 14.439 24.7779 14.4233C24.8486 14.3663 25.0043 14.261 25.1438 14.1214L24.861 13.8386ZM24.3709 14.5829C24.5419 14.8679 24.7602 15.0291 25.036 15.0173C25.2792 15.0069 25.5134 14.8592 25.7236 14.6991L25.4812 14.3809C25.2714 14.5408 25.1257 14.6131 25.0189 14.6177C24.9447 14.6209 24.8429 14.5921 24.7139 14.3771L24.3709 14.5829ZM25.7305 14.6936C26.6381 13.9373 26.9417 12.6222 26.4857 11.5798L26.1192 11.7402C26.5031 12.6178 26.2467 13.7427 25.4744 14.3864L25.7305 14.6936ZM21.3115 11.9136C21.1406 12.0275 20.9457 12.1141 20.7067 12.2444L20.8982 12.5956C21.0992 12.4859 21.3442 12.3725 21.5334 12.2464L21.3115 11.9136ZM20.7212 12.2372C20.5086 12.3317 20.3482 12.4714 20.221 12.5986L20.5038 12.8814C20.6167 12.7686 20.7363 12.6683 20.8836 12.6028L20.7212 12.2372ZM20.2922 12.5527C20.0794 12.6325 19.9307 12.7883 19.8197 12.9438L20.1452 13.1762C20.2341 13.0517 20.3254 12.9675 20.4326 12.9273L20.2922 12.5527ZM19.841 12.9186C19.8306 12.929 19.8234 12.9362 19.8169 12.9424C19.8107 12.9484 19.8069 12.9517 19.8044 12.9539C19.8013 12.9565 19.7992 12.958 19.793 12.9611L19.9719 13.3189C20.0444 13.2826 20.0849 13.2403 20.1238 13.2014L19.841 12.9186ZM20.0613 13.0506L20.0413 13.0106L19.6835 13.1894L19.7035 13.2294L20.0613 13.0506ZM20.0288 13.2109C20.1867 12.9742 20.4203 12.782 20.6981 12.6032C20.9833 12.4197 21.277 12.2722 21.5836 12.0925L21.3813 11.7475C21.1078 11.9078 20.7716 12.0803 20.4817 12.2668C20.1845 12.458 19.8982 12.6858 19.696 12.9891L20.0288 13.2109ZM21.2824 11.92C21.2824 11.9278 21.2824 11.9333 21.2823 11.9383C21.2823 11.943 21.2821 11.9459 21.282 11.9476C21.2818 11.9508 21.2817 11.948 21.2834 11.9425C21.2842 11.9399 21.2852 11.9372 21.2863 11.9348C21.2874 11.9324 21.2884 11.9308 21.2889 11.93C21.2898 11.9285 21.2883 11.9313 21.281 11.9386L21.5638 12.2214C21.6104 12.1748 21.647 12.1223 21.6665 12.0575C21.6839 11.9995 21.6824 11.9443 21.6824 11.92H21.2824ZM24.9263 20.5012C24.8966 20.4319 24.8794 20.3884 24.8697 20.3593C24.8595 20.3289 24.8624 20.3279 24.8624 20.34H24.4624C24.4624 20.3921 24.4753 20.4411 24.4902 20.4857C24.5055 20.5316 24.5283 20.5881 24.5586 20.6588L24.9263 20.5012ZM24.8413 20.2506C24.8558 20.2796 24.8524 20.3079 24.8524 20.275C24.8524 20.2471 24.8527 20.1965 24.8365 20.1315L24.4484 20.2285C24.4521 20.2435 24.4524 20.2529 24.4524 20.275C24.4524 20.2921 24.449 20.3604 24.4835 20.4294L24.8413 20.2506ZM24.5144 20.3336C24.5317 20.3481 24.5388 20.3575 24.5418 20.3624C24.5444 20.3665 24.5468 20.3717 24.5488 20.3817C24.5545 20.4102 24.5539 20.4556 24.5434 20.5601L24.9414 20.5999C24.951 20.5044 24.9603 20.3998 24.941 20.3033C24.9185 20.1904 24.8609 20.1017 24.7705 20.0264L24.5144 20.3336ZM17.0973 21.575C17.0362 21.3102 16.953 21.0385 16.8954 20.8274L16.5095 20.9326C16.5719 21.1615 16.6487 21.4098 16.7075 21.665L17.0973 21.575ZM16.5995 21.0515C16.5743 21.0364 16.568 21.022 16.577 21.0352C16.5829 21.0438 16.592 21.0596 16.6034 21.0837C16.6259 21.1314 16.6498 21.1964 16.6701 21.2674C16.6904 21.3384 16.7052 21.4091 16.7118 21.4677C16.7194 21.5353 16.7124 21.557 16.7152 21.5498L17.0897 21.6902C17.1224 21.603 17.1179 21.4997 17.1093 21.4229C17.0996 21.3371 17.0795 21.2441 17.0547 21.1576C17.03 21.0711 16.999 20.9849 16.9652 20.9132C16.9484 20.8775 16.9291 20.8416 16.9074 20.8098C16.8887 20.7824 16.8555 20.7386 16.8053 20.7085L16.5995 21.0515ZM24.0424 21.14C23.9468 21.2675 23.8757 21.3109 23.7164 21.4104L23.9284 21.7496C24.0892 21.6491 24.2181 21.5725 24.3624 21.38L24.0424 21.14ZM24.0154 21.6326C24.0397 21.5434 24.0626 21.5095 24.0832 21.4867C24.1138 21.4529 24.149 21.43 24.2424 21.36L24.0024 21.04C23.9358 21.09 23.851 21.1471 23.7866 21.2183C23.7123 21.3005 23.6651 21.3966 23.6295 21.5274L24.0154 21.6326ZM24.2704 21.3345L24.4704 21.1145L24.1744 20.8455L23.9744 21.0655L24.2704 21.3345ZM24.1224 20.98C24.1224 21.0445 24.1168 21.0546 24.1167 21.0548C24.1156 21.0572 24.1103 21.0693 24.061 21.1186L24.3438 21.4014C24.3945 21.3507 24.4492 21.2928 24.4832 21.2152C24.518 21.1354 24.5224 21.0555 24.5224 20.98H24.1224Z" fill="black"/>
<defs>
<filter id="filter0_f" x="0.703308" y="0.606689" width="46.6407" height="50.2067" filterUnits="userSpaceOnUse" color-interpolation-filters="sRGB">
<feFlood flood-opacity="0" result="BackgroundImageFix"/>
<feBlend mode="normal" in="SourceGraphic" in2="BackgroundImageFix" result="shape"/>
<feGaussianBlur stdDeviation="2.5" result="effect1_foregroundBlur"/>
</filter>
</defs>
</svg>
