<svg width="48" height="51" viewBox="0 0 48 51" fill="none" xmlns="http://www.w3.org/2000/svg">
<g opacity="0.4" filter="url(#filter0_f)">
<path d="M25.932 7.30875C16.8824 6.37023 8.91808 11.4109 8.1782 18.5451C7.92822 20.9555 8.53121 23.3957 9.92246 25.6028L21.2339 43.5048C21.4506 43.8477 21.8703 44.086 22.3431 44.135C22.3468 44.1354 22.3503 44.1357 22.354 44.1361C22.8312 44.1826 23.2924 44.0297 23.5708 43.7325L37.9998 28.3379C39.7214 26.4973 40.7596 24.2881 41.0022 21.9492C41.742 14.815 34.9816 8.24726 25.932 7.30875Z" fill="#263C43"/>
</g>
<path d="M21.5 0C12.4019 0 5 7.2547 5 16.1719C5 19.1847 5.85149 22.1249 7.46299 24.6758L20.5608 45.3629C20.8117 45.7592 21.2537 46 21.7291 46C21.7327 46 21.7363 46 21.74 46C22.2195 45.9963 22.6624 45.7481 22.9087 45.3449L35.6727 24.4573C37.1953 21.9603 38 19.0953 38 16.1719C38 7.2547 30.5981 0 21.5 0Z" fill="white"/>
<circle cx="21.5" cy="16.5" r="12" stroke="#1C4AED"/>
<path d="M26.14 14.52C28.74 11.84 26.04 9.24 22.3 10.56C20.04 11.36 17.42 13.14 16.38 14.78C16.04 15.3 16.16 16.34 17.16 16.36C17.32 16.34 17.48 16.26 17.7 16.12C17.5 16.08 17.38 16.08 17.28 16.04C17.16 16.02 17.08 15.96 17.1 15.84C17.12 15.66 17.18 15.5 17.3 15.36C17.7 14.86 18.08 14.4 18.54 13.96C19.6 12.9 21.44 11.86 22.82 11.42C25.32 10.6 27.26 11.48 26.14 13.32C25.86 13.8 25.48 14.24 25.06 14.62C24.06 15.52 23.02 16.28 21.86 16.9C21.2 17.26 19.54 17.84 19.02 17.96C19.88 16.02 20.44 14.9 20.36 14.66C20.2 14.4 20.04 14.32 19.74 14.34C19.44 14.66 19.3 15.06 19.1 15.44C18.76 16.14 18.54 16.88 18.26 17.62C18.16 17.84 18.14 18.12 18 18.3C17.84 18.52 17.94 18.74 17.84 18.96C17.72 19.3 17.68 19.64 17.6 19.98C17.5 20.66 17.38 21.38 17.38 22.08C17.36 22.5 17.4 22.98 17.64 23.32C17.68 23.38 17.64 23.46 17.76 23.46C18.12 23.26 17.98 23.02 18.06 22.76C18.3 22.78 18.48 22.82 18.62 22.86C18.82 22.94 18.98 22.98 19.2 23.04C19.34 23.08 19.52 23.12 19.7 23.14C19.88 23.18 20.06 23.18 20.24 23.2C20.06 23.08 19.84 23.06 19.62 23.04C19.54 23.02 19.46 23.04 19.44 22.94C19.44 22.88 20.56 22.88 20.92 22.82C20.9 22.84 20.9 22.86 20.9 22.9C21.2 22.94 21.46 22.8 21.7 22.72C22.04 22.6 22.28 22.54 22.56 22.44C22.8 22.4 23.06 22.34 23.32 22.24C23.24 22.34 23.16 22.4 23.08 22.44C22.96 22.52 22.88 22.54 22.76 22.58C22.66 22.64 22.56 22.64 22.46 22.66C22.34 22.72 22.26 22.78 22.16 22.82C22.06 22.84 21.94 22.82 21.82 22.86C21.72 22.9 21.62 22.92 21.5 22.94C21.38 22.96 21.3 23 21.2 23.02C21.08 23.04 20.94 23.04 20.84 23.06C20.72 23.08 20.62 23.04 20.54 23.18C20.6 23.18 20.66 23.22 20.7 23.2C21.02 23.16 21.5 23.18 21.82 23.12C22.56 23 22.98 22.9 23.7 22.5C24.1 22.28 24.42 22.06 24.76 21.76C24.78 21.76 24.76 21.72 24.78 21.66C24.86 21.62 24.94 21.54 25.02 21.46C25.84 20.46 25.76 19.26 25 18.5C24.24 17.74 23.22 17.46 22.14 17.58V17.54C22.88 17.1 23.42 16.76 24.02 16.42C24.18 16.32 24.34 16.24 24.46 16.12C24.62 15.98 24.8 15.86 24.84 15.66C24.9 15.66 24.96 15.66 25 15.64C25.16 15.52 25.32 15.42 25.44 15.32C25.6 15.1 25.86 14.96 25.9 14.66C25.9 14.64 25.92 14.62 25.96 14.62C26.02 14.36 26.16 14.12 26.36 14.12C26.2 14.26 26.14 14.42 26.14 14.52ZM20.66 11.92C20.38 12.02 19.74 12.46 19.56 12.64H19.32C19.66 12.36 20.74 11.72 21.8 11.2L21.82 11.28C21.56 11.36 20.72 12.08 20.66 11.92ZM25.42 15.14L24.96 15.52C24.96 15.4 25.06 15.3 25.16 15.2C25.3 15.04 25.46 14.9 25.6 14.76C25.6 14.92 25.52 15.04 25.42 15.14ZM19.66 14.9C19.66 14.86 19.68 14.88 19.7 14.8C19.76 14.9 19.76 14.9 19.68 15.04C19.68 15.06 19.68 15.08 19.66 15.1C19.64 15.08 19.64 15.04 19.6 15C19.66 14.98 19.68 15 19.68 14.96C19.68 14.94 19.68 14.92 19.66 14.9ZM18.68 17.34H18.7C18.72 17.12 18.82 16.9 18.88 16.76C18.94 16.5 19.06 16.26 19.16 16.02C19.24 15.84 19.34 15.62 19.38 15.48L19.56 15.12C19.58 15.12 19.62 15.1 19.66 15.12C19.64 15.26 19.58 15.38 19.5 15.54C19.48 15.56 19.44 15.56 19.4 15.56C19.44 15.6 19.44 15.6 19.48 15.68C19.42 15.68 19.4 15.68 19.38 15.66C19.36 15.8 19.36 15.9 19.38 16L19.24 16.12C19.24 16.12 19.28 16.16 19.34 16.16V16.22H19.2C19.22 16.22 19.18 16.26 19.2 16.28C19.18 16.3 19.18 16.38 19.16 16.38L19.04 16.5C19.06 16.52 19.06 16.52 19.08 16.52C19.06 16.64 19 16.74 18.94 16.8C18.92 16.9 18.9 17.02 18.86 17.12C18.8 17.26 18.78 17.4 18.72 17.56C18.66 17.64 18.66 17.72 18.58 17.82L18.56 17.9L18.52 17.82C18.56 17.64 18.66 17.5 18.68 17.34ZM24.48 15.76C23.78 16.34 23.56 16.4 22.14 17.34C21.96 17.46 21.72 17.56 21.48 17.5L23 16.58C23.54 16.26 24.02 15.94 24.54 15.6C24.58 15.7 24.52 15.72 24.48 15.76ZM23.06 18.28C23.78 18.38 24.18 18.62 24.46 19.12C24.84 19.82 24.54 20.72 24 21.28C23.1 22.2 22.14 22.48 20.92 22.56C20.06 22.62 19.18 22.38 18.8 22.28C18.66 22.24 18.12 22.08 18.12 21.68C18.12 21.22 18.5 19.76 18.58 19.46C18.64 19.22 18.68 19.06 18.76 18.88C18.86 18.86 19.18 18.76 19.42 18.7C20.42 18.46 21.5 18.06 23.06 18.28ZM24.66 21.54C24.7 21.52 24.76 21.52 24.78 21.48C24.76 21.28 24.92 21.12 25.08 20.84C25.08 21 25.1 21.1 25.08 21.16C24.96 21.28 24.88 21.4 24.78 21.46V21.48L24.76 21.68H24.74C24.7 21.66 24.64 21.66 24.6 21.66C24.62 21.6 24.62 21.54 24.66 21.54Z" fill="black"/>
<path d="M26.14 14.52H25.94V15.0134L26.2835 14.6593L26.14 14.52ZM22.3 10.56L22.2334 10.3714L22.2333 10.3715L22.3 10.56ZM16.38 14.78L16.5474 14.8895L16.5489 14.8871L16.38 14.78ZM17.16 16.36L17.156 16.56L17.1705 16.5602L17.1848 16.5585L17.16 16.36ZM17.7 16.12L17.8074 16.2887L18.2273 16.0215L17.7392 15.9239L17.7 16.12ZM17.28 16.04L17.3543 15.8543L17.3342 15.8463L17.3129 15.8427L17.28 16.04ZM17.1 15.84L17.2976 15.8729L17.2988 15.8621L17.1 15.84ZM17.3 15.36L17.4519 15.4902L17.4562 15.4849L17.3 15.36ZM18.54 13.96L18.6783 14.1046L18.6814 14.1014L18.54 13.96ZM22.82 11.42L22.8808 11.6106L22.8823 11.61L22.82 11.42ZM26.14 13.32L25.9691 13.216L25.9672 13.2192L26.14 13.32ZM25.06 14.62L25.1938 14.7687L25.1942 14.7683L25.06 14.62ZM21.86 16.9L21.7657 16.7236L21.7642 16.7244L21.86 16.9ZM19.02 17.96L18.8372 17.8789L18.6749 18.2449L19.065 18.1549L19.02 17.96ZM20.36 14.66L20.5497 14.5968L20.5424 14.5748L20.5303 14.5552L20.36 14.66ZM19.74 14.34L19.7267 14.1404L19.648 14.1457L19.5941 14.2032L19.74 14.34ZM19.1 15.44L18.9229 15.3468L18.9201 15.3526L19.1 15.44ZM18.26 17.62L18.4425 17.7029L18.4471 17.6908L18.26 17.62ZM18 18.3L17.842 18.1771L17.8383 18.1824L18 18.3ZM17.84 18.96L17.6579 18.8772L17.6543 18.8852L17.6514 18.8934L17.84 18.96ZM17.6 19.98L17.4053 19.9342L17.4034 19.9425L17.4021 19.9509L17.6 19.98ZM17.38 22.08L17.58 22.0895V22.08H17.38ZM17.64 23.32L17.8065 23.209L17.8034 23.2047L17.64 23.32ZM17.76 23.46V23.66H17.8118L17.8571 23.6348L17.76 23.46ZM18.06 22.76L18.0766 22.5607L17.9162 22.5473L17.8688 22.7012L18.06 22.76ZM18.62 22.86L18.6943 22.6743L18.6848 22.6705L18.6749 22.6677L18.62 22.86ZM19.2 23.04L19.2549 22.8477L19.2526 22.847L19.2 23.04ZM19.7 23.14L19.7434 22.9448L19.7328 22.9424L19.7221 22.9412L19.7 23.14ZM20.24 23.2L20.2179 23.3988L20.3509 23.0336L20.24 23.2ZM19.62 23.04L19.5715 23.234L19.5865 23.2378L19.6019 23.2392L19.62 23.04ZM19.44 22.94H19.24V22.9598L19.2439 22.9792L19.44 22.94ZM20.92 22.82L21.0614 22.9614L21.5027 22.5201L20.8871 22.6227L20.92 22.82ZM20.9 22.9H20.7V23.0751L20.8736 23.0982L20.9 22.9ZM21.7 22.72L21.7633 22.9098L21.7666 22.9086L21.7 22.72ZM22.56 22.44L22.5271 22.2427L22.5095 22.2457L22.4927 22.2517L22.56 22.44ZM23.32 22.24L23.4762 22.3649L23.9376 21.7882L23.2482 22.0533L23.32 22.24ZM23.08 22.44L22.9906 22.2611L22.9794 22.2667L22.9691 22.2736L23.08 22.44ZM22.76 22.58L22.6968 22.3903L22.6759 22.3972L22.6571 22.4085L22.76 22.58ZM22.46 22.66L22.4208 22.4639L22.3945 22.4691L22.3706 22.4811L22.46 22.66ZM22.16 22.82L22.1992 23.0161L22.2172 23.0125L22.2343 23.0057L22.16 22.82ZM21.82 22.86L21.7566 22.6699L21.7457 22.6743L21.82 22.86ZM21.5 22.94L21.4671 22.7427H21.4671L21.5 22.94ZM21.2 23.02L21.2329 23.2174L21.2392 23.2161L21.2 23.02ZM20.84 23.06L20.8729 23.2574L20.8792 23.2561L20.84 23.06ZM20.54 23.18L20.3664 23.0808L20.1954 23.38H20.54V23.18ZM20.7 23.2L20.6752 23.0015L20.6412 23.0058L20.6106 23.0211L20.7 23.2ZM21.82 23.12L21.788 22.9225L21.7831 22.9234L21.82 23.12ZM23.7 22.5L23.6036 22.3248L23.6029 22.3252L23.7 22.5ZM24.76 21.76V21.56H24.6844L24.6277 21.61L24.76 21.76ZM24.78 21.66L24.6906 21.4811L24.6165 21.5182L24.5903 21.5968L24.78 21.66ZM25.02 21.46L25.1614 21.6014L25.1684 21.5944L25.1747 21.5868L25.02 21.46ZM25 18.5L24.8586 18.6414L25 18.5ZM22.14 17.58H21.94V17.8035L22.1621 17.7788L22.14 17.58ZM22.14 17.54L22.0378 17.3681L21.94 17.4262V17.54H22.14ZM24.02 16.42L24.1187 16.5942L24.126 16.5896L24.02 16.42ZM24.46 16.12L24.328 15.9692L24.3186 15.9786L24.46 16.12ZM24.84 15.66V15.46H24.676L24.6439 15.6208L24.84 15.66ZM25 15.64L25.0894 15.8189L25.1056 15.8108L25.12 15.8L25 15.64ZM25.44 15.32L25.568 15.4736L25.5871 15.4577L25.6017 15.4376L25.44 15.32ZM25.9 14.66L26.0982 14.6864L26.1 14.6733V14.66H25.9ZM25.96 14.62V14.82H26.1191L26.1549 14.665L25.96 14.62ZM26.36 14.12L26.4917 14.2705L26.8923 13.92H26.36V14.12ZM20.66 11.92L20.8473 11.8498L20.7781 11.6654L20.5927 11.7317L20.66 11.92ZM19.56 12.64V12.84H19.6428L19.7014 12.7814L19.56 12.64ZM19.32 12.64L19.1929 12.4856L18.7625 12.84H19.32V12.64ZM21.8 11.2L21.994 11.1515L21.934 10.9115L21.7119 11.0204L21.8 11.2ZM21.82 11.28L21.8788 11.4712L22.06 11.4154L22.014 11.2315L21.82 11.28ZM25.42 15.14L25.5474 15.2942L25.5547 15.2881L25.5614 15.2814L25.42 15.14ZM24.96 15.52H24.76V15.9446L25.0874 15.6742L24.96 15.52ZM25.16 15.2L25.3017 15.3417L25.3105 15.3317L25.16 15.2ZM25.6 14.76H25.8V14.2772L25.4586 14.6186L25.6 14.76ZM19.66 14.9H19.46V14.9828L19.5186 15.0414L19.66 14.9ZM19.7 14.8L19.8715 14.6971L19.6231 14.2831L19.506 14.7515L19.7 14.8ZM19.68 15.04L19.5064 14.9408L19.48 14.9869V15.04H19.68ZM19.66 15.1L19.5186 15.2414L19.66 15.3828L19.8014 15.2414L19.66 15.1ZM19.6 15L19.5368 14.8103L19.2298 14.9126L19.4586 15.1414L19.6 15ZM18.68 17.34V17.14H18.5034L18.4815 17.3152L18.68 17.34ZM18.7 17.34V17.54H18.8826L18.8992 17.3581L18.7 17.34ZM18.88 16.76L19.0638 16.8388L19.0709 16.8224L19.0749 16.805L18.88 16.76ZM19.16 16.02L18.9772 15.9387L18.9754 15.9431L19.16 16.02ZM19.38 15.48L19.2011 15.3906L19.1928 15.4072L19.1877 15.4251L19.38 15.48ZM19.56 15.12V14.92H19.4364L19.3811 15.0306L19.56 15.12ZM19.66 15.12L19.858 15.1483L19.8784 15.0056L19.7494 14.9411L19.66 15.12ZM19.5 15.54L19.6414 15.6814L19.6644 15.6585L19.6789 15.6294L19.5 15.54ZM19.4 15.56V15.36H18.9172L19.2586 15.7014L19.4 15.56ZM19.48 15.68V15.88H19.8036L19.6589 15.5906L19.48 15.68ZM19.38 15.66L19.5214 15.5186L19.2386 15.2357L19.182 15.6317L19.38 15.66ZM19.38 16L19.5102 16.1519L19.5991 16.0756L19.5761 15.9608L19.38 16ZM19.24 16.12L19.1098 15.9681L18.9459 16.1087L19.0986 16.2614L19.24 16.12ZM19.34 16.16H19.54V15.96H19.34V16.16ZM19.34 16.22V16.42H19.54V16.22H19.34ZM19.2 16.28L19.3414 16.4214L19.4828 16.28L19.3414 16.1386L19.2 16.28ZM19.16 16.38V16.18H19.0772L19.0186 16.2386L19.16 16.38ZM19.04 16.5L18.8986 16.3586L18.7572 16.5L18.8986 16.6414L19.04 16.5ZM19.08 16.52L19.2773 16.5529L19.3161 16.32H19.08V16.52ZM18.94 16.8L18.7986 16.6586L18.7558 16.7014L18.7439 16.7608L18.94 16.8ZM18.86 17.12L19.0439 17.1988L19.0457 17.1943L18.86 17.12ZM18.72 17.56L18.88 17.68L18.8972 17.6571L18.9073 17.6302L18.72 17.56ZM18.58 17.82L18.4238 17.6951L18.3966 17.7291L18.386 17.7715L18.58 17.82ZM18.56 17.9L18.3811 17.9894L18.6229 18.473L18.754 17.9485L18.56 17.9ZM18.52 17.82L18.3248 17.7766L18.3094 17.8459L18.3411 17.9094L18.52 17.82ZM24.48 15.76L24.6076 15.914L24.6148 15.908L24.6214 15.9014L24.48 15.76ZM22.14 17.34L22.0296 17.1732L22.0291 17.1736L22.14 17.34ZM21.48 17.5L21.3764 17.3289L20.9656 17.5776L21.4315 17.694L21.48 17.5ZM23 16.58L22.898 16.4079L22.8964 16.4089L23 16.58ZM24.54 15.6L24.7257 15.5257L24.635 15.2989L24.4306 15.4326L24.54 15.6ZM23.06 18.28L23.0321 18.478L23.0325 18.4781L23.06 18.28ZM24.46 19.12L24.6358 19.0246L24.6345 19.0223L24.46 19.12ZM24 21.28L24.143 21.4199L24.144 21.4188L24 21.28ZM20.92 22.56L20.9069 22.3604L20.9061 22.3605L20.92 22.56ZM18.8 22.28L18.745 22.4723L18.7491 22.4734L18.8 22.28ZM18.58 19.46L18.7733 19.5115L18.774 19.5085L18.58 19.46ZM18.76 18.88L18.7208 18.6839L18.6193 18.7042L18.5772 18.7988L18.76 18.88ZM19.42 18.7L19.3733 18.5055L19.3715 18.506L19.42 18.7ZM24.66 21.54V21.74H24.7072L24.7494 21.7189L24.66 21.54ZM24.78 21.48L24.9589 21.5694L24.9848 21.5177L24.979 21.4601L24.78 21.48ZM25.08 20.84H25.28V20.0869L24.9064 20.7408L25.08 20.84ZM25.08 21.16L25.2214 21.3014L25.2548 21.268L25.2697 21.2232L25.08 21.16ZM24.78 21.46L24.6771 21.2885L24.58 21.3468V21.46H24.78ZM24.78 21.48L24.979 21.4999L24.98 21.49V21.48H24.78ZM24.76 21.68V21.88H24.941L24.959 21.6999L24.76 21.68ZM24.74 21.68L24.6506 21.8589L24.6928 21.88H24.74V21.68ZM24.6 21.66L24.4103 21.5968L24.3225 21.86H24.6V21.66ZM26.2835 14.6593C26.9557 13.9664 27.3027 13.2608 27.362 12.6029C27.4216 11.9411 27.1876 11.3486 26.7391 10.8988C25.8487 10.0057 24.1478 9.69574 22.2334 10.3714L22.3666 10.7486C24.1922 10.1043 25.7113 10.4343 26.4559 11.1812C26.8249 11.5514 27.0121 12.0289 26.9636 12.5671C26.9148 13.1092 26.6243 13.7336 25.9965 14.3807L26.2835 14.6593ZM22.2333 10.3715C21.0842 10.7782 19.8481 11.4322 18.7675 12.1914C17.6894 12.9488 16.7509 13.8217 16.2111 14.6729L16.5489 14.8871C17.0491 14.0983 17.9406 13.2612 18.9975 12.5186C20.0519 11.7778 21.2558 11.1418 22.3667 10.7485L22.2333 10.3715ZM16.2126 14.6706C16.0085 14.9828 15.946 15.4372 16.0783 15.8225C16.1459 16.019 16.266 16.2028 16.4495 16.3386C16.6337 16.4749 16.8702 16.5542 17.156 16.56L17.164 16.16C16.9498 16.1558 16.7963 16.0976 16.6874 16.017C16.5778 15.9359 16.5016 15.8235 16.4567 15.6925C16.364 15.4228 16.4115 15.0972 16.5474 14.8895L16.2126 14.6706ZM17.1848 16.5585C17.3926 16.5325 17.5851 16.4302 17.8074 16.2887L17.5926 15.9513C17.3749 16.0898 17.2474 16.1475 17.1352 16.1615L17.1848 16.5585ZM17.7392 15.9239C17.6327 15.9026 17.5449 15.8915 17.4818 15.8822C17.4146 15.8722 17.3804 15.8647 17.3543 15.8543L17.2057 16.2257C17.2796 16.2553 17.3554 16.2678 17.4232 16.2778C17.4951 16.2885 17.5673 16.2974 17.6608 16.3161L17.7392 15.9239ZM17.3129 15.8427C17.2948 15.8397 17.2833 15.836 17.2772 15.8334C17.2712 15.8308 17.2734 15.8306 17.2789 15.8361C17.2818 15.8389 17.2851 15.8429 17.2881 15.848C17.2913 15.8532 17.2935 15.8586 17.295 15.8638C17.2981 15.8744 17.2963 15.8788 17.2973 15.8729L16.9027 15.8071C16.8836 15.9217 16.9117 16.0346 16.9961 16.1189C17.0704 16.1933 17.1676 16.224 17.2471 16.2373L17.3129 15.8427ZM17.2988 15.8621C17.3151 15.7152 17.3621 15.5948 17.4519 15.4902L17.1481 15.2298C16.9979 15.4052 16.9249 15.6048 16.9012 15.8179L17.2988 15.8621ZM17.4562 15.4849C17.8555 14.9858 18.2285 14.5347 18.6782 14.1045L18.4018 13.8155C17.9315 14.2653 17.5445 14.7342 17.1438 15.2351L17.4562 15.4849ZM18.6814 14.1014C19.7155 13.0673 21.5264 12.0424 22.8808 11.6105L22.7592 11.2295C21.3536 11.6776 19.4845 12.7327 18.3986 13.8186L18.6814 14.1014ZM22.8823 11.61C24.109 11.2077 25.1556 11.2383 25.744 11.5493C26.0311 11.701 26.1993 11.9126 26.2489 12.1695C26.2997 12.4324 26.2338 12.7812 25.9692 13.216L26.3108 13.424C26.6062 12.9388 26.7178 12.4876 26.6417 12.0936C26.5644 11.6937 26.3014 11.3915 25.931 11.1957C25.2044 10.8117 24.031 10.8123 22.7577 11.23L22.8823 11.61ZM25.9672 13.2192C25.6997 13.6779 25.3341 14.1023 24.9258 14.4717L25.1942 14.7683C25.6259 14.3777 26.0203 13.9221 26.3128 13.4208L25.9672 13.2192ZM24.9262 14.4713C23.9361 15.3624 22.9092 16.1125 21.7657 16.7236L21.9543 17.0764C23.1308 16.4475 24.1839 15.6776 25.1938 14.7687L24.9262 14.4713ZM21.7642 16.7244C21.4486 16.8966 20.8811 17.1273 20.319 17.3321C19.7574 17.5368 19.2222 17.7081 18.975 17.7651L19.065 18.1549C19.3378 18.0919 19.8926 17.9132 20.456 17.7079C21.0189 17.5027 21.6114 17.2634 21.9558 17.0756L21.7642 16.7244ZM19.2028 18.0411C19.6304 17.0766 19.9886 16.3044 20.2262 15.7515C20.3454 15.4744 20.4379 15.2441 20.4956 15.0656C20.5244 14.9766 20.5464 14.8948 20.5581 14.8232C20.5687 14.7578 20.5756 14.6743 20.5497 14.5968L20.1703 14.7232C20.1644 14.7057 20.1713 14.7097 20.1633 14.759C20.1562 14.8022 20.1409 14.8625 20.115 14.9425C20.0634 15.1022 19.9771 15.3181 19.8588 15.5935C19.6214 16.1456 19.2696 16.9034 18.8372 17.8789L19.2028 18.0411ZM20.5303 14.5552C20.4403 14.4089 20.3364 14.2902 20.1938 14.217C20.0512 14.1439 19.8952 14.1292 19.7267 14.1404L19.7533 14.5396C19.8848 14.5308 19.9588 14.5461 20.0112 14.573C20.0636 14.5998 20.1197 14.6511 20.1897 14.7648L20.5303 14.5552ZM19.5941 14.2032C19.4263 14.3822 19.3065 14.5802 19.2051 14.7752C19.1545 14.8725 19.1074 14.9713 19.0618 15.0664C19.0157 15.1627 18.971 15.2557 18.923 15.3469L19.277 15.5331C19.329 15.4343 19.3768 15.3348 19.4226 15.2392C19.4689 15.1425 19.513 15.05 19.5599 14.9598C19.6535 14.7798 19.7537 14.6178 19.8859 14.4768L19.5941 14.2032ZM18.9201 15.3526C18.5751 16.063 18.3459 16.8277 18.0729 17.5492L18.4471 17.6908C18.7341 16.9323 18.9449 16.217 19.2799 15.5274L18.9201 15.3526ZM18.0779 17.5372C18.0201 17.6644 17.984 17.8126 17.953 17.919C17.9183 18.0379 17.8867 18.1199 17.8421 18.1772L18.1579 18.4228C18.2533 18.3001 18.3017 18.1521 18.337 18.031C18.376 17.8974 18.3999 17.7955 18.4421 17.7028L18.0779 17.5372ZM17.8383 18.1824C17.724 18.3394 17.7061 18.4967 17.698 18.6164C17.6892 18.7444 17.6891 18.8086 17.6579 18.8772L18.0221 19.0428C18.0909 18.8914 18.0908 18.7356 18.097 18.6436C18.1039 18.5433 18.116 18.4806 18.1617 18.4176L17.8383 18.1824ZM17.6514 18.8934C17.5869 19.0762 17.5448 19.2565 17.5091 19.4297C17.4725 19.6075 17.4446 19.7674 17.4053 19.9342L17.7947 20.0258C17.8354 19.8526 17.8675 19.6725 17.9009 19.5103C17.9352 19.3435 17.9731 19.1838 18.0286 19.0266L17.6514 18.8934ZM17.4021 19.9509C17.3031 20.6241 17.18 21.3617 17.18 22.08H17.58C17.58 21.3983 17.6969 20.6959 17.7979 20.0091L17.4021 19.9509ZM17.1802 22.0705C17.1598 22.4988 17.1958 23.0376 17.4766 23.4353L17.8034 23.2047C17.6042 22.9224 17.5602 22.5012 17.5798 22.0895L17.1802 22.0705ZM17.4736 23.4309C17.4637 23.4162 17.4621 23.4048 17.4641 23.413C17.4665 23.4231 17.4648 23.4168 17.4688 23.4347C17.4711 23.4449 17.4752 23.462 17.482 23.4808C17.4972 23.5226 17.528 23.578 17.5916 23.617C17.6492 23.6524 17.711 23.66 17.76 23.66V23.26C17.749 23.26 17.7708 23.2576 17.8009 23.2761C17.8168 23.2859 17.8305 23.2987 17.841 23.3131C17.851 23.3267 17.8559 23.3384 17.858 23.3442C17.8598 23.3492 17.8601 23.3516 17.859 23.3466C17.8585 23.3442 17.8579 23.3418 17.857 23.3372C17.8561 23.3331 17.8549 23.3275 17.8534 23.3214C17.8479 23.2977 17.8363 23.2538 17.8064 23.2091L17.4736 23.4309ZM17.8571 23.6348C17.9669 23.5738 18.0508 23.5029 18.1107 23.4184C18.1712 23.3331 18.1986 23.2458 18.2122 23.1661C18.2246 23.0932 18.2265 23.0142 18.2296 22.963C18.2331 22.9049 18.2384 22.8604 18.2512 22.8188L17.8688 22.7012C17.8416 22.7896 17.8344 22.8726 17.8304 22.9389C17.826 23.012 17.8254 23.0543 17.8178 23.0989C17.8114 23.1367 17.8013 23.1632 17.7843 23.1872C17.7667 23.2121 17.7331 23.2462 17.6629 23.2852L17.8571 23.6348ZM18.0434 22.9593C18.2688 22.9781 18.4359 23.0154 18.5651 23.0523L18.6749 22.6677C18.5241 22.6246 18.3312 22.5819 18.0766 22.5607L18.0434 22.9593ZM18.5457 23.0457C18.7588 23.1309 18.9316 23.1741 19.1474 23.233L19.2526 22.847C19.0284 22.7859 18.8812 22.7491 18.6943 22.6743L18.5457 23.0457ZM19.1451 23.2323C19.2935 23.2747 19.4846 23.3173 19.6779 23.3388L19.7221 22.9412C19.5554 22.9227 19.3865 22.8853 19.2549 22.8477L19.1451 23.2323ZM19.6566 23.3352C19.7598 23.3582 19.8604 23.3691 19.9534 23.3768C20.0512 23.385 20.1311 23.3891 20.2179 23.3988L20.2621 23.0012C20.1689 22.9909 20.0688 22.985 19.9866 22.9782C19.8996 22.9709 19.8202 22.9618 19.7434 22.9448L19.6566 23.3352ZM20.3509 23.0336C20.1213 22.8805 19.8474 22.8598 19.6381 22.8408L19.6019 23.2392C19.8326 23.2602 19.9987 23.2795 20.1291 23.3664L20.3509 23.0336ZM19.6685 22.846C19.6352 22.8377 19.6032 22.8338 19.5869 22.8317C19.5772 22.8304 19.5718 22.8297 19.5676 22.8289C19.5636 22.8282 19.5638 22.8281 19.5663 22.8288C19.5725 22.8307 19.5928 22.8383 19.6121 22.8592C19.6314 22.88 19.6358 22.8991 19.6361 22.9008L19.2439 22.9792C19.2542 23.0309 19.2761 23.085 19.3185 23.1308C19.3609 23.1767 19.41 23.1993 19.4487 23.2112C19.4837 23.2219 19.5185 23.2261 19.5349 23.2283C19.5568 23.2312 19.5648 23.2323 19.5715 23.234L19.6685 22.846ZM19.64 22.94C19.64 23.0231 19.5905 23.0723 19.5707 23.0887C19.5497 23.106 19.531 23.1135 19.5268 23.1152C19.5166 23.1192 19.5135 23.1189 19.5256 23.1167C19.5466 23.1127 19.5834 23.1082 19.6375 23.1037C19.7436 23.0947 19.8909 23.0873 20.0542 23.0798C20.3704 23.0652 20.7576 23.0498 20.9529 23.0173L20.8871 22.6227C20.7224 22.6502 20.3696 22.6648 20.0358 22.6802C19.8741 22.6877 19.7189 22.6953 19.6037 22.7051C19.5472 22.7099 19.4937 22.7157 19.4521 22.7235C19.4329 22.7271 19.4053 22.733 19.3785 22.7437C19.366 22.7487 19.341 22.7595 19.3158 22.7804C19.2917 22.8003 19.24 22.8531 19.24 22.94H19.64ZM20.7786 22.6786C20.6908 22.7663 20.7 22.8762 20.7 22.9H21.1C21.1 22.8889 21.1 22.8844 21.1002 22.8814C21.1003 22.8788 21.1003 22.8835 21.0986 22.8917C21.0967 22.9011 21.0929 22.9143 21.0852 22.9289C21.0775 22.9435 21.0686 22.9543 21.0614 22.9614L20.7786 22.6786ZM20.8736 23.0982C21.0624 23.1234 21.233 23.0909 21.3803 23.0465C21.4536 23.0243 21.5234 22.9985 21.5867 22.9746C21.6519 22.9499 21.7081 22.9281 21.7632 22.9097L21.6368 22.5303C21.5719 22.5519 21.5056 22.5776 21.4452 22.6004C21.3828 22.624 21.3239 22.6457 21.2647 22.6635C21.147 22.6991 21.0376 22.7166 20.9264 22.7018L20.8736 23.0982ZM21.7666 22.9086C21.9325 22.85 22.0742 22.806 22.2116 22.7636C22.3484 22.7213 22.4825 22.68 22.6273 22.6283L22.4927 22.2517C22.3575 22.3 22.2316 22.3387 22.0934 22.3814C21.9558 22.424 21.8075 22.47 21.6334 22.5314L21.7666 22.9086ZM22.5929 22.6373C22.8414 22.5959 23.1154 22.533 23.3918 22.4267L23.2482 22.0533C23.0046 22.147 22.7586 22.2041 22.5271 22.2427L22.5929 22.6373ZM23.1638 22.1151C23.1015 22.193 23.0441 22.2344 22.9906 22.2611L23.1694 22.6189C23.2759 22.5656 23.3785 22.487 23.4762 22.3649L23.1638 22.1151ZM22.9691 22.2736C22.8759 22.3357 22.8241 22.3478 22.6968 22.3903L22.8232 22.7697C22.9359 22.7322 23.0441 22.7043 23.1909 22.6064L22.9691 22.2736ZM22.6571 22.4085C22.6335 22.4226 22.6076 22.4315 22.5708 22.4389C22.5513 22.4428 22.5311 22.4458 22.5053 22.4497C22.4811 22.4533 22.4513 22.4578 22.4208 22.4639L22.4992 22.8561C22.5187 22.8522 22.5389 22.8492 22.5647 22.8453C22.5889 22.8417 22.6187 22.8372 22.6492 22.8311C22.7124 22.8185 22.7865 22.7974 22.8629 22.7515L22.6571 22.4085ZM22.3706 22.4811C22.3036 22.5146 22.2468 22.5486 22.2023 22.5744C22.1557 22.6014 22.1214 22.6201 22.0857 22.6343L22.2343 23.0057C22.2986 22.9799 22.3543 22.9486 22.4027 22.9206C22.4532 22.8914 22.4964 22.8654 22.5494 22.8389L22.3706 22.4811ZM22.1208 22.6239C22.0906 22.6299 22.0598 22.6296 21.9888 22.6327C21.9274 22.6354 21.8443 22.6411 21.7568 22.6703L21.8832 23.0497C21.9157 23.0389 21.9526 23.0346 22.0062 23.0323C22.0502 23.0304 22.1294 23.0301 22.1992 23.0161L22.1208 22.6239ZM21.7457 22.6743C21.667 22.7058 21.5852 22.723 21.4671 22.7427L21.5329 23.1373C21.6548 23.117 21.773 23.0942 21.8943 23.0457L21.7457 22.6743ZM21.4671 22.7427C21.3927 22.7551 21.3317 22.7737 21.2823 22.7893C21.2304 22.8057 21.1976 22.8165 21.1608 22.8239L21.2392 23.2161C21.3024 23.2035 21.3596 23.1843 21.4027 23.1707C21.4483 23.1563 21.4873 23.1449 21.5329 23.1373L21.4671 22.7427ZM21.1671 22.8227C21.1173 22.831 21.0615 22.8354 20.9966 22.8406C20.9369 22.8454 20.8645 22.8511 20.8008 22.8639L20.8792 23.2561C20.9155 23.2489 20.9631 23.2446 21.0284 23.2394C21.0885 23.2346 21.1627 23.229 21.2329 23.2173L21.1671 22.8227ZM20.8071 22.8627C20.7908 22.8654 20.7739 22.8664 20.7447 22.8677C20.7198 22.8688 20.6782 22.8704 20.6358 22.8789C20.5895 22.8881 20.5374 22.9062 20.4867 22.9429C20.4365 22.9791 20.3974 23.0264 20.3664 23.0808L20.7136 23.2792C20.7226 23.2636 20.726 23.2634 20.7208 23.2671C20.7151 23.2713 20.7105 23.2719 20.7142 23.2711C20.7218 23.2696 20.7327 23.2687 20.7628 23.2673C20.7886 23.2661 20.8292 23.2646 20.8729 23.2573L20.8071 22.8627ZM20.54 23.38C20.5336 23.38 20.532 23.379 20.5391 23.3807C20.5493 23.3831 20.5534 23.3846 20.5749 23.3905C20.5901 23.3946 20.6188 23.4022 20.6512 23.4047C20.6853 23.4073 20.7363 23.4055 20.7894 23.3789L20.6106 23.0211C20.6437 23.0045 20.6722 23.0052 20.6819 23.0059C20.69 23.0065 20.6924 23.0079 20.6801 23.0045C20.6734 23.0027 20.6703 23.0018 20.6601 22.9989C20.652 22.9967 20.6416 22.9939 20.6303 22.9912C20.608 22.986 20.5764 22.98 20.54 22.98V23.38ZM20.7248 23.3985C20.8737 23.3798 21.0618 23.3751 21.2675 23.3674C21.4654 23.3599 21.68 23.3497 21.8569 23.3166L21.7831 22.9234C21.64 22.9503 21.4546 22.9601 21.2525 22.9676C21.0582 22.9749 20.8463 22.9802 20.6752 23.0015L20.7248 23.3985ZM21.852 23.3174C22.606 23.1952 23.0503 23.0897 23.7971 22.6748L23.6029 22.3252C22.9097 22.7103 22.514 22.8048 21.788 22.9226L21.852 23.3174ZM23.7964 22.6752C24.208 22.4488 24.5403 22.2206 24.8923 21.91L24.6277 21.61C24.2997 21.8994 23.992 22.1112 23.6036 22.3248L23.7964 22.6752ZM24.76 21.96C24.797 21.96 24.8496 21.9499 24.8963 21.9097C24.9397 21.8724 24.9557 21.8278 24.962 21.8043C24.9682 21.7811 24.9693 21.7613 24.9696 21.7534C24.97 21.7444 24.97 21.7355 24.97 21.7325C24.97 21.7178 24.9706 21.7205 24.9697 21.7232L24.5903 21.5968C24.5694 21.6595 24.57 21.7122 24.57 21.7325C24.57 21.7382 24.57 21.7371 24.5701 21.735C24.5701 21.7339 24.5706 21.7198 24.5755 21.7013C24.5805 21.6825 24.5947 21.6415 24.6353 21.6066C24.6792 21.5688 24.728 21.56 24.76 21.56V21.96ZM24.8694 21.8389C24.9848 21.7812 25.0894 21.6734 25.1614 21.6014L24.8786 21.3186C24.7906 21.4066 24.7352 21.4588 24.6906 21.4811L24.8694 21.8389ZM25.1747 21.5868C26.054 20.5144 25.9805 19.1976 25.1414 18.3586L24.8586 18.6414C25.5395 19.3224 25.626 20.4056 24.8653 21.3332L25.1747 21.5868ZM25.1414 18.3586C24.3309 17.5481 23.2469 17.2558 22.1179 17.3812L22.1621 17.7788C23.1931 17.6642 24.1491 17.9319 24.8586 18.6414L25.1414 18.3586ZM22.34 17.58V17.54H21.94V17.58H22.34ZM22.2422 17.7119C22.988 17.2685 23.5206 16.9329 24.1186 16.594L23.9214 16.246C23.3194 16.5871 22.772 16.9315 22.0378 17.3681L22.2422 17.7119ZM24.126 16.5896C24.2629 16.504 24.46 16.4029 24.6014 16.2614L24.3186 15.9786C24.22 16.0771 24.0971 16.136 23.914 16.2504L24.126 16.5896ZM24.5917 16.2705C24.6574 16.213 24.7615 16.1316 24.8389 16.0514C24.923 15.9643 25.0057 15.8512 25.0361 15.6992L24.6439 15.6208C24.6343 15.6688 24.607 15.7157 24.5511 15.7736C24.4885 15.8384 24.4226 15.887 24.3283 15.9695L24.5917 16.2705ZM24.84 15.86C24.8679 15.86 24.9074 15.8602 24.9456 15.8567C24.9825 15.8533 25.0366 15.8453 25.0894 15.8189L24.9106 15.4611C24.9181 15.4573 24.9226 15.4565 24.9216 15.4567C24.9207 15.4569 24.917 15.4576 24.9094 15.4583C24.8926 15.4598 24.8721 15.46 24.84 15.46V15.86ZM25.12 15.8C25.1966 15.7425 25.2728 15.6901 25.3497 15.6363C25.4245 15.584 25.5008 15.5296 25.568 15.4736L25.312 15.1664C25.2592 15.2104 25.1955 15.256 25.1203 15.3087C25.0472 15.3599 24.9634 15.4175 24.88 15.48L25.12 15.8ZM25.6017 15.4376C25.6331 15.3946 25.6712 15.3528 25.717 15.3058C25.7596 15.2621 25.8152 15.2077 25.8637 15.1538C25.9655 15.0406 26.0706 14.8941 26.0982 14.6864L25.7018 14.6336C25.6894 14.7259 25.6445 14.7994 25.5663 14.8862C25.5248 14.9323 25.4829 14.9729 25.4305 15.0267C25.3813 15.0772 25.3269 15.1354 25.2783 15.2024L25.6017 15.4376ZM26.1 14.66C26.1 14.7206 26.0689 14.7671 26.035 14.7925C26.0023 14.817 25.972 14.82 25.96 14.82V14.42C25.8667 14.42 25.7 14.48 25.7 14.66H26.1ZM26.1549 14.665C26.181 14.5519 26.2223 14.4545 26.2691 14.3904C26.3165 14.3254 26.3488 14.32 26.36 14.32V13.92C26.1712 13.92 26.0335 14.0346 25.9459 14.1546C25.8577 14.2755 25.799 14.4281 25.7651 14.575L26.1549 14.665ZM26.2283 13.9695C26.0335 14.1399 25.94 14.3518 25.94 14.52H26.34C26.34 14.4882 26.3665 14.3801 26.4917 14.2705L26.2283 13.9695ZM20.5927 11.7317C20.427 11.7908 20.1787 11.9388 19.9616 12.0836C19.7429 12.2294 19.5236 12.3936 19.4186 12.4986L19.7014 12.7814C19.7764 12.7064 19.9671 12.5606 20.1834 12.4164C20.4013 12.2712 20.613 12.1492 20.7273 12.1083L20.5927 11.7317ZM19.56 12.44H19.32V12.84H19.56V12.44ZM19.4471 12.7944C19.7678 12.5303 20.8295 11.8988 21.8881 11.3796L21.7119 11.0204C20.6505 11.5412 19.5522 12.1897 19.1929 12.4856L19.4471 12.7944ZM21.606 11.2485L21.626 11.3285L22.014 11.2315L21.994 11.1515L21.606 11.2485ZM21.7612 11.0888C21.6642 11.1187 21.5389 11.1961 21.4278 11.269C21.31 11.3463 21.1732 11.4426 21.0525 11.5246C20.9265 11.6103 20.8178 11.6807 20.7396 11.7204C20.6976 11.7417 20.6822 11.7446 20.6858 11.7441C20.6877 11.7438 20.7138 11.7394 20.7491 11.7523C20.7939 11.7688 20.8305 11.805 20.8473 11.8498L20.4727 11.9902C20.497 12.055 20.5472 12.1043 20.6111 12.1278C20.6654 12.1477 20.7159 12.1442 20.7471 12.1394C20.809 12.1297 20.8712 12.1021 20.9204 12.0771C21.0247 12.0243 21.1535 11.9397 21.2775 11.8554C21.4068 11.7674 21.5325 11.6787 21.6472 11.6035C21.7686 11.5239 21.8458 11.4813 21.8788 11.4712L21.7612 11.0888ZM25.2926 14.9858L24.8326 15.3658L25.0874 15.6742L25.5474 15.2942L25.2926 14.9858ZM25.16 15.52C25.16 15.5179 25.1604 15.5035 25.1852 15.4687C25.2113 15.4323 25.2486 15.3942 25.3014 15.3414L25.0186 15.0586C24.9714 15.1058 24.9087 15.1677 24.8598 15.2363C24.8096 15.3065 24.76 15.4021 24.76 15.52H25.16ZM25.3105 15.3317C25.4454 15.1775 25.5879 15.0549 25.7414 14.9014L25.4586 14.6186C25.3321 14.7451 25.1546 14.9025 25.0095 15.0683L25.3105 15.3317ZM25.4 14.76C25.4 14.8446 25.3606 14.9165 25.2786 14.9986L25.5614 15.2814C25.6794 15.1635 25.8 14.9954 25.8 14.76H25.4ZM19.86 14.9C19.86 14.9065 19.8593 14.9301 19.8467 14.9589C19.8409 14.9721 19.8347 14.9816 19.8315 14.9862C19.8301 14.9882 19.8291 14.9895 19.8295 14.989C19.8297 14.9888 19.8298 14.9885 19.8304 14.9878C19.8309 14.9871 19.8317 14.9861 19.8325 14.985C19.8361 14.9802 19.8418 14.9723 19.8482 14.9622C19.8545 14.9521 19.8606 14.941 19.8664 14.9286C19.8778 14.9043 19.8867 14.8778 19.894 14.8485L19.506 14.7515C19.5033 14.7622 19.5022 14.7632 19.5042 14.7589C19.5053 14.7565 19.5069 14.7535 19.509 14.7502C19.511 14.747 19.5126 14.7448 19.5125 14.745C19.5112 14.7467 19.5128 14.7446 19.5101 14.7481C19.5088 14.7499 19.5062 14.7534 19.5033 14.7576C19.497 14.7665 19.4882 14.7804 19.4802 14.7986C19.4632 14.8374 19.46 14.8735 19.46 14.9H19.86ZM19.5285 14.9029C19.5364 14.916 19.5416 14.9247 19.5457 14.932C19.5498 14.9392 19.5508 14.9415 19.5505 14.9409C19.5501 14.94 19.5474 14.9337 19.5453 14.9236C19.543 14.9127 19.5422 14.9006 19.5432 14.8884C19.5442 14.8769 19.5465 14.8689 19.5475 14.8659C19.5483 14.8634 19.5483 14.8642 19.5454 14.8702C19.5425 14.8761 19.5382 14.8843 19.5314 14.8966C19.5246 14.9088 19.5165 14.9229 19.5064 14.9408L19.8536 15.1392C19.8723 15.1067 19.8913 15.0736 19.9052 15.0448C19.9192 15.0161 19.9375 14.9734 19.9418 14.9216C19.9466 14.8636 19.9325 14.8157 19.9163 14.7791C19.903 14.7489 19.884 14.7179 19.8715 14.6971L19.5285 14.9029ZM19.48 15.04C19.48 15.0537 19.479 15.0392 19.4835 15.0215C19.4861 15.0109 19.4905 14.9989 19.4972 14.9869C19.504 14.975 19.5116 14.9656 19.5186 14.9586L19.8014 15.2414C19.8836 15.1592 19.88 15.063 19.88 15.04H19.48ZM19.8014 14.9586C19.8196 14.9767 19.8275 14.9937 19.8282 14.9953C19.8288 14.9964 19.8287 14.9964 19.8273 14.9931C19.8266 14.9912 19.8237 14.9842 19.8213 14.9787C19.8092 14.9505 19.7871 14.9042 19.7414 14.8586L19.4586 15.1414C19.4529 15.1358 19.4508 15.1295 19.4537 15.1363C19.4551 15.1396 19.4556 15.141 19.4582 15.1472C19.4602 15.1519 19.4634 15.1595 19.4674 15.1679C19.475 15.1838 19.4904 15.2133 19.5186 15.2414L19.8014 14.9586ZM19.6632 15.1897C19.682 15.1835 19.6437 15.1952 19.7017 15.1836C19.7234 15.1793 19.7925 15.1634 19.8404 15.0942C19.8802 15.0366 19.88 14.9763 19.88 14.96H19.48C19.48 14.9579 19.48 14.9476 19.4829 14.9332C19.4859 14.9181 19.4931 14.893 19.5115 14.8665C19.5538 14.8054 19.6141 14.7932 19.6233 14.7914C19.6285 14.7903 19.6321 14.79 19.6271 14.7906C19.6242 14.791 19.6163 14.7919 19.6079 14.7932C19.5891 14.796 19.565 14.8008 19.5368 14.8103L19.6632 15.1897ZM19.88 14.96C19.88 14.937 19.8836 14.8408 19.8014 14.7586L19.5186 15.0414C19.5116 15.0344 19.504 15.025 19.4972 15.0131C19.4905 15.0011 19.4861 14.9891 19.4835 14.9785C19.479 14.9608 19.48 14.9463 19.48 14.96H19.88ZM18.68 17.54H18.7V17.14H18.68V17.54ZM18.8992 17.3581C18.9157 17.1762 19 16.9877 19.0638 16.8388L18.6962 16.6812C18.64 16.8123 18.5243 17.0638 18.5008 17.3219L18.8992 17.3581ZM19.0749 16.805C19.1298 16.5668 19.2374 16.3541 19.3446 16.0969L18.9754 15.9431C18.8826 16.1659 18.7502 16.4332 18.6851 16.715L19.0749 16.805ZM19.3428 16.1012C19.4191 15.9294 19.5274 15.6922 19.5723 15.5349L19.1877 15.4251C19.1526 15.5478 19.0609 15.7506 18.9772 15.9388L19.3428 16.1012ZM19.5589 15.5694L19.7389 15.2094L19.3811 15.0306L19.2011 15.3906L19.5589 15.5694ZM19.56 15.32C19.5694 15.32 19.5776 15.3194 19.5841 15.3188C19.5906 15.3181 19.5963 15.3173 19.6009 15.3165C19.6094 15.3151 19.6171 15.3135 19.6209 15.3126C19.6262 15.3115 19.6275 15.3112 19.6298 15.3107C19.6315 15.3104 19.6316 15.3104 19.6308 15.3105C19.6293 15.3107 19.6219 15.3117 19.611 15.3106C19.5994 15.3095 19.5851 15.3062 19.5706 15.2989L19.7494 14.9411C19.6786 14.9057 19.6124 14.9091 19.5742 14.9145C19.5565 14.917 19.5399 14.9209 19.536 14.9218C19.5242 14.9243 19.5396 14.92 19.56 14.92V15.32ZM19.462 15.0917C19.4474 15.1938 19.4043 15.2842 19.3211 15.4506L19.6789 15.6294C19.7557 15.4758 19.8326 15.3262 19.858 15.1483L19.462 15.0917ZM19.3586 15.3986C19.3775 15.3797 19.3966 15.37 19.4087 15.3653C19.4203 15.3608 19.4283 15.3596 19.4292 15.3595C19.4304 15.3593 19.429 15.3596 19.4232 15.3598C19.4173 15.36 19.4106 15.36 19.4 15.36V15.76C19.4163 15.76 19.4515 15.7604 19.4858 15.7555C19.5175 15.751 19.5853 15.7376 19.6414 15.6814L19.3586 15.3986ZM19.2586 15.7014C19.2814 15.7243 19.2765 15.7203 19.2736 15.7159C19.273 15.7151 19.2743 15.7169 19.2793 15.7263C19.2843 15.7359 19.2907 15.7487 19.3011 15.7694L19.6589 15.5906C19.6418 15.5563 19.6251 15.5221 19.6064 15.4941C19.5835 15.4597 19.5586 15.4357 19.5414 15.4186L19.2586 15.7014ZM19.48 15.48C19.464 15.48 19.4548 15.48 19.4478 15.4798C19.4406 15.4796 19.4422 15.4793 19.4479 15.4802C19.4548 15.4814 19.4687 15.4845 19.4851 15.4927C19.5019 15.5011 19.514 15.5112 19.5214 15.5186L19.2386 15.8014C19.2803 15.8432 19.3293 15.866 19.3821 15.8748C19.4175 15.8807 19.4578 15.88 19.48 15.88V15.48ZM19.182 15.6317C19.16 15.7861 19.1581 15.9102 19.1839 16.0392L19.5761 15.9608C19.5619 15.8898 19.56 15.8139 19.578 15.6883L19.182 15.6317ZM19.2498 15.8481L19.1098 15.9681L19.3702 16.2719L19.5102 16.1519L19.2498 15.8481ZM19.24 16.12C19.0986 16.2614 19.0986 16.2615 19.0987 16.2615C19.0987 16.2615 19.0988 16.2616 19.0988 16.2616C19.0989 16.2617 19.0989 16.2618 19.099 16.2618C19.0991 16.262 19.0993 16.2621 19.0994 16.2623C19.0998 16.2626 19.1001 16.2629 19.1004 16.2632C19.1011 16.2639 19.1018 16.2645 19.1025 16.2653C19.1041 16.2667 19.1058 16.2684 19.1078 16.2701C19.1117 16.2737 19.1165 16.2779 19.1222 16.2824C19.1336 16.2915 19.149 16.3026 19.1683 16.3136C19.206 16.3352 19.2652 16.36 19.34 16.36V15.96C19.3548 15.96 19.364 15.9648 19.3667 15.9664C19.3685 15.9674 19.3702 15.9685 19.3721 15.9701C19.3732 15.9709 19.3744 15.9719 19.3759 15.9733C19.3766 15.974 19.3775 15.9747 19.3784 15.9756C19.3789 15.9761 19.3793 15.9765 19.3798 15.977C19.3801 15.9773 19.3803 15.9775 19.3806 15.9778C19.3807 15.9779 19.3809 15.978 19.381 15.9782C19.3811 15.9782 19.3811 15.9783 19.3812 15.9784C19.3812 15.9784 19.3813 15.9785 19.3813 15.9785C19.3814 15.9785 19.3814 15.9786 19.24 16.12ZM19.14 16.16V16.22H19.54V16.16H19.14ZM19.34 16.02H19.2V16.42H19.34V16.02ZM19.2 16.42C19.1758 16.42 19.0999 16.4143 19.0456 16.3426C19.0206 16.3097 19.0108 16.2755 19.0075 16.2503C19.0043 16.2262 19.0063 16.2068 19.008 16.1962C19.0097 16.1849 19.0121 16.1764 19.0134 16.1721C19.0148 16.1675 19.016 16.1642 19.0164 16.1632C19.0168 16.1621 19.017 16.1617 19.0165 16.1628C19.0163 16.1632 19.0151 16.1661 19.0143 16.1682C19.0118 16.1744 18.9989 16.2051 18.9953 16.2432C18.9933 16.2644 18.9934 16.2937 19.0028 16.3266C19.0126 16.3611 19.0312 16.394 19.0586 16.4214L19.3414 16.1386C19.3916 16.1887 19.3965 16.2493 19.3935 16.2811C19.3911 16.3062 19.3832 16.3231 19.3857 16.3168C19.3861 16.3157 19.3862 16.3156 19.3872 16.3131C19.3879 16.3113 19.3893 16.308 19.3907 16.3042C19.3925 16.2994 19.3996 16.2807 19.4033 16.257C19.4061 16.2389 19.4153 16.1682 19.3643 16.1009C19.3082 16.027 19.2292 16.02 19.2 16.02V16.42ZM19.0586 16.1386C19.034 16.1632 19.0201 16.1888 19.0128 16.2041C19.005 16.2204 18.9999 16.2355 18.9967 16.2461C18.9908 16.2656 18.9863 16.2871 18.9848 16.2941C18.9836 16.2995 18.983 16.3017 18.9828 16.3027C18.9824 16.3041 18.9834 16.2998 18.9862 16.2929C18.9881 16.2882 18.9964 16.2673 19.0163 16.2446C19.0271 16.2323 19.0443 16.2161 19.0691 16.2028C19.0952 16.1888 19.1263 16.18 19.16 16.18V16.58C19.238 16.58 19.2908 16.5383 19.317 16.5084C19.3407 16.4813 19.3526 16.454 19.3576 16.4415C19.3678 16.4159 19.3735 16.3889 19.3752 16.3809C19.3768 16.3737 19.3776 16.3702 19.3785 16.3661C19.3794 16.3623 19.3797 16.3614 19.3795 16.3621C19.3795 16.3623 19.3778 16.3678 19.3739 16.376C19.3706 16.3831 19.361 16.4018 19.3414 16.4214L19.0586 16.1386ZM19.0186 16.2386L18.8986 16.3586L19.1814 16.6414L19.3014 16.5214L19.0186 16.2386ZM18.8986 16.6414C18.9021 16.6449 18.9101 16.6531 18.9181 16.6602C18.9265 16.6678 18.9445 16.6834 18.9706 16.6964C19 16.7111 19.0274 16.7166 19.0482 16.7187C19.0635 16.7202 19.0787 16.72 19.08 16.72V16.32C19.0713 16.32 19.079 16.3198 19.088 16.3207C19.1026 16.3221 19.125 16.3264 19.1494 16.3386C19.1705 16.3491 19.1835 16.361 19.1857 16.3629C19.1874 16.3644 19.1879 16.3651 19.1814 16.3586L18.8986 16.6414ZM18.8827 16.4871C18.87 16.5635 18.831 16.6262 18.7986 16.6586L19.0814 16.9414C19.169 16.8538 19.25 16.7165 19.2773 16.5529L18.8827 16.4871ZM18.7439 16.7608C18.7216 16.8721 18.7056 16.9675 18.6743 17.0457L19.0457 17.1943C19.0944 17.0725 19.1184 16.9279 19.1361 16.8392L18.7439 16.7608ZM18.6762 17.0412C18.6402 17.1251 18.6171 17.207 18.5972 17.2793C18.5765 17.3542 18.559 17.4199 18.5327 17.4898L18.9073 17.6302C18.941 17.5401 18.9635 17.4558 18.9828 17.3857C19.0029 17.313 19.0198 17.2549 19.0438 17.1988L18.6762 17.0412ZM18.56 17.44C18.5116 17.5046 18.487 17.5712 18.4726 17.6063C18.4573 17.6433 18.4459 17.6674 18.4238 17.6951L18.7362 17.9449C18.7941 17.8726 18.8227 17.8067 18.8424 17.7586C18.863 17.7088 18.8684 17.6954 18.88 17.68L18.56 17.44ZM18.386 17.7715L18.366 17.8515L18.754 17.9485L18.774 17.8685L18.386 17.7715ZM18.7389 17.8106L18.6989 17.7306L18.3411 17.9094L18.3811 17.9894L18.7389 17.8106ZM18.7152 17.8634C18.7306 17.7944 18.7574 17.7322 18.7919 17.6498C18.8237 17.5741 18.8646 17.4755 18.8785 17.3648L18.4815 17.3152C18.4754 17.3645 18.4563 17.4159 18.4231 17.4952C18.3926 17.5678 18.3494 17.6656 18.3248 17.7766L18.7152 17.8634ZM24.3524 15.606C23.663 16.1772 23.4687 16.2206 22.0296 17.1732L22.2504 17.5068C23.6513 16.5794 23.897 16.5028 24.6076 15.914L24.3524 15.606ZM22.0291 17.1736C21.8661 17.2822 21.6867 17.3455 21.5285 17.306L21.4315 17.694C21.7533 17.7745 22.0539 17.6378 22.2509 17.5064L22.0291 17.1736ZM21.5836 17.6711L23.1036 16.7511L22.8964 16.4089L21.3764 17.3289L21.5836 17.6711ZM23.102 16.7521C23.6467 16.4292 24.1314 16.1061 24.6495 15.7674L24.4306 15.4326C23.9086 15.7739 23.4333 16.0908 22.898 16.4079L23.102 16.7521ZM24.3543 15.6743C24.3575 15.6822 24.3525 15.6736 24.3533 15.654C24.3537 15.6438 24.3555 15.6323 24.3595 15.6204C24.3635 15.6087 24.3687 15.599 24.3736 15.5916C24.3822 15.5787 24.3899 15.5734 24.3821 15.58C24.3805 15.5814 24.3786 15.5829 24.3759 15.5852C24.3734 15.5873 24.3699 15.5902 24.3664 15.5932C24.3593 15.5992 24.3492 15.608 24.3386 15.6186L24.6214 15.9014C24.6208 15.902 24.6214 15.9014 24.625 15.8983C24.6269 15.8967 24.6288 15.8951 24.6317 15.8927C24.6344 15.8905 24.638 15.8875 24.6417 15.8844C24.6551 15.8729 24.6828 15.8488 24.7064 15.8134C24.7327 15.774 24.7509 15.7254 24.753 15.6691C24.755 15.6164 24.7425 15.5678 24.7257 15.5257L24.3543 15.6743ZM23.0325 18.4781C23.3772 18.526 23.6283 18.6052 23.8221 18.7215C24.0128 18.8359 24.1598 18.9933 24.2855 19.2177L24.6345 19.0223C24.4802 18.7467 24.2872 18.5341 24.0279 18.3785C23.7717 18.2248 23.4628 18.134 23.0875 18.0819L23.0325 18.4781ZM24.2842 19.2154C24.6068 19.8096 24.3622 20.6163 23.856 21.1412L24.144 21.4188C24.7178 20.8237 25.0732 19.8304 24.6358 19.0246L24.2842 19.2154ZM23.857 21.1401C23.0029 22.0132 22.097 22.2824 20.9069 22.3604L20.9331 22.7596C22.183 22.6776 23.1971 22.3868 24.143 21.4199L23.857 21.1401ZM20.9061 22.3605C20.0839 22.4178 19.2349 22.1876 18.8509 22.0866L18.7491 22.4734C19.1251 22.5724 20.0361 22.8222 20.9339 22.7595L20.9061 22.3605ZM18.8549 22.0877C18.7867 22.0682 18.6402 22.0243 18.5132 21.9452C18.3829 21.864 18.32 21.7768 18.32 21.68H17.92C17.92 21.9832 18.1271 22.176 18.3018 22.2848C18.4798 22.3957 18.6733 22.4518 18.7451 22.4723L18.8549 22.0877ZM18.32 21.68C18.32 21.5844 18.3407 21.4224 18.3775 21.2164C18.4136 21.0146 18.4628 20.783 18.515 20.5545C18.6192 20.0978 18.7336 19.6604 18.7732 19.5115L18.3868 19.4085C18.3464 19.5596 18.2308 20.0022 18.125 20.4655C18.0722 20.697 18.0214 20.9354 17.9837 21.1461C17.9468 21.3526 17.92 21.5456 17.92 21.68H18.32ZM18.774 19.5085C18.8347 19.2659 18.871 19.1228 18.9428 18.9612L18.5772 18.7988C18.489 18.9972 18.4453 19.1741 18.386 19.4115L18.774 19.5085ZM18.7992 19.0761C18.8595 19.0641 18.9753 19.0308 19.0924 18.9973C19.2158 18.9621 19.3524 18.9231 19.4685 18.894L19.3715 18.506C19.2476 18.5369 19.1042 18.5779 18.9826 18.6127C18.8547 18.6492 18.7605 18.6759 18.7208 18.6839L18.7992 19.0761ZM19.4667 18.8945C20.4857 18.6499 21.5194 18.2647 23.0321 18.478L23.0879 18.082C21.4806 17.8553 20.3543 18.2701 19.3733 18.5055L19.4667 18.8945ZM24.7494 21.7189C24.7432 21.722 24.7407 21.7222 24.7498 21.7195C24.7526 21.7187 24.7758 21.7122 24.7907 21.7072C24.8209 21.6972 24.9107 21.6659 24.9589 21.5694L24.6011 21.3906C24.6077 21.3773 24.616 21.3658 24.625 21.3563C24.6337 21.347 24.6422 21.3405 24.6488 21.3361C24.6553 21.3319 24.6603 21.3295 24.6627 21.3285C24.665 21.3274 24.6659 21.3272 24.6643 21.3278C24.6626 21.3283 24.6599 21.3292 24.6548 21.3306C24.6512 21.3317 24.6425 21.3341 24.6358 21.3361C24.6282 21.3384 24.6184 21.3414 24.6078 21.3452C24.5971 21.3491 24.5843 21.3542 24.5706 21.3611L24.7494 21.7189ZM24.979 21.4601C24.9753 21.423 24.9851 21.378 25.0359 21.2897C25.0614 21.2454 25.0922 21.1982 25.1308 21.1386C25.1682 21.0807 25.2107 21.0143 25.2536 20.9392L24.9064 20.7408C24.8693 20.8057 24.8318 20.8643 24.7949 20.9214C24.7591 20.9768 24.7211 21.0346 24.6891 21.0903C24.6249 21.202 24.5647 21.337 24.581 21.4999L24.979 21.4601ZM24.88 20.84C24.88 20.9263 24.8855 21.0009 24.8877 21.047C24.8889 21.0721 24.8891 21.0875 24.8886 21.098C24.8882 21.1087 24.8872 21.106 24.8903 21.0968L25.2697 21.2232C25.2934 21.1521 25.2895 21.0745 25.2873 21.028C25.2845 20.9691 25.28 20.9137 25.28 20.84H24.88ZM24.9386 21.0186C24.874 21.0831 24.8146 21.1536 24.7742 21.1983C24.7279 21.2495 24.6997 21.2749 24.6771 21.2885L24.8829 21.6315C24.9603 21.5851 25.0221 21.5205 25.0708 21.4667C25.1254 21.4064 25.166 21.3569 25.2214 21.3014L24.9386 21.0186ZM24.58 21.46V21.48H24.98V21.46H24.58ZM24.581 21.4601L24.561 21.6601L24.959 21.6999L24.979 21.4999L24.581 21.4601ZM24.76 21.48H24.74V21.88H24.76V21.48ZM24.8294 21.5011C24.7774 21.4751 24.7241 21.4669 24.6899 21.4635C24.6535 21.4599 24.6189 21.46 24.6 21.46V21.86C24.6211 21.86 24.6365 21.8601 24.6501 21.8615C24.6564 21.8621 24.6598 21.8628 24.6608 21.8631C24.6621 21.8634 24.6579 21.8626 24.6506 21.8589L24.8294 21.5011ZM24.7897 21.7232C24.7976 21.6996 24.803 21.6774 24.8065 21.6634C24.8084 21.6555 24.8096 21.6507 24.8108 21.6461C24.8119 21.6417 24.8123 21.6404 24.8122 21.6407C24.8122 21.6409 24.8107 21.6454 24.8073 21.6522C24.8039 21.6589 24.797 21.6711 24.7849 21.6845C24.7721 21.6986 24.7539 21.7137 24.7295 21.7248C24.705 21.7359 24.6808 21.74 24.66 21.74V21.34C24.5909 21.34 24.5303 21.3696 24.4883 21.4161C24.4542 21.4538 24.4392 21.495 24.4328 21.5143C24.4258 21.5352 24.4205 21.5579 24.4179 21.5684C24.4145 21.5826 24.4124 21.5904 24.4103 21.5968L24.7897 21.7232Z" fill="black"/>
<defs>
<filter id="filter0_f" x="0.703278" y="0.606689" width="46.6407" height="50.2067" filterUnits="userSpaceOnUse" color-interpolation-filters="sRGB">
<feFlood flood-opacity="0" result="BackgroundImageFix"/>
<feBlend mode="normal" in="SourceGraphic" in2="BackgroundImageFix" result="shape"/>
<feGaussianBlur stdDeviation="2.5" result="effect1_foregroundBlur"/>
</filter>
</defs>
</svg>
