<svg width="200" height="95" viewBox="0 0 200 95" fill="none" xmlns="http://www.w3.org/2000/svg">
<path d="M71.767 63.6352C71.0756 64.0124 70.7613 64.3895 69.6298 64.8924C68.2469 65.521 67.2412 65.7096 66.1097 65.7724C64.8525 65.8353 64.0354 65.3324 63.3439 64.5781C62.9668 64.1381 62.9039 63.4466 62.401 63.1323C62.2125 63.0066 62.2125 62.6923 62.1496 62.4409C62.0867 62.1266 62.2125 61.8123 62.0867 61.6237C61.8353 61.2466 61.8353 60.8694 61.8353 60.4923C61.8353 60.2408 61.8982 59.9894 61.7724 59.8008C61.7096 59.6751 61.521 59.5494 61.4581 59.4237C61.5839 59.2351 61.7724 59.1094 61.8353 58.9837C61.961 58.7322 61.7724 58.4808 61.521 58.3551C61.961 58.3551 61.7724 58.2294 61.5839 58.1036C62.0867 57.8522 61.6467 57.5379 61.8353 57.0979C61.961 56.6579 62.0867 56.2807 62.0867 55.9036C62.2125 55.4007 62.1496 54.9607 62.4639 54.4578C62.7153 54.1435 62.6525 53.7035 62.4639 53.5149C62.7153 52.5721 63.0296 51.692 63.2182 50.8749C63.4068 50.372 63.3439 49.8691 63.4068 49.3662C63.4068 49.3662 63.4068 49.3034 63.3439 49.1777C63.1553 49.1777 62.9668 49.1148 62.7153 49.052C62.9668 49.052 63.3439 48.9891 63.5325 48.9891C63.6582 48.7377 63.7839 48.4862 63.8468 48.1719C63.8468 47.9834 63.9725 47.7319 63.8468 47.5433C63.7211 47.1662 64.0982 47.1033 64.0982 46.8519C64.0982 46.6633 63.7211 46.6005 63.9725 46.2862C64.2868 45.909 63.7839 45.9719 63.7839 45.7204C64.3497 45.7204 64.6011 45.2176 64.7268 44.7147C64.8525 43.9604 65.0411 43.2061 65.1668 42.4518C65.1668 41.886 65.4183 41.2575 65.544 40.566C65.7954 39.3088 65.7325 37.9259 65.8583 36.6059C66.0468 35.3487 65.6697 34.2173 65.0411 33.1487C64.9782 33.0229 64.8525 32.8972 64.7268 32.8344C63.9096 32.5201 62.7782 32.0801 61.3953 32.0801C60.8296 32.1429 60.201 32.2058 59.761 32.5201C57.6866 33.463 55.8008 34.7201 54.2294 36.4173C52.7208 37.9888 51.4007 39.7488 50.3321 41.6346C50.0178 42.2632 49.5778 42.8289 49.2007 43.3947C48.8864 42.5146 49.8293 41.886 49.515 41.006C49.515 40.9432 49.6407 40.8803 49.7664 40.6917C49.8293 40.566 50.0178 40.4403 50.0178 40.3146C50.2693 39.4974 50.5207 38.6802 50.5836 37.8002C50.7093 36.2916 51.1493 34.783 51.1493 33.2115C51.2121 32.3315 51.1493 31.4515 50.9607 30.6972C50.7093 29.7543 50.2064 29 49.2635 28.7485C48.6349 28.56 47.9435 28.2457 47.252 28.2457C46.7492 28.1828 46.2463 28.2457 45.7434 28.4342C44.1091 29.0628 42.9776 30.1943 41.8462 31.5772C40.6519 32.9601 39.709 34.5944 38.829 36.2916C37.8861 38.1145 37.1318 40.0631 36.1889 41.886C36.0003 42.3889 35.8117 42.9546 35.5603 43.3947C35.6231 42.5146 35.686 41.6346 35.9374 40.7546C36.5032 38.806 36.4403 36.7945 37.0689 34.9087C37.1318 34.5316 37.0689 34.0915 37.1946 33.7144C37.2575 33.0229 36.9432 32.3315 37.2575 31.64C37.5089 30.9486 37.3832 30.1314 37.3203 29.3771L37.1318 27.2399C36.7546 25.6685 36.5032 24.097 35.3717 23.4684C34.9317 23.217 34.4288 23.0284 34.2403 23.0284C33.3602 22.9027 32.4802 23.217 31.7259 23.5313C30.5944 24.097 29.7773 24.7884 28.9601 25.7313C28.1429 26.6742 27.5144 27.4285 26.76 28.4971C26.1943 29.3143 25.44 30.1314 25 31.1372C25 31.4515 26.0057 32.6458 26.4458 32.7086C26.76 32.7715 27.0743 32.2686 27.4515 31.8915C28.2687 31.0743 28.6458 29.9429 29.3373 29.1257C29.903 28.12 30.5316 27.2399 31.4116 26.2342C31.8516 25.7313 32.2916 25.417 32.7945 25.1656C33.2974 24.8513 33.9888 24.8513 34.2403 25.417C34.4288 25.7313 34.6803 26.1085 34.7431 26.4228C34.9317 27.3028 35.1203 27.9942 35.0574 28.8743C34.9946 30.1314 34.9946 31.3886 34.8688 32.7086C34.806 34.0287 34.6803 35.4744 34.4288 36.7945C34.1774 38.2402 34.0517 39.5603 33.7374 41.006C33.6117 41.6975 33.4859 42.5146 33.2974 43.3318C31.223 51.692 30.6573 53.5778 29.8401 57.475C29.5887 58.6694 29.2744 59.2351 29.1487 59.8637C29.023 60.3666 29.2115 60.4923 29.903 60.618C30.1544 60.7437 30.343 60.8694 30.5316 60.9323C30.783 61.058 31.0973 61.3094 31.4116 61.3723C32.1031 61.5609 32.2288 61.3094 32.3545 60.7437C32.7316 58.9208 32.8574 57.2865 33.5488 55.5264L35.5603 50.5606L39.1432 41.446C39.269 41.1317 39.269 40.6917 39.3947 40.3146C39.5204 40.126 39.8347 39.8117 39.9604 39.4974C40.4004 38.6174 40.9033 37.5488 41.6576 36.7316C41.6576 36.6688 41.7205 36.6688 41.7205 36.6059C41.7205 35.8516 42.2862 35.4744 42.6005 34.9716C42.7891 34.6573 42.9776 34.4058 43.2291 34.0915C43.9205 32.9601 44.7377 31.8286 45.932 31.0115C46.3092 30.76 46.372 30.4457 47.1892 30.2572C48.1321 30.2572 48.3206 30.76 48.3835 32.4572C48.4464 34.0287 47.8806 36.6059 46.372 42.0118L44.5491 48.6119C43.8577 51.0006 43.5434 52.4463 42.8519 54.9607C42.5376 56.0921 42.1605 57.5379 41.9719 58.9208C41.9719 59.2351 43.2919 59.298 43.6691 59.4237C44.2977 59.6122 44.1091 60.178 44.7377 59.738C45.052 58.8579 45.1777 57.9779 45.3034 57.0979C45.492 55.9664 45.6806 55.6521 45.8691 55.0235C46.1206 54.4578 46.2463 54.0807 46.4349 53.2635C46.5606 53.2006 47.1892 51.252 47.1892 51.0006L47.6921 49.7434C49.0749 46.9776 50.6464 44.4004 52.6579 42.1375C53.2236 41.5089 54.1665 40.6289 54.4808 39.8117C54.6694 39.3088 55.298 38.8688 55.8008 38.4917C56.4923 37.7374 57.3095 37.0459 58.0009 36.3545C59.0066 35.4116 60.201 34.8458 61.3953 34.2173C61.521 34.1544 61.7724 34.1544 61.961 34.0915C62.4639 33.9658 63.0925 34.5944 63.0925 34.783C63.1553 35.4116 63.1553 36.0402 63.0925 36.6688C63.0296 37.8002 62.5896 39.0574 62.4639 40.1889C62.4639 40.2517 62.5267 40.3146 62.5267 40.3774C62.6525 40.4403 62.7782 40.4403 62.9668 40.5031C62.9668 40.9432 62.9039 41.3203 62.841 41.6975L61.7724 46.7262L60.4524 52.1949C60.1381 53.5149 60.0124 54.7721 59.6981 56.155C59.3209 57.8522 59.5724 59.5494 59.6352 61.1209C59.6352 61.2466 59.5095 61.4352 59.5095 61.5609C59.761 61.8752 60.2638 62.0637 59.8238 62.6295C59.761 62.6923 59.8238 62.818 59.8238 62.9438C59.8867 63.3209 60.3267 63.3838 60.3267 63.4466C60.3267 63.6981 60.3267 63.9495 60.5153 64.2638C60.5153 64.2638 60.5781 64.2638 60.5781 64.3267C61.521 65.521 62.0867 66.401 63.7839 66.5896C64.0354 66.5896 64.3497 66.6524 64.6011 66.7782C66.2354 67.3439 67.744 66.9039 69.2526 66.3381C69.3784 66.2753 69.5041 66.2124 69.5669 66.0867C69.8184 65.5838 70.1955 65.3953 70.6355 65.081C70.8241 64.9552 71.2013 64.7038 71.2013 64.5781C71.0756 64.0124 71.8927 63.9495 71.767 63.6352ZM42.5376 32.7086C41.9719 33.5887 41.3433 34.4058 40.7147 35.2859C40.5261 35.5373 40.3376 35.8516 40.2747 36.2287C40.149 36.543 39.9604 36.8573 39.8976 37.2973L39.3318 38.2402C39.269 38.4917 39.0804 38.6802 39.0175 38.9945C38.5775 39.5603 38.6404 40.126 38.2004 40.566C37.6346 41.1317 37.8232 41.9489 37.5089 42.5146C37.4461 42.8289 37.4461 43.0804 37.2575 43.2689C35.1831 47.6062 33.6117 52.4463 33.1088 54.2692C32.6688 55.0864 32.6059 55.715 32.1659 56.7207L31.3487 58.5436C30.9087 58.8579 31.4116 57.2865 31.663 56.7207C31.7888 56.155 31.9773 55.5264 32.1659 55.0235C32.7316 53.4521 34.8688 46.9148 36.566 43.0804L38.2632 39.1831C39.0804 37.3602 40.0233 35.5373 41.2176 33.7773C41.5947 33.1487 42.1605 32.5829 42.6005 31.9543C42.8519 32.2058 42.7262 32.5201 42.5376 32.7086ZM58.1266 34.343C57.8752 34.5316 57.5609 34.4687 57.2466 34.5944C56.7437 35.3487 56.3666 35.9773 55.5494 36.6688C55.0465 37.2345 54.6065 37.8002 54.1665 38.3659L52.595 40.3774C52.4693 40.2517 52.5322 40.5031 52.4065 40.8803C52.4065 40.9432 52.155 40.9432 52.0922 41.006C51.5893 41.9489 51.2121 41.9489 50.7721 42.8918L50.6464 43.0804C50.2064 43.3318 49.8921 43.7718 49.7664 44.149C49.3892 44.7776 48.8235 45.7204 48.5721 46.2233L48.8864 45.0918C49.515 43.9604 49.8293 43.7718 50.5207 42.6404C51.275 41.3832 51.9665 40.1889 52.8465 38.9945C53.2236 38.5545 53.4122 38.1145 53.7894 37.7374C54.2294 37.3602 54.5437 36.9202 54.9837 36.4802C55.0465 36.4173 55.1723 36.3545 55.298 36.2916C55.8008 35.5373 56.4294 34.9087 57.2466 34.5944C58.0009 33.8401 58.8181 33.5887 59.8238 33.1487C59.1324 33.6515 58.6295 33.9658 58.1266 34.343ZM30.7202 55.9664C31.0345 54.3321 31.4745 53.4521 32.0402 51.5663C32.9831 48.4234 33.8631 43.0175 34.1774 40.8803C34.366 39.5603 34.6174 38.3659 34.9317 37.1716C34.2403 42.7661 33.6117 47.9834 30.783 56.4064C30.7202 56.2807 30.6573 56.155 30.7202 55.9664ZM47.0006 46.4119L46.3092 48.8634C46.2463 48.8634 43.7948 57.6008 43.7948 57.5379C43.7319 57.3493 43.6691 57.1607 43.6691 57.035C44.2977 54.0178 44.6748 52.6349 45.492 49.6805C45.9949 47.7948 46.5606 44.9661 47.3778 42.7661C47.5663 42.0118 48.0692 41.2575 48.0692 40.566C48.0692 40.5032 49.0121 37.4231 49.0121 37.2345L49.2007 37.4859L47.8178 43.7718C47.6292 44.2747 47.252 45.1547 47.0006 46.4119ZM64.4125 40.126C64.4125 40.3774 64.4754 40.5032 64.3497 40.566C64.3497 40.6289 64.2868 40.6917 64.2239 40.7546C64.1611 40.6917 64.0982 40.6917 64.0354 40.6917C64.1611 40.566 64.2239 40.4403 64.4125 40.126ZM62.4639 41.006L61.961 43.0175L62.2125 43.0804C62.401 42.3889 62.5267 41.6975 62.5896 41.006H62.4639ZM62.9668 42.9546C63.0296 43.0175 63.0925 43.0175 63.1553 43.0175L63.0296 43.5204C62.9668 43.5204 62.9039 43.5204 62.7782 43.4575C62.9039 43.3318 62.9668 43.1432 62.9668 42.9546ZM61.1439 47.2919L60.8924 47.7948C60.9553 47.8576 60.9553 47.8576 61.0181 47.8576C61.081 47.7319 61.2067 47.5433 61.2067 47.4176C61.2067 47.4176 61.1439 47.4176 61.1439 47.2919ZM60.8924 48.6119C60.8924 48.5491 60.8296 48.5491 60.7667 48.5491C60.7667 48.6748 60.7038 48.8005 60.7038 48.9262C60.7038 48.9891 60.7667 48.9891 60.8296 48.9891C60.8296 48.8634 60.8924 48.7377 60.8924 48.6119ZM62.2753 48.9262C62.401 49.1148 62.1496 49.3034 62.0867 49.492L62.2753 48.9262ZM60.5153 49.6177C60.0753 50.7491 59.8867 51.6292 59.8867 52.3835C60.2638 51.3777 60.3895 50.4977 60.641 49.6805C60.5781 49.6177 60.5781 49.6177 60.5153 49.6177ZM62.0239 49.6805V49.7434C62.2125 50.0577 62.0239 50.5606 61.8353 52.2578C62.0239 52.3206 62.2125 52.3206 61.961 52.4463C62.1496 52.5721 61.7724 52.6349 61.3953 52.7606C61.2067 51.692 61.6467 50.6863 62.0239 49.6805ZM59.761 53.0749C59.4467 54.1435 59.0067 55.1493 59.2581 56.2179C59.4467 55.2121 59.5724 54.1435 59.761 53.0749ZM60.7038 55.715C60.7038 55.275 60.641 54.9607 60.641 54.5207C60.641 54.4578 60.8296 54.395 60.9553 54.3321C61.0181 54.6464 61.081 55.0235 61.2067 55.3378C61.081 55.4007 60.9553 55.5264 60.7038 55.715ZM61.1439 58.7322L60.4524 59.1722L60.5781 56.0293L61.1439 56.7836C60.5153 57.1608 60.5153 58.2293 61.1439 58.7322ZM59.0067 58.4808C58.8181 59.6751 58.9438 60.7437 59.4467 61.5609L59.2581 60.0523C59.1952 59.6122 59.3209 59.0465 59.0067 58.4808Z" fill="white"/>
<path d="M87.1895 46.6633C85.618 47.229 84.8637 47.4176 83.9209 47.7948C82.8523 48.1719 81.7208 48.4862 80.5893 48.9262C80.5265 48.8634 80.5893 48.8005 80.5893 48.7377C80.4008 48.6748 80.3379 48.4862 80.2122 48.4234H80.4008C80.275 48.1719 80.2122 48.1091 80.0865 48.0462C80.2122 47.9834 80.275 47.9205 80.4008 47.9205C80.275 47.6691 80.3379 47.2919 79.835 47.2919C79.835 47.2919 79.7093 47.1033 79.7093 47.0405C79.8979 46.9776 79.9608 46.9776 80.0865 46.9776C80.1493 46.9776 80.3379 47.1033 80.3379 46.9776C79.8979 46.7262 79.5836 46.349 79.2064 46.0347C79.0807 45.9719 78.8293 45.9719 78.7664 45.909C78.0121 45.2804 77.1321 45.2804 76.5035 45.029C76.3778 44.9661 76.2521 44.9661 76.1892 44.9033C75.9378 44.6518 75.8121 44.3375 75.4978 44.3375C74.9949 44.3375 74.3663 44.2747 73.8006 44.5261C73.0463 44.9033 72.4177 45.4061 71.852 45.9719C71.4748 46.349 71.2234 47.1033 70.7834 47.7319C70.7205 47.7319 70.5948 48.5491 70.4691 48.9262C70.1548 50.0577 69.589 51.252 69.6519 52.4463C69.7148 53.4521 69.7776 54.6464 70.4691 55.3378C70.9091 55.9036 71.4119 56.3436 72.1663 56.4693C72.6691 56.7207 73.4234 56.7207 74.052 56.7836C74.1777 56.8465 74.4292 56.8465 74.6806 56.7836C75.2463 56.595 75.6863 56.4693 76.1892 56.155C76.4407 56.155 76.6921 56.0293 76.8807 55.9036C77.1321 55.5893 77.5093 55.275 77.8235 54.9607L77.9493 54.835C78.515 54.2064 78.8293 53.5778 79.3322 53.0121C79.395 52.9492 79.3322 52.6978 79.395 52.6349C79.7722 52.3835 79.7722 52.0063 80.0865 51.692V51.6292L79.9608 51.5663C79.9608 51.3149 80.0865 51.1263 80.1493 50.9377C80.1493 50.6863 80.2122 50.5606 80.5265 50.5606C80.6522 50.5606 80.7779 50.4977 80.9665 50.4977C81.5951 50.4349 82.098 50.372 82.7894 50.0577L83.6694 49.6805C83.9837 49.5548 84.4866 49.5548 84.5494 49.1777C84.5494 49.1148 84.6123 49.1148 84.6752 49.1148H85.1152C85.3666 49.1148 85.3666 48.8634 85.618 48.6748C85.9952 48.4234 86.4981 48.0462 87.1267 47.7319L86.6866 47.5433C87.0009 47.4805 87.0638 47.4176 87.2524 47.2919V46.7262L87.1895 46.6633ZM78.2636 49.1777H76.5035C76.1264 49.1777 75.9378 49.1148 75.8121 48.8005C75.6235 48.4862 75.5606 48.1091 75.5606 47.7948C75.6235 47.229 76.0635 46.9776 76.4407 46.6633C76.6292 46.4747 76.9435 46.349 77.3207 46.349C77.5093 46.2862 77.635 46.2862 77.7607 46.4747C78.075 46.9776 78.1378 47.6062 78.2636 48.1091C78.2636 48.4862 78.2007 48.8634 78.2636 49.1777ZM78.6407 49.1777C78.6407 48.6748 78.5779 48.1719 78.5779 47.7319C78.955 47.7948 78.955 47.7948 79.0179 48.2976C79.1436 48.5491 79.0179 48.8634 79.0807 49.1148C78.955 49.1148 78.8293 49.1148 78.6407 49.1777ZM77.6978 51.0634C77.3835 51.5035 77.2578 52.0063 77.0064 52.3835C76.6921 52.8863 76.3149 53.3264 75.9378 53.7035C75.2463 54.395 74.3663 55.0235 73.4234 55.275C72.6063 55.5893 71.852 55.3378 71.7891 54.835C71.7262 54.4578 71.6005 54.1435 71.6005 53.7035C71.6005 53.0749 71.6005 52.3206 71.852 51.692C71.9148 51.3777 71.9148 51.0634 72.0405 50.6863C72.1034 50.4349 72.2291 50.0577 72.4177 49.8063C72.732 49.1777 73.0463 48.6748 73.3606 47.9205C73.4234 48.1719 73.5491 48.4234 73.6749 48.6119C73.8006 48.9891 74.1149 49.3034 74.5549 49.5548C75.0578 49.932 75.7492 50.2463 76.3778 50.372C76.6921 50.4977 77.195 50.5606 77.5093 50.5606C77.8235 50.6863 77.9493 50.7491 77.6978 51.0634Z" fill="white"/>
<path d="M100.051 49.6805C100.491 49.2405 101.497 47.7948 101.56 47.5433C101.56 47.3548 101.56 47.2919 101.497 47.1662C101.371 47.1662 101.308 47.1662 101.245 47.2919C100.554 47.6691 99.7996 48.1091 98.9824 48.4862C97.0338 49.6177 95.0852 50.6234 93.0108 51.692C92.4451 51.9435 91.8794 52.3835 91.1251 52.6978C91.0622 52.5721 91.1251 52.4463 91.1251 52.2578C91.1251 51.9435 91.1251 51.6292 91.1879 51.3149C91.1879 50.4977 91.3137 48.9262 92.1308 47.0405C92.3194 46.6633 92.6337 46.2233 92.8851 45.909C92.948 45.7204 93.1366 45.5319 93.3251 45.3433C93.4509 45.0918 93.3251 45.2804 93.6394 44.8404C93.6394 44.8404 94.0794 44.8404 94.3309 44.6518C95.0223 44.2118 92.5708 43.4575 91.8165 43.8347C91.4394 43.8975 91.1251 44.149 90.8736 44.4004C90.6222 44.7776 90.245 45.2804 90.0565 45.7204C89.7422 46.4119 89.5536 46.9148 89.365 47.6062C89.1136 48.0462 89.0507 48.4862 88.925 48.9891V49.8691C88.8622 50.1834 88.8622 50.6234 88.8622 51.0634C88.8622 51.9435 88.7993 52.8863 88.7364 53.9549C88.7993 54.2692 88.7364 54.6464 88.3593 54.7721C88.2336 54.8978 87.9821 55.0864 87.8564 55.2121L86.2849 56.7207C85.7192 57.2865 84.9649 57.9779 84.3992 58.7322C83.8334 59.4865 83.3934 60.3666 83.0791 61.3094C82.9534 61.6237 82.702 62.0637 82.5763 62.5037C82.5763 62.5666 82.5134 62.5666 82.3877 62.6923L82.3248 62.7552C82.0734 63.6981 82.1991 64.641 82.5134 65.4581C82.702 65.961 82.9534 66.4639 83.2049 67.0925C83.4563 67.5325 83.7077 68.2239 84.2735 68.5382C84.3363 68.6639 84.3363 68.7268 84.3992 68.7268C84.5249 68.9154 84.7763 69.2296 84.9021 69.3554C85.2163 69.5439 85.5935 69.6697 85.9706 69.8582C86.3478 69.984 86.725 70.1097 87.1021 70.0468L87.7307 69.7954C87.7307 69.6697 87.6678 69.6697 87.6678 69.6068C87.8564 69.6068 87.9821 69.6068 88.1707 69.5439C88.6736 68.8525 88.9879 68.2239 89.4907 67.5325C89.5536 67.3439 89.6793 67.1553 89.6793 67.0925C89.9308 66.6524 90.1822 66.3381 89.9936 65.961C90.1822 65.6467 90.3079 65.4581 90.3079 65.2067C90.5593 64.0752 90.8108 62.8809 90.9365 61.7494C90.9365 61.5609 90.8736 61.4352 90.8736 61.3094C91.1251 61.1209 90.9994 60.8694 90.9994 60.6808C90.9365 60.4294 90.7479 60.178 90.7479 59.8008C90.8108 59.5494 91.0622 59.298 91.0622 59.0465C91.0622 58.2922 91.0622 57.6008 91.1251 56.9722C91.1251 56.7207 90.9365 56.3436 90.9994 56.0921C90.9365 55.9036 90.9365 55.7779 90.9365 55.6521C90.9365 55.5893 91.1879 55.4007 91.2508 55.3378C92.0051 54.8978 92.6965 54.2692 93.388 53.8292C94.3309 53.3264 95.2109 52.6978 96.2166 52.2578C96.5309 51.9435 96.9081 51.692 97.411 51.5035C97.851 51.252 98.2281 51.0634 98.5424 50.7491C98.6681 50.6234 98.8567 50.5606 98.9824 50.4977C99.2339 50.372 99.6739 50.3091 99.611 49.932C99.7996 49.8691 99.9882 49.8691 100.177 49.8691L100.051 49.6805ZM95.8395 50.5606C96.0281 50.5606 96.0281 50.5606 96.0281 50.6234C95.6509 50.812 95.3995 51.0006 95.148 51.1263C95.148 51.0634 95.0852 51.0634 95.0852 51.0006C95.3366 50.812 95.5881 50.6234 95.8395 50.5606ZM94.3937 51.3149C94.3309 51.692 92.8851 52.5721 92.3823 52.5721L94.3937 51.3149ZM95.5252 52.1949C95.5252 52.1949 95.3366 52.132 95.148 52.132V51.9435C95.5252 51.7549 95.7766 51.6292 96.0909 51.4406H96.2166C96.0281 51.692 95.7766 51.8806 95.5252 52.1949ZM94.1423 52.8235C94.0794 52.8235 93.9537 52.8235 93.9537 52.8235V52.6349C94.2052 52.4463 94.5823 52.4463 94.7709 52.6349C94.5195 52.6978 94.3309 52.6978 94.1423 52.8235ZM92.3823 52.6349C92.2565 52.8863 92.0051 52.8863 91.7537 53.0749C91.7537 52.6349 92.068 52.6978 92.3823 52.6349ZM92.4451 54.0178C92.1937 53.7664 92.1937 53.7664 92.5708 53.7035L92.8851 53.3892C92.948 53.0749 93.1994 53.0749 93.6394 53.1378C93.1366 53.5778 92.6965 53.7664 92.4451 54.0178ZM84.2106 59.5494C85.1535 57.6636 87.0392 56.3436 88.6736 54.8978C88.7364 55.0864 88.7364 55.2121 88.6107 55.4007C88.045 55.9036 87.4164 56.3436 86.8507 56.8465C86.3478 57.2236 85.9706 57.6636 85.5935 58.1036C85.1535 58.4179 84.8392 58.8579 84.5878 59.3608C84.462 59.4865 84.3992 59.5494 84.3363 59.6751L84.2106 59.5494ZM88.6736 59.8008C88.7364 60.8066 88.6107 61.6237 88.3593 62.5666C88.2964 63.1952 87.9821 63.8866 87.7936 64.5152C87.6678 65.0181 87.5421 65.521 87.2278 65.961C86.7878 66.4639 86.4735 67.281 85.7192 67.5953C85.4678 67.7839 85.0906 67.721 84.9021 67.4696C84.462 66.7782 84.3992 66.0238 84.462 65.2695C84.5249 65.0181 84.3363 64.8295 84.3363 64.641C84.3992 63.8238 84.3992 62.9438 84.6506 62.0637C84.902 61.3094 85.4678 60.3666 86.0335 59.4865C86.1592 59.298 86.5364 59.1094 86.725 58.7951C87.165 58.4179 87.4793 58.1036 87.9193 57.7893C88.1707 57.475 88.5479 57.2865 88.8622 57.035C88.7993 57.9779 88.5479 58.8579 88.6736 59.8008Z" fill="white"/>
<path d="M105.285 57.9151C105.536 57.9779 105.725 57.7265 105.913 57.5379C106.416 57.3493 107.045 57.2236 107.61 56.9722C107.862 56.8465 108.176 56.7836 108.365 56.6579C108.365 56.4064 108.302 56.2179 108.365 56.155C108.616 55.8407 108.805 55.3378 109.37 55.4007C109.37 55.4007 109.37 55.3378 109.433 55.3378L110.502 54.5207C109.81 54.2692 109.496 54.3321 109.37 54.7093C109.496 54.7093 109.685 54.7721 109.873 54.7721C109.559 54.8978 109.307 54.9607 109.056 54.7721C108.867 54.6464 108.616 54.7093 108.427 54.7093C108.616 53.9549 109.245 54.2692 109.685 54.0807C109.748 53.9549 109.81 53.9549 109.81 53.8921C110.439 53.3264 111.068 52.8235 111.696 52.3206C112.01 52.132 112.325 51.8806 112.513 51.692H112.576C112.513 51.8806 112.513 52.0063 112.45 52.132C112.639 52.3835 112.828 52.3206 113.079 52.132C113.205 52.0692 113.33 52.0063 113.456 52.0063C113.393 52.132 113.268 52.3206 113.268 52.4463C113.268 52.4463 113.268 52.5092 113.33 52.5092C113.519 52.3206 113.896 52.132 113.896 51.7549C114.336 51.692 114.776 51.5663 114.902 51.0634C114.65 50.9377 114.65 50.8749 114.525 50.7491C114.525 50.6863 114.525 50.6234 114.588 50.6234C114.65 50.6234 114.713 50.6234 114.776 50.5606C115.028 50.4977 115.279 50.3091 115.593 50.1206C115.719 50.0577 115.719 49.932 115.845 49.8063C115.845 49.7434 115.971 49.6177 116.033 49.5548C116.159 49.4291 116.159 49.3662 116.222 49.3034C116.285 49.052 116.662 48.9891 116.536 48.6748C116.536 48.6119 116.599 48.4862 116.662 48.4862C117.039 48.2976 117.102 47.9834 117.165 47.6062C117.228 47.5433 117.102 47.4805 117.102 47.3548C117.039 47.4176 116.913 47.4805 116.851 47.4805C116.536 47.7319 116.159 48.0462 115.845 48.2348C115.845 48.2348 115.845 48.3605 115.782 48.4862C115.593 48.2348 115.531 48.4862 115.468 48.5491C115.153 48.7377 114.965 48.8634 114.839 49.052C114.336 49.3662 113.708 49.7434 113.268 50.1206C113.268 50.1206 113.205 50.1834 113.268 50.2463C113.519 50.1206 113.645 50.0577 113.77 49.932C113.77 50.0577 113.708 50.1206 113.708 50.1206C113.268 50.4977 112.89 50.812 112.388 51.1263C111.696 51.692 111.005 52.2578 110.25 52.8235L108.679 53.8292C108.616 53.8921 108.49 53.9549 108.302 53.9549V53.8921C108.49 53.7664 108.616 53.7035 108.742 53.6407V53.5149C108.616 53.5778 108.49 53.5778 108.365 53.7035C108.05 53.8921 107.862 54.0807 107.61 54.2064C107.233 54.4578 106.793 54.6464 106.353 54.7721C105.976 55.0235 105.473 55.0864 104.97 55.2121C104.153 55.5264 103.336 55.5893 102.582 55.5893C102.393 55.5264 102.204 55.4636 102.142 55.275C102.016 54.7093 101.953 54.0178 102.204 53.4521C102.519 52.3835 102.959 51.3149 103.587 50.372C103.964 49.8063 104.342 49.3034 104.656 48.8005C104.97 48.2976 105.41 47.9834 105.662 47.4805C105.976 46.9148 106.542 46.5376 107.107 46.2862C107.296 46.1604 107.359 46.1604 107.485 46.4119C107.547 46.6005 107.736 46.789 107.925 46.9776C108.176 47.1662 108.49 47.2919 108.805 47.4805C108.993 47.6062 109.37 47.6691 109.496 47.4805C109.685 47.229 109.873 47.0405 109.873 46.789C109.999 46.5376 109.999 46.2233 109.936 46.0976C109.685 45.7833 109.37 45.469 108.993 45.2176C108.742 44.9661 108.365 44.8404 107.987 44.6518C107.673 44.4633 107.359 44.2118 107.045 44.0861C106.793 43.9604 106.479 44.0861 106.227 44.0232C105.662 43.8347 105.096 43.9604 104.593 44.4633C104.342 44.6518 103.713 45.4061 103.65 45.469C103.587 45.5947 103.462 45.7204 103.336 45.909C103.21 45.909 103.147 46.0347 103.084 46.1604C102.016 47.6062 100.319 50.2463 100.193 52.8235C100.067 53.2006 100.067 53.6407 100.067 53.9549C100.13 54.4578 100.256 54.835 100.319 55.2121C100.444 55.5264 100.57 55.8407 100.759 56.0921C101.073 56.4064 101.387 56.7836 101.702 57.035C102.142 57.2865 102.582 57.4122 102.959 57.6008C103.21 57.6636 103.587 57.6636 103.776 57.7265L105.285 57.9151ZM110.502 54.1435C110.69 53.9549 110.942 53.8292 111.193 53.6407C111.13 53.7664 111.13 53.8921 111.13 53.9549C111.822 53.8292 112.262 53.2635 112.828 52.8863C112.89 52.8863 112.828 52.8235 112.828 52.6978C112.702 52.7606 112.576 52.8235 112.45 52.8235C112.262 52.4463 111.885 52.7606 111.57 52.8235C111.319 52.8235 111.13 52.8863 111.068 53.2006C111.193 53.2006 111.382 53.2006 111.445 53.2635C111.319 53.3892 111.13 53.4521 111.005 53.4521C110.628 53.4521 110.439 53.6407 110.502 54.1435ZM108.616 56.595C108.805 56.4693 109.056 56.2807 109.245 56.2179C108.553 56.155 108.49 56.2179 108.616 56.595Z" fill="white"/>
<path d="M133.194 46.6633C131.623 47.229 130.869 47.4176 129.926 47.7948C128.857 48.1719 127.726 48.4862 126.594 48.9262C126.531 48.8634 126.594 48.8005 126.594 48.7377C126.406 48.6748 126.343 48.4862 126.217 48.4234H126.406C126.28 48.1719 126.217 48.1091 126.091 48.0462C126.217 47.9834 126.28 47.9205 126.406 47.9205C126.28 47.6691 126.343 47.2919 125.84 47.2919C125.84 47.2919 125.714 47.1033 125.714 47.0405C125.903 46.9776 125.966 46.9776 126.091 46.9776C126.154 46.9776 126.343 47.1033 126.343 46.9776C125.903 46.7262 125.588 46.349 125.211 46.0347C125.086 45.9719 124.834 45.9719 124.771 45.909C124.017 45.2804 123.137 45.2804 122.508 45.029C122.383 44.9661 122.257 44.9661 122.194 44.9033C121.943 44.6518 121.817 44.3375 121.503 44.3375C121 44.3375 120.371 44.2747 119.805 44.5261C119.051 44.9033 118.423 45.4061 117.857 45.9719C117.48 46.349 117.228 47.1033 116.788 47.7319C116.725 47.7319 116.6 48.5491 116.474 48.9262C116.16 50.0577 115.594 51.252 115.657 52.4463C115.72 53.4521 115.782 54.6464 116.474 55.3378C116.914 55.9036 117.417 56.3436 118.171 56.4693C118.674 56.7207 119.428 56.7207 120.057 56.7836C120.183 56.8465 120.434 56.8465 120.685 56.7836C121.251 56.595 121.691 56.4693 122.194 56.155C122.445 56.155 122.697 56.0293 122.886 55.9036C123.137 55.5893 123.514 55.275 123.828 54.9607L123.954 54.835C124.52 54.2064 124.834 53.5778 125.337 53.0121C125.4 52.9492 125.337 52.6978 125.4 52.6349C125.777 52.3835 125.777 52.0063 126.091 51.692V51.6292L125.966 51.5663C125.966 51.3149 126.091 51.1263 126.154 50.9377C126.154 50.6863 126.217 50.5606 126.531 50.5606C126.657 50.5606 126.783 50.4977 126.971 50.4977C127.6 50.4349 128.103 50.372 128.794 50.0577L129.674 49.6805C129.989 49.5548 130.491 49.5548 130.554 49.1777C130.554 49.1148 130.617 49.1148 130.68 49.1148H131.12C131.371 49.1148 131.371 48.8634 131.623 48.6748C132 48.4234 132.503 48.0462 133.132 47.7319L132.691 47.5433C133.006 47.4805 133.069 47.4176 133.257 47.2919V46.7262L133.194 46.6633ZM124.268 49.1777H122.508C122.131 49.1777 121.943 49.1148 121.817 48.8005C121.628 48.4862 121.565 48.1091 121.565 47.7948C121.628 47.229 122.068 46.9776 122.445 46.6633C122.634 46.4747 122.948 46.349 123.326 46.349C123.514 46.2862 123.64 46.2862 123.766 46.4747C124.08 46.9776 124.143 47.6062 124.268 48.1091C124.268 48.4862 124.206 48.8634 124.268 49.1777ZM124.646 49.1777C124.646 48.6748 124.583 48.1719 124.583 47.7319C124.96 47.7948 124.96 47.7948 125.023 48.2976C125.148 48.5491 125.023 48.8634 125.086 49.1148C124.96 49.1148 124.834 49.1148 124.646 49.1777ZM123.703 51.0634C123.388 51.5035 123.263 52.0063 123.011 52.3835C122.697 52.8863 122.32 53.3264 121.943 53.7035C121.251 54.395 120.371 55.0235 119.428 55.275C118.611 55.5893 117.857 55.3378 117.794 54.835C117.731 54.4578 117.605 54.1435 117.605 53.7035C117.605 53.0749 117.605 52.3206 117.857 51.692C117.92 51.3777 117.92 51.0634 118.045 50.6863C118.108 50.4349 118.234 50.0577 118.423 49.8063C118.737 49.1777 119.051 48.6748 119.365 47.9205C119.428 48.1719 119.554 48.4234 119.68 48.6119C119.805 48.9891 120.12 49.3034 120.56 49.5548C121.063 49.932 121.754 50.2463 122.383 50.372C122.697 50.4977 123.2 50.5606 123.514 50.5606C123.828 50.6863 123.954 50.7491 123.703 51.0634Z" fill="white"/>
<path d="M134.113 58.6065C134.427 58.6065 134.804 58.3551 135.118 58.2293C135.621 58.1036 135.998 57.6636 136.376 57.2865C136.753 56.9722 137.004 56.595 137.193 56.2807C137.318 56.155 137.57 55.9036 137.633 55.7779C137.947 55.3378 138.324 55.0235 138.639 54.5835C139.079 54.0807 139.519 53.5778 139.896 53.0121C139.959 54.1435 139.77 55.275 140.273 56.2807C140.587 56.7836 140.65 57.2865 141.341 57.2865C141.404 57.2865 141.404 57.3493 141.53 57.4122C141.907 57.7893 142.976 57.9779 143.479 57.6008C143.919 57.3493 144.296 56.9722 144.673 56.7836C145.302 56.4064 145.679 55.9036 146.119 55.3378C146.747 54.6464 147.25 53.8921 147.816 53.0749C147.816 53.0121 147.816 52.9492 147.879 52.9492C148.256 52.8235 148.445 52.4463 148.507 52.0692C148.193 52.132 148.004 52.132 147.816 52.1949C147.879 52.0063 147.942 51.8177 148.004 51.692L148.319 51.8806C148.382 51.8177 148.445 51.7549 148.507 51.6292C148.57 51.5663 148.57 51.4406 148.696 51.3149C148.759 51.3149 148.822 51.4406 149.01 51.5035C149.136 51.1892 149.199 50.8749 149.325 50.6234C149.765 49.9948 149.765 49.3034 150.079 48.6748C150.079 48.5491 150.079 48.3605 150.142 48.2976H150.079C149.89 48.8005 149.639 49.3663 149.387 49.932C149.325 49.8691 149.325 49.8691 149.262 49.8691C149.325 49.492 149.387 49.1777 149.513 48.8005C149.325 48.8634 149.073 49.3034 148.947 49.8691C148.947 49.932 149.01 50.0577 149.073 50.2463C148.885 50.4348 148.885 50.9377 148.382 50.6863C148.256 51.0006 148.256 51.252 148.193 51.5663C148.13 51.5663 148.004 51.5035 147.879 51.5035C147.942 52.0692 147.439 52.0063 147.25 52.1949V51.6292C147.313 51.6292 147.376 51.6292 147.439 51.6292L147.313 51.3149C147.439 51.3149 147.627 51.252 147.816 51.252C147.69 51.1263 147.69 51.0006 147.69 50.9377C147.879 50.8749 147.942 50.812 148.004 50.812C148.004 50.6863 148.004 50.6863 147.942 50.6863H147.816C148.004 50.1206 148.256 49.7434 148.507 49.2405V49.1148C148.57 48.9262 148.696 48.8005 148.759 48.6748C148.885 48.8005 148.885 48.8634 148.947 48.9262C149.136 48.7377 149.199 48.5491 149.262 48.3605C149.262 48.2348 149.387 48.1719 149.387 48.1091C149.45 47.9834 149.45 47.8576 149.513 47.6691C149.765 47.2919 149.953 46.8519 150.079 46.349C150.142 45.7204 150.142 45.0918 150.142 44.4633C150.142 43.9604 149.89 43.4575 149.576 43.0175C149.325 42.7661 149.136 42.6404 148.822 42.6404L148.696 42.8289C148.822 42.9546 148.822 43.1432 148.885 43.4575C148.947 44.2118 148.885 45.029 148.633 45.7204C148.444 46.2233 148.444 46.7262 148.256 47.2919C147.753 48.1091 147.439 49.1148 146.936 49.932C146.433 50.6234 145.867 51.4406 145.427 52.132C144.924 52.6978 144.422 53.2006 143.793 53.7664C143.353 54.2064 142.913 54.6464 142.347 55.1493C142.41 54.7093 142.347 54.395 142.347 54.0178C142.41 53.5778 142.41 53.2006 142.41 52.8235L142.787 51.1263C142.85 50.6863 142.913 50.3091 143.353 49.932C143.353 49.932 143.353 49.8063 143.29 49.7434C143.227 49.6177 143.164 49.3662 143.039 49.1777C142.913 49.1777 142.661 49.1777 142.41 49.1777V49.1148C142.347 48.7377 141.907 48.7377 141.341 48.6748C141.341 48.6748 141.279 48.6748 141.279 48.6119C140.964 48.3605 140.839 48.3605 140.65 48.7377C140.524 48.8005 140.461 48.9262 140.336 48.9891C139.456 50.0577 138.701 51.0634 137.821 52.0063C137.004 52.9492 136.25 53.7035 135.433 54.5835L134.678 55.3378C134.553 55.3378 134.49 55.3378 134.49 55.275C134.553 54.395 134.678 53.3264 134.993 52.3206C134.993 52.132 135.118 51.8806 135.181 51.692C135.181 51.5035 135.244 51.252 135.307 51.0634C135.496 50.5606 135.621 50.0577 135.81 49.6805C135.936 49.2405 136.061 48.8634 136.187 48.4862L136.564 47.3548C136.564 46.9148 136.501 46.4747 136.061 46.2233C135.81 45.9719 135.433 46.1604 135.181 46.0976C135.118 46.0976 134.993 46.0347 134.93 45.9719C134.93 45.9719 134.741 45.8462 134.553 45.8462C134.176 45.7204 134.113 45.7833 134.05 46.1604C133.924 46.5376 133.861 47.0405 133.798 47.5433C133.547 48.2348 133.358 48.9262 133.17 49.6805C132.856 50.5606 132.541 51.4406 132.415 52.3206C132.164 53.4521 131.913 54.5835 131.975 55.715C131.975 56.595 132.227 57.475 132.981 58.1036C133.044 58.0408 133.107 57.9779 133.296 57.9151C133.358 58.0408 133.358 58.1036 133.421 58.1665C133.673 58.2922 133.861 58.5436 134.113 58.6065ZM148.382 47.6691C148.382 47.4805 148.382 47.2919 148.633 47.1033C148.759 46.9776 148.885 46.789 148.822 46.6633C148.822 46.2862 149.136 45.9719 149.01 45.5947C149.325 45.7833 149.325 45.7833 149.136 46.1604C149.073 46.349 149.073 46.5376 149.01 46.789L148.822 47.4176C148.759 47.3548 148.696 47.2919 148.696 47.1662L148.633 47.2919C148.633 47.4176 148.696 47.5433 148.696 47.6691H148.382ZM150.142 47.1662C150.205 47.1662 150.33 47.1662 150.33 47.1662L150.582 46.0976C150.519 45.9719 150.456 45.9719 150.393 45.9719C150.393 46.4119 150.205 46.789 150.142 47.1662ZM150.079 48.2348H150.142C150.142 47.9834 150.267 47.6691 150.205 47.4805C150.205 47.4176 150.142 47.4176 150.079 47.3548C150.016 47.6691 150.016 47.9834 150.079 48.2348ZM148.193 48.6748C148.382 47.8576 148.382 47.8576 148.633 47.9205C148.633 48.0462 148.256 48.1091 148.507 48.3605C148.507 48.3605 148.319 48.6119 148.193 48.6748ZM147.313 50.2463C147.376 49.9948 147.062 49.8691 147.439 49.7434C147.439 49.7434 147.439 49.7434 147.502 49.8691L147.69 49.4291C147.564 49.492 147.564 49.492 147.502 49.492H147.439C147.564 49.1777 147.69 48.8634 147.942 48.6119C148.067 48.7377 148.13 48.8005 148.193 48.9262C148.067 49.1777 147.879 49.3662 147.69 49.6805C147.69 49.6805 147.502 49.8691 147.753 49.8691C147.753 49.932 147.879 49.9948 147.753 49.9948C147.564 50.0577 147.502 50.1206 147.313 50.2463ZM140.65 55.0235C140.65 54.5835 140.65 54.1435 140.713 53.8292C140.713 53.7664 140.839 53.7664 141.027 53.6407C140.901 54.1435 140.839 54.5835 140.776 55.0235H140.65ZM141.341 57.1607C141.279 57.0979 141.153 57.0979 141.153 57.035C141.09 56.8465 141.027 56.595 140.901 56.4693C141.027 56.4064 141.027 56.4064 141.09 56.4064C141.153 56.595 141.279 56.9093 141.404 57.0979C141.341 57.0979 141.341 57.0979 141.341 57.1607Z" fill="white"/>
<path d="M102.126 65.2331V66.2037H99.4856V68.4968H102.126V69.4674H99.4856V72.7358H98.5149V65.2331H102.126Z" fill="white"/>
<path d="M110.152 66.2084V69.3596H111.039C111.47 69.3596 111.839 69.2064 112.145 68.9C112.455 68.5905 112.61 68.217 112.61 67.7793C112.61 67.3448 112.455 66.9743 112.145 66.668C111.839 66.3616 111.47 66.2084 111.039 66.2084H110.152ZM111.039 70.3349H110.152V72.7358H109.182V65.2331H111.311C111.914 65.3144 112.424 65.5629 112.839 65.9787C113.336 66.4788 113.585 67.0791 113.585 67.7793C113.585 68.4858 113.336 69.0892 112.839 69.5893C112.496 69.9332 112.233 70.127 112.052 70.1708L113.716 72.7358H112.539L111.039 70.3349Z" fill="white"/>
<path d="M124.482 65.2331V66.2037H121.41V68.4968H124.482V69.4674H121.41V71.7604H124.482V72.7358H120.44V65.2331H124.482Z" fill="white"/>
<path d="M135.58 65.2331V66.2037H132.509V68.4968H135.58V69.4674H132.509V71.7604H135.58V72.7358H131.538V65.2331H135.58Z" fill="white"/>
<path d="M143.607 66.2225V71.751C144.379 71.751 145.012 71.5025 145.506 71.0055C146.063 70.449 146.341 69.7753 146.341 68.9844C146.341 68.1966 146.063 67.523 145.506 66.9634C145.012 66.4695 144.379 66.2225 143.607 66.2225ZM143.349 65.2331C144.568 65.2393 145.519 65.5848 146.2 66.2694C146.947 67.0228 147.321 67.9278 147.321 68.9844C147.321 70.0442 146.947 70.9492 146.2 71.6995C145.519 72.3841 144.568 72.7295 143.349 72.7358H142.636V65.2331H143.349Z" fill="white"/>
<path d="M157.983 65.1346C159.043 65.1346 159.948 65.5097 160.698 66.26C161.448 67.0103 161.823 67.9153 161.823 68.9751C161.823 70.0348 161.448 70.9398 160.698 71.6901C159.948 72.4404 159.043 72.8155 157.983 72.8155C156.923 72.8155 156.018 72.4404 155.268 71.6901C154.518 70.9398 154.143 70.0348 154.143 68.9751C154.143 67.9153 154.518 67.0103 155.268 66.26C156.018 65.5097 156.923 65.1346 157.983 65.1346ZM157.983 66.1147C157.192 66.1147 156.517 66.3944 155.957 66.954C155.401 67.5105 155.123 68.1841 155.123 68.9751C155.123 69.766 155.402 70.4412 155.962 71.0008C156.522 71.5604 157.195 71.8401 157.983 71.8401C158.774 71.8401 159.448 71.5604 160.004 71.0008C160.564 70.4412 160.843 69.766 160.843 68.9751C160.843 68.1841 160.564 67.5105 160.004 66.954C159.448 66.3944 158.774 66.1147 157.983 66.1147Z" fill="white"/>
<path d="M170 65.2331L172.434 69.4393L174.858 65.2331H175.745V72.7358H174.774V67.3151L172.434 71.3665L170.085 67.3151V72.7358H169.114V65.2331H170Z" fill="white"/>
</svg>
