<svg width="200" height="95" viewBox="0 0 200 95" fill="none" xmlns="http://www.w3.org/2000/svg">
<path d="M77.6537 48.8505C77.4651 48.4105 77.7166 48.5991 77.528 48.4105C77.1509 47.9076 76.7737 47.5933 76.3337 47.3419C75.768 46.9019 76.2708 47.0276 75.3908 46.7133C74.5108 46.399 73.8193 46.1476 72.8136 45.8961L70.9278 45.519L71.2421 44.5761C71.3678 44.4504 71.4307 44.2618 71.4936 44.0732C71.6821 43.5703 71.745 43.1303 71.9964 42.6275C72.0593 42.376 72.185 42.0617 72.185 41.6846C72.4993 41.1817 72.6879 40.616 72.8765 39.9874L73.1279 39.4217L74.0079 36.2159C74.0708 35.8387 74.1965 35.4616 74.3851 35.1473C74.4479 34.7072 74.6365 34.2672 74.8251 33.7015C75.0137 33.0101 75.2022 32.5072 75.4537 31.6272C75.4537 31.5014 75.5165 31.25 75.5794 31.1871C75.9565 30.8729 75.5794 30.5586 75.5165 30.1814C75.3908 29.7414 75.5794 29.4271 75.7051 29.1128L75.9565 28.4842C75.9565 28.3585 75.9565 28.2328 75.8937 28.1071C76.0194 27.667 75.768 27.3528 75.5165 27.227C75.0137 27.0385 74.6365 26.9756 74.3222 26.5984C74.1965 26.5356 74.1336 26.4727 74.0708 26.4727C73.6308 26.4099 73.3793 26.5356 73.0022 26.787C73.0022 26.8499 72.8765 26.9127 72.7507 26.8499C72.2479 26.787 71.8078 27.1642 71.4307 27.667C70.9278 28.0442 70.425 28.2328 70.0478 28.6099C69.9221 28.7357 69.7964 28.8614 69.7335 28.9871C69.5449 28.9871 69.2306 29.2385 69.2935 29.6157L68.9163 29.93C68.8535 30.0557 68.7278 30.1185 68.6649 30.0557C68.4763 29.9928 68.2249 30.3071 68.0363 30.4328C67.9106 30.4957 67.7849 30.6214 67.5963 30.6843C67.4706 30.6843 67.3449 30.6843 67.3449 30.9986L67.2192 31.25C67.0306 31.4386 66.9049 31.7529 66.7163 32.0672V32.1929L66.9677 32.0043C67.5963 31.1871 68.2878 30.8729 68.9163 30.2443L69.7964 29.3642L70.3621 29.1128V29.2385C68.0992 31.1871 65.8363 33.3244 63.5733 35.6501C62.1904 37.1587 60.8075 38.6045 59.3618 40.1131L59.0475 40.0502C58.8589 40.2388 58.7332 40.4274 58.5446 40.6788C58.5446 40.6788 58.5446 40.7417 58.6075 40.6788C58.6704 40.4903 58.9218 40.3017 59.3618 40.1131C58.7332 40.8674 58.0418 41.5589 57.3503 42.3132C57.2246 42.6903 56.8474 42.7532 56.7846 43.0675C56.596 43.4446 56.2817 43.6961 56.0303 43.9475C55.716 44.1361 55.5903 44.7647 55.0874 44.7018L55.9674 43.8218L55.8417 43.7589C55.6531 43.8218 55.5903 43.9475 55.4645 44.0104C55.1503 44.2618 54.8988 45.0161 54.5845 44.9532C53.7045 44.9532 53.1388 44.9532 52.2587 45.0161C50.7501 45.1418 49.2415 45.0161 47.6072 45.2047C47.4186 45.2047 47.0415 45.3933 46.79 45.5818C46.2872 46.1476 46.9786 47.5933 47.2929 47.719C47.67 47.7819 47.9843 47.6562 48.2986 47.7819C49.0529 47.719 49.6815 47.5933 50.4987 47.5933H51.9445C52.133 47.5305 52.6359 47.5933 52.8873 47.5933C52.6988 47.9076 52.133 48.8505 52.0702 49.1648C52.2587 48.9762 52.3216 48.7876 52.573 48.5991L52.2587 49.1648C52.0073 49.5419 51.7559 49.7305 51.5673 50.0448L49.933 52.622C49.6815 52.9992 49.4301 53.3763 49.3044 53.6906L48.5501 54.8221V54.7592L49.6187 52.8735C49.5558 52.8735 49.5558 52.8106 49.5558 52.8106C48.9901 53.6906 48.5501 54.5078 47.9215 55.5135L48.1729 55.4507C48.2358 55.5135 48.2358 55.5764 48.2986 55.5764C47.9215 55.6392 47.8586 55.8278 47.7329 56.205C47.7958 56.205 47.7329 56.2678 47.7329 56.3307C47.7329 56.3936 47.7329 56.5193 47.67 56.5821V56.4564H47.4186L47.23 56.9593C47.0415 57.6507 46.6643 58.2793 46.2872 58.9079C46.2872 59.0336 46.0986 59.0965 46.0986 59.2222C45.91 59.5994 45.7843 60.1651 45.5957 60.6051L44.9671 62.4909C45.03 62.1137 45.1557 61.6737 45.1557 61.1708C45.47 60.4165 45.7843 59.5365 46.2243 58.8451C46.0986 58.7822 46.0357 58.7822 46.0357 58.7822C45.91 59.1593 45.6586 59.5994 45.4071 60.0394C44.9043 61.548 44.4642 62.9937 44.15 64.6909C43.9614 66.1367 43.8985 67.331 44.2757 68.7139C44.3385 68.7768 44.4642 68.8396 44.59 68.9025C44.59 68.7768 44.6528 68.651 44.6528 68.4625C44.7157 68.3367 44.6528 68.0853 44.7157 67.8339L44.9043 66.891L45.1557 65.5081C45.1557 65.1309 45.03 64.8166 45.2186 64.5652C45.47 64.1881 45.5328 63.748 45.5957 63.2452C45.7214 63.0566 45.91 62.8052 46.0986 62.868C46.1614 62.868 46.2243 62.8052 46.2243 62.8052V62.7423H45.8471L46.0986 62.4909C46.1614 62.428 46.35 62.428 46.2872 62.3652C46.2243 62.3023 46.2243 62.1766 46.2243 62.1137C46.2872 62.1137 46.35 62.1137 46.6014 61.988L46.8529 61.108L46.4129 61.2337L46.6643 60.9823C46.79 60.668 46.9157 60.4794 47.1672 60.1022C47.2929 59.9137 47.4186 59.5365 47.5443 59.4108C47.6072 59.0965 47.67 58.7822 47.8586 58.405V58.2793C48.2986 58.0907 48.6758 58.0279 48.8644 57.3993L48.7386 57.0221C48.9901 57.1479 49.1158 57.085 49.2415 56.8336C49.3672 56.645 49.4301 56.4564 49.6815 56.2678C49.7444 56.205 49.7444 56.0164 49.7444 55.8278L49.933 55.4507C49.933 55.4507 50.0587 55.4507 50.0587 55.3878C50.1844 54.7592 50.1844 54.7592 50.1215 54.3821H50.3101C50.3101 54.5078 50.373 54.5706 50.373 54.5706C50.4987 54.8221 50.813 54.6964 51.0016 54.4449C51.0644 54.1935 51.253 53.8792 51.5673 53.6278C51.693 53.4392 51.8816 53.3763 51.8816 53.062C51.9445 52.6849 52.0702 52.4334 52.3845 52.3706C52.4473 52.3706 52.5102 52.2449 52.573 52.182C52.5102 51.9306 52.6988 51.9306 52.7616 51.8677C53.1388 51.5534 53.3902 51.4906 53.3902 50.9248L53.2016 50.6105C53.2645 50.4848 53.3273 50.422 53.3273 50.2962C53.3902 49.8562 53.3902 49.8562 53.7045 49.9819C53.6416 50.0448 53.5159 50.2334 53.5159 50.3591C53.5159 50.4848 53.4531 50.6105 53.4531 50.7363L53.8302 50.6105C54.3331 49.982 54.5217 49.3534 55.0874 48.5991C55.1503 48.5362 55.1503 48.4733 55.2131 48.3476C55.9674 47.5933 56.156 47.4676 56.2189 47.279C56.5331 47.3419 56.7846 47.2162 57.036 47.2162C57.4132 47.2162 57.7275 47.1533 57.9789 47.2162L59.5504 47.279H63.5733L65.962 47.3419L66.7163 47.4676C67.0306 47.4676 67.2192 47.4047 67.282 47.3419C66.9677 47.3419 66.7163 47.279 66.5277 47.2162L65.962 47.1533C65.8991 47.2162 65.7734 47.0904 65.7105 47.0276L66.9677 47.1533H67.2192L67.4706 47.3419C67.4077 47.3419 67.3449 47.4047 67.282 47.4676L67.6592 47.5933C67.4706 48.5362 66.7791 50.6734 66.5906 51.6163C66.402 52.7477 66.2134 53.5649 66.0248 54.7592L65.8363 56.0793C65.7734 57.085 65.6477 58.8451 66.0248 59.8508C66.6534 62.4909 67.8477 63.8109 70.6135 63.4966C71.6193 63.4337 72.3736 62.8052 72.9393 61.9251L72.7507 61.7366C72.4364 62.2394 70.8021 62.6166 69.7335 61.548C69.2935 61.1708 68.8535 60.4794 68.7906 59.8508C68.3506 58.6565 68.4135 57.4622 68.4763 56.3936L68.5392 55.325C68.6021 54.8849 68.7278 54.4449 68.8535 53.9421L68.7906 52.3706C68.7906 52.3077 69.0421 52.2449 69.1678 52.1192L69.2935 51.5534L69.6707 50.6105C69.6707 50.1705 69.9849 49.3534 69.9221 48.9133L70.3621 47.5305L72.4993 47.719L72.8765 47.7819L72.9393 47.4676L73.2536 46.9647V46.7133L72.1221 46.6504C72.1221 46.4619 71.9964 46.3361 71.8079 46.399C71.5564 46.4619 71.2421 46.2733 70.865 46.3361L70.8021 46.2104C70.9278 46.0847 70.865 45.959 70.9278 45.959C71.3678 45.959 71.8078 46.0847 72.4364 46.2104C72.6879 46.2104 72.4364 46.0847 72.625 46.0847L73.5679 46.5247C73.5679 46.7133 73.6308 46.839 74.0708 46.9647H73.8193L73.7565 47.0276C74.1336 47.1533 74.3851 47.3419 74.7622 47.2162C74.9508 47.1533 75.3279 47.3419 75.3908 47.2162C75.3279 47.4676 75.2651 47.5305 75.2651 47.6562C74.8879 47.6562 74.5736 47.3419 74.2593 47.5933C74.4479 47.719 74.7622 47.8447 75.0765 47.9076C74.8251 48.0962 74.6365 48.0333 74.4479 48.0333C74.4479 48.0333 74.3222 48.0333 74.3851 47.9705C74.2593 47.9076 74.0708 47.6562 73.9451 47.6562C73.8822 47.6562 73.7565 47.8447 73.6936 48.0333C73.8822 48.0962 74.2593 48.2219 74.3851 48.2219C74.5736 48.2848 75.3908 48.2848 75.5794 48.4105L75.6422 48.2219C75.7051 48.2219 75.8308 48.2848 75.768 48.3476C75.8308 48.5991 75.8937 48.5991 76.0823 48.6619L77.2137 48.9762C77.4651 49.1019 77.7166 48.9762 77.6537 48.8505ZM69.0421 45.2047C68.9792 45.2047 68.9163 45.2047 68.7906 45.1418L68.9792 44.7647L69.1678 43.6332C69.1678 43.5703 69.1049 43.5075 69.1049 43.5075H68.9163L68.4135 45.3304L66.5906 45.2047C65.8991 45.1418 65.4591 45.1418 64.9562 45.079C64.3905 45.1418 63.8248 45.079 63.3848 44.9532C62.8819 45.0161 62.4419 44.9532 61.939 45.0161C61.3104 44.9532 60.6818 45.0161 60.0532 44.8275C59.6132 44.8904 59.0475 44.8275 58.4189 44.8904C59.2361 43.9475 59.9904 43.0675 60.8075 42.0617L61.3733 41.2446C61.6247 40.9303 61.8762 40.616 62.1904 40.4274C62.3162 40.0502 62.5047 39.9874 62.7562 39.7988C63.0705 39.3588 63.6362 39.0445 63.9505 38.6045C64.2019 38.1016 64.5162 37.8502 64.9562 37.5359C65.1448 37.4102 65.4591 37.0959 65.5848 36.9073C65.8363 36.593 66.1506 36.3416 66.3391 36.153C66.7163 35.5873 67.0306 35.1473 67.4706 34.833C67.9735 34.3301 68.4135 34.0158 69.0421 33.5129C69.3564 33.1358 69.7335 32.6958 70.1735 32.3186C70.5507 32.0043 70.9278 31.6272 71.1164 31.1871C71.4936 30.8729 72.625 29.8671 72.8765 29.49H73.1907C73.0022 30.1814 72.4993 31.8157 72.4364 32.4443C72.0593 33.1358 71.8079 34.0787 71.5564 34.833C71.2421 35.9016 70.9278 37.033 70.6135 38.0388L70.1107 39.6731L69.8592 40.5531C69.7335 40.8046 69.6707 41.056 69.5449 41.3074C69.3564 41.936 69.1678 42.6903 68.9792 43.2561L69.1049 43.3818C69.1049 43.3818 69.2935 43.3189 69.2935 43.2561C69.3564 42.9418 69.5449 42.6275 69.6707 42.1246C69.7964 41.7474 69.7964 41.3703 69.9221 41.056C70.2992 40.3645 70.425 39.6102 70.865 38.9188V38.6045C70.865 38.0388 71.1164 37.8502 71.2421 37.5988C71.3678 37.4102 71.2421 37.3473 71.305 37.2216C71.3678 36.9702 71.6193 36.7187 71.4936 36.3416C71.5564 36.2159 71.745 35.9644 71.745 35.8387C71.8707 35.273 72.1221 34.6444 72.3107 34.0158C72.3736 34.5187 69.5449 44.3875 69.0421 45.2047ZM66.2763 32.6329V32.57C66.0877 32.6329 65.962 32.7586 65.8363 32.8843C65.4591 33.2615 64.9562 33.6386 64.5162 34.1415C64.7048 34.2044 64.8305 34.2044 64.8305 34.2044L66.2763 32.6329ZM64.2019 34.7072C64.3276 34.5187 64.4534 34.3301 64.5162 34.1415C64.4534 34.3301 64.2019 34.393 64.1391 34.6444C64.1391 34.6444 64.1391 34.7072 64.2019 34.7072ZM61.7504 37.0959C62.5676 36.4673 63.259 35.713 63.9505 34.9587V34.7701L61.6876 37.033C61.6876 37.0959 61.6876 37.0959 61.7504 37.0959ZM65.522 35.6501C65.7105 35.3358 65.8363 35.1473 66.0877 34.8958C65.962 35.3358 65.7105 35.4616 65.522 35.713V35.6501ZM63.5105 37.5359H63.5733L63.3219 37.7873C63.0076 38.2902 62.6305 38.6674 62.1904 39.0445C62.1276 39.1074 62.0647 39.1702 62.0019 39.1702C62.5047 38.5416 63.0076 37.913 63.5105 37.5359ZM59.9275 38.9188C59.7389 39.1074 59.6132 39.2959 59.4875 39.4845V39.5474L59.9904 39.0445C59.9904 38.9816 59.9275 38.9816 59.9275 38.9188ZM61.8133 39.3588L61.4361 39.8617C61.1847 40.1131 60.8704 40.5531 60.5561 40.8046C60.9961 40.1131 61.3733 39.736 61.8133 39.3588ZM58.7332 42.7532C59.0475 42.376 59.4247 41.936 59.8647 41.6217C59.6132 41.9989 59.4875 42.376 59.2989 42.816V42.6275C59.1732 42.6903 59.0475 42.7532 58.7332 42.816V42.7532ZM57.2875 44.5761C57.6017 43.9475 57.916 43.6332 58.2932 43.1932C58.4818 43.0046 58.6075 42.9418 58.7961 42.8789L58.9218 43.0046C58.8589 43.0675 58.7961 43.1303 58.7961 43.1932C58.2932 43.6332 57.916 43.8846 57.6017 44.3247C57.5389 44.3875 57.3503 44.7018 57.2875 44.5761ZM65.8991 45.519C64.5791 45.4561 63.3219 45.3933 62.0647 45.3933L58.5446 45.2047C58.5446 45.2047 58.6075 45.1418 58.6075 45.079C61.8762 45.3304 65.1448 45.2047 68.2878 45.6447C67.4706 45.5818 66.6534 45.5818 65.8991 45.519ZM54.3959 45.5818C54.0817 45.6447 53.8302 45.5818 53.5159 45.7075C51.5673 45.8333 51.0016 45.7075 50.7501 45.519C50.9387 45.5818 51.3787 45.5818 52.1959 45.5818L53.5159 45.4561C53.7045 45.3304 53.7674 45.4561 54.0188 45.3304C54.1445 45.519 54.3959 45.3304 54.6474 45.3933C54.6474 45.3933 54.7102 45.4561 54.7731 45.4561C54.6474 45.519 54.5845 45.6447 54.3959 45.5818ZM57.9789 45.3304C59.6132 45.3933 61.2476 45.519 62.9448 45.5818L62.819 45.7075L60.8075 45.5818C60.1161 45.6447 59.739 45.7075 59.4247 45.6447C58.9218 45.519 58.4189 45.519 57.9789 45.3304ZM50.5616 45.3933C50.6244 45.3933 50.5616 45.3933 50.5616 45.3933V45.3933ZM64.4534 45.8961C64.1391 45.8961 63.8876 45.8333 63.5733 45.959C61.499 46.0218 59.9275 45.7704 61.1847 45.7704C61.3733 45.7704 61.7504 45.8333 62.0019 45.8333H62.2533H63.5733C63.7619 45.7075 63.8248 45.8333 64.0762 45.7075C64.2019 45.8961 64.4534 45.6447 64.7048 45.7075C64.7048 45.7075 64.7677 45.7704 64.8305 45.7704C64.7048 45.8333 64.6419 45.959 64.4534 45.8961ZM67.9735 45.8961C67.6592 45.8961 67.2192 45.7704 66.7791 45.7704C66.7791 45.7075 66.5277 45.7704 66.4648 45.7704C66.2763 45.8333 65.0191 45.8961 64.8305 45.8961L65.082 45.7075H68.2249C68.2878 45.7704 68.2878 45.7704 68.2878 45.8333C68.162 45.8961 68.0992 45.959 67.9735 45.8961ZM57.6646 46.0847C57.8532 45.8333 58.0418 45.8333 58.1046 46.2104C57.916 46.2104 57.8532 46.1476 57.6646 46.0847ZM59.4875 46.1476V46.0847C59.6761 46.0847 59.7389 46.1476 59.8647 46.1476V46.2733C59.7389 46.2104 59.6132 46.2104 59.4875 46.1476ZM67.5963 46.5876L67.4077 47.1533C67.1563 47.0276 67.1563 46.9019 67.3449 46.6504C67.282 46.5876 67.1563 46.5876 67.0934 46.5247L67.0306 46.4619C67.2192 46.399 67.282 46.2733 67.4706 46.1476C67.7849 46.0218 67.9106 46.6504 67.7849 47.0904C67.722 47.0904 67.722 46.5876 67.5963 46.5876ZM59.3618 46.4619L59.4247 46.399C59.4247 46.4619 59.3618 46.4619 59.3618 46.4619ZM74.0708 46.7133L73.6936 46.5876L73.7565 46.4619C73.7565 46.4619 73.8822 46.5876 74.0708 46.6504C74.0708 46.7133 74.1336 46.6504 74.0708 46.7133ZM68.4135 47.3419C68.162 47.0904 68.3506 46.9019 68.4763 46.6504C68.4763 46.9019 68.6649 47.0904 68.4135 47.3419ZM75.4537 47.0276C74.9508 46.9647 74.6994 46.7761 74.3851 46.7761V46.6504C74.7622 46.6504 75.2022 46.839 75.5794 46.9647C75.5794 47.0276 75.4537 46.9647 75.4537 47.0276ZM59.6132 46.9019H60.619C60.2418 47.2162 60.1161 47.2162 59.6132 46.9019ZM74.2593 47.4047C74.1336 47.3419 73.3165 47.0904 73.2536 47.0276L73.065 47.8447L73.5679 47.9705C73.6308 47.6562 74.1965 47.4047 74.2593 47.4047ZM54.3959 48.2848C54.2074 48.4105 54.0817 48.5991 53.8931 48.8505C53.5788 49.2276 53.2645 49.6677 53.1388 50.0448C53.0759 49.9819 53.0131 49.982 53.0131 49.9191C53.0131 49.7934 53.0759 49.6677 53.1388 49.5419C53.3902 49.1019 53.7674 48.2219 54.0188 47.7819C54.3331 47.5305 54.3331 47.5305 54.5845 47.6562C54.5217 47.719 54.4588 47.719 54.3959 48.2848ZM53.5788 47.6562C53.5788 47.9705 53.1388 49.1019 52.8245 49.2276C53.0759 48.9133 53.2645 48.0333 53.5788 47.6562ZM67.1563 52.2449C67.0306 52.7477 66.842 53.3763 66.7163 53.6906C66.6534 53.8792 66.7163 54.1306 66.7163 54.3192C66.6534 54.5706 66.5906 54.6964 66.402 54.5706C66.402 54.3821 66.4648 54.1935 66.4648 53.9421L66.7163 52.4963C66.7791 52.182 66.842 51.9306 66.9677 51.6791C67.0306 51.4906 66.9677 51.302 67.0934 51.1763C67.2192 50.9248 67.2192 50.7991 67.282 50.422C67.1563 50.2962 67.282 50.1077 67.282 49.9819C67.4706 49.4791 67.6592 48.9762 67.722 48.4733C67.9106 48.2219 68.0363 48.2219 68.162 48.159C67.9106 49.1648 67.9735 49.9191 67.5334 50.7363C67.3449 51.2391 67.282 51.742 67.1563 52.2449ZM69.4192 49.5419H69.3564C69.3564 49.1648 69.4821 48.7248 69.6078 48.4105H69.6707C69.5449 48.7876 69.4821 49.2276 69.4192 49.5419ZM51.0016 50.6734C51.1901 50.422 51.5044 50.0448 51.693 49.7305L52.0702 49.1648C51.5673 49.5419 51.253 50.1077 51.0016 50.6734ZM52.6359 49.6048C52.3216 50.2334 51.8816 50.6734 51.3787 51.302C51.5044 50.862 52.3216 49.6677 52.6359 49.6048ZM52.0702 51.4277C51.9445 51.6791 51.6302 52.0563 51.3787 52.3706C51.3159 52.4963 51.253 52.5592 51.1901 52.622C51.0016 52.8735 50.8759 53.1878 50.6244 53.4392C50.4987 53.1878 50.5616 53.1249 50.5616 53.062L51.0016 52.6849V52.622C50.9387 52.622 50.9387 52.5592 50.8759 52.5592C51.6302 51.9306 52.0702 51.2391 52.6359 50.2962C52.573 50.2334 52.573 50.2334 52.573 50.1705C52.6988 50.1705 52.8245 50.1705 53.0131 50.1077C52.6359 50.4848 52.3845 51.0506 52.0702 51.4277ZM68.9163 51.4277H68.8535C68.9163 51.0506 69.0421 50.862 69.1049 50.7363C69.0421 50.862 68.9792 51.1763 68.9163 51.4277ZM49.8072 53.7535L49.7444 53.6278V53.8792C49.5558 54.0678 49.3672 54.2564 49.2415 54.5706L48.8644 55.1992C49.1158 54.6335 49.3044 54.2564 49.6187 53.8792C49.6815 53.8163 49.7444 53.6906 49.7444 53.6278L49.8072 53.4392C50.1844 52.7477 50.5616 52.182 51.0016 51.6791L51.1901 51.5534V51.6163C51.1273 51.6791 50.9387 51.8049 50.8759 51.9934C50.4358 52.4963 50.1844 53.062 49.8072 53.7535ZM52.0073 52.182C52.2587 51.6791 52.3216 51.6163 52.6359 51.742L52.0073 52.182ZM51.6302 53.2506C51.6302 53.2506 51.5044 53.1249 51.3787 53.1249C51.5044 52.8735 51.5673 52.7477 51.693 52.622H51.7559C51.7559 52.8106 51.693 52.9992 51.6302 53.2506ZM49.9958 54.5078C49.933 54.0678 50.1844 53.6278 50.6244 53.6278C50.3101 53.8792 50.1844 54.1935 49.9958 54.5078ZM50.373 54.1935V54.1306C50.4987 54.1935 50.7501 54.1935 50.813 54.1935C50.813 54.2564 50.813 54.3192 50.8759 54.3821L50.373 54.1935ZM67.9735 55.0735C68.0363 54.8849 67.9106 54.7592 67.9106 54.6964L68.2249 54.1306C68.2249 54.1306 68.2249 54.1935 68.2878 54.1935C68.2249 54.4449 68.162 54.7592 67.9735 55.0735ZM49.2415 55.8907C49.1158 56.0793 48.9901 56.205 48.8644 56.1421C49.1158 55.8278 49.3672 55.3878 49.5558 54.8221H49.7444L49.2415 55.8907ZM66.4648 56.3936H66.2763C66.2763 56.2678 66.2763 55.0735 66.3391 54.8221C66.402 54.8849 66.3391 54.9478 66.4648 55.0735V56.3936ZM47.67 57.8393C46.9157 59.4108 45.9729 60.8565 45.4071 62.6794C45.2186 63.5595 44.9671 64.4395 44.59 65.2567C44.6528 65.0052 44.7157 64.6909 44.7785 64.5652C45.0928 63.6852 45.2814 62.7423 45.5957 61.9251C45.7843 61.108 46.2243 60.4165 46.4129 59.8508C46.8529 59.1593 47.1672 58.4679 47.5443 57.9022C47.7958 56.9593 48.2358 56.2678 48.8015 55.325C48.3615 56.205 47.8586 56.9593 47.67 57.8393ZM48.8015 56.8336C48.6129 56.7078 48.5501 56.645 48.5501 56.5821L48.9272 56.2678H48.9901C48.9901 56.4564 48.8644 56.645 48.8015 56.8336ZM48.9272 57.9022C49.1787 57.5879 49.3044 57.1479 49.493 56.8336C49.2415 57.085 49.0529 57.525 48.9272 57.8393C48.8644 57.9022 48.9272 57.9022 48.9272 57.9022ZM44.5271 63.8109C44.59 63.4337 44.7157 63.1195 44.7785 62.868V63.3709C44.6528 63.5595 44.59 63.748 44.59 63.8738C44.59 63.8738 44.5271 63.8738 44.5271 63.8109Z" fill="white"/>
<path d="M80.2913 56.7079C80.7942 56.8964 81.0456 56.7707 81.1714 56.0164C81.2971 55.5764 81.2971 55.1364 81.4228 54.6964C81.6114 54.1306 81.6742 53.5649 81.9257 52.9363C82.3028 52.182 82.8057 51.4906 83.1828 50.6105C83.6229 49.8562 84.1257 49.2276 84.5657 48.5991L85.7601 47.0276C86.0744 46.7133 86.4515 46.399 86.8287 46.0847C86.9544 45.8961 87.0801 45.6447 87.2687 45.5818C87.6458 45.3304 88.023 45.2047 88.2744 44.8904C88.6516 44.5761 89.0287 44.6389 89.4059 44.6389C90.223 45.0161 90.6002 44.8275 90.6002 44.8275L90.6631 44.5132C90.5373 44.1989 90.4116 43.9475 90.1602 43.7589C90.0345 43.7589 89.9716 43.6332 89.9087 43.5703C89.6573 43.3189 89.343 43.0675 89.0287 42.816C88.2744 42.376 87.3944 42.376 86.5772 43.0046C85.8858 43.4446 85.1943 43.9475 84.6286 44.7647C84.1886 45.2047 83.8114 45.519 83.4971 46.0847C83.4343 46.2733 83.1828 46.4619 82.9943 46.7133C82.9943 46.399 83.12 46.2104 83.12 46.0218C83.1828 45.4561 83.12 44.8904 82.9314 44.3875C82.68 43.4446 82.1771 43.1303 81.5485 43.3818C81.3599 43.3818 81.1085 43.5075 80.9828 43.6961C80.9199 43.7589 80.9199 44.0104 80.8571 44.1361C80.7314 45.0161 80.5428 45.8333 80.4171 46.7133C80.2913 47.5305 79.977 48.4105 79.8513 49.2905C79.8513 49.9819 79.5999 50.6734 79.4742 51.3648L78.9713 53.9421C78.7827 54.7592 79.097 55.3878 79.3485 56.0164L79.5999 55.6392C79.7256 55.5764 79.8513 55.7021 79.8513 55.7021C79.8513 56.2678 79.9142 56.5193 80.2913 56.7079ZM83.4971 47.5305C83.3714 46.9019 83.7486 46.4619 84 46.2104C84.5029 45.7075 84.8172 45.0161 85.4458 44.8275C85.5715 44.7647 85.6343 44.5132 85.8229 44.2618C86.0115 44.3875 86.2001 43.5703 86.3887 44.0732C85.7601 44.7647 85.1943 45.519 84.5029 46.2104C84.44 46.2733 84.44 46.3361 84.44 46.3361C84.0629 46.5876 83.6857 46.9019 83.4971 47.5305ZM84.6915 47.0276C85.0058 46.6504 85.1943 46.2733 85.5086 46.0218C85.6972 45.7704 86.0115 45.6447 86.3887 45.4561C86.0744 45.7704 85.8858 46.1476 85.5086 46.3361C85.2572 46.4619 85.1315 47.0904 84.6915 47.0276Z" fill="white"/>
<path d="M96.7785 58.2165C97.03 58.2793 97.2185 58.0279 97.4071 57.8393C97.91 57.6507 98.5386 57.525 99.1043 57.2736C99.3558 57.1479 99.67 57.085 99.8586 56.9593C99.8586 56.7079 99.7958 56.5193 99.8586 56.4564C100.11 56.1421 100.299 55.6392 100.864 55.7021C100.864 55.7021 100.864 55.6392 100.927 55.6392L101.996 54.8221C101.304 54.5706 100.99 54.6335 100.864 55.0107C100.99 55.0107 101.179 55.0735 101.367 55.0735C101.053 55.1992 100.802 55.2621 100.55 55.0735C100.361 54.9478 100.11 55.0107 99.9215 55.0107C100.11 54.2564 100.739 54.5706 101.179 54.3821C101.242 54.2564 101.304 54.2564 101.304 54.1935C101.933 53.6278 102.562 53.1249 103.19 52.622C103.504 52.4334 103.819 52.182 104.007 51.9934H104.07C104.007 52.182 104.007 52.3077 103.944 52.4334C104.133 52.6849 104.322 52.622 104.573 52.4334C104.699 52.3706 104.824 52.3077 104.95 52.3077C104.887 52.4334 104.762 52.622 104.762 52.7477C104.762 52.7477 104.762 52.8106 104.824 52.8106C105.013 52.622 105.39 52.4334 105.39 52.0563C105.83 51.9934 106.27 51.8677 106.396 51.3648C106.145 51.2391 106.145 51.1763 106.019 51.0506C106.019 50.9877 106.019 50.9248 106.082 50.9248C106.145 50.9248 106.207 50.9248 106.27 50.862C106.522 50.7991 106.773 50.6105 107.087 50.422C107.213 50.3591 107.213 50.2334 107.339 50.1077C107.339 50.0448 107.465 49.9191 107.527 49.8562C107.653 49.7305 107.653 49.6677 107.716 49.6048C107.779 49.3534 108.156 49.2905 108.03 48.9762C108.03 48.9133 108.093 48.7876 108.156 48.7876C108.533 48.5991 108.596 48.2848 108.659 47.9076C108.722 47.8447 108.596 47.7819 108.596 47.6562C108.533 47.719 108.407 47.7819 108.345 47.7819C108.03 48.0333 107.653 48.3476 107.339 48.5362C107.339 48.5362 107.339 48.6619 107.276 48.7876C107.087 48.5362 107.025 48.7876 106.962 48.8505C106.647 49.0391 106.459 49.1648 106.333 49.3534C105.83 49.6677 105.202 50.0448 104.762 50.422C104.762 50.422 104.699 50.4848 104.762 50.5477C105.013 50.422 105.139 50.3591 105.264 50.2334C105.264 50.3591 105.202 50.422 105.202 50.422C104.762 50.7991 104.384 51.1134 103.882 51.4277C103.19 51.9934 102.499 52.5592 101.744 53.1249L100.173 54.1306C100.11 54.1935 99.9843 54.2564 99.7958 54.2564V54.1935C99.9843 54.0678 100.11 54.0049 100.236 53.9421V53.8163C100.11 53.8792 99.9843 53.8792 99.8586 54.0049C99.5443 54.1935 99.3558 54.3821 99.1043 54.5078C98.7272 54.7592 98.2871 54.9478 97.8471 55.0735C97.47 55.325 96.9671 55.3878 96.4642 55.5135C95.6471 55.8278 94.8299 55.8907 94.0756 55.8907C93.887 55.8278 93.6985 55.765 93.6356 55.5764C93.5099 55.0107 93.447 54.3192 93.6985 53.7535C94.0127 52.6849 94.4528 51.6163 95.0813 50.6734C95.4585 50.1077 95.8357 49.6048 96.1499 49.1019C96.4642 48.5991 96.9043 48.2848 97.1557 47.7819C97.47 47.2162 98.0357 46.839 98.6014 46.5876C98.79 46.4619 98.8529 46.4619 98.9786 46.7133C99.0415 46.9019 99.23 47.0904 99.4186 47.279C99.67 47.4676 99.9843 47.5933 100.299 47.7819C100.487 47.9076 100.864 47.9705 100.99 47.7819C101.179 47.5305 101.367 47.3419 101.367 47.0904C101.493 46.839 101.493 46.5247 101.43 46.399C101.179 46.0847 100.864 45.7704 100.487 45.519C100.236 45.2675 99.8586 45.1418 99.4815 44.9532C99.1672 44.7647 98.8529 44.5132 98.5386 44.3875C98.2871 44.2618 97.9729 44.3875 97.7214 44.3247C97.1557 44.1361 96.59 44.2618 96.0871 44.7647C95.8357 44.9532 95.2071 45.7075 95.1442 45.7704C95.0813 45.8961 94.9556 46.0218 94.8299 46.2104C94.7042 46.2104 94.6413 46.3361 94.5785 46.4619C93.5099 47.9076 91.8127 50.5477 91.687 53.1249C91.5612 53.502 91.5612 53.9421 91.5612 54.2564C91.6241 54.7592 91.7498 55.1364 91.8127 55.5135C91.9384 55.8278 92.0641 56.1421 92.2527 56.3936C92.567 56.7079 92.8813 57.085 93.1956 57.3364C93.6356 57.5879 94.0756 57.7136 94.4528 57.9022C94.7042 57.965 95.0813 57.965 95.2699 58.0279L96.7785 58.2165ZM101.996 54.4449C102.184 54.2564 102.436 54.1306 102.687 53.9421C102.624 54.0678 102.624 54.1935 102.624 54.2564C103.316 54.1306 103.756 53.5649 104.322 53.1878C104.384 53.1878 104.322 53.1249 104.322 52.9992C104.196 53.062 104.07 53.1249 103.944 53.1249C103.756 52.7477 103.379 53.062 103.064 53.1249C102.813 53.1249 102.624 53.1878 102.562 53.502C102.687 53.502 102.876 53.502 102.939 53.5649C102.813 53.6906 102.624 53.7535 102.499 53.7535C102.122 53.7535 101.933 53.9421 101.996 54.4449ZM100.11 56.8964C100.299 56.7707 100.55 56.5821 100.739 56.5193C100.047 56.4564 99.9843 56.5193 100.11 56.8964Z" fill="white"/>
<path d="M125.409 37.473C125.849 36.5302 125.786 36.4044 125.472 35.9016C125.535 35.4616 125.472 35.0215 125.032 34.8958C124.969 34.8958 124.969 34.833 124.969 34.7072C124.844 34.393 124.404 34.5187 124.215 34.5815C123.712 34.6444 121.575 34.833 120.318 34.6444C118.055 34.3301 116.609 34.2044 115.98 34.1415C116.295 33.5758 116.358 33.0101 116.609 32.5072C116.986 31.69 117.426 30.8729 117.615 30.1185C118.243 29.0499 118.746 27.9185 119.249 26.7242C119.438 26.2842 119.626 25.9699 119.123 25.6556C118.998 25.467 118.746 25.3413 118.683 25.1527C118.621 24.6498 118.055 24.5241 117.552 24.2098C117.426 24.147 117.3 24.147 117.238 24.0212C116.986 23.9584 116.798 24.0212 116.672 24.3984C116.546 24.8384 116.295 25.467 116.169 25.907C115.98 26.2213 115.792 26.347 115.792 26.5984C115.415 27.3528 115.289 28.0442 114.975 28.7357C114.786 29.49 114.409 30.1814 114.22 30.81C113.969 31.4386 113.718 32.0043 113.529 32.6329C113.278 33.0101 113.152 33.4501 113.026 33.8272H112.963L108.94 33.0729C108.5 33.1358 107.746 33.5129 107.62 34.0158C107.494 34.2044 107.306 34.5815 107.746 34.6444C107.62 34.8958 107.557 35.0844 107.997 35.2101C108.123 35.273 108.06 35.0844 108.186 35.273H108.312C108.437 35.3358 108.563 35.1473 108.626 35.3358C108.815 35.5873 109.38 35.9644 109.695 35.7758L110.952 35.9016L112.146 36.0901C112.083 36.153 112.083 36.2787 112.02 36.3416L111.266 38.6045L109.255 44.8904C109.317 44.9532 109.317 45.079 109.38 45.1418H109.255C109.129 45.4561 108.94 45.6447 108.94 45.8961C108.689 46.7133 108.689 47.4047 108.437 48.0962L107.997 49.8562C107.872 50.6105 107.62 51.3648 107.683 52.1192C107.557 53.4392 107.369 54.6964 107.62 55.9535C107.872 57.2107 108.123 58.4679 108.815 59.4736C108.94 59.5994 109.066 59.7251 109.192 59.9137C109.695 60.4794 109.946 60.8565 110.512 61.0451C111.392 61.6108 111.58 61.548 112.523 61.4851H112.397C112.775 61.4851 112.9 61.4223 113.026 61.2337C113.34 60.7308 113.906 60.3537 113.718 59.7251C113.718 59.7251 112.963 60.1022 112.46 60.0394C111.895 60.1022 111.832 60.0394 111.266 59.7251L110.826 59.2222C110.7 59.0965 110.449 58.8451 110.449 58.405C110.323 57.965 110.197 57.525 110.26 57.085C110.26 56.8336 110.26 56.645 110.009 56.5821C110.26 56.4564 110.072 56.3936 109.946 56.2678C110.26 56.205 110.197 55.0735 109.946 54.7592C110.072 54.5706 110.197 54.3192 110.26 54.1306C110.135 54.0678 110.072 54.0049 110.135 54.0049C110.197 53.9421 110.26 53.8163 110.26 53.6906C110.26 53.1878 110.323 52.7477 110.512 52.182C110.449 51.9934 110.512 51.6791 110.575 51.4277C110.575 51.2391 110.763 50.9877 110.763 50.862C110.763 50.5477 110.952 50.1705 110.763 49.8562C110.889 49.6677 111.077 49.4791 111.14 49.2905C111.203 48.5991 111.455 47.9076 111.643 47.2162C111.643 46.839 111.832 46.4619 112.02 46.0847C112.083 45.519 112.397 44.8904 112.523 44.2618C112.586 44.0104 112.712 43.7589 112.838 43.4446C112.963 43.0675 112.9 42.6903 113.089 42.2503C113.089 42.1246 113.026 41.9989 113.089 41.9989C113.466 41.8732 113.403 41.6217 113.34 41.496C113.278 41.3703 113.403 41.2446 113.403 41.1189C113.655 40.8674 113.843 40.4274 113.78 40.176C113.906 39.9874 114.032 39.8617 113.969 39.736C113.843 39.4845 114.095 38.9816 114.346 38.8559L115.038 36.7187C115.038 36.6559 115.038 36.5302 115.1 36.4044L115.478 36.4673C115.666 36.4044 115.855 36.5302 116.169 36.4673C116.42 36.593 116.735 36.593 117.112 36.6559C118.935 36.9702 119.563 36.9702 120.443 37.1587C122.015 37.473 124.718 38.9188 125.409 37.473ZM112.963 37.913C113.089 37.8502 113.152 37.8502 113.215 37.8502L112.649 38.6674L112.397 39.3588V39.9245C112.397 40.1131 112.397 40.1131 112.272 40.2388C112.083 40.4903 112.02 40.6788 111.957 40.9303C111.832 41.5589 111.643 42.0617 111.329 42.6903C111.329 42.6903 111.077 43.0046 111.203 43.1303C111.266 43.6332 110.637 43.9475 110.826 44.5132C110.952 44.5761 110.889 44.7018 110.889 44.8904C110.889 44.9532 110.952 44.9532 111.015 45.0161C111.706 43.0046 112.272 40.616 112.963 38.7302C113.152 38.6045 113.215 38.4788 113.278 38.3531L113.655 37.7873C113.592 38.1645 113.089 39.3588 113.089 39.3588C113.026 40.1131 112.649 40.8046 112.523 41.496C112.397 41.9989 111.832 42.5017 111.957 43.0675C112.02 43.1303 111.895 43.2561 111.832 43.3818C112.146 43.4446 112.083 43.6961 112.02 43.9475C111.957 44.1989 111.832 44.5132 111.832 44.8275C111.706 44.7018 111.643 44.6389 111.517 44.5761C111.455 44.8904 111.266 45.1418 111.14 45.4561H111.455C111.392 45.6447 111.392 45.7075 111.392 45.8961L111.14 45.519C111.077 45.7075 111.077 45.8333 111.015 45.959C110.952 46.0847 111.015 46.2104 111.015 46.399L110.763 46.4619C110.826 46.7133 110.952 46.9019 110.637 47.0276V47.2162C110.575 47.5933 110.512 47.9705 110.386 48.2848C110.323 48.3476 110.26 48.4105 110.135 48.5991C110.197 48.7248 110.763 48.7248 110.512 49.0391C110.449 48.9133 110.26 48.8505 110.135 48.7248C110.135 48.9133 110.135 48.9762 110.072 49.1019C110.26 49.1019 110.386 49.2905 110.449 49.3534C110.449 49.4162 110.386 49.4162 110.197 49.4791C110.072 49.5419 110.009 49.6048 109.946 49.6677C109.82 50.2962 109.695 50.9248 109.443 51.6163C109.443 51.8049 109.506 51.9934 109.569 52.182H109.317C109.192 51.742 109.317 51.302 109.443 50.9248C109.506 50.3591 109.632 49.8562 109.883 49.2276C109.883 49.1648 110.009 49.1019 110.072 49.1019C110.072 49.0391 109.946 49.0391 109.883 49.0391C109.82 48.8505 109.883 48.7248 109.946 48.4733C110.072 48.0962 110.135 47.719 110.323 47.4047C110.386 46.6504 110.7 45.959 110.952 45.3304C110.952 45.2047 110.889 45.1418 110.889 45.0161C110.826 45.3304 110.26 45.3304 110.386 45.7075C110.449 45.7075 110.512 45.7704 110.512 45.7704C110.197 45.959 110.197 45.959 110.512 46.0847C110.449 46.1476 110.26 46.2104 110.135 46.2733C110.135 46.4619 110.26 46.5247 110.26 46.6504H110.135C110.072 47.0904 109.883 47.5305 109.757 47.9705C109.695 48.0333 109.757 48.2219 109.757 48.2848C109.569 48.5991 109.506 48.9762 109.443 49.2276C109.443 49.2905 109.38 49.3534 109.38 49.3534C109.192 49.8562 109.192 50.3591 109.192 50.862C109.129 50.9248 109.066 50.9248 109.003 51.1134C109.003 51.1763 109.066 51.2391 109.129 51.2391C108.877 51.3648 108.752 51.4906 108.877 51.6791C109.003 51.8677 108.877 52.0563 108.94 52.182C108.94 52.3706 108.877 52.5592 108.815 52.7477C108.815 52.9363 108.689 53.3135 108.689 53.5649C108.689 54.0678 108.626 54.5706 108.626 55.1364C108.689 55.6392 108.626 56.0793 108.626 56.5821C108.563 56.5821 108.563 56.5821 108.5 56.645C108.437 56.5821 108.312 56.4564 108.312 56.3307C108.5 55.8907 108.563 55.4507 108.249 55.0107C108.186 54.8221 108.312 54.6964 108.312 54.5706C108.312 54.2564 108.249 53.8163 108.312 53.5649C108.437 53.1249 108.249 52.6849 108.689 52.4334C108.626 52.3706 108.563 52.3706 108.563 52.3077C108.5 52.1192 108.375 51.8049 108.437 51.742C108.626 51.6163 108.437 51.4906 108.5 51.3648C108.5 51.302 108.437 51.2391 108.437 51.2391C108.626 50.7991 108.626 50.3591 108.815 49.8562C108.815 49.7934 108.877 49.6048 109.129 49.4791L109.003 49.2276C109.066 49.1019 109.255 49.1019 109.066 48.7248C108.94 48.7248 109.066 48.6619 109.066 48.5991C109.443 48.2219 109.569 47.719 109.506 47.2162C109.443 46.9647 109.569 46.7133 109.757 46.399C109.883 46.2104 110.009 46.0847 109.946 45.8961C110.009 45.5818 110.009 45.2047 110.197 44.9532C110.449 44.6389 110.26 44.3875 110.449 44.0732C110.7 43.6332 110.889 43.1932 110.889 42.7532C111.203 42.2503 111.329 41.6846 111.58 41.1817C111.58 40.8046 111.769 40.4903 112.02 40.1131C112.02 39.7988 112.209 39.2331 112.335 38.7931L112.586 38.4159C112.838 37.9759 112.838 37.6616 112.963 37.2216H113.215C113.089 36.8444 113.278 36.5302 113.403 36.2159L113.718 36.2787C113.592 36.8444 113.466 37.4102 112.963 37.913ZM113.718 37.6616H113.655L113.906 36.8444C114.032 36.7816 114.095 36.7816 114.095 36.7187C114.158 36.7816 114.22 36.7816 114.22 36.9073L113.718 37.6616ZM107.997 54.6964C107.62 54.4449 107.872 54.0049 107.935 53.6906C107.935 53.502 107.809 53.2506 107.935 53.062C107.935 52.4963 107.997 52.0563 107.935 51.6163C108.123 51.0506 108.06 50.5477 108.186 50.0448C108.375 49.2905 108.563 48.5362 108.815 47.7819C108.94 47.0904 109.129 46.4619 109.255 45.7075L109.82 43.9475C110.135 43.1303 110.26 42.376 110.637 41.6217C110.826 40.8674 111.203 40.1131 111.266 39.3588C111.329 39.2959 111.392 38.9816 111.517 38.7931C111.517 38.7931 111.895 38.0388 112.02 37.8502C112.146 38.1645 112.083 38.5416 111.832 38.6674L111.643 39.2331C111.329 40.3017 110.952 41.3703 110.512 42.376C110.449 43.0046 110.197 43.6332 110.072 44.2618C109.883 44.9532 109.569 45.6447 109.443 46.2733C109.255 47.1533 109.003 47.8447 108.752 48.7248C108.689 49.4791 108.375 50.2962 108.312 51.0506L107.935 53.6906C107.997 54.0049 108.06 54.3821 107.997 54.6964ZM130.375 47.719C130.689 47.1533 130.627 46.7761 130.438 46.5876L128.112 48.9762C127.169 49.8562 126.289 50.7991 125.346 51.6791C124.341 52.622 123.209 53.3135 122.266 54.2564C121.763 54.7592 121.135 54.8849 120.443 55.0735C120.506 54.4449 120.695 53.8792 120.695 53.3135C120.695 52.6849 121.135 52.1192 121.009 51.5534C120.946 51.4277 121.009 51.3648 121.072 51.2391C121.135 50.9877 121.323 50.7363 121.449 50.4848L122.769 46.2733C122.832 45.959 122.958 45.6447 122.958 45.2675C123.083 44.9532 123.021 44.5761 122.895 44.3247C122.769 44.0732 122.518 43.8218 122.266 43.6332C122.015 43.3818 121.575 43.1932 121.386 42.8789C121.198 42.5646 121.072 42.6903 120.883 42.7532C120.632 42.7532 120.506 42.9418 120.569 43.1932V43.5703C120.255 44.7018 119.941 45.7704 119.689 46.9019C119.438 47.719 118.621 50.4848 118.432 51.302C118.118 52.4334 117.866 53.5649 117.992 54.6964C118.055 54.9478 118.243 55.0735 118.369 55.325C118.495 55.4507 118.558 55.6392 118.621 55.8278C118.683 55.9535 118.683 56.1421 118.809 56.205C119.312 56.5193 119.501 57.085 120.129 57.2736C120.569 57.3993 120.946 57.5879 121.386 57.4622L122.643 56.8964C123.021 56.7707 123.461 56.7079 123.712 56.5193C124.026 56.2678 124.341 56.0164 124.592 55.7021C125.032 55.1992 125.409 54.7592 125.912 54.4449L126.289 54.1306C126.415 54.0049 126.415 53.8163 126.541 53.6906C126.729 53.4392 126.981 53.3135 127.295 52.9992C127.358 52.9363 127.295 52.8735 127.295 52.7477L126.604 53.1878C126.604 53.1249 126.604 53.1249 126.541 53.1249C126.604 52.9992 126.666 52.8735 126.729 52.8106C127.044 52.5592 127.421 52.3706 127.546 51.9934L126.918 52.4334C126.918 52.3077 126.981 52.182 127.044 52.1192C127.295 51.8677 127.421 51.742 127.546 51.5534C127.861 51.2391 128.238 50.9248 128.552 50.6105L129.809 49.1019L129.747 49.0391C129.684 49.0391 129.621 49.1019 129.558 49.1019C128.992 49.6677 128.489 50.2334 127.924 50.7363C127.672 50.9877 127.421 51.1763 127.484 51.5534C127.295 51.6163 127.106 51.742 126.918 51.8049C126.855 51.6791 126.855 51.6163 126.792 51.5534C126.981 51.4906 127.106 51.4906 127.295 51.4906C127.295 51.3648 127.232 51.2391 127.232 51.1763H126.729C126.666 51.1763 126.604 51.302 126.541 51.3648C126.352 51.0506 126.855 50.5477 127.484 50.2962C127.421 50.3591 127.421 50.422 127.421 50.422L127.044 50.7991C127.106 50.7991 127.169 50.862 127.169 50.862C127.421 50.6734 127.609 50.4848 127.798 50.2334C127.924 50.1705 128.112 50.1077 127.861 49.9191C127.798 49.9191 127.798 49.6677 127.924 49.5419C127.986 49.4791 128.112 49.3534 128.175 49.3534C128.426 49.3534 128.489 49.2905 128.426 49.0391C128.426 48.9762 128.489 48.9762 128.489 48.9133H128.552C128.615 49.0391 128.615 49.2276 128.678 49.3534C128.929 49.5419 129.055 49.3534 129.244 49.1648C129.432 48.9762 129.558 48.7876 129.495 48.5362C129.621 48.5362 129.809 48.5991 129.809 48.5362L130.187 48.0333C130.124 47.9705 129.998 47.9076 129.872 47.8447C129.935 47.7819 129.998 47.7819 130.124 47.7819C130.187 47.7819 130.312 47.7819 130.375 47.719ZM111.266 46.9647C111.266 47.1533 111.077 47.279 110.826 47.4676C110.952 47.1533 110.952 46.839 111.077 46.4619H111.266C111.14 46.5876 111.266 46.839 111.266 46.9647ZM127.861 51.9306C127.861 52.0563 127.986 52.1192 128.049 52.182C128.238 51.9306 128.301 51.742 128.364 51.5534C128.301 51.4906 128.301 51.4906 128.238 51.4906L127.861 51.9306ZM126.604 51.5534C126.415 51.742 126.226 51.9306 125.912 52.1192L125.975 52.182C126.101 52.182 126.164 52.1192 126.226 52.1192C126.226 52.182 126.289 52.182 126.289 52.2449C125.912 52.3706 125.598 52.4963 125.221 52.5592V52.4963C125.786 52.3077 125.975 51.5534 126.604 51.5534ZM109.632 53.5649C109.38 53.8163 109.255 53.8792 109.192 54.0049C109.066 54.0049 109.192 54.1935 109.129 54.3192C109.255 54.2564 109.443 54.1935 109.443 54.1306C109.443 54.0678 109.443 53.9421 109.443 53.9421H109.569C109.569 54.1306 109.569 54.4449 109.506 54.6964C109.443 54.6335 109.317 54.6335 109.255 54.6335C109.317 54.5706 109.317 54.5078 109.443 54.3192C109.129 54.6335 109.066 54.6964 108.94 54.8221L108.877 54.8849C108.94 54.5078 108.94 54.2564 108.94 53.9421C109.003 53.5649 109.066 53.3763 109.066 53.1249C109.129 53.062 109.129 52.9992 109.129 52.9992L109.255 53.1878C109.695 53.1878 109.443 52.6849 109.82 52.6849C109.757 53.062 109.569 53.3763 109.632 53.5649ZM109.632 56.205C109.632 56.3307 109.757 56.5821 109.569 56.7707H109.506C109.569 56.5821 109.317 56.3307 109.255 56.205C109.317 55.9535 109.443 55.7021 109.506 55.4507C109.632 55.5135 109.695 55.5764 109.757 55.6392C109.695 55.6392 109.632 55.7021 109.632 55.7021C109.569 55.8278 109.569 56.0164 109.632 56.205Z" fill="white"/>
<path d="M134.283 58.2165C134.534 58.2793 134.723 58.0279 134.911 57.8393C135.414 57.6507 136.043 57.525 136.608 57.2736C136.86 57.1479 137.174 57.085 137.363 56.9593C137.363 56.7079 137.3 56.5193 137.363 56.4564C137.614 56.1421 137.803 55.6392 138.369 55.7021C138.369 55.7021 138.369 55.6392 138.431 55.6392L139.5 54.8221C138.809 54.5706 138.494 54.6335 138.369 55.0107C138.494 55.0107 138.683 55.0735 138.871 55.0735C138.557 55.1992 138.306 55.2621 138.054 55.0735C137.866 54.9478 137.614 55.0107 137.426 55.0107C137.614 54.2564 138.243 54.5706 138.683 54.3821C138.746 54.2564 138.809 54.2564 138.809 54.1935C139.437 53.6278 140.066 53.1249 140.694 52.622C141.009 52.4334 141.323 52.182 141.511 51.9934H141.574C141.511 52.182 141.511 52.3077 141.449 52.4334C141.637 52.6849 141.826 52.622 142.077 52.4334C142.203 52.3706 142.329 52.3077 142.454 52.3077C142.391 52.4334 142.266 52.622 142.266 52.7477C142.266 52.7477 142.266 52.8106 142.329 52.8106C142.517 52.622 142.894 52.4334 142.894 52.0563C143.334 51.9934 143.774 51.8677 143.9 51.3648C143.649 51.2391 143.649 51.1763 143.523 51.0506C143.523 50.9877 143.523 50.9248 143.586 50.9248C143.649 50.9248 143.712 50.9248 143.774 50.862C144.026 50.7991 144.277 50.6105 144.592 50.422C144.717 50.3591 144.717 50.2334 144.843 50.1077C144.843 50.0448 144.969 49.9191 145.032 49.8562C145.157 49.7305 145.157 49.6677 145.22 49.6048C145.283 49.3534 145.66 49.2905 145.534 48.9762C145.534 48.9133 145.597 48.7876 145.66 48.7876C146.037 48.5991 146.1 48.2848 146.163 47.9076C146.226 47.8447 146.1 47.7819 146.1 47.6562C146.037 47.719 145.912 47.7819 145.849 47.7819C145.534 48.0333 145.157 48.3476 144.843 48.5362C144.843 48.5362 144.843 48.6619 144.78 48.7876C144.592 48.5362 144.529 48.7876 144.466 48.8505C144.152 49.0391 143.963 49.1648 143.837 49.3534C143.334 49.6677 142.706 50.0448 142.266 50.422C142.266 50.422 142.203 50.4848 142.266 50.5477C142.517 50.422 142.643 50.3591 142.769 50.2334C142.769 50.3591 142.706 50.422 142.706 50.422C142.266 50.7991 141.889 51.1134 141.386 51.4277C140.694 51.9934 140.003 52.5592 139.249 53.1249L137.677 54.1306C137.614 54.1935 137.488 54.2564 137.3 54.2564V54.1935C137.488 54.0678 137.614 54.0049 137.74 53.9421V53.8163C137.614 53.8792 137.488 53.8792 137.363 54.0049C137.048 54.1935 136.86 54.3821 136.608 54.5078C136.231 54.7592 135.791 54.9478 135.351 55.0735C134.974 55.325 134.471 55.3878 133.968 55.5135C133.151 55.8278 132.334 55.8907 131.58 55.8907C131.391 55.8278 131.203 55.765 131.14 55.5764C131.014 55.0107 130.951 54.3192 131.203 53.7535C131.517 52.6849 131.957 51.6163 132.586 50.6734C132.963 50.1077 133.34 49.6048 133.654 49.1019C133.968 48.5991 134.408 48.2848 134.66 47.7819C134.974 47.2162 135.54 46.839 136.106 46.5876C136.294 46.4619 136.357 46.4619 136.483 46.7133C136.546 46.9019 136.734 47.0904 136.923 47.279C137.174 47.4676 137.488 47.5933 137.803 47.7819C137.991 47.9076 138.369 47.9705 138.494 47.7819C138.683 47.5305 138.871 47.3419 138.871 47.0904C138.997 46.839 138.997 46.5247 138.934 46.399C138.683 46.0847 138.369 45.7704 137.991 45.519C137.74 45.2675 137.363 45.1418 136.986 44.9532C136.671 44.7647 136.357 44.5132 136.043 44.3875C135.791 44.2618 135.477 44.3875 135.226 44.3247C134.66 44.1361 134.094 44.2618 133.591 44.7647C133.34 44.9532 132.711 45.7075 132.648 45.7704C132.586 45.8961 132.46 46.0218 132.334 46.2104C132.208 46.2104 132.145 46.3361 132.083 46.4619C131.014 47.9076 129.317 50.5477 129.191 53.1249C129.065 53.502 129.065 53.9421 129.065 54.2564C129.128 54.7592 129.254 55.1364 129.317 55.5135C129.443 55.8278 129.568 56.1421 129.757 56.3936C130.071 56.7079 130.385 57.085 130.7 57.3364C131.14 57.5879 131.58 57.7136 131.957 57.9022C132.208 57.965 132.586 57.965 132.774 58.0279L134.283 58.2165ZM139.5 54.4449C139.689 54.2564 139.94 54.1306 140.191 53.9421C140.129 54.0678 140.129 54.1935 140.129 54.2564C140.82 54.1306 141.26 53.5649 141.826 53.1878C141.889 53.1878 141.826 53.1249 141.826 52.9992C141.7 53.062 141.574 53.1249 141.449 53.1249C141.26 52.7477 140.883 53.062 140.569 53.1249C140.317 53.1249 140.129 53.1878 140.066 53.502C140.191 53.502 140.38 53.502 140.443 53.5649C140.317 53.6906 140.129 53.7535 140.003 53.7535C139.626 53.7535 139.437 53.9421 139.5 54.4449ZM137.614 56.8964C137.803 56.7707 138.054 56.5821 138.243 56.5193C137.551 56.4564 137.488 56.5193 137.614 56.8964Z" fill="white"/>
<path d="M82.7359 64.6615V65.6321H80.0959V67.9251H82.7359V68.8958H80.0959V72.1641H79.1252V64.6615H82.7359Z" fill="white"/>
<path d="M90.7628 65.6368V68.7879H91.6491C92.0805 68.7879 92.4494 68.6348 92.7557 68.3284C93.0652 68.0189 93.22 67.6453 93.22 67.2077C93.22 66.7732 93.0652 66.4027 92.7557 66.0963C92.4494 65.79 92.0805 65.6368 91.6491 65.6368H90.7628ZM91.6491 69.7633H90.7628V72.1641H89.7922V64.6615H91.9211C92.5244 64.7427 93.034 64.9913 93.4497 65.407C93.9468 65.9072 94.1953 66.5074 94.1953 67.2077C94.1953 67.9142 93.9468 68.5175 93.4497 69.0177C93.1059 69.3616 92.8433 69.5554 92.662 69.5992L94.3266 72.1641H93.1496L91.6491 69.7633Z" fill="white"/>
<path d="M105.092 64.6615V65.6321H102.021V67.9251H105.092V68.8958H102.021V71.1888H105.092V72.1641H101.05V64.6615H105.092Z" fill="white"/>
<path d="M116.19 64.6615V65.6321H113.119V67.9251H116.19V68.8958H113.119V71.1888H116.19V72.1641H112.148V64.6615H116.19Z" fill="white"/>
<path d="M124.217 65.6509V71.1794C124.989 71.1794 125.623 70.9309 126.116 70.4338C126.673 69.8774 126.951 69.2037 126.951 68.4128C126.951 67.625 126.673 66.9513 126.116 66.3918C125.623 65.8978 124.989 65.6509 124.217 65.6509ZM123.959 64.6615C125.179 64.6677 126.129 65.0131 126.81 65.6978C127.558 66.4512 127.931 67.3562 127.931 68.4128C127.931 69.4726 127.558 70.3776 126.81 71.1278C126.129 71.8125 125.179 72.1579 123.959 72.1641H123.247V64.6615H123.959Z" fill="white"/>
<path d="M138.593 64.563C139.653 64.563 140.558 64.9381 141.308 65.6884C142.059 66.4387 142.434 67.3437 142.434 68.4034C142.434 69.4632 142.059 70.3682 141.308 71.1185C140.558 71.8687 139.653 72.2439 138.593 72.2439C137.534 72.2439 136.629 71.8687 135.878 71.1185C135.128 70.3682 134.753 69.4632 134.753 68.4034C134.753 67.3437 135.128 66.4387 135.878 65.6884C136.629 64.9381 137.534 64.563 138.593 64.563ZM138.593 65.543C137.803 65.543 137.127 65.8228 136.568 66.3824C136.011 66.9388 135.733 67.6125 135.733 68.4034C135.733 69.1943 136.013 69.8696 136.572 70.4292C137.132 70.9887 137.806 71.2685 138.593 71.2685C139.384 71.2685 140.058 70.9887 140.614 70.4292C141.174 69.8696 141.454 69.1943 141.454 68.4034C141.454 67.6125 141.174 66.9388 140.614 66.3824C140.058 65.8228 139.384 65.543 138.593 65.543Z" fill="white"/>
<path d="M150.611 64.6615L153.045 68.8677L155.469 64.6615H156.355V72.1641H155.384V66.7435L153.045 70.7949L150.695 66.7435V72.1641H149.725V64.6615H150.611Z" fill="white"/>
</svg>
