<svg width="234" height="102" viewBox="0 0 234 102" fill="none" xmlns="http://www.w3.org/2000/svg">
<g filter="url(#filter0_d)">
<path d="M130.584 75.754V76.9376H127.364V79.7337H130.584V80.9174H127.364V84.9029H126.181V75.754H130.584Z" fill="white"/>
<path d="M140.02 76.9433V80.7859H141.101C141.627 80.7859 142.077 80.5991 142.451 80.2255C142.828 79.8481 143.017 79.3926 143.017 78.8589C143.017 78.329 142.828 77.8773 142.451 77.5037C142.077 77.1301 141.627 76.9433 141.101 76.9433H140.02ZM141.101 81.9752H140.02V84.9029H138.837V75.754H141.433C142.168 75.8531 142.79 76.1562 143.297 76.6632C143.903 77.2731 144.206 78.005 144.206 78.8589C144.206 79.7204 143.903 80.4561 143.297 81.0661C142.878 81.4854 142.557 81.7217 142.336 81.7751L144.366 84.9029H142.931L141.101 81.9752Z" fill="white"/>
<path d="M157.142 75.754V76.9376H153.397V79.7337H157.142V80.9174H153.397V83.7135H157.142V84.9029H152.213V75.754H157.142Z" fill="white"/>
<path d="M170.324 75.754V76.9376H166.579V79.7337H170.324V80.9174H166.579V83.7135H170.324V84.9029H165.395V75.754H170.324Z" fill="white"/>
<path d="M179.761 76.9605V83.7021C180.703 83.7021 181.475 83.399 182.077 82.7929C182.756 82.1144 183.095 81.2929 183.095 80.3284C183.095 79.3678 182.756 78.5463 182.077 77.8639C181.475 77.2616 180.703 76.9605 179.761 76.9605ZM179.447 75.754C180.933 75.7616 182.092 76.1828 182.923 77.0177C183.834 77.9364 184.29 79.04 184.29 80.3284C184.29 81.6207 183.834 82.7243 182.923 83.6392C182.092 84.474 180.933 84.8952 179.447 84.9029H178.578V75.754H179.447Z" fill="white"/>
<path d="M196.94 75.6339C198.233 75.6339 199.336 76.0914 200.251 77.0062C201.166 77.9211 201.623 79.0247 201.623 80.317C201.623 81.6093 201.166 82.7128 200.251 83.6277C199.336 84.5426 198.233 85.0001 196.94 85.0001C195.648 85.0001 194.544 84.5426 193.63 83.6277C192.715 82.7128 192.257 81.6093 192.257 80.317C192.257 79.0247 192.715 77.9211 193.63 77.0062C194.544 76.0914 195.648 75.6339 196.94 75.6339ZM196.94 76.829C195.976 76.829 195.152 77.1702 194.47 77.8525C193.792 78.5311 193.452 79.3525 193.452 80.317C193.452 81.2814 193.793 82.1048 194.476 82.7872C195.158 83.4695 195.98 83.8107 196.94 83.8107C197.905 83.8107 198.726 83.4695 199.405 82.7872C200.087 82.1048 200.428 81.2814 200.428 80.317C200.428 79.3525 200.087 78.5311 199.405 77.8525C198.726 77.1702 197.905 76.829 196.94 76.829Z" fill="white"/>
<path d="M211.243 75.754L214.211 80.8831L217.167 75.754H218.248V84.9029H217.064V78.2928L214.211 83.2332L211.346 78.2928V84.9029H210.163V75.754H211.243Z" fill="white"/>
<path d="M95.3912 52.9387C95.1189 53.3017 94.8466 53.3925 94.4836 53.3017L96.0265 51.6681C96.1172 51.5773 96.0265 51.4866 95.9357 51.4866C95.845 51.4866 95.6634 51.4866 95.6634 51.5773L94.3928 52.7572C92.7592 54.1185 91.0348 55.3891 89.3105 56.569C88.4029 57.2043 87.4953 57.8396 86.497 58.2933C84.9541 59.0194 82.5037 59.6547 81.5054 58.6564C81.3239 58.3841 81.2331 58.1118 81.1424 57.7488C80.6886 55.9337 80.9608 54.1185 81.6869 52.3942C81.8684 51.6681 82.1407 51.0328 82.5945 50.4883C82.776 49.9437 82.6852 49.6714 82.0499 49.5807C82.0499 49.5807 82.0499 49.4899 81.9592 49.4899C82.1407 49.4899 82.2314 49.3992 82.2314 49.2177C81.5054 49.0362 80.7793 49.0362 80.144 48.8546C80.2348 48.7639 80.2348 48.7639 80.2348 48.6731L80.6886 48.4009C80.6886 48.3101 80.5978 48.3101 80.5978 48.2193C80.2348 48.2193 79.8718 48.2193 79.418 48.3101C79.0549 48.4916 78.8734 48.9454 78.6919 48.2193C78.6012 48.4916 78.2381 48.5824 78.1474 48.7639C77.6028 49.3084 77.1491 49.9437 76.6045 50.4883C75.6969 51.3958 74.8801 52.4849 73.9726 53.3925C72.9742 54.3908 72.2482 55.2984 71.2499 56.2059C70.5238 56.8412 70.07 57.4765 68.7994 58.2026C68.2549 58.5656 67.5288 58.7471 66.9843 58.4749C66.2582 58.0211 66.6213 56.7505 66.9843 55.9337C67.2566 55.2984 68.2549 53.3925 68.7087 52.3034C69.707 50.0345 70.2515 48.7639 69.5255 47.4933C69.2532 47.0395 68.5272 46.858 68.0734 46.495C67.4381 46.3134 66.8028 46.3134 66.0767 46.495C65.5322 46.6765 65.0784 46.9487 64.7154 47.221C64.4431 47.4025 64.0801 47.584 63.8986 47.9471C63.8078 48.4009 64.1708 48.8546 64.5339 49.4899C64.8061 49.7622 65.5322 49.6715 66.4398 49.3992C66.712 50.0345 64.1708 52.8479 63.4448 55.4799C62.991 57.0228 62.9002 58.1118 63.8078 59.8362C64.0801 60.3808 64.5339 60.7438 64.8061 61.1068C64.9876 61.2883 65.3507 61.5606 65.1692 61.3791C65.1692 61.2883 65.2599 61.1068 65.3507 60.9253C65.3507 61.1068 65.3507 61.1976 65.4414 61.2883C65.8045 62.1959 66.349 62.4682 67.3473 62.3774C68.7087 62.2866 69.7978 61.4698 71.0683 60.9253C71.9759 60.4715 72.4297 59.5639 73.065 58.7471C73.1558 58.6564 73.428 58.4749 73.5188 58.2933C73.6095 58.2933 73.6095 58.2026 73.7003 58.0211C73.9726 57.5673 75.3339 56.2059 75.5154 56.3875C75.5154 56.569 75.4247 56.6597 75.4247 56.7505H75.5154L76.8768 55.3891C77.0583 55.6614 77.1491 55.7522 77.0583 55.9337C77.3306 56.4782 77.5121 57.0228 77.8751 57.5673C77.9659 57.7488 78.1474 57.9303 78.3289 58.2026C78.6012 58.9286 78.8734 59.6547 79.781 60.0177C80.3255 60.1992 80.7793 60.4715 81.1424 61.0161C81.1424 61.1976 81.5961 61.3791 81.9592 61.5606C82.2314 61.6514 82.5945 61.8329 82.8667 62.0144C83.2298 62.0144 83.5928 62.1959 84.0466 62.3774C84.3188 62.4682 84.5004 62.3774 84.7726 62.4682C85.4987 62.9219 86.0432 62.0144 86.9508 62.1959C86.7693 62.0144 86.7693 61.9236 86.5878 61.7421C88.2214 61.6513 89.492 61.3791 90.5811 60.0177C90.5811 60.0177 90.4903 60.0177 90.4903 59.927C90.218 60.0177 90.1273 60.1085 89.855 60.29C89.7643 60.1992 89.7643 60.1992 89.7643 60.1085L90.9441 59.2917C90.9441 59.2009 90.9441 59.1102 90.7626 58.9286C90.9441 58.7471 91.2164 58.6564 91.3979 58.6564C91.8517 58.6564 92.487 58.1118 92.487 57.658C92.5777 57.2043 92.7592 56.8412 93.213 56.8412C93.3945 56.8412 93.576 56.7505 93.9391 56.7505C93.576 56.6597 93.4853 56.569 93.3945 56.4782C93.7576 56.2967 93.4853 55.9337 93.9391 55.7522C94.2113 55.5706 94.9374 55.4799 94.5744 54.8446L94.9374 54.6631C95.0281 53.7555 95.7542 53.3925 96.208 52.8479C95.845 52.8479 95.4819 52.7572 95.3912 52.9387ZM74.9709 53.211C76.06 52.1219 76.9675 51.1236 77.9659 49.9437C78.0566 50.4883 76.06 52.8479 74.9709 53.211ZM66.8935 53.6647C66.8935 53.4832 66.9843 53.3017 67.075 53.1202C66.9843 52.6664 68.1641 50.579 68.7994 50.3975C68.4364 51.3051 67.075 53.6647 66.8935 54.2093C66.4398 54.0278 66.4398 54.0278 66.8935 53.6647ZM76.9675 53.3925C76.6045 53.8463 76.2415 53.8463 75.6062 53.7555C75.9692 53.3925 76.1507 53.211 76.5138 52.9387V53.3017C76.6045 53.211 76.786 53.211 76.786 53.1202C76.9675 52.8479 77.1491 52.4849 77.2398 52.2126C77.4213 52.0311 77.4213 51.9404 77.5121 51.8496C77.8751 52.3942 77.5121 52.8479 76.9675 53.3925ZM93.576 55.0261L92.5777 55.7522L91.9424 55.9337C92.5777 55.2984 93.0315 54.8446 93.3945 54.3C93.3038 54.3 93.3038 54.3 93.3038 54.2093C92.5777 54.8446 91.8517 55.5706 91.1256 56.1152C91.0348 56.0244 91.0348 56.0244 90.9441 56.0244L93.9391 53.3925L94.1206 54.4816C94.0298 54.6631 93.7575 54.8446 93.576 55.0261ZM69.344 58.5656C70.3423 57.9303 71.5221 57.295 72.4297 56.7505C72.3389 57.295 70.07 58.5656 69.344 58.5656ZM89.0382 57.7488C89.0382 57.5673 88.9474 57.658 88.8567 57.4765C89.0382 57.3858 89.2197 57.2043 89.3105 57.1135C89.4012 57.1135 89.5827 57.295 89.855 57.4765L89.0382 57.7488ZM65.1692 60.5623C65.1692 60.5623 65.1692 60.5623 65.1692 60.653V60.5623Z" fill="white"/>
<path d="M131.945 50.1252C132.58 49.4899 134.032 47.4025 134.123 47.0395C134.123 46.7672 134.123 46.6765 134.032 46.495C133.851 46.495 133.76 46.495 133.669 46.6765C132.671 47.221 131.582 47.8563 130.402 48.4009C127.589 50.0345 125.32 51.3958 122.325 52.9387C121.508 53.3017 120.056 54.5723 118.967 55.0261C118.876 54.8446 118.967 54.6631 118.967 54.3908C118.967 53.937 119.057 52.9387 119.148 52.4849C119.148 51.3051 118.967 50.1252 119.783 49.1269C119.783 49.1269 119.874 49.0362 119.783 49.0362C119.783 48.0378 120.147 47.221 120.51 46.3134C120.782 45.7689 120.963 44.9521 121.326 44.4983C121.417 44.226 121.689 43.9538 121.962 43.6815C122.143 43.3185 121.962 43.5907 122.688 43.137C122.688 43.137 123.323 43.137 123.686 42.8647C124.684 42.2294 121.145 41.1403 120.056 41.6849C119.511 41.7756 119.057 42.1386 118.694 42.5017L118.059 43.4092L114.792 46.1319C112.432 48.1286 107.441 51.4866 105.081 53.1202C104.264 53.6647 101.723 55.2076 100.997 55.6614C100.906 55.2984 100.815 54.4816 100.815 54.3C100.634 53.1202 100.634 52.3034 100.543 51.1236C100.271 47.6748 100.543 44.5891 103.447 41.5033C104.446 40.6865 105.353 40.6865 106.17 41.5033C107.168 42.6832 107.894 41.7756 107.894 41.7756L107.985 41.3218C107.804 40.868 107.259 39.2344 105.625 38.7806C105.353 38.5991 104.99 38.5084 104.627 38.5084C104.355 38.3268 101.904 38.5991 100.815 39.9605C98.9094 41.8664 97.7296 44.0445 97.5481 46.4042C97.0035 48.9454 97.3666 51.3958 97.6388 53.8463C97.7296 55.2076 98.0926 55.6614 98.2741 57.1135C97.3666 57.7488 96.2775 58.2026 95.3699 58.8379C93.101 60.4715 90.8321 62.1959 89.6522 65.4631C88.8354 67.2783 88.5631 68.8211 89.5615 70.364C90.106 70.9993 90.3783 71.9976 91.0136 72.4514C91.8304 72.9959 93.3732 73.2682 95.0069 73.4497C96.096 73.2682 96.9128 73.0867 97.5481 72.5422C98.3649 71.8161 99.2724 71.0901 99.9985 70.364C101.088 69.0934 101.723 67.8228 102.177 65.8262C102.449 64.7371 102.267 63.5572 102.267 62.4682C102.177 61.2883 101.995 60.3808 101.814 58.9286L101.723 58.2026C102.812 57.295 104.536 56.3875 105.807 55.4799C107.441 54.3908 112.251 51.3051 113.612 50.216C114.52 49.4899 115.336 48.9454 116.062 48.4009C115.972 48.6731 115.972 48.8546 115.881 49.1269V50.3975C115.79 50.8513 115.79 51.4866 115.79 52.1219C115.79 53.3925 115.699 54.7538 115.609 56.2967C115.699 56.7505 115.609 57.295 115.064 57.4765C114.883 57.658 114.52 57.9303 114.338 58.1118L112.069 60.29C111.252 61.1068 110.163 62.1051 109.346 63.1942C108.53 64.2833 107.894 65.5539 107.441 66.9152C107.259 67.369 106.896 68.0043 106.715 68.6396C106.715 68.7304 106.624 68.7304 106.442 68.9119L106.351 69.0027C105.988 70.364 106.17 71.7254 106.624 72.9052C106.896 73.6312 107.259 74.3573 107.622 75.2649C107.985 75.9002 108.348 76.8985 109.165 77.3523C109.256 77.5338 109.256 77.6245 109.346 77.6245C109.528 77.8968 109.891 78.3506 110.073 78.5321C110.526 78.8044 111.071 78.9859 111.615 79.2582C112.16 79.4397 112.704 79.6212 113.249 79.5304L114.157 79.1674C114.157 78.9859 114.066 78.9859 114.066 78.8951C114.338 78.8951 114.52 78.8951 114.792 78.8044C115.518 77.8061 115.972 76.8985 116.698 75.9002C116.789 75.6279 116.97 75.3556 116.97 75.2649C117.333 74.6296 117.696 74.1758 117.424 73.6312C117.696 73.1775 117.878 72.9052 117.878 72.5422C118.241 70.9085 118.604 69.1842 118.785 67.5505C118.785 67.2783 118.694 67.0968 118.694 66.9152C119.057 66.643 118.876 66.2799 118.876 66.0077C118.785 65.6446 118.513 65.2816 118.513 64.7371C118.604 64.3741 118.876 64.011 118.876 63.648C118.876 62.5589 118.876 61.5606 118.967 60.653C118.967 60.29 118.785 59.7455 118.876 59.3824C118.785 59.1102 118.785 58.9286 118.785 58.7471C118.785 58.6564 119.148 58.3841 119.239 58.2933C120.328 57.6581 121.326 56.7505 122.325 56.1152C123.686 55.3891 124.957 54.4816 126.409 53.8463C126.863 53.3925 127.407 53.0294 128.133 52.7572C128.768 52.3942 129.313 52.1219 129.767 51.6681C129.948 51.4866 130.221 51.3958 130.402 51.3051C130.765 51.1236 131.4 51.0328 131.31 50.4883C131.582 50.3975 131.854 50.3975 132.126 50.3975L131.945 50.1252ZM112.795 50.0345C112.069 50.3975 111.343 50.8513 110.526 51.5773L110.436 51.4866L110.799 51.0328C111.162 50.6698 111.434 50.4883 111.615 50.3067C111.888 50.216 112.16 49.853 112.341 49.853C113.34 48.8546 114.157 48.4916 114.701 47.7656C115.246 47.3118 115.699 47.0395 116.244 46.6765L116.062 46.9487C115.699 47.3118 115.064 47.7656 114.52 48.3101L112.795 50.0345ZM99.5447 47.7656V49.3084V49.5807C99.5447 49.853 99.5447 50.0345 99.454 49.6714C99.0909 48.8546 99.6355 51.1236 99.6355 51.8496L99.9077 53.574C99.817 53.7555 99.817 53.937 99.817 54.2093C99.9077 54.3908 99.9077 54.5723 99.9077 54.7538C99.9077 55.1169 99.9077 55.6614 99.9985 55.8429H99.817C99.7262 55.6614 99.6355 55.2984 99.6355 55.2076C99.3632 54.8446 99.1817 53.6647 99.5447 52.9387C99.3632 52.8479 99.2724 52.8479 99.0909 52.9387V52.8479C99.1817 52.5757 99.2724 52.3942 99.5447 52.2126C99.3632 52.1219 99.3632 51.9404 99.2724 51.8496L99.3632 51.6681C99.2724 51.5773 99.1817 51.3958 99.0909 51.3958L99.3632 51.2143C99.1817 51.0328 99.0909 50.942 99.0909 50.8513C99.0909 50.4883 99.0002 50.3067 99.0002 50.1252V49.1269C98.9094 48.6731 99.0002 48.3101 98.9094 47.9471L99.5447 47.7656ZM125.864 51.3958C126.136 51.3051 126.136 51.3958 126.136 51.4866C125.592 51.7589 125.229 52.0311 124.866 52.2126C124.866 52.1219 124.775 52.1219 124.775 52.0311C125.138 51.7589 125.501 51.4866 125.864 51.3958ZM121.689 54.3L124.594 52.4849C124.503 53.0295 122.415 54.3 121.689 54.3ZM125.41 53.7555C125.41 53.7555 125.138 53.6647 124.866 53.6647V53.3925C125.41 53.1202 125.773 52.9387 126.227 52.6664H126.409C126.136 53.0295 125.773 53.3017 125.41 53.7555ZM123.414 54.6631C123.323 54.6631 123.141 54.6631 123.141 54.6631V54.3908C123.141 53.937 124.049 54.1185 124.321 54.3908C123.958 54.4816 123.686 54.4816 123.414 54.6631ZM121.689 54.3908C121.508 54.7538 121.145 54.7538 120.782 55.0261C120.782 54.3908 121.236 54.4816 121.689 54.3908ZM120.963 56.3875C120.6 56.0244 120.6 56.0244 121.145 55.9337L121.599 55.4799C121.689 55.0261 122.052 55.0261 122.688 55.1169C121.962 55.7522 121.326 56.0244 120.963 56.3875ZM109.074 64.3741C110.436 61.6513 113.158 59.7455 115.518 57.658C115.609 57.9303 115.609 58.1118 115.427 58.3841C114.61 59.1102 113.703 59.7455 112.886 60.4715C112.16 61.0161 111.615 61.6513 111.071 62.2866C110.436 62.7404 109.982 63.3757 109.619 64.1018C109.437 64.2833 109.346 64.3741 109.256 64.5556L109.074 64.3741ZM96.7313 69.0934C95.5514 69.8195 94.7346 70.364 93.9178 70.364C92.6472 70.364 92.1027 69.8195 92.0119 68.3674C92.0119 67.6413 92.0119 66.9152 92.2842 66.0984C92.9195 64.6463 93.2825 64.1018 93.7363 63.4665C94.6438 62.8312 95.6422 61.3791 96.9128 60.9253C97.4573 60.4715 97.8203 60.1992 98.7279 59.7455C98.9094 61.2883 99.454 63.285 99.0002 65.5539C98.5464 67.7321 97.185 68.3674 96.7313 69.0934ZM94.4623 61.1068C94.6438 61.1068 95.1884 60.7438 95.7329 60.4715L95.8237 60.1992C95.8237 60.1992 96.096 60.4715 95.8237 60.5623L94.4623 61.6513V61.1068ZM115.518 64.7371C115.609 66.1892 115.427 67.369 115.064 68.7304C114.973 69.6379 114.52 70.6363 114.247 71.5438C114.066 72.2699 113.884 72.9959 113.431 73.6312C112.795 74.3573 112.341 75.5371 111.252 75.9909C110.889 76.2632 110.345 76.1724 110.073 75.8094C109.437 74.8111 109.346 73.722 109.437 72.6329C109.528 72.2699 109.256 71.9976 109.256 71.7254C109.346 70.5455 109.346 69.2749 109.709 68.0043C110.073 66.9152 110.889 65.5539 111.706 64.2833C111.888 64.011 112.432 63.7388 112.704 63.285C113.158 62.5589 113.794 62.2866 114.429 61.8329C114.792 61.3791 115.336 61.1068 115.79 60.7438C115.699 62.1051 115.336 63.3757 115.518 64.7371ZM97.5481 70.0917C98.9094 69.1842 99.2724 68.3674 100.18 67.5505C99.454 69.4564 98.5464 70.2732 97.5481 70.0917Z" fill="white"/>
<path d="M134.343 40.142C134.887 40.505 135.432 40.505 135.886 40.3235C136.703 39.779 137.519 39.2344 137.882 38.2361C138.245 37.2378 137.882 36.2394 137.61 35.3319C137.429 34.6966 136.884 34.4243 135.886 34.5151C135.886 34.5151 135.523 34.5151 135.432 34.6058C134.252 35.2411 133.254 35.8764 132.8 37.2378C132.618 38.1453 132.8 38.8714 133.345 39.5067C133.617 39.779 134.071 39.9605 134.343 40.142ZM146.777 48.3101C145.597 49.4899 144.417 50.4883 143.328 51.4866C141.966 52.7572 140.696 54.2093 139.244 55.4799C137.882 56.8412 136.249 58.1118 134.797 59.3824C134.071 60.0177 133.254 60.3808 132.255 60.653C132.346 59.7455 132.618 58.9286 132.618 58.1118C132.709 57.2043 133.254 56.3875 132.982 55.5706C132.982 55.3891 133.072 55.2984 133.163 55.1169C133.254 54.7538 133.435 54.3908 133.617 54.0278C133.98 52.8479 134.343 51.7589 134.615 50.6698C134.797 50.216 134.978 49.7622 134.978 49.2177C135.069 48.7639 135.069 48.2193 134.887 47.8563C134.706 47.4933 134.252 47.1303 133.889 46.858C133.617 46.4042 132.981 46.1319 132.709 45.6782C132.437 45.2244 132.165 45.4059 131.892 45.4966C131.529 45.4966 131.439 45.7689 131.529 46.1319V46.858C131.076 48.5824 130.622 50.1252 130.259 51.7589C129.896 52.9387 129.533 54.1185 129.351 55.2984C128.897 56.932 128.534 58.6564 128.716 60.1992C128.807 60.5623 129.079 60.7438 129.17 61.1068C129.351 61.2883 129.533 61.5606 129.624 61.8329C129.714 62.0144 129.714 62.2866 129.896 62.3774C130.531 62.8312 130.894 63.648 131.802 63.8295C132.437 64.011 132.891 64.2833 133.617 64.1018C134.252 63.7388 134.887 63.4665 135.432 63.1942C135.976 63.0127 136.521 62.9219 136.884 62.5589C137.429 62.1959 137.882 61.8329 138.245 61.3791C138.79 60.653 139.425 59.927 140.151 59.4732L140.605 59.0194C140.787 58.8379 140.877 58.5656 141.059 58.3841C141.331 58.0211 141.694 57.658 142.057 57.295C142.148 57.2043 142.057 57.1135 142.057 56.932C141.694 57.2043 141.422 57.4765 141.15 57.658C141.059 57.5673 141.059 57.5673 140.968 57.5673C141.059 57.3858 141.15 57.2043 141.24 57.1135C141.785 56.6597 142.329 56.3875 142.511 55.8429C142.239 56.0244 141.876 56.2967 141.603 56.569C141.603 56.3875 141.694 56.1152 141.785 56.0244C142.057 55.7522 142.239 55.4799 142.42 55.2076C142.965 54.7538 143.509 54.3 143.872 53.8463C144.598 53.0295 145.143 52.3034 145.687 51.5773L145.597 51.4866C145.506 51.4866 145.415 51.5773 145.324 51.5773C144.598 52.3942 143.872 53.3017 142.965 54.0278C142.692 54.3908 142.329 54.6631 142.329 55.2076C142.057 55.2984 141.785 55.4799 141.513 55.6614C141.422 55.4799 141.422 55.3891 141.331 55.2984C141.603 55.1169 141.785 55.1169 142.057 55.1169C142.148 54.9353 142.057 54.7538 142.057 54.6631C141.785 54.6631 141.603 54.7538 141.331 54.7538C141.24 54.7538 141.15 54.9353 141.059 55.0261C140.787 54.5723 141.422 53.8463 142.329 53.3925C142.239 53.4832 142.239 53.574 142.239 53.574L141.785 54.1185C141.876 54.1185 141.966 54.2093 141.966 54.2093L142.874 53.3017C143.056 53.211 143.328 53.1202 142.965 52.8479C142.874 52.8479 142.874 52.4849 142.965 52.3034C143.056 52.2126 143.237 52.0311 143.328 52.0311C143.691 52.0311 143.782 51.9404 143.782 51.5773C143.782 51.4866 143.872 51.4866 143.872 51.3958H143.963C144.054 51.5773 143.963 51.8496 144.054 52.0311C144.417 52.2126 144.598 51.9404 144.871 51.6681C145.234 51.3958 145.415 51.1236 145.324 50.7605C145.506 50.7605 145.778 50.8513 145.778 50.7605C145.96 50.4883 146.141 50.4883 146.232 50.3067C146.141 50.216 145.96 50.1252 145.778 50.0345C145.96 49.9437 146.05 49.9437 146.232 49.9437C146.323 49.9437 146.504 49.9437 146.595 49.853C147.049 49.0362 146.958 48.4916 146.777 48.3101ZM142.511 55.7522C142.602 55.9337 142.783 56.0244 142.874 56.1152C143.056 55.7522 143.146 55.4799 143.237 55.2076C143.146 55.1169 143.146 55.1169 143.056 55.1169L142.511 55.7522ZM139.788 56.1152L139.879 56.2059C140.061 56.2059 140.151 56.1152 140.242 56.1152C140.242 56.2059 140.333 56.2059 140.333 56.2967C139.788 56.4782 139.334 56.6597 138.79 56.8412V56.7505C139.607 56.3875 139.788 55.2984 140.696 55.2984C140.424 55.5706 140.151 55.8429 139.788 56.1152Z" fill="white"/>
<path d="M146.016 59.6547C147.377 60.1992 148.92 60.1992 150.372 59.4732C151.824 58.8379 153.276 57.658 154.365 56.8412C154.547 56.7505 154.638 56.4782 154.819 56.2967C155.454 56.2967 155.454 55.3891 156.09 55.0261C156.181 55.2076 156.18 55.3891 156.362 55.4799C156.634 55.9337 156.544 56.1152 157.088 56.6597C157.451 57.4765 158.086 57.8396 158.631 58.5656C158.903 58.6564 159.085 59.0194 159.357 59.1102C159.538 59.2917 160.083 59.2917 160.265 59.3824C160.628 59.4732 161.444 59.2917 161.807 59.2917C162.08 59.2917 162.533 59.1102 162.624 59.1102C162.896 59.1102 163.35 58.9286 163.532 58.8379C163.986 58.5656 164.258 58.6564 164.802 58.3841C165.71 57.7488 166.527 57.5673 167.253 56.7505C167.616 56.2967 168.251 55.9337 168.705 55.5706V55.3891C168.251 55.6614 167.616 55.9337 167.162 56.2059V55.8429C167.434 55.8429 167.616 55.7522 167.797 55.6614L167.888 55.5706C167.707 55.5706 167.525 55.5706 167.253 55.4799C167.525 55.3891 167.707 55.2984 167.888 55.1169C168.07 54.8446 168.251 54.6631 168.433 54.5723C169.159 54.2093 169.885 53.6648 170.611 53.3017C170.883 53.1202 170.974 52.8479 170.974 52.6664C170.611 53.0295 169.976 53.211 169.431 53.574C168.886 54.0278 168.433 53.937 167.797 54.2093C167.797 54.3 167.888 54.3908 167.888 54.4816C167.616 54.3 167.344 54.3 166.981 54.5723C166.799 54.7538 166.527 54.7538 166.255 54.8446V54.6631C166.618 54.5723 166.89 54.3 167.162 54.2093C168.07 53.4832 168.886 52.9387 169.976 52.4849C170.611 52.0311 171.065 51.5773 171.791 51.2143C171.881 51.2143 172.063 51.3051 172.063 51.3958C172.154 51.7589 171.972 52.0311 171.609 52.2126C171.428 52.3942 171.155 52.5757 171.065 52.5757C171.155 52.6664 171.155 52.7572 171.155 52.7572C171.428 52.6664 171.7 52.6664 171.791 52.5757C172.244 52.3942 172.607 51.9404 172.88 51.6681C173.152 51.4866 173.787 51.2143 174.241 50.8513C175.421 50.0345 176.873 49.3084 177.781 47.9471C177.327 47.7656 177.327 48.1286 177.327 48.3101C176.782 48.6731 176.782 48.6731 176.601 48.2193L177.418 47.1303L177.145 46.9487C176.238 47.4933 175.512 47.9471 174.876 48.4916C172.789 49.853 172.971 49.6714 170.792 51.0328C169.522 51.9404 168.16 52.7572 166.981 53.4832C165.71 54.3908 164.258 55.4799 162.806 56.1152C162.443 56.2967 162.08 56.2967 161.807 56.3875C161.535 56.4782 161.354 56.4782 161.172 56.3875C160.718 56.1152 160.446 55.7522 160.355 55.3891C159.811 54.1185 159.811 52.7572 160.083 51.4866C160.174 51.3051 160.174 51.1236 160.265 51.0328C160.537 50.3067 160.446 49.3084 160.446 49.3084C160.265 48.6731 159.902 48.2193 159.357 48.0378C158.268 47.9471 157.633 48.6731 156.907 48.7639C157.36 47.8563 158.086 47.0395 157.814 45.7689C157.451 43.6815 155.273 43.3185 153.367 42.9554C151.643 43.137 150.1 44.226 149.011 45.4059C147.922 46.7672 146.742 47.8563 145.743 49.3992C145.562 49.5807 145.38 50.0345 145.017 50.4883L144.382 51.5773C144.201 52.2126 143.928 52.6664 143.838 53.211C143.838 53.3017 143.838 53.3017 143.747 53.3925C143.565 53.937 143.384 54.3908 143.112 55.0261C142.748 56.3875 143.021 57.5673 143.838 58.6564C144.382 58.9286 145.108 59.3824 145.29 59.5639C145.562 59.6547 145.834 59.6547 146.016 59.6547ZM145.834 57.0228C146.288 55.2076 147.105 53.6647 147.922 52.2126C148.92 50.4883 152.096 46.2227 154.819 45.7689C154.728 45.8597 154.002 49.853 155.999 50.0345H156.09C156.09 50.0345 155.727 50.4883 155.636 50.4883C154.275 51.9404 153.639 53.0295 152.278 54.4816C151.37 55.4799 150.554 56.1152 149.374 56.569C148.466 56.932 146.833 57.0228 145.834 57.0228ZM172.789 51.4866C172.607 51.3051 172.244 51.1236 172.063 51.0328C172.154 50.8513 173.334 50.0345 173.969 49.6714C174.423 49.3992 174.876 49.1269 175.058 48.9454C175.149 48.9454 175.149 49.0362 175.149 49.1269C175.058 49.2177 174.967 49.3992 174.786 49.4899V50.0345C174.604 50.1252 174.241 50.1252 174.06 50.216C173.787 50.3067 173.424 50.3975 173.334 50.579C173.152 50.6698 172.971 50.7605 172.971 51.1236C172.971 51.2143 172.88 51.4866 172.789 51.4866Z" fill="white"/>
<path d="M175.443 64.1925C176.169 64.3741 176.532 64.2833 176.895 63.5572C176.986 63.4665 176.986 63.3757 177.167 63.285L177.44 62.6497C177.893 62.6497 178.256 62.3774 178.619 61.9236C179.073 60.9253 179.618 60.1085 180.162 59.2009L179.89 58.9286C179.89 58.9286 179.981 58.9286 180.072 58.7471C180.072 58.6564 179.981 58.5656 179.89 58.4749C180.253 58.2933 180.707 58.0211 180.616 57.4765C180.707 57.5673 180.798 57.5673 180.888 57.5673C180.798 57.2043 181.614 57.5673 181.342 56.932C181.161 56.932 181.705 56.4782 181.796 56.2059C182.068 55.7522 182.703 55.6614 182.613 54.9353C183.248 54.6631 183.702 54.2093 183.883 53.4832C184.519 53.3925 184.882 53.1202 185.154 52.1219C185.245 52.3942 185.426 52.4849 185.608 52.6664C185.608 53.211 185.517 53.8463 185.517 54.3C185.335 56.2059 185.698 57.9303 186.152 59.4732C186.515 60.653 187.241 61.4698 188.058 62.1051C188.512 62.6497 188.784 62.6497 189.419 62.9219H189.51C190.872 62.6497 192.414 62.6497 193.685 61.7421C194.502 61.1976 195.319 60.5623 195.863 59.927C196.499 59.2917 197.225 58.7471 197.588 58.0211C197.588 57.9303 197.86 57.9303 197.951 57.8396C197.86 57.7488 197.86 57.5673 197.86 57.5673C198.314 57.295 198.314 57.0228 198.404 56.8412L199.947 55.0261C200.31 54.7538 200.673 54.3 200.855 53.937C201.036 53.574 201.036 53.211 201.218 52.7572H201.127L201.218 51.5773C201.49 51.2143 201.762 50.7605 202.035 50.579H201.581C201.853 50.1252 201.853 50.1252 202.216 50.0345C202.307 49.9437 202.307 49.853 202.307 49.853C202.035 49.5807 202.398 49.2177 202.488 49.0362C202.579 48.8546 202.851 48.5824 202.942 48.4009C203.033 48.3101 202.942 48.3101 202.942 48.3101C200.492 51.4866 197.86 54.6631 194.502 57.295C194.593 57.295 194.593 57.295 194.683 57.3858C195.228 56.932 195.863 56.4782 196.408 56.1152C196.317 56.2059 196.408 56.2059 196.589 56.2967C196.135 56.569 195.591 56.932 195.228 57.295C195.137 57.3858 194.956 57.5673 194.683 57.658C194.23 57.9303 193.685 58.4749 193.14 58.6564C192.687 59.0194 192.142 59.2917 191.598 59.4732C190.055 60.29 189.782 60.3808 189.692 60.4715H189.419C189.329 60.3808 189.056 60.1085 189.056 59.927L188.784 59.0194C188.784 58.3841 188.784 57.658 188.693 57.0228C188.784 56.7505 188.693 56.4782 188.693 56.2967C188.784 55.5706 188.875 54.8446 188.875 54.1185C188.784 53.3017 188.603 52.4849 188.33 51.6681C188.33 51.3958 188.421 51.1236 188.33 51.1236C187.967 50.942 188.058 50.4883 187.967 50.0345C187.151 50.579 186.788 49.853 186.061 49.7622V49.6714C186.243 49.6714 186.515 49.5807 186.788 49.5807C186.515 49.3084 186.334 49.1269 186.061 49.1269C185.789 49.0362 185.608 48.9454 184.882 48.9454C183.974 49.0362 183.883 49.0362 183.43 49.3084C182.703 49.853 182.068 50.4883 181.524 51.1236C180.435 52.2126 179.436 53.4832 178.529 54.8446C178.529 54.9353 178.529 54.8446 178.438 54.9353C178.529 54.7538 178.529 54.6631 178.529 54.5723C178.71 53.937 178.982 53.3925 179.164 52.7572C179.345 52.1219 179.345 51.6681 179.436 51.0328C179.527 50.3067 179.618 49.6714 179.799 48.9454C179.799 48.8546 179.799 48.8546 179.708 48.7639C179.073 47.8563 178.256 47.0395 177.077 46.9487C176.532 46.858 176.35 47.0395 176.26 47.6748C176.169 48.2193 176.078 48.7639 176.35 49.0362C176.441 49.0362 176.441 49.2177 176.441 49.3084C176.26 50.3975 176.169 51.3958 175.897 52.4849C175.534 54.1185 174.989 55.7522 174.535 57.295C174.172 58.9286 173.991 60.3808 173.719 61.9236C173.537 62.6497 174.082 63.5572 174.626 63.648C174.898 63.4665 174.263 62.9219 174.898 62.8312C174.989 62.9219 174.989 63.1035 175.08 63.285C174.989 63.648 174.898 64.011 175.443 64.1925ZM179.89 53.8463C179.89 53.6648 179.799 53.6647 179.799 53.6647L181.161 51.9404L182.25 50.7605C182.613 50.3975 183.066 50.3975 183.702 50.4883C183.43 50.6698 183.248 50.942 183.157 51.0328C183.157 51.1236 182.976 51.0328 182.885 50.942C182.613 51.2143 182.25 51.3958 182.431 51.9404C182.431 51.9404 182.34 52.1219 182.25 52.1219C181.796 51.9404 181.524 52.3942 181.342 52.6664C181.342 52.7572 181.251 52.7572 181.07 52.8479C181.161 52.9387 181.251 52.9387 181.342 53.1202C180.979 53.3017 180.798 53.4832 180.435 53.6647L180.344 53.574C180.525 53.3925 180.616 53.211 180.707 52.9387C180.707 52.9387 180.798 52.8479 180.707 52.8479L179.89 53.8463ZM181.977 54.1185C181.887 53.937 181.887 53.8463 181.887 53.574C181.977 53.574 182.25 53.4832 182.431 53.3925C182.068 52.7572 182.794 52.7572 182.885 52.4849C182.976 52.6664 183.157 52.7572 183.157 53.1202H182.885C182.885 53.8463 182.25 53.6647 181.977 54.1185ZM196.771 56.4782C196.68 56.4782 196.68 56.4782 196.589 56.3875C197.225 55.6614 197.86 55.0261 198.586 54.3C198.677 54.3 198.767 54.3908 198.767 54.3908C198.586 54.7538 198.314 54.9353 198.041 55.2076C197.678 55.6614 197.406 55.9337 196.952 56.2967C196.952 56.3875 196.862 56.4782 196.771 56.4782Z" fill="white"/>
<path d="M65.4356 82.6661C67.7542 81.9283 69.3352 80.5582 70.8107 78.7665C71.0215 78.5557 71.3377 78.0287 71.1269 77.5017C70.3891 78.2395 69.9675 78.6611 69.3352 79.0827C67.5434 80.4528 65.8571 80.6636 63.3276 80.5582C58.7957 79.8204 55.1068 77.9233 52.1558 74.3399C49.9425 71.2834 47.94 67.8054 46.3591 64.3274C46.2537 64.0112 46.0429 63.4842 45.9375 63.0626C46.0429 63.0626 46.0429 63.0626 46.0429 62.9572C45.6213 62.1141 45.1997 61.1655 44.6727 60.3224C44.3566 59.69 44.1458 59.3738 44.4619 58.8468C43.935 58.2145 43.6188 57.6875 43.5134 57.1605C43.7242 55.7904 42.881 54.631 42.354 53.3663C45.3051 52.4177 48.0454 51.0476 50.5749 49.8883C53.2097 48.7289 55.3176 47.2534 57.6363 45.2509C59.8496 43.3538 62.1683 41.0351 63.5384 38.1894C64.2762 36.7139 65.014 35.2383 65.4356 33.6574C66.1733 30.2848 66.1733 27.4391 65.2248 24.3827C64.5924 22.4856 63.96 21.01 62.9061 19.7453C60.9036 17.1104 58.4795 15.5295 55.95 14.1593C54.1583 13.3162 52.2612 13 50.3641 13C47.6238 13 44.8835 13 42.1433 13.4216C38.6652 13.8432 35.398 14.8971 32.3415 16.5834C29.3905 18.1644 26.6502 20.0615 24.0153 22.1694C21.6966 24.0665 19.3779 26.2798 17.27 28.7039C16.6377 29.6524 16.0053 30.4956 15.5837 31.5495C15.2675 32.3927 14.8459 33.552 15.0567 34.3952C15.2675 35.9761 16.0053 37.0301 16.4269 38.4002C16.7431 38.7164 17.6916 39.0326 17.9024 38.7164C18.9564 37.8732 19.5887 37.1355 19.2725 36.0815C19.1671 34.1844 19.6941 32.9197 20.5373 31.5495C21.4858 30.1794 22.329 29.1254 23.2775 27.8607C25.1747 25.2258 27.5987 23.5395 30.0228 21.6424C30.2336 21.537 30.5498 21.537 30.6552 21.4316C33.0793 20.3777 35.1872 18.6913 37.5059 17.9536C37.8221 17.9536 37.9275 17.7428 38.2436 17.532C38.9814 17.4266 39.403 17.005 40.2461 16.8996C42.0379 16.0565 44.0404 15.9511 46.1483 15.8457C47.7292 15.4241 49.4155 15.3187 50.9964 15.3187C54.0529 15.3187 56.7932 15.9511 59.0065 18.1644C61.1144 20.1669 62.3791 22.3802 63.0115 25.1204C63.7492 29.6524 62.5899 33.552 60.2712 37.1355C59.5334 38.7164 57.9525 39.9811 57.1093 41.6674C57.1093 41.7728 57.0039 41.9836 56.8986 41.9836C55.95 42.089 55.6338 43.143 55.1068 43.7753C54.5799 44.3023 54.1583 44.8293 53.4205 45.2509C52.1558 45.9886 50.9964 47.0426 49.9425 47.8857C49.4155 48.0965 48.6777 48.6235 48.1508 48.8343C47.7292 49.1505 47.3076 49.2559 46.9914 49.4667C45.5159 50.8368 43.6188 51.68 41.5109 52.2069C41.0893 51.7854 40.4569 51.68 39.8246 51.5746C38.7706 51.2584 37.6113 51.8908 36.9789 52.8393C36.7681 53.2609 36.5573 53.6825 36.5573 54.2094C36.4519 54.5256 36.4519 54.9472 36.4519 55.158C37.7167 58.5306 39.0868 62.0087 41.0893 65.1705C41.1947 65.2759 41.3001 65.8029 41.3001 66.2245C42.2486 67.9108 42.9864 69.5971 43.935 71.178C45.9375 74.4453 48.0454 77.2909 50.9964 79.6096C55.3176 82.6661 60.1658 84.0362 65.4356 82.6661ZM26.6502 77.5017C24.5423 74.5507 24.5423 71.3888 25.3854 68.0162C26.0178 65.8029 26.4394 63.3788 26.9664 61.4817C27.1772 60.217 27.388 59.2684 27.9149 58.3199C28.6527 56.212 29.3905 54.5256 30.2336 52.6285C32.4469 48.0965 34.6602 43.5646 36.5573 39.138C38.0329 36.2923 39.2976 33.7628 40.5623 30.8118C41.1947 29.8632 41.5109 28.7039 42.0379 27.7553C42.354 27.1229 42.354 26.2798 42.4594 25.542C42.4594 24.3827 41.4055 23.2233 40.3515 23.2233C38.2436 23.1179 36.1357 23.3287 34.344 24.0665C33.7117 25.7528 34.2386 26.9121 34.6602 27.9661C34.344 29.2308 34.344 29.7578 33.817 30.601C32.7631 33.7628 31.4984 36.6085 30.4444 39.5595C29.812 40.9297 29.4959 41.9836 28.8635 43.0376C28.2311 43.9861 27.5987 44.6185 28.1257 46.094C27.8095 47.5696 27.2826 48.7289 26.334 50.099C26.334 51.3638 25.3854 52.8393 24.7531 54.104V53.9987C24.4369 56.1066 23.4883 58.0037 22.7506 59.7954C22.5398 60.3224 22.4344 60.5331 22.5398 60.9547C22.5398 62.4303 22.2236 63.8004 21.3804 64.9597C20.7481 65.5921 20.7481 65.5921 20.8535 67.0676C20.9589 67.0676 21.275 66.8568 21.5912 66.7514C21.5912 66.6461 21.5912 66.4353 21.4858 66.2245C21.5912 66.4353 21.5912 66.5407 21.5912 66.7514C21.5912 67.3838 21.4858 67.9108 21.3804 68.4378C21.1696 68.6486 20.7481 68.9647 20.3265 69.0701C20.4319 69.7025 20.5373 70.2295 20.5373 70.6511C20.5373 72.4428 21.275 74.2345 21.9074 75.9208C23.9099 80.1366 26.9664 78.4503 26.6502 77.5017ZM32.4469 43.7753C32.3415 43.7753 32.3415 43.6699 32.0253 43.6699C32.3415 41.7728 33.1847 40.2973 34.344 38.9272C33.7117 40.6135 33.2901 42.1944 32.8685 43.6699C32.7631 43.7753 32.7631 43.7753 32.4469 43.7753ZM32.0253 45.1455C32.0253 45.1455 31.4984 44.7239 31.2876 44.6185C31.4984 44.4077 31.6038 44.4077 31.8145 44.4077C31.8145 44.4077 32.0253 44.4077 32.2361 44.3023C32.0253 44.5131 32.0253 44.7239 32.0253 45.1455ZM29.1797 49.8883C28.9689 48.5181 29.6012 47.2534 29.9174 46.1994C30.2336 45.8832 30.9714 45.5671 31.393 46.094C31.393 46.621 31.0768 46.8318 30.9714 47.148C30.6552 47.4642 30.7606 47.7804 30.6552 47.9911C30.2336 48.4127 30.0228 48.7289 30.0228 49.1505C29.7066 49.3613 29.4959 49.6775 29.1797 49.8883ZM52.472 47.7804C52.9989 47.148 53.4205 46.8318 54.1583 46.1994C53.7367 47.148 53.6313 47.7804 52.472 47.7804ZM49.2047 49.2559C49.6263 48.7289 50.1533 48.6235 50.891 48.4127C50.6802 49.4667 49.9425 49.1505 49.2047 49.2559ZM27.5987 53.2609C26.7556 52.4177 27.8095 52.4177 27.7041 51.7854C27.5987 51.4692 27.5987 51.153 27.7041 50.626C27.9149 49.9936 28.4419 49.9936 29.0743 49.8883C28.9689 50.7314 28.8635 51.5746 28.4419 52.4177C28.3365 52.7339 27.8095 52.8393 27.5987 53.2609ZM27.0718 55.2634V55.158C26.861 54.9472 26.4394 54.631 26.861 54.2094H27.0718C27.7041 54.4202 27.388 55.0526 27.0718 55.2634ZM25.807 56.9497C25.807 55.8958 26.0178 55.2634 27.0718 55.3688C26.5448 56.3173 26.5448 56.3173 25.807 56.9497ZM25.9124 61.5871C25.9124 61.5871 25.807 61.4817 25.807 61.3763C25.807 61.0601 25.9124 60.9547 25.9124 60.8493C26.1232 60.9547 26.2286 61.0601 26.2286 61.3763L25.9124 61.5871ZM23.8045 63.3788C23.6991 63.2734 23.2775 63.168 23.2775 63.0626C23.2775 63.0626 23.4883 62.9572 23.5937 62.7464C23.6991 62.8518 23.6991 62.9572 23.9099 62.9572C23.8045 63.0626 23.6991 63.168 23.8045 63.3788Z" fill="white"/>
</g>
<defs>
<filter id="filter0_d" x="0" y="0" width="233.248" height="102" filterUnits="userSpaceOnUse" color-interpolation-filters="sRGB">
<feFlood flood-opacity="0" result="BackgroundImageFix"/>
<feColorMatrix in="SourceAlpha" type="matrix" values="0 0 0 0 0 0 0 0 0 0 0 0 0 0 0 0 0 0 127 0"/>
<feOffset dy="2"/>
<feGaussianBlur stdDeviation="7.5"/>
<feColorMatrix type="matrix" values="0 0 0 0 0 0 0 0 0 0 0 0 0 0 0 0 0 0 0.15 0"/>
<feBlend mode="normal" in2="BackgroundImageFix" result="effect1_dropShadow"/>
<feBlend mode="normal" in="SourceGraphic" in2="effect1_dropShadow" result="shape"/>
</filter>
</defs>
</svg>
