<svg width="200" height="95" viewBox="0 0 200 95" fill="none" xmlns="http://www.w3.org/2000/svg">
<path d="M43.9323 32.1931C43.6809 31.1245 43.4294 30.3073 43.178 29.3645C43.0523 28.9873 42.9266 28.6101 42.738 28.4844C42.1723 27.9816 41.7951 27.4158 41.5437 26.6615C41.3551 26.4729 41.1665 26.4101 40.9779 26.2215C39.9093 25.1529 38.5264 24.21 37.0178 23.7072C34.1892 22.6386 31.2977 22.5757 28.5319 23.0157C25.6404 23.4557 22.8746 24.3986 20.2345 25.7186C18.1602 26.7244 16.2115 27.9816 14.3258 29.4273C13.6972 29.7416 13.1943 30.3702 12.6914 30.8731C11.7486 31.9417 11.8114 33.1988 12.6286 34.2046C12.88 34.456 13.1315 34.5189 13.4458 34.3303L14.9544 32.696L15.9601 31.9417C16.3373 31.5017 16.7773 31.3131 17.2173 30.9988C18.5373 29.9302 19.9831 29.3016 21.4917 28.5473C21.6174 28.4216 21.7431 28.4216 22.1831 28.2959C21.5545 29.9302 21.0517 31.3131 20.6117 32.8217C19.5431 36.0904 18.4116 39.4219 17.343 42.7534C16.4001 46.1478 15.7715 49.605 15.2058 53.2508C15.0172 54.948 15.0801 56.6452 15.8344 58.3424C16.2115 59.411 16.6516 60.3539 17.5944 60.9196C17.9087 61.1082 18.1602 61.2968 18.4745 61.1082C18.6002 61.1082 18.663 60.9825 18.7259 60.8568L18.663 60.6053C18.4116 60.4167 18.4116 59.9767 18.1602 59.5996C17.8459 58.6567 17.5944 57.6509 17.5944 56.5195C17.5316 55.2623 17.7202 54.1309 17.8459 52.8108C18.223 49.7307 19.0402 46.7764 19.7316 43.7591C19.8574 43.1934 20.1088 42.5648 20.6117 42.1877C20.8002 42.4391 20.9888 42.7534 21.2403 43.0677C22.3089 44.7649 23.7546 45.6449 25.5775 46.0221C26.4575 46.2106 27.4633 46.0849 28.4062 46.0849C30.1034 46.0221 31.6748 45.3306 33.3092 44.7649C34.5663 44.0734 35.8235 43.382 37.0807 42.6277C38.1493 42.1248 38.9665 41.4962 39.9722 40.4905C40.7894 39.799 41.6694 38.6676 42.5494 38.1647C42.8637 38.039 43.0523 37.599 43.0523 37.2847C42.9894 36.6561 43.3666 36.0275 43.5552 35.4618C43.8694 34.5817 44.1209 32.7588 43.9323 32.1931ZM28.029 23.9586C28.6576 24.0843 29.1605 24.0215 29.7262 23.77C30.1662 23.5186 30.5434 23.5186 30.9834 23.5186C31.6748 23.7072 32.4291 23.6443 33.0577 23.6443C34.5663 23.6443 35.8864 23.9586 37.2693 24.3986C37.5207 24.65 33.9377 23.9586 32.492 24.2729C31.5491 24.5872 30.7319 24.7129 29.7891 24.8386C28.5947 25.0272 27.3376 24.9643 26.2061 25.7815C25.6404 25.4672 25.1375 25.0901 24.5718 24.7758C25.7032 24.0843 26.9604 23.77 28.029 23.9586ZM40.9779 35.3989C40.4122 36.2789 39.7208 37.0332 38.8407 37.7247C37.3321 39.0447 35.6349 40.1133 33.9377 40.8676C31.6748 41.9991 29.349 42.8163 27.0233 43.1306C25.5147 43.3191 24.006 43.0677 22.6231 42.1877C22.3089 41.9991 21.9946 41.8105 21.6803 41.5591C21.4288 41.3076 21.2403 40.8676 21.4288 40.4276V39.9247C21.2403 39.359 21.366 38.919 21.5545 38.4161C21.8688 37.5361 22.1831 36.6561 22.5603 35.7132C23.4403 33.3874 24.3203 31.0616 25.3261 28.7987C25.5775 27.9816 25.829 27.2901 26.2061 26.2215C27.9033 25.9072 29.6005 25.5301 31.2348 25.3415C32.5548 25.2786 33.812 25.1529 35.1321 25.4672C36.5778 25.7186 38.0236 26.0329 39.3436 26.7244C39.7836 27.0387 40.0351 27.2273 40.3493 27.4158C41.1037 27.9187 41.6694 28.7359 41.9208 29.7416C42.4237 31.9417 42.1723 33.7646 40.9779 35.3989ZM22.0574 27.2901C21.2403 27.5415 20.5488 27.9187 19.7316 28.4844C19.6688 28.6101 19.5431 28.673 19.4802 28.7359C18.9773 28.8616 18.4745 28.8616 18.0345 29.0502C17.5316 29.3016 17.0287 29.6159 16.6516 29.8045C16.023 30.2445 15.1429 30.3073 14.4515 30.3702C15.0172 29.4902 15.0172 29.4902 16.5887 28.7987C16.7144 28.7359 16.903 28.673 17.0287 28.5473C17.343 28.2959 17.7202 27.9816 18.0345 27.793C18.1602 27.6673 18.3487 27.6044 18.5373 27.6673C18.223 27.9187 17.9716 28.233 17.5944 28.6101C17.8459 28.5473 18.0973 28.5473 18.2859 28.4844C18.7259 28.0444 19.1659 27.7301 19.6688 27.4158C19.6059 27.4158 19.5431 27.353 19.4802 27.353L19.6688 27.1644C19.7945 26.9758 20.1088 26.9758 20.2974 27.0387C20.4859 26.8501 20.5488 26.6615 20.6745 26.5358C20.8631 26.4729 20.9888 26.3472 21.2403 26.2215V26.5358C21.6803 26.5987 22.0574 26.3472 22.4974 25.9701C23.0003 26.0958 23.0003 25.4672 23.3146 25.4043C23.126 26.4729 22.8117 27.0387 22.0574 27.2901ZM19.4802 38.9819C18.7259 41.0562 18.1602 43.1934 17.5944 45.3306C16.9659 47.3421 16.6516 49.4793 16.2744 51.5536L15.8972 53.2508C15.8972 52.748 15.8344 52.1822 15.9601 51.6165C16.4001 48.5364 16.9659 45.3306 17.9716 42.2505C18.9145 39.0447 19.9202 35.9018 21.0517 32.7588C21.4917 31.7531 21.9946 30.6845 22.3717 29.553C22.4974 29.6159 22.4974 29.6159 22.5603 29.6159C22.3089 30.4331 22.0574 31.0616 21.806 31.9417C20.9888 34.2674 20.2345 36.6561 19.4802 38.9819ZM34.9435 41.7477C33.2463 42.6277 31.3605 43.4448 29.6005 44.0734C28.9719 44.3877 28.2176 44.5763 27.4004 44.262C28.5947 43.6334 29.6633 43.6963 30.7319 43.1934C31.6748 42.6277 32.7434 42.2505 33.7492 41.8105C34.8806 41.3705 35.8235 40.6791 36.8921 40.1762C36.3892 40.9933 35.5721 41.3705 34.9435 41.7477Z" fill="white"/>
<path d="M55.597 49.2907C55.7228 49.2279 55.7856 49.165 55.9742 49.1021C55.6599 48.9764 55.3456 48.9136 55.157 48.7878C55.4085 48.5364 55.7228 48.285 55.9742 48.0964C56.0371 48.0335 56.0371 48.0335 55.9742 47.9707C55.8485 48.0335 55.6599 48.0964 55.4713 48.0964C55.5342 48.0335 55.4713 47.9707 55.4085 47.9078C55.4713 47.845 55.597 47.7192 55.6599 47.5935C55.6599 47.5935 55.6599 47.5935 55.597 47.5307L55.4085 47.6564C54.7799 48.0335 54.0256 48.4107 53.3341 48.8507C53.0198 49.0393 52.7055 49.0393 52.3912 49.165C51.8884 49.3536 51.3855 49.605 50.9455 49.7936C50.3798 49.9822 49.814 50.2336 49.2483 50.2965C48.4311 50.4222 47.614 50.3593 46.7968 50.4222C46.2939 50.2336 46.1682 50.1079 45.9168 49.3536C46.3568 49.1021 46.5454 49.0393 47.0482 48.7878C47.174 48.6621 47.2997 48.4736 47.4882 48.4107C47.8654 48.1593 48.3683 47.9707 48.8083 47.7192C48.8711 47.6564 48.8711 47.4678 48.934 47.405C49.1854 47.2792 49.374 47.2164 49.5626 47.0907C49.5626 47.0907 49.4997 47.0278 49.374 47.0278L49.814 46.7764C50.0655 46.6506 50.5055 46.5878 50.5683 46.1478C50.6312 45.9592 51.0083 45.8963 51.1969 45.7078C51.7626 45.142 52.3284 44.5763 52.8941 43.9477C53.0827 43.7591 53.2713 43.4448 53.397 43.1306C53.5856 42.6277 53.2713 41.5591 52.7684 41.2448C52.3284 40.8676 51.8255 40.4905 51.2598 40.239C50.8198 39.9876 50.254 39.5476 49.6255 39.799C49.374 39.8619 49.1854 39.9247 48.9969 39.9247C48.1797 39.9876 47.4882 40.3648 46.9225 40.9305C46.3568 41.5591 45.7911 42.1877 45.2253 42.8791C44.911 43.2563 44.6596 43.6334 44.4082 44.0106C43.7796 45.2049 43.4653 46.3992 43.4024 47.6564C43.4024 48.0964 43.3396 48.5364 43.6539 49.2907C43.7796 49.9193 43.7796 49.9193 43.9053 50.045C44.2824 50.6108 44.5339 50.9879 44.9739 51.3022C45.0368 51.3651 45.2253 51.4279 45.2882 51.5536C45.9168 52.0565 46.1682 52.1194 46.7339 52.3079C47.2997 52.4965 47.9911 52.6222 48.6197 52.6851C49.1226 52.748 49.5626 52.6222 50.0655 52.4965C50.3798 52.4337 50.7569 52.3708 51.0083 52.2451C51.1969 52.1194 51.3226 52.0565 51.5741 52.0565C52.0141 51.9936 52.4541 51.9937 52.8313 51.8051C53.4598 51.5536 53.9627 51.1136 54.5284 50.7993C54.9685 50.485 55.3456 50.2336 55.8485 49.9822L57.0428 49.0393C57.2942 48.8507 57.6085 48.5993 57.86 48.3478C57.9228 48.285 57.9228 48.1593 57.9857 48.0335C57.1685 48.4736 56.4771 49.165 55.6599 49.4164C55.6599 49.4164 55.597 49.3536 55.597 49.2907ZM46.2939 45.5192C46.6711 44.7649 47.1111 44.0106 47.614 43.3191C48.054 42.7534 48.6197 42.4391 49.1854 41.9991C49.6883 41.6219 50.254 41.6219 50.8198 41.3705C51.0712 41.2448 51.3855 41.8105 51.1969 42.1248C50.9455 42.5648 50.694 42.942 50.3169 43.2563C49.7512 43.822 49.2483 44.262 48.6197 44.7649C48.6197 44.8277 48.6197 44.8906 48.5569 44.9535C48.8083 44.8277 48.9969 44.702 49.1854 44.5763C49.4369 44.4506 49.5626 44.3249 49.6883 44.1992L49.814 44.3249C49.2483 44.702 48.7454 45.142 48.1797 45.5192C48.1168 45.5192 48.1168 45.4563 48.1168 45.4563C48.2426 45.2677 48.4311 45.142 48.5569 44.9535C48.1168 44.9535 47.9283 45.3306 47.5511 45.6449C47.7397 45.6449 47.8025 45.582 47.9911 45.582C47.7397 45.8335 47.4254 46.0221 47.2368 46.1478C47.174 46.2106 47.0482 46.1478 46.9225 46.1478C46.6711 46.3363 46.3568 46.5249 45.8539 46.8392C45.9796 46.3363 46.1054 45.8963 46.2939 45.5192ZM51.8884 41.9362L52.0769 42.4391C51.8884 42.8163 51.5741 43.2563 51.3855 43.6334C51.1969 42.942 51.4484 42.4391 51.8884 41.9362ZM60.5629 45.0163C60.7515 44.8906 60.8772 44.702 61.0658 44.5763C61.0658 44.5134 61.0029 44.5134 61.0029 44.5134L60.8772 44.0734L59.8086 44.7649H59.9343L60.1857 44.5763L60.2486 44.6392L59.9343 44.8906C59.9343 44.9535 59.9972 45.0163 60.06 45.142C59.7457 45.2049 59.5571 45.2049 59.3686 45.2049L59.3057 45.2677C59.4314 45.3306 59.4943 45.3306 59.5571 45.3935C59.4314 45.5192 59.3057 45.6449 59.18 45.8335L58.74 45.6449C58.5514 45.8335 57.86 46.1478 57.7342 46.2735C57.3571 46.9649 56.3513 47.5307 55.9113 47.7821C56.0999 47.845 56.2885 47.9078 56.3513 47.9707C56.8542 47.5307 57.4199 47.2164 57.86 46.8392C58.1114 47.2164 57.9857 47.405 57.7342 47.4678L57.2942 47.7192C56.8542 47.9707 56.4771 48.4107 55.9113 48.285C55.9113 48.285 55.8485 48.3478 55.8485 48.4107C55.8485 48.4736 55.8485 48.5993 55.9113 48.725C56.0371 48.7878 56.1628 48.9136 56.2885 48.8507C56.6028 48.725 56.8542 48.5364 57.0428 48.4107C57.3571 48.1593 57.6085 47.7192 58.0485 47.7192C58.1114 47.7192 58.1114 47.6564 58.1114 47.6564C58.1743 47.2164 58.5514 47.2164 58.8028 47.0278C58.6143 46.8392 58.74 46.7135 58.9914 46.5878L58.9286 46.3364C59.2429 46.1478 59.4943 45.9592 59.62 45.8335C59.62 45.8335 59.5571 45.7706 59.5571 45.7078C59.5571 45.7078 59.4943 45.7078 59.4943 45.7706V45.7078C59.8086 45.4563 60.1857 45.2677 60.5629 45.0163ZM55.7856 47.4678C57.0428 46.8392 57.4199 46.7135 57.4828 46.3992C56.8542 46.7764 56.2885 47.0278 55.7228 47.405C55.7228 47.405 55.7228 47.4678 55.7856 47.4678ZM54.1513 48.7878C54.5913 48.2221 55.157 48.0335 55.2199 48.2221C54.9056 48.4107 54.5913 48.5993 54.1513 48.7878Z" fill="white"/>
<path d="M74.0574 31.5645L73.0517 30.4331C72.926 30.2445 72.8002 29.993 72.4859 29.8673C71.8573 29.4902 70.8516 29.1759 69.2173 28.7359H69.4687C69.8459 28.1701 69.9716 27.4787 70.223 26.913C70.6002 26.0958 71.0402 25.2786 71.2288 24.5243C71.8574 23.4557 72.3602 22.3243 72.8631 21.1299C73.0517 20.6899 73.2402 20.3756 72.7374 20.0613C72.6117 19.8728 72.3602 19.747 72.2974 19.5585C72.2345 19.0556 71.6688 18.9299 71.1659 18.6156C71.0402 18.5527 70.9145 18.5527 70.8516 18.427C70.6002 18.3642 70.4116 18.427 70.2859 18.8042C70.1602 19.2442 69.9087 19.8728 69.783 20.3128C69.5944 20.6271 69.4059 20.7528 69.4059 21.0042C69.0287 21.7585 68.903 22.45 68.5887 23.1414C68.4001 23.8957 68.023 24.5872 67.8344 25.2158C67.583 25.8444 67.3315 26.4101 67.1429 27.0387C66.9544 27.353 66.8286 27.6044 66.7658 27.9187L66.3886 27.793C65.5086 27.6044 64.7543 27.4787 63.3714 27.1644C62.8057 27.1644 62.1142 27.2273 61.9257 27.7301C61.8628 27.9187 61.8628 28.4216 62.0514 28.6101C62.2399 29.113 62.4285 29.0502 62.4285 29.0502C62.5542 29.113 62.68 29.113 62.7428 29.1759C62.9943 29.4273 63.3714 29.7416 63.6857 29.6788L64.7543 29.8673C65.1315 29.993 65.5086 30.1188 65.8229 30.2445L65.6343 30.7474L64.88 33.0103L62.8685 39.2962C62.9314 39.359 62.9314 39.4847 62.9943 39.5476H62.8685C62.7428 39.8619 62.5542 40.0505 62.5542 40.3019C62.3028 41.1191 62.3028 41.8105 62.0514 42.502L61.6114 44.262C61.4856 45.0163 61.2342 45.7706 61.2971 46.5249C61.1713 47.845 60.9828 49.1021 61.2342 50.3593C61.4856 51.6165 61.7371 52.8737 62.4285 53.8794C62.5542 54.0051 62.68 54.1309 62.8057 54.3194C63.3085 54.8852 63.56 55.2623 64.1257 55.4509C65.0057 56.0166 65.1943 55.9538 66.1372 55.8909H66.0115C66.3886 55.8909 66.5143 55.828 66.6401 55.6395C66.9544 55.1366 67.5201 54.7594 67.3315 54.1309C67.3315 54.1309 66.5772 54.508 66.0743 54.4451C65.5086 54.508 65.4458 54.4451 64.88 54.1309L64.44 53.628C64.3143 53.5023 64.0629 53.2508 64.0629 52.8108C63.9371 52.3708 63.8114 51.9308 63.8743 51.4908C63.8743 51.2393 63.8743 51.0508 63.6228 50.9879C63.8743 50.8622 63.6857 50.7993 63.56 50.6736C63.8743 50.6108 63.8114 49.4793 63.56 49.165C63.6857 48.9764 63.8114 48.725 63.8743 48.5364C63.7486 48.4736 63.6857 48.4107 63.7486 48.4107C63.8114 48.3478 63.8743 48.2221 63.8743 48.0964C63.8743 47.5935 63.9371 47.1535 64.1257 46.5878C64.0629 46.3992 64.1257 46.0849 64.1886 45.8335C64.1886 45.6449 64.3772 45.3935 64.3772 45.2677C64.3772 44.9535 64.5657 44.5763 64.3772 44.262C64.5029 44.0734 64.6914 43.8849 64.7543 43.6963C64.8172 43.0048 65.0686 42.3134 65.2572 41.6219C65.2572 41.2448 65.4457 40.8676 65.6343 40.4905C65.6972 39.9247 66.0115 39.2962 66.1372 38.6676C66.2001 38.4161 66.3258 38.1647 66.4515 37.8504C66.5772 37.4733 66.5143 37.0961 66.7029 36.6561C66.7029 36.5304 66.6401 36.4046 66.7029 36.4046C67.0801 36.2789 67.0172 36.0275 66.9544 35.9018C66.8915 35.7761 67.0172 35.6503 67.0172 35.5246C67.2687 35.2732 67.4572 34.8332 67.3944 34.5817C67.5201 34.3932 67.6458 34.2674 67.583 34.1417C67.4572 33.8903 67.7087 33.3874 67.9601 33.2617L68.6516 31.1245C68.6516 31.0616 68.6516 30.9359 68.7144 30.8102C69.343 30.9359 69.5316 30.9359 69.7201 31.0616C70.663 31.1245 72.9888 31.6902 73.4288 32.3817C73.4917 32.5703 73.9317 32.6331 74.1203 32.6331C74.4974 31.9417 74.1203 32.0045 74.0574 31.5645ZM66.7029 33.7646C66.6401 34.5189 66.2629 35.2103 66.1372 35.9018C66.0115 36.4046 65.4457 36.9075 65.5715 37.4733C65.6343 37.5361 65.5086 37.6618 65.4458 37.7875C65.76 37.8504 65.6972 38.1018 65.6343 38.3533C65.5715 38.6047 65.4458 38.919 65.4458 39.2333C65.32 39.1076 65.2572 39.0447 65.1315 38.9819C65.0686 39.2962 64.88 39.5476 64.7543 39.8619H65.0686C65.0057 40.0505 65.0057 40.1133 65.0057 40.3019L64.7543 39.9247C64.6914 40.1133 64.6914 40.239 64.6286 40.3648C64.5657 40.4905 64.6286 40.6162 64.6286 40.8048L64.3772 40.8676C64.44 41.1191 64.5657 41.3076 64.2514 41.4334V41.6219C64.1886 41.9991 64.1257 42.3762 64 42.6905C63.9371 42.7534 63.8743 42.8163 63.7486 43.0048C63.8114 43.1306 64.3772 43.1306 64.1257 43.4448C64.0629 43.3191 63.8743 43.2563 63.7486 43.1306C63.7486 43.3191 63.7486 43.382 63.6857 43.5077C63.8743 43.5077 64 43.6963 64.0629 43.7591C64.0629 43.822 64 43.822 63.8114 43.8849C63.6857 43.9477 63.6228 44.0106 63.56 44.0734C63.4343 44.702 63.3086 45.3306 63.0571 46.0221C63.0571 46.2106 63.12 46.3992 63.1828 46.5878H62.9314C62.8057 46.1478 62.9314 45.7078 63.0571 45.3306C63.12 44.7649 63.2457 44.262 63.4971 43.6334C63.4971 43.5706 63.6228 43.5077 63.6857 43.5077C63.6857 43.4448 63.56 43.4448 63.4971 43.4448C63.4343 43.2563 63.4971 43.1305 63.56 42.8791C63.6857 42.502 63.7486 42.1248 63.9371 41.8105C64 41.0562 64.3143 40.3648 64.5657 39.7362C64.5657 39.6105 64.5029 39.5476 64.5029 39.4219C64.44 39.7362 63.8743 39.7362 64 40.1133C64.0629 40.1133 64.1257 40.1762 64.1257 40.1762C63.8114 40.3648 63.8114 40.3648 64.1257 40.4905C64.0629 40.5533 63.8743 40.6162 63.7486 40.6791C63.7486 40.8676 63.8743 40.9305 63.8743 41.0562H63.7486C63.6857 41.4962 63.4971 41.9362 63.3714 42.3762C63.3085 42.4391 63.3714 42.6277 63.3714 42.6905C63.1828 43.0048 63.12 43.382 63.0571 43.6334C63.0571 43.6963 62.9943 43.7591 62.9943 43.7591C62.8057 44.262 62.8057 44.7649 62.8057 45.2677C62.7428 45.3306 62.68 45.3306 62.6171 45.5192C62.6171 45.582 62.68 45.6449 62.7428 45.6449C62.4914 45.7706 62.3657 45.8963 62.4914 46.0849C62.6171 46.2735 62.4914 46.4621 62.5542 46.5878C62.5542 46.7764 62.4914 46.9649 62.4285 47.1535C62.4285 47.3421 62.3028 47.7192 62.3028 47.9707C62.3028 48.4736 62.2399 48.9764 62.2399 49.5422C62.3028 50.045 62.2399 50.485 62.2399 50.9879C62.1771 50.9879 62.1771 50.9879 62.1142 51.0508C62.0514 50.9879 61.9257 50.8622 61.9257 50.7365C62.1142 50.2965 62.1771 49.8564 61.8628 49.4164C61.7999 49.2279 61.9257 49.1021 61.9257 48.9764C61.9257 48.6621 61.8628 48.2221 61.9257 47.9707C62.0514 47.5307 61.8628 47.0907 62.3028 46.8392C62.2399 46.7764 62.1771 46.7764 62.1771 46.7135C62.1142 46.5249 61.9885 46.2106 62.0514 46.1478C62.2399 46.0221 62.0514 45.8963 62.1142 45.7706C62.1142 45.7078 62.0514 45.6449 62.0514 45.6449C62.2399 45.2049 62.2399 44.7649 62.4285 44.262C62.4285 44.1992 62.4914 44.0106 62.7428 43.8849L62.6171 43.6334C62.68 43.5077 62.8685 43.5077 62.68 43.1306C62.5542 43.1306 62.68 43.0677 62.68 43.0048C63.0571 42.6277 63.1828 42.1248 63.12 41.6219C63.0571 41.3705 63.1828 41.1191 63.3714 40.8048C63.4971 40.6162 63.6228 40.4905 63.56 40.3019C63.6228 39.9876 63.6228 39.6105 63.8114 39.359C64.0629 39.0447 63.8743 38.7933 64.0629 38.479C64.3143 38.039 64.5029 37.599 64.5029 37.159C64.8172 36.6561 64.9429 36.0904 65.1943 35.5875C65.1943 35.2103 65.3829 34.896 65.6343 34.5189C65.6343 34.2046 65.8229 33.6389 65.9486 33.1988L66.2001 32.8217C66.4515 32.3817 66.4515 32.0674 66.5772 31.6274H66.8286C66.7029 31.2502 66.9544 30.8731 67.0172 30.5588C67.0172 30.5588 67.0801 30.4959 67.0801 30.4331L67.3944 30.4959C67.2687 31.1245 67.0801 31.816 66.5772 32.3188C66.7029 32.256 66.7658 32.256 66.8286 32.256L66.2629 33.0731L66.0115 33.7646V34.3303C66.0115 34.5189 66.0115 34.5189 65.8858 34.6446C65.6972 34.896 65.6343 35.0846 65.5715 35.336C65.4457 35.9646 65.2572 36.4675 64.9429 37.0961C64.9429 37.0961 64.6914 37.4104 64.8172 37.5361C64.88 38.039 64.2514 38.3533 64.44 38.919C64.5657 38.9819 64.5029 39.1076 64.5029 39.2962C64.5029 39.359 64.5657 39.359 64.6286 39.4219C65.32 37.4104 65.8858 35.0218 66.5772 33.136C66.7658 33.0103 66.8286 32.8846 66.8915 32.7588L67.2687 32.1931C67.2058 32.5703 66.7029 33.7646 66.7029 33.7646ZM67.3315 32.0674H67.2687L67.5201 31.2502C67.6458 31.1874 67.7087 31.1874 67.7087 31.1245C67.7715 31.1874 67.8344 31.1874 67.8344 31.3131L67.3315 32.0674ZM61.6114 49.1021C61.2342 48.8507 61.4856 48.4107 61.5485 48.0964C61.5485 47.9078 61.4228 47.6564 61.5485 47.4678C61.5485 46.9021 61.6114 46.4621 61.5485 46.0221C61.7371 45.4563 61.6742 44.9535 61.7999 44.4506C61.9885 43.6963 62.1771 42.942 62.4285 42.1877C62.5542 41.4962 62.7428 40.8676 62.8685 40.1133L63.4343 38.3533C63.7486 37.5361 63.8743 36.7818 64.2514 36.0275C64.44 35.2732 64.8172 34.5189 64.88 33.7646C64.9429 33.7017 65.0057 33.3874 65.1315 33.1988C65.1315 33.1988 65.5086 32.4445 65.6343 32.256C65.76 32.5703 65.6972 32.9474 65.4458 33.0731L65.2572 33.6389C64.9429 34.7075 64.5657 35.7761 64.1257 36.7818C64.0629 37.4104 63.8114 38.039 63.6857 38.6676C63.4971 39.359 63.1828 40.0505 63.0571 40.6791C62.8685 41.5591 62.6171 42.2505 62.3657 43.1306C62.3028 43.8849 61.9885 44.702 61.9257 45.4563L61.5485 48.0964C61.6114 48.4107 61.6742 48.7878 61.6114 49.1021ZM64.88 41.3705C64.88 41.5591 64.6914 41.6848 64.44 41.8734C64.5657 41.5591 64.5657 41.2448 64.6914 40.8676H64.88C64.7543 40.9934 64.88 41.2448 64.88 41.3705ZM63.2457 47.9707C62.9943 48.2221 62.8685 48.285 62.8057 48.4107C62.68 48.4107 62.8057 48.5993 62.7428 48.725C62.8685 48.6621 63.0571 48.5993 63.0571 48.5364C63.0571 48.4736 63.0571 48.3478 63.0571 48.3478H63.1828C63.1828 48.5364 63.1828 48.8507 63.12 49.1021C63.0571 49.0393 62.9314 49.0393 62.8685 49.0393C62.9314 48.9764 62.9314 48.9136 63.0571 48.725C62.7428 49.0393 62.68 49.1021 62.5542 49.2279L62.4914 49.2907C62.5542 48.9136 62.5542 48.6621 62.5542 48.3478C62.6171 47.9707 62.68 47.7821 62.68 47.5307C62.7428 47.4678 62.7428 47.405 62.7428 47.405L62.8685 47.5935C63.3085 47.5935 63.0571 47.0907 63.4343 47.0907C63.3714 47.4678 63.1828 47.7821 63.2457 47.9707ZM63.2457 50.6108C63.2457 50.7365 63.3714 50.9879 63.1828 51.1765H63.12C63.1828 50.9879 62.9314 50.7365 62.8685 50.6108C62.9314 50.3593 63.0571 50.1079 63.12 49.8564C63.2457 49.9193 63.3085 49.9822 63.3714 50.045C63.3085 50.045 63.2457 50.1079 63.2457 50.1079C63.1828 50.2336 63.1828 50.4222 63.2457 50.6108Z" fill="white"/>
<path d="M84.4458 49.2907C84.5715 49.2279 84.6344 49.165 84.823 49.1021C84.5087 48.9764 84.1944 48.9136 84.0058 48.7878C84.2572 48.5364 84.5715 48.285 84.823 48.0964C84.8858 48.0335 84.8858 48.0335 84.823 47.9707C84.6973 48.0335 84.5087 48.0964 84.3201 48.0964C84.383 48.0335 84.3201 47.9707 84.2572 47.9078C84.3201 47.845 84.4458 47.7192 84.5087 47.5935C84.5087 47.5935 84.5087 47.5935 84.4458 47.5307L84.2572 47.6564C83.6287 48.0335 82.8744 48.4107 82.1829 48.8507C81.8686 49.0393 81.5543 49.0393 81.24 49.165C80.7371 49.3536 80.2343 49.605 79.7943 49.7936C79.2285 49.9822 78.6628 50.2336 78.0971 50.2965C77.2799 50.4222 76.4627 50.3593 75.6456 50.4222C75.1427 50.2336 75.017 50.1079 74.7656 49.3536C75.2056 49.1021 75.3941 49.0393 75.897 48.7878C76.0227 48.6621 76.1485 48.4736 76.337 48.4107C76.7142 48.1593 77.2171 47.9707 77.6571 47.7192C77.7199 47.6564 77.7199 47.4678 77.7828 47.405C78.0342 47.2792 78.2228 47.2164 78.4114 47.0907C78.4114 47.0907 78.3485 47.0278 78.2228 47.0278L78.6628 46.7764C78.9142 46.6506 79.3543 46.5878 79.4171 46.1478C79.48 45.9592 79.8571 45.8963 80.0457 45.7078C80.6114 45.142 81.1772 44.5763 81.7429 43.9477C81.9315 43.7591 82.12 43.4448 82.2458 43.1306C82.4343 42.6277 82.12 41.5591 81.6172 41.2448C81.1772 40.8676 80.6743 40.4905 80.1086 40.239C79.6685 39.9876 79.1028 39.5476 78.4742 39.799C78.2228 39.8619 78.0342 39.9247 77.8456 39.9247C77.0285 39.9876 76.337 40.3648 75.7713 40.9305C75.2056 41.5591 74.6398 42.1877 74.0741 42.8791C73.7598 43.2563 73.5084 43.6334 73.2569 44.0106C72.6284 45.2049 72.3141 46.3992 72.2512 47.6564C72.2512 48.0964 72.1883 48.5364 72.5026 49.2907C72.6284 49.9193 72.6284 49.9193 72.7541 50.045C73.1312 50.6108 73.3827 50.9879 73.8227 51.3022C73.8855 51.3651 74.0741 51.4279 74.137 51.5536C74.7656 52.0565 75.017 52.1194 75.5827 52.3079C76.1485 52.4965 76.8399 52.6222 77.4685 52.6851C77.9714 52.748 78.4114 52.6222 78.9142 52.4965C79.2285 52.4337 79.6057 52.3708 79.8571 52.2451C80.0457 52.1194 80.1714 52.0565 80.4229 52.0565C80.8629 51.9936 81.3029 51.9937 81.68 51.8051C82.3086 51.5536 82.8115 51.1136 83.3772 50.7993C83.8172 50.485 84.1944 50.2336 84.6973 49.9822L85.8916 49.0393C86.143 48.8507 86.4573 48.5993 86.7087 48.3478C86.7716 48.285 86.7716 48.1593 86.8345 48.0335C86.0173 48.4736 85.3258 49.165 84.5087 49.4164C84.5087 49.4164 84.4458 49.3536 84.4458 49.2907ZM75.1427 45.5192C75.5199 44.7649 75.9599 44.0106 76.4628 43.3191C76.9028 42.7534 77.4685 42.4391 78.0342 41.9991C78.5371 41.6219 79.1028 41.6219 79.6685 41.3705C79.92 41.2448 80.2343 41.8105 80.0457 42.1248C79.7943 42.5648 79.5428 42.942 79.1657 43.2563C78.5999 43.822 78.0971 44.262 77.4685 44.7649C77.4685 44.8277 77.4685 44.8906 77.4056 44.9535C77.6571 44.8277 77.8456 44.702 78.0342 44.5763C78.2857 44.4506 78.4114 44.3249 78.5371 44.1992L78.6628 44.3249C78.0971 44.702 77.5942 45.142 77.0285 45.5192C76.9656 45.5192 76.9656 45.4563 76.9656 45.4563C77.0913 45.2677 77.2799 45.142 77.4056 44.9535C76.9656 44.9535 76.777 45.3306 76.3999 45.6449C76.5885 45.6449 76.6513 45.582 76.8399 45.582C76.5885 45.8335 76.2742 46.0221 76.0856 46.1478C76.0227 46.2106 75.897 46.1478 75.7713 46.1478C75.5199 46.3363 75.2056 46.5249 74.7027 46.8392C74.8284 46.3363 74.9541 45.8963 75.1427 45.5192ZM80.7372 41.9362L80.9257 42.4391C80.7372 42.8163 80.4229 43.2563 80.2343 43.6334C80.0457 42.942 80.2971 42.4391 80.7372 41.9362ZM89.4117 45.0163C89.6002 44.8906 89.726 44.702 89.9145 44.5763C89.9145 44.5134 89.8517 44.5134 89.8517 44.5134L89.726 44.0734L88.6574 44.7649H88.7831L89.0345 44.5763L89.0974 44.6392L88.7831 44.8906C88.7831 44.9535 88.8459 45.0163 88.9088 45.142C88.5945 45.2049 88.4059 45.2049 88.2174 45.2049L88.1545 45.2677C88.2802 45.3306 88.3431 45.3306 88.4059 45.3935C88.2802 45.5192 88.1545 45.6449 88.0288 45.8335L87.5888 45.6449C87.4002 45.8335 86.7087 46.1478 86.583 46.2735C86.2059 46.9649 85.2001 47.5307 84.7601 47.7821C84.9487 47.845 85.1373 47.9078 85.2001 47.9707C85.703 47.5307 86.2687 47.2164 86.7087 46.8392C86.9602 47.2164 86.8345 47.405 86.583 47.4678L86.143 47.7192C85.703 47.9707 85.3259 48.4107 84.7601 48.285C84.7601 48.285 84.6973 48.3478 84.6973 48.4107C84.6973 48.4736 84.6973 48.5993 84.7601 48.725C84.8858 48.7878 85.0116 48.9136 85.1373 48.8507C85.4516 48.725 85.703 48.5364 85.8916 48.4107C86.2059 48.1593 86.4573 47.7192 86.8973 47.7192C86.9602 47.7192 86.9602 47.6564 86.9602 47.6564C87.023 47.2164 87.4002 47.2164 87.6516 47.0278C87.463 46.8392 87.5888 46.7135 87.8402 46.5878L87.7773 46.3364C88.0916 46.1478 88.3431 45.9592 88.4688 45.8335C88.4688 45.8335 88.4059 45.7706 88.4059 45.7078C88.4059 45.7078 88.3431 45.7078 88.3431 45.7706V45.7078C88.6574 45.4563 89.0345 45.2677 89.4117 45.0163ZM84.6344 47.4678C85.8916 46.8392 86.2687 46.7135 86.3316 46.3992C85.703 46.7764 85.1373 47.0278 84.5715 47.405C84.5715 47.405 84.5715 47.4678 84.6344 47.4678ZM83.0001 48.7878C83.4401 48.2221 84.0058 48.0335 84.0687 48.2221C83.7544 48.4107 83.4401 48.5993 83.0001 48.7878Z" fill="white"/>
<path d="M90.7435 52.3079C91.2464 52.4965 91.4978 52.3708 91.6235 51.6165C91.7492 51.1765 91.7492 50.7365 91.875 50.2965C92.0635 49.7307 92.1264 49.165 92.3778 48.5364C92.755 47.7821 93.2579 47.0907 93.635 46.2106C94.075 45.4563 94.5779 44.8277 95.0179 44.1992L96.2122 42.6277C96.5265 42.3134 96.9037 41.9991 97.2808 41.6848C97.4065 41.4962 97.5322 41.2448 97.7208 41.1819C98.098 40.9305 98.4751 40.8048 98.7266 40.4905C99.1037 40.1762 99.4809 40.239 99.858 40.239C100.675 40.6162 101.052 40.4276 101.052 40.4276L101.115 40.1133C100.989 39.799 100.864 39.5476 100.612 39.359C100.487 39.359 100.424 39.2333 100.361 39.1704C100.109 38.919 99.7952 38.6676 99.4809 38.4161C98.7266 37.9761 97.8465 37.9761 97.0294 38.6047C96.3379 39.0447 95.6465 39.5476 95.0808 40.3648C94.6407 40.8048 94.2636 41.1191 93.9493 41.6848C93.8864 41.8734 93.635 42.0619 93.4464 42.3134C93.4464 41.9991 93.5721 41.8105 93.5721 41.6219C93.635 41.0562 93.5721 40.4905 93.3836 39.9876C93.1321 39.0447 92.6293 38.7304 92.0007 38.9819C91.8121 38.9819 91.5607 39.1076 91.4349 39.2962C91.3721 39.359 91.3721 39.6105 91.3092 39.7362C91.1835 40.6162 90.9949 41.4334 90.8692 42.3134C90.7435 43.1306 90.4292 44.0106 90.3035 44.8906C90.3035 45.582 90.0521 46.2735 89.9263 46.9649L89.4235 49.5422C89.2349 50.3593 89.5492 50.9879 89.8006 51.6165L90.052 51.2393C90.1778 51.1765 90.3035 51.3022 90.3035 51.3022C90.3035 51.8679 90.3663 52.1194 90.7435 52.3079ZM93.9493 43.1306C93.8236 42.502 94.2007 42.0619 94.4522 41.8105C94.955 41.3076 95.2693 40.6162 95.8979 40.4276C96.0236 40.3648 96.0865 40.1133 96.2751 39.8619C96.4637 39.9876 96.6522 39.1704 96.8408 39.6733C96.2122 40.3648 95.6465 41.1191 94.955 41.8105C94.8922 41.8734 94.8922 41.9362 94.8922 41.9362C94.515 42.1877 94.1379 42.502 93.9493 43.1306ZM95.1436 42.6277C95.4579 42.2505 95.6465 41.8734 95.9608 41.6219C96.1494 41.3705 96.4637 41.2448 96.8408 41.0562C96.5265 41.3705 96.3379 41.7477 95.9608 41.9362C95.7093 42.0619 95.5836 42.6905 95.1436 42.6277Z" fill="white"/>
<path d="M115.777 45.582C116.217 45.142 117.223 43.6963 117.286 43.4448C117.286 43.2563 117.286 43.1934 117.223 43.0677C117.097 43.0677 117.034 43.0677 116.971 43.1934C116.28 43.5706 115.526 44.0106 114.708 44.3877C112.76 45.5192 110.811 46.5249 108.737 47.5935C108.171 47.845 107.605 48.285 106.851 48.5993C106.788 48.4736 106.851 48.3478 106.851 48.1593C106.851 47.845 106.851 47.5307 106.914 47.2164C106.914 46.3992 107.04 44.8277 107.857 42.942C108.045 42.5648 108.36 42.1248 108.611 41.8105C108.674 41.6219 108.863 41.4334 109.051 41.2448C109.177 40.9933 109.051 41.1819 109.365 40.7419C109.365 40.7419 109.805 40.7419 110.057 40.5533C110.748 40.1133 108.297 39.359 107.543 39.7362C107.165 39.799 106.851 40.0505 106.6 40.3019C106.348 40.6791 105.971 41.1819 105.782 41.6219C105.468 42.3134 105.28 42.8163 105.091 43.5077C104.84 43.9477 104.777 44.3877 104.651 44.8906V45.7706C104.588 46.0849 104.588 46.5249 104.588 46.9649C104.588 47.845 104.525 48.7878 104.462 49.8564C104.525 50.1707 104.462 50.5479 104.085 50.6736C103.96 50.7993 103.708 50.9879 103.582 51.1136L102.011 52.6222C101.445 53.188 100.691 53.8794 100.125 54.6337C99.5594 55.388 99.1194 56.2681 98.8051 57.2109C98.6794 57.5252 98.428 57.9652 98.3023 58.4053C98.3023 58.4681 98.2394 58.4681 98.1137 58.5938L98.0508 58.6567C97.7994 59.5996 97.9251 60.5425 98.2394 61.3596C98.428 61.8625 98.6794 62.3654 98.9309 62.9939C99.1823 63.434 99.4337 64.1254 99.9995 64.4397C100.062 64.5654 100.062 64.6283 100.125 64.6283C100.251 64.8169 100.502 65.1311 100.628 65.2569C100.942 65.4454 101.319 65.5712 101.697 65.7597C102.074 65.8855 102.451 66.0112 102.828 65.9483L103.457 65.6969C103.457 65.5712 103.394 65.5712 103.394 65.5083C103.582 65.5083 103.708 65.5083 103.897 65.4454C104.4 64.754 104.714 64.1254 105.217 63.434C105.28 63.2454 105.405 63.0568 105.405 62.9939C105.657 62.5539 105.908 62.2396 105.72 61.8625C105.908 61.5482 106.034 61.3596 106.034 61.1082C106.285 59.9767 106.537 58.7824 106.662 57.6509C106.662 57.4624 106.6 57.3367 106.6 57.2109C106.851 57.0224 106.725 56.7709 106.725 56.5823C106.662 56.3309 106.474 56.0795 106.474 55.7023C106.537 55.4509 106.788 55.1995 106.788 54.948C106.788 54.1937 106.788 53.5023 106.851 52.8737C106.851 52.6222 106.662 52.2451 106.725 51.9937C106.662 51.8051 106.662 51.6794 106.662 51.5536C106.662 51.4908 106.914 51.3022 106.977 51.2393C107.731 50.7993 108.423 50.1707 109.114 49.7307C110.057 49.2279 110.937 48.5993 111.943 48.1593C112.257 47.845 112.634 47.5935 113.137 47.405C113.577 47.1535 113.954 46.9649 114.268 46.6506C114.394 46.5249 114.583 46.4621 114.708 46.3992C114.96 46.2735 115.4 46.2106 115.337 45.8335C115.526 45.7706 115.714 45.7706 115.903 45.7706L115.777 45.582ZM111.565 46.4621C111.754 46.4621 111.754 46.4621 111.754 46.5249C111.377 46.7135 111.125 46.9021 110.874 47.0278C110.874 46.9649 110.811 46.9649 110.811 46.9021C111.063 46.7135 111.314 46.5249 111.565 46.4621ZM110.12 47.2164C110.057 47.5935 108.611 48.4736 108.108 48.4736L110.12 47.2164ZM111.251 48.0964C111.251 48.0964 111.063 48.0335 110.874 48.0335V47.845C111.251 47.6564 111.503 47.5307 111.817 47.3421H111.943C111.754 47.5935 111.503 47.7821 111.251 48.0964ZM109.868 48.725C109.805 48.725 109.68 48.725 109.68 48.725V48.5364C109.931 48.3478 110.308 48.3478 110.497 48.5364C110.245 48.5993 110.057 48.5993 109.868 48.725ZM108.108 48.5364C107.983 48.7878 107.731 48.7878 107.48 48.9764C107.48 48.5364 107.794 48.5993 108.108 48.5364ZM108.171 49.9193C107.92 49.6679 107.92 49.6679 108.297 49.605L108.611 49.2907C108.674 48.9764 108.925 48.9764 109.365 49.0393C108.863 49.4793 108.423 49.6679 108.171 49.9193ZM99.9366 55.4509C100.879 53.5651 102.765 52.2451 104.4 50.7993C104.462 50.9879 104.462 51.1136 104.337 51.3022C103.771 51.8051 103.142 52.2451 102.577 52.748C102.074 53.1251 101.697 53.5651 101.319 54.0051C100.879 54.3194 100.565 54.7594 100.314 55.2623C100.188 55.388 100.125 55.4509 100.062 55.5766L99.9366 55.4509ZM104.4 55.7023C104.462 56.7081 104.337 57.5252 104.085 58.4681C104.022 59.0967 103.708 59.7882 103.52 60.4167C103.394 60.9196 103.268 61.4225 102.954 61.8625C102.514 62.3654 102.2 63.1825 101.445 63.4968C101.194 63.6854 100.817 63.6225 100.628 63.3711C100.188 62.6797 100.125 61.9254 100.188 61.171C100.251 60.9196 100.062 60.731 100.062 60.5425C100.125 59.7253 100.125 58.8453 100.377 57.9652C100.628 57.2109 101.194 56.2681 101.76 55.388C101.885 55.1995 102.262 55.0109 102.451 54.6966C102.891 54.3194 103.205 54.0051 103.645 53.6908C103.897 53.3765 104.274 53.188 104.588 52.9365C104.525 53.8794 104.274 54.7594 104.4 55.7023Z" fill="white"/>
<path d="M140.212 7.61529C140.086 7.30099 139.835 7.11242 139.395 6.9867C138.703 6.54669 137.886 6.29525 137.006 6.04381C135.686 5.79238 134.366 6.67241 133.172 7.42671C131.852 8.68389 130.532 9.94107 129.463 11.3868C128.835 12.3297 128.206 13.1469 127.766 14.0269C127.263 14.7183 126.823 15.4098 126.572 16.0384C125.943 17.107 125.314 18.1756 124.812 19.2442C124.183 20.5014 123.617 21.8843 123.051 23.0786C122.674 24.21 122.046 25.2786 121.606 26.3472C121.291 27.2901 120.977 28.1701 120.6 29.113C120.537 29.553 120.16 30.0559 120.537 30.5588C120.286 30.6216 119.783 31.6274 119.783 32.3188L119.657 33.1988H119.531C119.406 33.4503 119.406 33.576 119.343 33.7017C119.28 33.9532 119.217 34.3932 119.091 34.5817C118.651 34.7703 118.526 35.0218 118.148 35.1475C117.834 35.5246 117.52 35.6503 116.828 36.2161C116.514 36.3418 116.2 36.4675 116.137 37.0961C116.074 37.6618 116.074 38.6676 116.514 38.9819C116.828 39.1076 117.52 38.5419 117.96 38.2276C118.086 38.1018 118.714 37.7247 118.966 37.599C118.903 37.9761 118.777 39.9876 118.651 40.3648C118.651 40.4276 118.589 40.7419 118.526 40.8048C118.4 41.0562 118.4 41.6219 118.337 41.7477C118.274 42.8791 118.023 43.2563 117.96 44.3877C118.086 45.142 118.023 45.8963 117.96 46.7135C117.96 47.0278 118.086 47.2792 118.086 47.6564C118.211 48.2221 118.211 48.7878 118.211 49.2907C118.337 49.9193 118.526 50.5479 118.589 51.3022C118.777 52.5594 119.594 53.2508 120.851 53.3137C121.291 53.3137 121.606 53.0622 122.046 52.9365C123.366 52.5594 124.183 51.3651 125.189 50.485C125.943 49.7936 126.446 49.1021 127.074 48.4107C128.017 46.9649 129.086 45.4563 129.4 43.4448C129.777 41.9991 129.526 41.4962 128.269 40.7419C127.263 40.239 126.446 39.9247 125.314 39.8619C124.56 39.7362 123.806 39.6733 123.051 39.9247C122.8 40.0505 122.486 40.1762 122.297 40.239C121.731 40.6791 121.291 41.1191 120.851 41.5591C120.789 41.6219 120.6 41.6219 120.6 41.6219C120.789 40.6791 121.103 38.2276 121.354 37.2218C121.229 37.159 121.794 35.336 122.109 35.0218C122.674 34.7703 123.114 34.5817 123.806 34.2046C124.246 33.8274 124.812 33.2617 125.44 32.8217C126.32 32.1302 127.263 31.4388 128.143 30.6845C128.96 29.8673 129.84 28.9244 130.783 28.0444C131.223 27.353 131.726 26.8501 132.355 26.2215C132.857 25.4043 133.675 24.65 134.303 23.8329C134.869 23.1414 135.435 22.45 135.875 21.6328C136.566 20.6899 137.132 19.6842 137.698 18.5527C138.138 17.7356 138.703 16.8555 139.018 16.0384C139.458 14.9069 140.023 13.9012 140.275 12.7697C140.589 11.764 140.652 10.7582 140.841 9.81535C141.029 8.80961 140.715 8.43245 140.212 7.61529ZM132.103 12.2668L132.983 10.9468C133.926 10.0668 134.115 9.62677 135.372 8.87246C135.875 8.43245 136.063 8.36959 136.503 8.18102C137.258 8.0553 137.509 8.30673 137.76 8.62103C137.823 8.87246 137.949 9.24962 137.886 9.43819C137.949 10.7582 137.635 11.9525 137.195 13.2726C136.189 15.9127 134.618 18.3013 133.172 20.5642C132.04 22.1985 130.783 23.6443 129.4 25.1529C128.709 26.0958 127.954 26.9758 127.012 27.8558C125.692 29.1759 124.434 30.3073 123.114 31.5017C122.926 31.6274 122.863 31.6902 122.674 31.7531H122.611C122.863 31.1245 123.24 30.3073 123.617 29.553C123.743 28.8616 124.12 28.0444 124.372 27.2273C124.623 26.9758 124.309 26.7244 124.246 26.5358C124.372 26.4729 124.874 26.5358 124.686 26.0958C124.874 25.6558 125.063 25.5301 125.126 25.2786C125.566 23.4557 126.32 22.1985 127.137 20.8785C127.452 20.1242 127.954 19.1813 128.394 18.3013C128.709 17.547 129.023 17.1698 129.337 16.5412C129.84 15.9127 130.406 15.0955 130.72 14.3412C131.286 13.6497 131.726 12.8954 132.103 12.2668ZM121.543 30.8102C121.229 30.4959 121.543 30.0559 121.543 29.6788C121.606 29.4902 121.606 29.2387 121.731 28.9873C121.857 28.4844 122.109 27.8558 122.234 27.4787C122.486 26.8501 122.486 26.2844 122.8 25.7815C122.989 24.9643 123.554 24.1472 123.932 23.4557C124.057 22.7643 124.434 22.0728 124.874 21.3185C125.189 20.6271 125.377 20.1242 125.754 19.4956C126.257 18.4899 126.509 18.1127 126.634 17.7984L126.76 17.7356C126.886 17.107 127.326 16.4784 127.577 16.0384C127.766 15.4098 128.332 14.7183 128.772 14.0897C128.96 13.5869 129.275 13.0211 129.652 12.5811L129.966 11.8897C130.029 11.8268 130.029 11.764 130.155 11.5754C130.343 11.5754 130.469 11.5125 130.595 11.5125L130.469 11.324C130.657 11.1982 130.72 11.1982 130.783 11.1982C130.72 11.0725 130.657 11.0725 130.532 11.0725C130.595 10.9468 130.72 10.8839 130.783 10.6954C131.035 11.0725 131.035 11.0725 130.846 11.324C130.532 11.764 130.406 12.2668 130.092 12.7697C130.029 12.8326 129.84 12.8954 129.652 12.9583C129.715 12.9583 129.777 13.084 129.84 13.2097H129.4C129.4 13.3983 129.275 13.6497 129.212 13.964C129.149 13.9012 129.086 13.9012 128.96 13.8383C128.897 13.964 128.709 14.1526 128.646 14.3412L129.086 14.4669V14.5926C128.835 14.5298 128.646 14.5926 128.52 14.5926C128.583 14.5926 128.583 14.7183 128.52 14.7812C128.52 14.8441 128.52 14.9698 128.394 15.0326C128.332 15.0955 128.269 15.2841 128.143 15.4098H128.332C128.206 15.7241 128.017 16.0384 127.829 16.2269L127.514 17.1698C127.326 17.4841 126.949 17.8613 126.823 18.2384L126.383 18.867L126.257 18.9299L126.383 19.1185C126.257 19.1185 126.194 19.1185 126.132 19.2442L125.88 19.8099C125.44 20.5014 125.189 21.3185 124.749 21.8843C124.372 22.8271 124.057 23.5814 123.743 24.4615C123.303 25.2786 122.8 26.0958 122.674 26.8501C122.36 27.793 121.983 28.673 121.543 29.6788C121.606 30.0559 121.606 30.5588 121.543 30.8102ZM138.2 13.4612H138.138C138.2 13.084 138.389 12.644 138.452 12.204H138.578C138.515 12.644 138.326 13.084 138.2 13.4612ZM137.949 16.2269C137.886 16.3527 137.635 16.4155 137.886 16.667C137.886 16.667 137.823 16.7927 137.698 16.8555C137.572 17.2956 137.069 17.7356 136.88 18.1756C136 18.4899 135.749 20.0613 135.246 21.1299C134.869 21.3814 134.869 21.7585 134.743 22.0728C134.806 22.1357 134.869 22.1357 134.995 22.1985C134.932 22.5128 134.178 22.7014 134.806 23.0786C134.178 22.89 134.177 23.3929 134.115 23.5814C133.172 23.7072 132.606 24.3986 132.166 25.7186C132.103 25.9072 131.915 26.0329 131.789 26.2844C131.663 26.5358 131.097 26.0958 131.16 26.5358C130.343 26.4101 130.029 26.7872 129.715 27.1644C129.589 27.2901 129.4 27.5415 129.337 27.9187C129.337 27.8558 129.4 27.9187 129.4 27.9187V27.9816C128.583 27.9187 128.96 29.3016 128.772 29.6159C128.583 29.9302 128.269 30.0559 128.017 30.1188C127.766 30.3073 127.514 30.3702 127.263 30.6216C126.446 30.3073 126.006 30.6845 125.629 30.9988L125.566 31.0616C125.252 31.6274 125.063 32.5074 124.497 32.7588C124.246 33.136 123.617 33.4503 123.114 33.7017C122.8 33.9532 122.611 33.3874 122.171 33.5131C122.737 32.8846 122.989 32.8217 123.429 32.1931C124.183 31.6902 124.434 31.3759 124.874 30.9988C125.754 30.3073 126.194 29.553 126.886 28.8616C127.137 28.673 127.64 28.5473 127.64 27.9816C127.829 27.8558 128.08 27.793 128.206 27.6673C129.086 26.7244 129.903 25.7186 130.783 24.8386C131.16 24.3357 131.789 23.5814 132.292 23.0786C132.606 22.7014 133.172 22.2614 133.486 22.01C133.863 21.57 135.058 19.9985 135.435 19.6842C136.126 18.5527 136.818 17.547 137.509 16.4784C137.698 16.2898 137.76 15.9127 138.012 15.4098C138.012 15.4098 138.138 15.3469 138.2 15.2212H138.326C138.138 15.4098 138.012 15.9127 137.949 16.2269ZM120.977 44.3249C121.103 44.0734 122.234 43.2563 122.36 43.1306C123.177 42.3134 123.743 41.8734 124.874 41.6848H125C125.44 41.5591 125.817 41.6219 126.069 41.7477C126.572 42.062 127.074 42.5648 126.886 43.1934C126.697 44.0734 126.069 45.4563 125.629 46.2106C124.749 47.0907 124.12 48.0335 123.303 48.9764C122.611 49.6679 121.857 50.2965 121.103 50.9251C121.04 51.1136 120.6 50.9879 120.411 50.6736C120.349 49.7936 120.349 48.6621 120.286 47.7821V47.7192L120.474 45.5192C120.411 44.8277 120.726 44.5763 120.977 44.3249ZM127.074 46.5878C126.383 46.5878 126.32 47.7192 125.44 47.7192C125.88 46.9649 126.509 46.2735 126.886 45.5192C127.326 44.8906 127.64 44.1363 128.017 43.5077C128.332 44.7649 127.389 45.5192 127.074 46.5878Z" fill="white"/>
<path d="M156.636 46.2735C156.447 46.5249 156.259 46.5878 156.007 46.5249L157.076 45.3935C157.139 45.3306 157.076 45.2677 157.013 45.2677C156.95 45.2677 156.824 45.2678 156.824 45.3306L155.944 46.1478C154.813 47.0907 153.619 47.9707 152.424 48.7878C151.796 49.2279 151.167 49.6679 150.476 49.9822C149.407 50.485 147.71 50.925 147.018 50.2336C146.893 50.045 146.83 49.8564 146.767 49.605C146.453 48.3478 146.641 47.0907 147.144 45.8963C147.27 45.3935 147.458 44.9535 147.773 44.5763C147.898 44.1992 147.836 44.0106 147.396 43.9477C147.396 43.9477 147.396 43.8849 147.333 43.8849C147.458 43.8849 147.521 43.822 147.521 43.6963C147.018 43.5706 146.516 43.5706 146.076 43.4448C146.138 43.382 146.138 43.382 146.138 43.3191L146.453 43.1306C146.453 43.0677 146.39 43.0677 146.39 43.0048C146.138 43.0048 145.887 43.0048 145.573 43.0677C145.321 43.1934 145.195 43.5077 145.07 43.0048C145.007 43.1934 144.755 43.2563 144.693 43.382C144.315 43.7591 144.001 44.1992 143.624 44.5763C142.995 45.2049 142.43 45.9592 141.801 46.5878C141.11 47.2792 140.607 47.9078 139.915 48.5364C139.412 48.9764 139.098 49.4164 138.218 49.9193C137.841 50.1707 137.338 50.2965 136.961 50.1079C136.458 49.7936 136.71 48.9136 136.961 48.3478C137.15 47.9078 137.841 46.5878 138.155 45.8335C138.847 44.262 139.224 43.382 138.721 42.502C138.532 42.1877 138.03 42.0619 137.715 41.8105C137.275 41.6848 136.835 41.6848 136.332 41.8105C135.955 41.9362 135.641 42.1248 135.389 42.3134C135.201 42.4391 134.949 42.5648 134.824 42.8163C134.761 43.1306 135.012 43.4448 135.264 43.8849C135.452 44.0734 135.955 44.0106 136.584 43.822C136.772 44.262 135.012 46.2106 134.509 48.0335C134.195 49.1021 134.132 49.8564 134.761 51.0508C134.949 51.4279 135.264 51.6794 135.452 51.9308C135.578 52.0565 135.83 52.2451 135.704 52.1194C135.704 52.0565 135.767 51.9308 135.83 51.8051C135.83 51.9308 135.83 51.9936 135.892 52.0565C136.144 52.6851 136.521 52.8737 137.212 52.8108C138.155 52.748 138.91 52.1822 139.79 51.8051C140.418 51.4908 140.733 50.8622 141.173 50.2965C141.235 50.2336 141.424 50.1079 141.487 49.9822C141.55 49.9822 141.55 49.9193 141.613 49.7936C141.801 49.4793 142.744 48.5364 142.87 48.6621C142.87 48.7878 142.807 48.8507 142.807 48.9136H142.87L143.813 47.9707C143.938 48.1593 144.001 48.2221 143.938 48.3478C144.127 48.725 144.253 49.1021 144.504 49.4793C144.567 49.605 144.693 49.7307 144.818 49.9193C145.007 50.4222 145.195 50.925 145.824 51.1765C146.201 51.3022 146.516 51.4908 146.767 51.8679C146.767 51.9936 147.081 52.1194 147.333 52.2451C147.521 52.3079 147.773 52.4337 147.961 52.5594C148.213 52.5594 148.464 52.6851 148.778 52.8108C148.967 52.8737 149.093 52.8108 149.281 52.8737C149.784 53.188 150.161 52.5594 150.79 52.6851C150.664 52.5594 150.664 52.4965 150.538 52.3708C151.67 52.3079 152.55 52.1194 153.304 51.1765C153.304 51.1765 153.241 51.1765 153.241 51.1136C153.053 51.1765 152.99 51.2393 152.801 51.3651C152.739 51.3022 152.739 51.3022 152.739 51.2393L153.556 50.6736C153.556 50.6108 153.556 50.5479 153.43 50.4222C153.556 50.2965 153.744 50.2336 153.87 50.2336C154.184 50.2336 154.624 49.8564 154.624 49.5422C154.687 49.2279 154.813 48.9764 155.127 48.9764C155.253 48.9764 155.379 48.9136 155.63 48.9136C155.379 48.8507 155.316 48.7878 155.253 48.725C155.504 48.5993 155.316 48.3478 155.63 48.2221C155.819 48.0964 156.322 48.0335 156.07 47.5935L156.322 47.4678C156.384 46.8392 156.887 46.5878 157.202 46.2106C156.95 46.2106 156.699 46.1478 156.636 46.2735ZM142.493 46.4621C143.247 45.7078 143.875 45.0163 144.567 44.1992C144.63 44.5763 143.247 46.2106 142.493 46.4621ZM136.898 46.7764C136.898 46.6506 136.961 46.5249 137.024 46.3992C136.961 46.0849 137.778 44.6392 138.218 44.5134C137.967 45.142 137.024 46.7764 136.898 47.1535C136.584 47.0278 136.584 47.0278 136.898 46.7764ZM143.875 46.5878C143.624 46.9021 143.373 46.9021 142.933 46.8392C143.184 46.5878 143.31 46.4621 143.561 46.2735V46.5249C143.624 46.4621 143.75 46.4621 143.75 46.3992C143.875 46.2106 144.001 45.9592 144.064 45.7706C144.19 45.6449 144.19 45.582 144.253 45.5192C144.504 45.8963 144.253 46.2106 143.875 46.5878ZM155.379 47.7192L154.687 48.2221L154.247 48.3478C154.687 47.9078 155.001 47.5935 155.253 47.2164C155.19 47.2164 155.19 47.2164 155.19 47.1535C154.687 47.5935 154.184 48.0964 153.681 48.4736C153.619 48.4107 153.619 48.4107 153.556 48.4107L155.63 46.5878L155.756 47.3421C155.693 47.4678 155.504 47.5935 155.379 47.7192ZM138.595 50.1707C139.287 49.7307 140.104 49.2907 140.733 48.9136C140.67 49.2907 139.098 50.1707 138.595 50.1707ZM152.236 49.605C152.236 49.4793 152.173 49.5422 152.11 49.4164C152.236 49.3536 152.361 49.2279 152.424 49.165C152.487 49.165 152.613 49.2907 152.801 49.4164L152.236 49.605ZM135.704 51.5536C135.704 51.5536 135.704 51.5536 135.704 51.6165V51.5536Z" fill="white"/>
<path d="M157.342 52.3079C157.845 52.4965 158.096 52.3708 158.222 51.6165C158.348 51.1765 158.348 50.7365 158.473 50.2965C158.662 49.7307 158.725 49.165 158.976 48.5364C159.353 47.7821 159.856 47.0907 160.233 46.2106C160.673 45.4563 161.176 44.8277 161.616 44.1992L162.811 42.6277C163.125 42.3134 163.502 41.9991 163.879 41.6848C164.005 41.4962 164.131 41.2448 164.319 41.1819C164.696 40.9305 165.074 40.8048 165.325 40.4905C165.702 40.1762 166.079 40.239 166.457 40.239C167.274 40.6162 167.651 40.4276 167.651 40.4276L167.714 40.1133C167.588 39.799 167.462 39.5476 167.211 39.359C167.085 39.359 167.022 39.2333 166.959 39.1704C166.708 38.919 166.394 38.6676 166.079 38.4161C165.325 37.9761 164.445 37.9761 163.628 38.6047C162.936 39.0447 162.245 39.5476 161.679 40.3648C161.239 40.8048 160.862 41.1191 160.548 41.6848C160.485 41.8734 160.233 42.0619 160.045 42.3134C160.045 41.9991 160.171 41.8105 160.171 41.6219C160.233 41.0562 160.171 40.4905 159.982 39.9876C159.731 39.0447 159.228 38.7304 158.599 38.9819C158.411 38.9819 158.159 39.1076 158.033 39.2962C157.971 39.359 157.971 39.6105 157.908 39.7362C157.782 40.6162 157.593 41.4334 157.468 42.3134C157.342 43.1306 157.028 44.0106 156.902 44.8906C156.902 45.582 156.651 46.2735 156.525 46.9649L156.022 49.5422C155.833 50.3593 156.148 50.9879 156.399 51.6165L156.651 51.2393C156.776 51.1765 156.902 51.3022 156.902 51.3022C156.902 51.8679 156.965 52.1194 157.342 52.3079ZM160.548 43.1306C160.422 42.502 160.799 42.0619 161.051 41.8105C161.554 41.3076 161.868 40.6162 162.496 40.4276C162.622 40.3648 162.685 40.1133 162.874 39.8619C163.062 39.9876 163.251 39.1704 163.439 39.6733C162.811 40.3648 162.245 41.1191 161.554 41.8105C161.491 41.8734 161.491 41.9362 161.491 41.9362C161.114 42.1877 160.736 42.502 160.548 43.1306ZM161.742 42.6277C162.056 42.2505 162.245 41.8734 162.559 41.6219C162.748 41.3705 163.062 41.2448 163.439 41.0562C163.125 41.3705 162.936 41.7477 162.559 41.9362C162.308 42.0619 162.182 42.6905 161.742 42.6277Z" fill="white"/>
<path d="M186.195 55.8909C185.504 55.828 184.749 55.828 183.995 55.8909C183.178 55.9538 182.424 56.1423 181.606 56.2052C181.544 56.2052 181.481 55.8909 181.481 55.8909C181.669 55.388 181.544 54.8223 181.669 54.2566C182.046 53.3765 181.858 52.4965 182.047 51.5536C182.487 49.605 182.675 47.7192 183.178 45.7078C183.241 45.3935 183.304 45.0792 183.429 44.702C183.618 44.262 183.681 43.6963 183.932 43.2563L184.121 42.0619C183.492 41.8734 183.241 41.8105 182.612 41.7477L181.858 41.5591C181.544 41.7477 181.104 42.4391 180.726 42.7534L180.286 41.9362C179.784 41.3076 179.406 40.9933 178.778 40.4905C178.401 40.239 177.584 40.1133 177.206 39.799C176.955 39.7362 176.452 39.8619 176.138 39.7362C175.446 39.4847 174.692 39.6733 174.001 39.9247C173.623 40.0505 172.618 40.9933 172.241 41.2448C171.486 41.8105 171.298 42.942 170.606 43.5077C170.606 43.5706 170.606 43.5706 170.543 43.5706C170.229 44.0734 170.04 44.5134 169.915 44.8277C169.789 45.142 169.538 45.582 169.349 45.9592C169.035 46.9021 168.658 47.9078 169.035 48.9136C169.098 49.5422 169.098 50.1707 169.6 50.5479C169.789 50.6108 169.978 50.8622 169.978 51.0508C170.103 51.2393 170.229 51.4908 170.418 51.6165L171.989 52.1822C172.429 52.2451 172.932 52.3079 173.372 52.1822C173.875 52.1822 174.189 52.0565 174.503 51.9937C175.258 51.7422 175.698 51.3651 176.703 51.0508V50.9879C177.709 50.2336 178.401 49.2907 178.401 49.2907C178.652 49.165 178.715 49.0393 178.904 48.7878C179.029 48.725 179.092 48.4736 179.218 48.4107C179.344 48.4107 179.532 48.5364 179.658 48.6621C179.658 48.5993 179.721 48.5364 179.784 48.5364C179.846 48.5364 179.846 48.4736 179.909 48.4107C179.658 49.605 179.344 50.925 179.218 52.2451H179.595V52.3708H179.155C179.155 52.8737 178.652 53.3137 179.092 53.9423C179.029 54.068 178.904 54.1309 178.904 54.1309C178.966 54.3194 178.966 54.4451 178.966 54.6337V54.5709C179.155 54.5709 179.281 54.508 179.344 54.508C179.406 54.3194 179.406 54.1309 179.469 53.9423C179.909 51.9308 180.286 49.8564 180.664 47.7821C180.726 47.7192 180.789 47.6564 180.852 47.5307V47.7192C180.726 48.285 180.664 49.0393 180.601 49.605C180.538 49.8564 180.475 50.045 180.475 50.1707C180.286 50.925 180.286 51.4908 180.161 52.1194C180.035 52.6222 179.909 53.0622 179.846 53.4394C179.846 53.5651 179.784 53.7537 179.784 53.9423L179.406 56.4566C179.406 56.5823 179.344 56.7081 179.218 56.8338C179.092 56.0795 179.532 55.2623 178.966 54.6337C178.966 54.6966 178.904 54.7594 178.841 54.8223C178.652 55.1366 178.652 55.4509 178.589 55.7652C178.589 55.8909 178.589 56.0166 178.652 56.0795C178.715 56.7709 178.464 57.1481 177.709 57.3367L177.458 57.3995C176.641 57.9024 175.635 58.2167 174.692 58.5938L172.303 59.9139C171.235 60.3539 170.229 60.9825 169.412 61.6739C168.343 62.4282 167.338 63.1197 166.332 63.874C165.766 64.2511 165.389 64.754 165.075 65.0683C164.697 65.3197 164.446 65.634 164.32 65.7597C164.383 65.8226 164.446 65.8226 164.446 65.8855C165.64 65.1311 166.457 63.8111 167.903 63.2454C167.903 63.434 167.778 63.6225 167.715 63.6854C167.589 63.8111 167.338 63.8111 167.275 63.8111C166.772 64.1254 166.52 64.4397 166.143 64.8797C165.389 65.5712 164.886 66.074 164.257 66.7655C164.132 66.8283 163.88 66.8283 163.692 66.8912C163.566 67.0798 163.566 67.2055 163.377 67.3941C163.315 67.4569 163.252 67.5826 163.126 67.7084C163 67.7084 162.937 67.7712 162.686 67.8969C162.749 67.7084 162.812 67.5826 162.812 67.4569C163.126 67.2684 163.377 67.1426 163.692 66.8912L164.446 66.0112C164.383 66.0112 164.195 66.0112 164.132 65.9483C163.88 66.1997 163.629 66.4512 163.44 66.7026L162.812 67.3941C162.686 67.4569 162.56 67.5826 162.497 67.6455C161.869 68.5884 160.989 69.5941 160.423 70.537C159.794 71.5428 159.166 72.6114 158.6 73.7428C158.474 74.0571 158.349 74.4343 158.16 74.6228C158.223 74.6857 158.223 74.6857 158.286 74.6857C158.349 74.6228 158.474 74.56 158.537 74.4343L158.726 74.56C158.474 75 158.223 75.6914 158.034 76.32C157.909 76.1315 157.846 76.0686 157.783 76.0057C157.72 76.0686 157.657 76.1315 157.594 76.2572C157.28 77.2001 157.154 78.0801 156.966 78.8972C156.714 79.903 156.589 80.9716 156.463 82.1031C156.4 82.4173 156.4 82.7316 156.337 83.1716C156.4 83.3602 156.4 83.6117 156.526 83.7374C156.966 84.5545 157.154 85.1831 157.406 85.8117C157.594 86.126 157.846 86.1889 157.972 86.4403C158.223 87.1946 158.914 87.8232 159.669 88.1375C160.549 88.6404 161.429 88.9547 162.497 89.269C162.623 89.3318 162.937 89.3318 163.189 89.269C164.006 89.269 164.697 89.2061 165.452 89.0175C165.766 89.0175 166.206 88.7661 166.52 88.5775C166.709 88.4518 166.835 88.0746 167.023 88.0118C167.84 88.0118 168.218 87.3832 168.846 87.1318C168.909 87.1318 168.909 87.0689 168.972 87.006C169.349 86.566 169.852 86.2517 170.292 85.8117C170.606 85.5603 170.858 85.3717 170.858 84.8688C171.423 84.2402 172.115 83.6745 172.681 82.9831C172.681 82.9831 172.618 82.9202 172.618 82.8574H172.429C172.366 82.8574 172.366 82.7945 172.366 82.7316C172.555 82.5431 172.932 82.2916 173.183 82.0402C173.183 82.0402 173.183 82.1031 173.246 82.1031C173.435 81.7888 173.623 81.4745 173.875 81.1602L173.498 80.9087C173.623 80.4687 174.566 80.5944 174.315 79.903C174.378 79.8401 174.566 79.7144 174.755 79.6516C174.629 79.5258 174.503 79.463 174.378 79.4001C174.692 79.3373 175.132 79.463 175.069 79.0858C174.881 78.8972 174.818 78.7715 174.755 78.5829C175.383 79.023 175.069 78.2058 175.258 78.1429C175.383 77.7658 175.823 77.6401 176.012 77.2629C176.138 76.76 176.578 76.4457 176.263 76.0057C176.389 75.88 176.578 75.8172 176.766 75.7543C176.766 75.7543 176.703 75.7543 176.703 75.6914C176.452 75.5657 176.326 75.5657 176.075 75.5657V75.44L176.766 75.5029C176.766 75.3143 176.766 75.1257 176.703 74.8743L177.144 74.56C177.081 74.56 177.018 74.4971 176.955 74.3714C177.269 74.1828 177.772 73.6171 177.646 73.3657C177.521 73.1771 177.269 73.1142 177.206 72.9885C177.332 72.6742 177.332 72.4228 177.458 71.9828C177.646 72.1713 177.772 72.2971 177.835 72.4228C177.898 72.2342 177.898 72.0456 177.835 71.9199L177.458 71.8571C177.521 71.7942 177.646 71.7313 177.709 71.5428L178.086 71.9199C178.212 71.7313 178.212 71.5428 178.212 71.3542C178.024 71.3542 177.835 71.417 177.646 71.417C177.646 71.3542 177.646 71.2913 177.709 71.2285C177.961 71.1656 178.212 71.1027 178.338 71.0399C178.338 70.7884 178.526 70.6627 178.652 70.537C178.715 70.2856 178.715 70.0341 178.652 69.8456C178.652 69.7827 178.464 69.7198 178.212 69.657C178.401 69.9084 178.401 70.0341 178.464 70.1599C178.086 70.2856 178.024 70.2856 178.212 69.657C178.275 69.5941 178.275 69.5313 178.338 69.4056C178.464 69.4684 178.715 69.8456 178.904 69.4684C179.029 69.0913 179.092 68.6512 179.155 68.337C179.281 67.8341 179.406 67.3312 179.595 66.7655C179.532 66.6398 179.344 66.5769 179.218 66.514L179.029 66.8912C178.778 66.3883 178.778 65.9483 179.532 65.8855C179.909 65.7597 179.846 65.5712 179.784 65.194C179.469 65.4454 179.281 65.5712 179.029 65.8855C179.029 65.5083 179.092 65.3826 179.155 65.1312C179.909 65.194 179.972 65.1312 179.846 64.6911L179.281 64.6283V64.5026C179.532 64.5654 179.721 64.5026 179.972 64.5026C179.846 64.3768 179.658 64.2511 179.532 63.9997C179.658 63.9368 179.721 63.8111 179.846 63.6854C179.909 63.6225 180.098 63.4968 180.161 63.4968C180.161 63.434 180.161 63.434 180.098 63.434H179.846C179.972 63.3711 180.035 63.1825 180.098 62.9939C180.098 62.9311 179.909 62.8054 179.846 62.7425C180.286 62.4911 180.412 62.3654 180.286 61.8625C180.601 61.7368 180.726 61.4225 180.475 60.9825C180.915 60.6053 180.475 60.3539 180.538 60.0396C180.412 59.9767 180.224 59.9767 180.161 59.9139C180.161 59.851 180.161 59.851 180.224 59.7882C180.412 59.851 180.601 59.851 180.978 59.9139C180.915 59.5996 180.852 59.411 180.726 59.1596C180.789 59.0967 180.852 58.971 180.852 58.8453C181.104 58.4681 181.229 58.2795 181.669 58.3424C181.732 58.3424 181.858 58.2795 181.984 58.2167L187.138 56.7709C187.138 56.3938 186.698 55.828 186.195 55.8909ZM178.715 45.6449C178.652 46.2106 177.961 46.2735 177.709 46.6506C177.584 46.7764 177.458 46.9649 177.332 46.9649C176.892 47.1535 176.515 47.4678 176.263 47.9078H176.201C175.823 47.9078 175.635 48.0964 175.823 48.5993C175.132 48.2221 174.755 48.8507 174.441 48.9136C173.498 49.2279 172.743 49.605 171.801 49.6679C171.549 49.6679 171.298 49.7307 171.109 49.7307C170.858 49.165 171.046 48.725 171.235 48.0964C171.549 47.405 171.801 46.6506 172.178 45.8963C172.492 45.3935 172.932 45.0163 173.246 44.5763L173.183 44.262C173.309 44.0734 173.561 43.8849 173.623 43.7591C174.063 43.3191 174.566 43.0048 175.069 42.5648C175.761 41.8105 176.703 41.6219 177.646 41.4962C177.835 41.4962 178.086 41.6219 178.212 41.8105C178.401 41.9362 178.715 43.0048 178.652 43.4448C178.526 43.8849 178.652 44.1992 178.904 44.4506C179.092 44.6392 179.218 44.8906 179.469 45.0163C179.344 45.2049 179.281 45.582 178.841 45.5192C178.778 45.5192 178.715 45.582 178.715 45.6449ZM180.224 47.0278C180.161 47.0907 180.098 47.0907 180.098 47.1535C179.972 47.405 179.846 47.5935 179.532 47.5935C179.344 47.5935 179.218 47.9078 178.841 48.0335C178.841 47.9078 178.904 47.7192 178.904 47.5307C178.904 47.4678 178.904 47.405 178.966 47.405C178.966 47.3421 178.966 47.3421 179.029 47.3421V47.2792L179.092 47.3421V47.2792V47.2164H179.658C179.721 46.9021 179.846 46.6506 180.286 46.5249C180.286 46.7135 180.224 46.8392 180.224 47.0278ZM159.794 72.1713C160.549 72.0456 160.737 71.6056 160.989 71.2285C160.926 71.1656 160.863 71.1027 160.8 71.1027H160.234C160.486 70.8513 160.612 70.7256 160.737 70.537C160.863 70.7256 160.863 70.9142 160.8 71.1027C161.052 70.9142 161.24 70.6627 161.366 70.4742C161.429 70.3484 161.429 70.2227 161.492 70.1599C161.366 70.1599 161.303 70.2227 161.177 70.2227H160.926C161.303 69.657 161.68 69.0913 162.183 68.5255C162.372 68.8398 162.623 68.7141 163 68.5255C163.252 68.0855 163.503 67.7712 163.88 67.3941C163.88 67.3312 163.817 67.3312 163.755 67.2684C164.006 67.2684 164.195 67.2684 164.383 67.2055C164.195 67.4569 164.006 67.5826 163.755 67.8969C164.069 67.8341 164.257 67.8969 164.572 67.8341C164.509 67.7084 164.446 67.6455 164.446 67.5198C164.697 67.3941 164.949 67.2055 165.075 67.0169C165.137 66.9541 165.075 66.8912 165.075 66.7655C165.012 66.8283 164.886 66.9541 164.635 67.0169C164.635 67.0169 164.572 67.0169 164.572 66.9541C164.635 66.8283 164.635 66.7026 164.76 66.6398C164.949 66.4512 165.075 66.4512 165.2 66.8283C165.452 66.7026 165.64 66.514 165.955 66.3883C165.766 66.0112 165.64 66.0112 165.263 66.2626C165.452 66.0112 165.577 65.7597 165.829 65.5083C166.143 65.2569 166.646 65.0683 166.709 64.6911C166.709 64.5654 167.212 64.5654 167.463 64.5026C167.338 64.0625 167.652 63.874 168.343 63.9368V63.7483C168.406 63.6854 168.72 63.5597 168.909 63.5597C169.16 62.9311 169.726 62.7425 170.355 62.4911C170.229 62.4282 170.166 62.3654 170.103 62.3025C170.669 61.9882 171.423 61.6739 171.926 61.4225C172.178 61.2339 172.303 61.0453 172.492 60.9825C172.806 60.7939 173.121 60.6053 173.246 60.4167C173.435 60.291 173.686 60.291 174.001 60.1653C174.315 60.1653 174.503 60.0396 174.755 59.9139C175.446 59.6624 176.075 59.3481 176.578 59.0338C177.081 58.7196 177.646 58.4681 178.212 58.2795C177.395 58.2167 176.641 58.4681 176.012 59.0967L175.698 58.7195C175.698 58.9081 175.823 59.0338 175.761 59.0338C175.258 59.3481 174.692 59.6624 174.126 59.9139C173.938 59.9767 173.686 59.851 173.435 59.851V59.6624C173.938 59.6624 174.315 59.1596 174.755 59.1596C174.943 59.1596 175.132 59.0338 175.383 58.971C175.258 58.531 175.572 58.531 176.012 58.4681C176.201 58.4681 176.389 58.4681 176.578 58.4053L176.703 58.2795C176.829 58.2167 176.955 57.9652 177.018 58.0281C177.458 57.9652 177.772 57.9652 178.086 57.6509C178.149 57.5252 178.401 57.5881 178.589 57.5881C178.464 57.8395 178.275 58.0281 178.212 58.2167V58.2795C178.464 58.4681 178.275 58.8453 178.086 58.9081C177.081 59.0338 176.452 59.7882 175.572 60.1653C174.818 60.3539 174.252 60.731 173.435 61.0453C173.183 61.171 173.121 61.3596 172.869 61.4853C171.989 61.9882 171.423 62.4282 170.732 62.6168C170.543 62.6168 170.355 62.8054 170.229 62.8682C170.103 62.9311 169.978 63.0568 169.915 63.1825C169.915 63.1825 169.915 63.1197 169.852 63.0568L167.652 64.6283C167.84 64.754 168.029 64.754 168.155 64.8169V64.9426H167.589C167.526 65.3826 166.583 66.2626 166.206 66.3255L165.955 66.8283C165.263 67.4569 164.697 67.9598 164.132 68.5884C163.755 68.777 163.503 69.0284 163.189 69.3427L163.063 69.1541C163.315 69.0284 163.44 68.777 163.755 68.6512C163.817 68.5255 163.943 68.337 164.132 68.1484C163.503 68.1484 163.315 68.3998 163.126 68.7141C163.126 68.8398 163 69.0284 162.812 69.217C162.56 69.5313 162.309 69.7827 161.995 69.9713C162.246 70.0341 162.309 70.0341 162.372 70.0341L162.435 70.1599C162.246 70.1599 161.995 70.2227 161.869 70.3484C161.932 70.4113 161.932 70.537 161.932 70.537C161.617 70.9142 161.303 71.1656 161.052 71.6056C160.863 71.7942 160.8 72.1085 160.549 72.4228C160.486 72.5485 160.297 72.5485 160.172 72.6114C160.36 73.1142 160.109 73.3657 159.543 73.3028C159.732 73.0514 159.92 72.7999 160.172 72.6114C160.046 72.4856 159.794 72.4856 159.669 72.6742L159.48 72.5485C159.669 72.4228 159.669 72.2342 159.794 72.1713ZM178.841 60.291C178.778 60.2282 178.715 60.1653 178.652 60.1653C178.589 60.291 178.526 60.4167 178.401 60.5425C178.401 60.6053 178.464 60.6053 178.464 60.6053L178.778 60.4167C178.966 60.4796 178.652 61.8625 178.464 62.0511C178.401 62.0511 178.338 62.1139 178.275 62.1768C178.338 62.1768 178.338 62.2396 178.401 62.2396C178.401 62.3025 178.401 62.3025 178.464 62.3025V62.8682C178.338 62.8682 178.212 62.9311 178.149 62.9311C178.338 62.9939 178.401 63.1197 178.401 63.3082C178.149 64.1883 178.212 64.8797 177.835 65.7597C177.646 65.8855 177.772 66.1997 177.772 66.3255C177.709 66.4512 177.584 66.7026 177.521 66.9541L177.898 67.0169C177.144 67.2055 177.835 68.0227 177.458 68.0855C177.269 68.3998 177.206 68.5884 177.081 68.8398C177.081 68.9027 177.144 69.0284 177.081 69.1541C176.892 69.5313 176.892 69.9084 176.829 70.3484C176.829 70.5999 176.766 70.9142 176.703 71.1027C176.515 71.4799 176.578 71.7313 176.389 71.9828C176.263 72.3599 176.075 72.6114 175.949 72.9885C175.823 73.7428 175.572 74.3714 175.383 75.0629L174.818 76.1315C174.566 76.5086 174.566 76.8858 174.441 77.3886C174.252 77.7029 174.126 78.0801 173.812 78.2687C173.435 78.7087 173.309 79.2744 173.121 79.7144C173.058 79.7773 173.121 79.8401 173.058 79.8401C172.429 80.2801 172.555 81.0344 172.052 81.4745C171.612 81.7887 171.486 82.2288 171.172 82.6059C171.046 82.8574 170.858 82.9202 170.795 83.3602C170.795 83.4859 170.418 83.7374 170.355 84.0517C170.292 84.1774 169.789 83.9259 170.04 84.366C170.04 84.4917 169.538 84.8688 169.349 85.1831C169.035 85.5603 168.532 85.8117 168.218 86.126C168.155 86.126 168.155 86.2517 168.155 86.2517C167.966 86.2517 167.778 86.2517 167.526 86.3146C167.715 86.3774 167.84 86.5032 168.029 86.566C167.149 86.566 166.458 87.1318 165.829 87.5089C165.515 87.6975 165.2 87.9489 164.823 88.1375C164.76 88.1375 164.697 88.0118 164.697 87.9489C164.823 87.8232 165.012 87.5718 165.137 87.3203C165.012 87.2575 164.886 87.2575 164.76 87.1946C164.886 87.1946 164.949 87.1318 165.137 87.006L166.269 86.2517C167.275 85.5603 167.966 84.6174 168.783 83.9259C168.846 83.8631 168.972 83.8002 169.035 83.8002C169.726 83.9888 169.789 83.3602 170.103 83.0459L169.978 82.9202C169.789 83.2345 169.475 83.4231 169.223 83.6117C169.412 83.3602 170.669 81.5373 171.109 81.4116L170.103 82.7945C170.166 82.7945 170.229 82.8574 170.292 82.8574L170.92 82.0402C170.983 81.7259 171.172 81.4116 171.423 81.223L171.109 81.1602V81.0344C171.172 80.9716 171.298 81.0344 171.423 80.9716C171.549 80.9087 171.675 80.8459 171.675 80.783C171.863 80.4059 172.052 80.0287 172.492 79.5258C172.303 79.6516 172.241 79.7144 171.989 79.7773C172.115 79.5887 172.115 79.463 172.178 79.463C172.743 79.463 172.681 78.9601 172.932 78.5829H172.806C173.372 78.3315 173.498 77.4515 173.812 76.8858H173.246C173.498 76.6972 173.623 76.5086 173.812 76.3829C174.063 76.2572 174.378 76.0057 174.189 75.6286C174.189 75.5657 174.315 75.5657 174.378 75.5029C174.692 75.2514 174.881 74.6857 174.755 74.3714C175.006 74.0571 175.195 73.8685 175.258 73.5542C175.572 72.6114 175.823 71.7942 176.075 70.8513C176.389 69.9713 176.578 69.0284 176.829 68.1484C176.892 67.8969 177.018 67.4569 177.018 67.1426C177.206 66.9541 177.332 66.7655 177.332 66.6398L177.646 64.1254C177.772 63.8111 177.835 63.434 177.961 63.1197C177.961 63.0568 178.086 62.9939 178.149 62.9311L177.646 62.3025C177.709 63.0568 177.458 63.6854 177.332 64.3768C177.081 65.5083 176.892 66.7026 176.578 67.8341C176.263 69.3427 175.698 70.7256 175.195 72.2342C174.881 73.2399 174.566 74.12 174.063 75.1257C173.372 76.4457 172.869 77.7658 171.989 79.023C171.109 80.2801 170.48 81.4116 169.475 82.6688C168.783 83.4231 168.092 84.3031 167.275 84.9317C166.395 85.6231 165.64 86.3146 164.572 86.6289C164.195 86.7546 163.692 87.0689 163.252 87.1946C162.497 87.5089 161.555 87.5718 160.674 87.2575C160.612 87.2575 160.549 87.1946 160.423 87.1318C161.177 87.0689 161.743 87.006 162.309 87.0689V86.8803C161.995 86.8803 161.617 87.006 161.24 87.006C160.989 86.9432 160.549 86.8175 160.234 86.6917C159.229 86.126 158.537 85.3088 158.412 84.0517C158.349 82.9202 158.223 81.8516 158.286 80.6573C158.349 79.7773 158.663 78.9601 158.852 78.0801C158.977 77.6401 159.04 77.0115 159.229 76.5086C159.292 76.1314 159.417 75.88 159.606 75.6286C159.732 75.2514 159.794 74.8743 159.857 74.6228C160.046 74.4343 160.172 74.2457 160.234 74.0571C160.297 74.0571 160.36 74.12 160.423 74.12C160.36 74.3085 160.297 74.4971 160.172 74.6857H160.297C160.612 73.9943 160.989 73.1771 161.303 72.4228C161.24 72.4856 161.177 72.5485 161.052 72.6114C160.989 72.1713 161.177 72.1085 161.743 72.1713C161.68 71.7942 162.435 71.6056 161.743 71.1027L162.12 70.6627C162.183 70.537 162.372 70.4113 162.372 70.4113C162.875 70.5999 163.063 70.1599 163.189 69.9084C163.566 69.5313 164.006 69.0284 164.446 68.7141C164.823 68.2112 165.075 67.8969 165.452 67.5198C165.703 67.2684 166.017 67.1426 166.395 66.8283C166.646 66.514 167.149 66.1998 167.4 65.8226C168.155 65.194 168.972 64.8169 169.663 64.314C170.606 63.6225 171.675 63.0568 172.492 62.4911C173.875 61.4853 175.321 60.9196 176.892 60.291C177.332 60.1653 177.709 59.851 178.212 59.7253C177.961 60.5425 177.898 61.4853 177.646 62.3025C178.149 62.3654 178.149 61.8625 178.212 61.6739C178.275 61.0453 178.401 60.3539 178.526 59.7253C178.526 59.7253 178.589 59.7253 178.715 59.7882C178.778 59.7253 178.841 59.5996 178.904 59.411C178.904 59.4739 178.966 59.4739 179.029 59.4739C179.029 59.7253 178.841 59.9767 178.841 60.291ZM173.309 60.1653C173.183 60.291 172.995 60.4167 172.743 60.4796C172.555 60.5425 172.303 60.3539 172.052 60.3539C172.492 59.9767 172.995 60.1024 173.309 60.1653ZM170.418 61.4225C170.48 61.3596 170.606 61.3596 170.669 61.3596C170.92 60.9196 171.235 60.5425 171.801 60.9196C171.738 60.7939 171.801 60.6682 171.738 60.5425H172.303C171.863 61.0453 171.486 61.2339 170.92 61.3596C170.795 61.3596 170.732 61.6111 170.606 61.6739C170.04 61.9254 169.726 62.2396 169.286 62.4911C169.223 62.6797 168.972 62.8054 168.909 62.9311C168.595 62.9939 168.469 63.0568 168.092 62.8682C168.846 62.4282 169.538 61.9254 170.418 61.4225ZM179.155 67.0169C179.029 67.2683 178.966 67.5198 178.904 67.7084C178.589 67.2684 178.652 67.1426 179.155 67.0169ZM178.526 69.2798C178.464 69.2798 178.401 69.2798 178.275 69.217C178.338 68.9655 178.338 68.8398 178.401 68.6512C178.464 68.5255 178.526 68.3998 178.526 68.2741C178.526 68.2741 178.652 68.337 178.715 68.337C178.778 68.3998 178.778 68.5255 178.778 68.5884C178.715 68.777 178.589 69.0284 178.526 69.2798ZM159.04 74.6228L159.103 74.56V75.44C158.914 75.44 158.789 75.3771 158.663 75.3771C158.789 75.0629 158.914 74.8114 159.04 74.6228ZM158.034 74.7486C157.972 75.1257 157.972 75.5657 157.783 75.9429C158.034 75.6286 158.286 75.1886 158.286 74.7486H158.034ZM168.155 84.9946C168.155 84.9946 168.28 85.1203 168.218 85.246C168.658 84.8688 168.972 84.4917 169.286 84.3031L169.035 84.1145L168.155 84.9946ZM166.583 86.566C166.583 86.6289 166.646 86.6289 166.709 86.6917C167.149 86.3146 167.526 85.8117 168.092 85.3717C168.029 85.3717 168.029 85.3717 167.966 85.3088C167.463 85.7489 166.772 86.0003 166.583 86.566ZM163.063 87.9489C163.063 87.8861 162.937 87.8232 163 87.7603C163.315 87.6346 163.755 87.5718 164.195 87.5089C164.006 87.8861 163.315 88.0746 163.063 87.9489Z" fill="white"/>
<path d="M18.8096 72.8661V74.0132H15.6896V76.7231H18.8096V77.8703H15.6896V81.7329H14.5425V72.8661H18.8096Z" fill="white"/>
<path d="M28.296 74.0188V77.7428H29.3434C29.8532 77.7428 30.2892 77.5618 30.6513 77.1997C31.017 76.834 31.1999 76.3925 31.1999 75.8752C31.1999 75.3617 31.017 74.9239 30.6513 74.5618C30.2892 74.1998 29.8532 74.0188 29.3434 74.0188H28.296ZM29.3434 78.8955H28.296V81.7329H27.1489V72.8661H29.6648C30.3779 72.9621 30.9801 73.2558 31.4714 73.7472C32.0589 74.3383 32.3526 75.0477 32.3526 75.8752C32.3526 76.7102 32.0589 77.4232 31.4714 78.0144C31.065 78.4208 30.7547 78.6498 30.5404 78.7015L32.5077 81.7329H31.1168L29.3434 78.8955Z" fill="white"/>
<path d="M45.2305 72.8661V74.0132H41.6007V76.7231H45.2305V77.8703H41.6007V80.5802H45.2305V81.7329H40.4535V72.8661H45.2305Z" fill="white"/>
<path d="M58.3467 72.8661V74.0132H54.7169V76.7231H58.3467V77.8703H54.7169V80.5802H58.3467V81.7329H53.5697V72.8661H58.3467Z" fill="white"/>
<path d="M67.8331 74.0354V80.5691C68.7457 80.5691 69.4938 80.2754 70.0775 79.688C70.7351 79.0304 71.064 78.2342 71.064 77.2995C71.064 76.3685 70.7351 75.5723 70.0775 74.911C69.4938 74.3272 68.7457 74.0354 67.8331 74.0354ZM67.5283 72.8661C68.9692 72.8735 70.0923 73.2817 70.8977 74.0908C71.7807 74.9812 72.2222 76.0507 72.2222 77.2995C72.2222 78.5519 71.7807 79.6215 70.8977 80.5082C70.0923 81.3173 68.9692 81.7255 67.5283 81.7329H66.686V72.8661H67.5283Z" fill="white"/>
<path d="M84.823 72.7497C86.0755 72.7497 87.145 73.193 88.0317 74.0797C88.9184 74.9664 89.3617 76.036 89.3617 77.2884C89.3617 78.5408 88.9184 79.6104 88.0317 80.4971C87.145 81.3838 86.0755 81.8271 84.823 81.8271C83.5706 81.8271 82.501 81.3838 81.6144 80.4971C80.7277 79.6104 80.2843 78.5408 80.2843 77.2884C80.2843 76.036 80.7277 74.9664 81.6144 74.0797C82.501 73.193 83.5706 72.7497 84.823 72.7497ZM84.823 73.9079C83.8883 73.9079 83.0903 74.2386 82.429 74.8999C81.7714 75.5575 81.4426 76.3537 81.4426 77.2884C81.4426 78.2231 81.7732 79.0211 82.4345 79.6824C83.0959 80.3437 83.892 80.6744 84.823 80.6744C85.7577 80.6744 86.5539 80.3437 87.2115 79.6824C87.8728 79.0211 88.2035 78.2231 88.2035 77.2884C88.2035 76.3537 87.8728 75.5575 87.2115 74.8999C86.5539 74.2386 85.7577 73.9079 84.823 73.9079Z" fill="white"/>
<path d="M99.0255 72.8661L101.902 77.837L104.767 72.8661H105.814V81.7329H104.667V75.3266L101.902 80.1147L99.1252 75.3266V81.7329H97.9781V72.8661H99.0255Z" fill="white"/>
</svg>
