<svg width="160" height="57" viewBox="0 0 160 57" fill="none" xmlns="http://www.w3.org/2000/svg">
<path d="M90.9895 49.6803V50.6173H88.4552V52.8309H90.9895V53.7679H88.4552V56.9231H87.5234V49.6803H90.9895Z" fill="#263C43"/>
<path d="M98.4183 50.6218V53.6638H99.269C99.6832 53.6638 100.037 53.516 100.331 53.2202C100.628 52.9214 100.777 52.5608 100.777 52.1383C100.777 51.7188 100.628 51.3612 100.331 51.0655C100.037 50.7697 99.6832 50.6218 99.269 50.6218H98.4183ZM99.269 54.6054H98.4183V56.9231H97.4865V49.6803H99.5301C100.109 49.7587 100.598 49.9987 100.998 50.4C101.475 50.8829 101.713 51.4623 101.713 52.1383C101.713 52.8203 101.475 53.4028 100.998 53.8856C100.667 54.2176 100.415 54.4047 100.241 54.447L101.839 56.9231H100.709L99.269 54.6054Z" fill="#263C43"/>
<path d="M111.897 49.6803V50.6173H108.949V52.8309H111.897V53.7679H108.949V55.9815H111.897V56.9231H108.017V49.6803H111.897Z" fill="#263C43"/>
<path d="M122.274 49.6803V50.6173H119.326V52.8309H122.274V53.7679H119.326V55.9815H122.274V56.9231H118.394V49.6803H122.274Z" fill="#263C43"/>
<path d="M129.703 50.6354V55.9725C130.444 55.9725 131.052 55.7326 131.526 55.2527C132.06 54.7156 132.327 54.0652 132.327 53.3017C132.327 52.5412 132.06 51.8908 131.526 51.3506C131.052 50.8738 130.444 50.6354 129.703 50.6354ZM129.455 49.6803C130.626 49.6863 131.538 50.0198 132.192 50.6807C132.909 51.408 133.268 52.2817 133.268 53.3017C133.268 54.3247 132.909 55.1984 132.192 55.9227C131.538 56.5836 130.626 56.9171 129.455 56.9231H128.771V49.6803H129.455Z" fill="#263C43"/>
<path d="M143.227 49.5852C144.244 49.5852 145.113 49.9473 145.833 50.6716C146.553 51.3959 146.913 52.2696 146.913 53.2926C146.913 54.3157 146.553 55.1894 145.833 55.9136C145.113 56.6379 144.244 57.0001 143.227 57.0001C142.209 57.0001 141.341 56.6379 140.62 55.9136C139.9 55.1894 139.54 54.3157 139.54 53.2926C139.54 52.2696 139.9 51.3959 140.62 50.6716C141.341 49.9473 142.209 49.5852 143.227 49.5852ZM143.227 50.5313C142.467 50.5313 141.819 50.8014 141.282 51.3416C140.748 51.8788 140.481 52.5291 140.481 53.2926C140.481 54.0562 140.749 54.708 141.286 55.2482C141.824 55.7884 142.47 56.0585 143.227 56.0585C143.986 56.0585 144.632 55.7884 145.167 55.2482C145.704 54.708 145.972 54.0562 145.972 53.2926C145.972 52.5291 145.704 51.8788 145.167 51.3416C144.632 50.8014 143.986 50.5313 143.227 50.5313Z" fill="#263C43"/>
<path d="M154.486 49.6803L156.822 53.7408L159.149 49.6803H160V56.9231H159.068V51.6902L156.822 55.6013L154.567 51.6902V56.9231H153.635V49.6803H154.486Z" fill="#263C43"/>
<path d="M63.2853 31.6181C63.071 31.9055 62.8566 31.9774 62.5709 31.9055L63.7854 30.6122C63.8569 30.5404 63.7854 30.4685 63.714 30.4685C63.6425 30.4685 63.4997 30.4685 63.4997 30.5404L62.4994 31.4744C61.2134 32.5522 59.8559 33.558 58.4985 34.4921C57.784 34.995 57.0696 35.498 56.2837 35.8572C55.0691 36.432 53.1401 36.9349 52.3542 36.1446C52.2113 35.9291 52.1399 35.7135 52.0684 35.4261C51.7112 33.9891 51.9255 32.5522 52.4971 31.187C52.64 30.6122 52.8543 30.1093 53.2115 29.6782C53.3544 29.2471 53.283 29.0316 52.7829 28.9597C52.7829 28.9597 52.7829 28.8879 52.7114 28.8879C52.8543 28.8879 52.9258 28.816 52.9258 28.6723C52.3542 28.5286 51.7826 28.5286 51.2825 28.3849C51.354 28.3131 51.354 28.3131 51.354 28.2412L51.7112 28.0257C51.7112 27.9538 51.6398 27.9538 51.6398 27.882C51.354 27.882 51.0682 27.882 50.711 27.9538C50.4252 28.0975 50.2823 28.4568 50.1394 27.882C50.068 28.0975 49.7822 28.1694 49.7107 28.3131C49.2821 28.7442 48.9248 29.2471 48.4962 29.6782C47.7817 30.3967 47.1387 31.2589 46.4243 31.9774C45.6384 32.7677 45.0668 33.4862 44.2809 34.2047C43.7093 34.7076 43.3521 35.2106 42.3519 35.7854C41.9232 36.0728 41.3516 36.2165 40.923 36.0009C40.3514 35.6417 40.6372 34.6358 40.923 33.9891C41.1373 33.4862 41.9232 31.9774 42.2804 31.1152C43.0663 29.3189 43.495 28.3131 42.9234 27.3072C42.7091 26.9479 42.1375 26.8042 41.7803 26.5168C41.2802 26.3731 40.7801 26.3731 40.2085 26.5168C39.7798 26.6605 39.4226 26.8761 39.1368 27.0916C38.9225 27.2353 38.6367 27.379 38.4938 27.6664C38.4224 28.0257 38.7082 28.3849 38.994 28.8879C39.2083 29.1034 39.7798 29.0316 40.4943 28.816C40.7086 29.3189 38.7082 31.5463 38.1366 33.6299C37.7794 34.8513 37.7079 35.7135 38.4224 37.0786C38.6367 37.5097 38.9939 37.7971 39.2083 38.0845C39.3512 38.2282 39.637 38.4438 39.4941 38.3001C39.4941 38.2282 39.5655 38.0845 39.637 37.9408C39.637 38.0845 39.637 38.1564 39.7084 38.2282C39.9942 38.9467 40.4229 39.1623 41.2088 39.0904C42.2804 39.0186 43.1378 38.3719 44.138 37.9408C44.8525 37.5816 45.2097 36.8631 45.7098 36.2165C45.7812 36.1446 45.9956 36.0009 46.067 35.8572C46.1385 35.8572 46.1385 35.7854 46.2099 35.6417C46.4243 35.2824 47.4959 34.2047 47.6388 34.3484C47.6388 34.4921 47.5674 34.5639 47.5674 34.6358H47.6388L48.7105 33.558C48.8534 33.7736 48.9248 33.8454 48.8534 33.9891C49.0677 34.4202 49.2106 34.8513 49.4964 35.2824C49.5678 35.4261 49.7107 35.5698 49.8536 35.7854C50.068 36.3602 50.2823 36.9349 50.9967 37.2223C51.4254 37.366 51.7826 37.5816 52.0684 38.0127C52.0684 38.1564 52.4256 38.3001 52.7114 38.4438C52.9258 38.5156 53.2115 38.6593 53.4259 38.803C53.7117 38.803 53.9974 38.9467 54.3547 39.0904C54.569 39.1623 54.7119 39.0904 54.9262 39.1623C55.4978 39.5215 55.9265 38.803 56.6409 38.9467C56.498 38.803 56.498 38.7312 56.3551 38.5875C57.6411 38.5156 58.6414 38.3001 59.4987 37.2223C59.4987 37.2223 59.4273 37.2223 59.4273 37.1505C59.2129 37.2223 59.1415 37.2942 58.9272 37.4379C58.8557 37.366 58.8557 37.366 58.8557 37.2942L59.7845 36.6476C59.7845 36.5757 59.7845 36.5039 59.6416 36.3602C59.7845 36.2165 59.9988 36.1446 60.1417 36.1446C60.499 36.1446 60.9991 35.7135 60.9991 35.3543C61.0705 34.995 61.2134 34.7076 61.5706 34.7076C61.7135 34.7076 61.8564 34.6358 62.1422 34.6358C61.8564 34.5639 61.785 34.4921 61.7135 34.4202C61.9993 34.2765 61.785 33.9891 62.1422 33.8454C62.3565 33.7017 62.9281 33.6299 62.6423 33.1269L62.9281 32.9832C62.9995 32.2648 63.5711 31.9774 63.9283 31.5463C63.6425 31.5463 63.3568 31.4744 63.2853 31.6181ZM47.2101 31.8337C48.0675 30.9715 48.7819 30.1811 49.5678 29.2471C49.6393 29.6782 48.0675 31.5463 47.2101 31.8337ZM40.8515 32.1929C40.8515 32.0492 40.923 31.9055 40.9944 31.7618C40.923 31.4026 41.8518 29.75 42.3519 29.6063C42.0661 30.3248 40.9944 32.1929 40.8515 32.624C40.4943 32.4803 40.4943 32.4803 40.8515 32.1929ZM48.7819 31.9774C48.4962 32.3366 48.2104 32.3366 47.7103 32.2648C47.996 31.9774 48.1389 31.8337 48.4247 31.6181V31.9055C48.4962 31.8337 48.6391 31.8337 48.6391 31.7618C48.7819 31.5463 48.9248 31.2589 48.9963 31.0433C49.1392 30.8996 49.1392 30.8278 49.2106 30.7559C49.4964 31.187 49.2106 31.5463 48.7819 31.9774ZM61.8564 33.2706L61.0705 33.8454L60.5704 33.9891C61.0705 33.4862 61.4277 33.1269 61.7135 32.6959C61.6421 32.6959 61.6421 32.6959 61.6421 32.624C61.0705 33.1269 60.499 33.7017 59.9274 34.1328C59.8559 34.061 59.8559 34.061 59.7845 34.061L62.1422 31.9774L62.2851 32.8396C62.2136 32.9833 61.9993 33.1269 61.8564 33.2706ZM42.7805 36.0728C43.5664 35.5698 44.4952 35.0669 45.2097 34.6358C45.1382 35.0669 43.3521 36.0728 42.7805 36.0728ZM58.2842 35.4261C58.2842 35.2824 58.2127 35.3543 58.1413 35.2106C58.2842 35.1387 58.427 34.995 58.4985 34.9232C58.5699 34.9232 58.7128 35.0669 58.9272 35.2106L58.2842 35.4261ZM39.4941 37.6534C39.4941 37.6534 39.4941 37.6534 39.4941 37.7253V37.6534Z" fill="#263C43"/>
<path d="M92.061 29.3908C92.5611 28.8879 93.7042 27.2353 93.7757 26.9479C93.7757 26.7324 93.7757 26.6605 93.7042 26.5168C93.5613 26.5168 93.4899 26.5168 93.4184 26.6605C92.6325 27.0916 91.7752 27.5946 90.8464 28.0257C88.6316 29.3189 86.8455 30.3967 84.4878 31.6181C83.8448 31.9055 82.7017 32.9114 81.8443 33.2706C81.7729 33.1269 81.8443 32.9833 81.8443 32.7677C81.8443 32.4085 81.9158 31.6181 81.9872 31.2589C81.9872 30.3248 81.8443 29.3908 82.4873 28.6005C82.4873 28.6005 82.5588 28.5286 82.4873 28.5286C82.4873 27.7383 82.7731 27.0916 83.0589 26.3731C83.2732 25.942 83.4161 25.2954 83.7019 24.9362C83.7733 24.7206 83.9877 24.5051 84.202 24.2895C84.3449 24.0021 84.202 24.2177 84.7736 23.8584C84.7736 23.8584 85.2737 23.8584 85.5595 23.6429C86.3454 23.1399 83.559 22.2777 82.7017 22.7088C82.273 22.7807 81.9158 23.0681 81.63 23.3555L81.1299 24.074L78.5578 26.2294C76.7003 27.8101 72.7708 30.4685 70.9132 31.7618C70.2702 32.1929 68.2697 33.4143 67.6982 33.7736C67.6267 33.4862 67.5553 32.8396 67.5553 32.6959C67.4124 31.7618 67.4124 31.1152 67.3409 30.1811C67.1266 27.4509 67.3409 25.008 69.6272 22.5651C70.4131 21.9185 71.1275 21.9185 71.7705 22.5651C72.5564 23.4992 73.128 22.7807 73.128 22.7807L73.1995 22.4214C73.0566 22.0622 72.6279 20.7689 71.3419 20.4097C71.1275 20.266 70.8418 20.1941 70.556 20.1941C70.3416 20.0504 68.4126 20.266 67.5553 21.3437C66.0549 22.8525 65.1261 24.5769 64.9833 26.445C64.5546 28.4568 64.8404 30.3967 65.0547 32.3366C65.1261 33.4143 65.4119 33.7736 65.5548 34.9232C64.8404 35.4261 63.983 35.7854 63.2686 36.2883C61.4824 37.5816 59.6963 38.9467 58.7675 41.5333C58.1245 42.9703 57.9102 44.1917 58.6961 45.4131C59.1248 45.9161 59.3391 46.7064 59.8392 47.0657C60.4822 47.4968 61.6968 47.7123 62.9828 47.856C63.8401 47.7123 64.4831 47.5686 64.9833 47.1375C65.6263 46.5627 66.3407 45.9879 66.9123 45.4131C67.7696 44.4073 68.2697 43.4014 68.627 41.8207C68.8413 40.9585 68.6984 40.0245 68.6984 39.1623C68.627 38.2282 68.4841 37.5097 68.3412 36.3602L68.2697 35.7854C69.1271 35.0669 70.4845 34.3484 71.4848 33.6299C72.7708 32.7677 76.5574 30.3248 77.6291 29.4626C78.3435 28.8879 78.9865 28.4568 79.5581 28.0257C79.4866 28.2412 79.4866 28.3849 79.4152 28.6005V29.6063C79.3437 29.9656 79.3437 30.4685 79.3437 30.9715C79.3437 31.9774 79.2723 33.0551 79.2008 34.2765C79.2723 34.6358 79.2009 35.0669 78.7722 35.2106C78.6293 35.3543 78.3435 35.5698 78.2006 35.7135L76.4145 37.4379C75.7715 38.0845 74.9141 38.8749 74.2711 39.7371C73.6281 40.5993 73.128 41.6051 72.7708 42.6829C72.6279 43.0421 72.3421 43.5451 72.1992 44.048C72.1992 44.1199 72.1278 44.1199 71.9849 44.2636L71.9134 44.3354C71.6277 45.4131 71.7705 46.4909 72.1278 47.4249C72.3421 47.9997 72.6279 48.5745 72.9137 49.293C73.1995 49.7959 73.4852 50.5863 74.1282 50.9455C74.1997 51.0892 74.1997 51.1611 74.2711 51.1611C74.414 51.3766 74.6998 51.7359 74.8427 51.8796C75.1999 52.0951 75.6286 52.2388 76.0573 52.4543C76.4859 52.598 76.9146 52.7417 77.3433 52.6699L78.0577 52.3825C78.0577 52.2388 77.9863 52.2388 77.9863 52.167C78.2006 52.167 78.3435 52.167 78.5578 52.0951C79.1294 51.3048 79.4866 50.5863 80.0582 49.7959C80.1296 49.5804 80.2725 49.3648 80.2725 49.293C80.5583 48.79 80.8441 48.4308 80.6298 47.9997C80.8441 47.6405 80.987 47.4249 80.987 47.1375C81.2728 45.8442 81.5585 44.4791 81.7014 43.1858C81.7014 42.9703 81.63 42.8266 81.63 42.6829C81.9158 42.4673 81.7729 42.1799 81.7729 41.9644C81.7014 41.677 81.4871 41.3896 81.4871 40.9585C81.5585 40.6711 81.7729 40.3837 81.7729 40.0963C81.7729 39.2341 81.7729 38.4438 81.8443 37.7253C81.8443 37.4379 81.7014 37.0068 81.7729 36.7194C81.7014 36.5039 81.7014 36.3602 81.7014 36.2165C81.7014 36.1446 81.9872 35.9291 82.0587 35.8572C82.916 35.3543 83.7019 34.6358 84.4878 34.1328C85.5595 33.558 86.5597 32.8396 87.7028 32.3366C88.0601 31.9774 88.4887 31.69 89.0603 31.4744C89.5604 31.187 89.9891 30.9715 90.3463 30.6122C90.4892 30.4685 90.7035 30.3967 90.8464 30.3248C91.1322 30.1811 91.6323 30.1093 91.5609 29.6782C91.7752 29.6063 91.9895 29.6063 92.2039 29.6063L92.061 29.3908ZM76.986 29.3189C76.4145 29.6063 75.8429 29.9656 75.1999 30.5404L75.1285 30.4685L75.4143 30.1093C75.7 29.8219 75.9144 29.6782 76.0573 29.5345C76.2716 29.4626 76.4859 29.1753 76.6288 29.1753C77.4147 28.3849 78.0577 28.0975 78.4864 27.5227C78.9151 27.1635 79.2723 26.9479 79.701 26.6605L79.5581 26.8761C79.2723 27.1635 78.7722 27.5227 78.3435 27.9538L76.986 29.3189ZM66.555 27.5227V28.7442V28.9597C66.555 29.1752 66.555 29.3189 66.4836 29.0316C66.1978 28.3849 66.6265 30.1811 66.6265 30.7559L66.8408 32.1211C66.7694 32.2648 66.7694 32.4085 66.7694 32.624C66.8408 32.7677 66.8408 32.9114 66.8408 33.0551C66.8408 33.3425 66.8408 33.7736 66.9123 33.9173H66.7694C66.6979 33.7736 66.6265 33.4862 66.6265 33.4143C66.4122 33.1269 66.2693 32.1929 66.555 31.6181C66.4122 31.5463 66.3407 31.5463 66.1978 31.6181V31.5463C66.2693 31.3307 66.3407 31.187 66.555 31.0433C66.4122 30.9715 66.4122 30.8278 66.3407 30.7559L66.4122 30.6122C66.3407 30.5404 66.2693 30.3967 66.1978 30.3967L66.4122 30.253C66.2693 30.1093 66.1978 30.0374 66.1978 29.9656C66.1978 29.6782 66.1264 29.5345 66.1264 29.3908V28.6005C66.0549 28.2412 66.1264 27.9538 66.0549 27.6664L66.555 27.5227ZM87.2742 30.3967C87.4885 30.3248 87.4885 30.3967 87.4885 30.4685C87.0598 30.6841 86.774 30.8996 86.4883 31.0433C86.4883 30.9715 86.4168 30.9715 86.4168 30.8996C86.7026 30.6841 86.9884 30.4685 87.2742 30.3967ZM83.9877 32.6959L86.2739 31.2589C86.2025 31.69 84.5592 32.6959 83.9877 32.6959ZM86.9169 32.2648C86.9169 32.2648 86.7026 32.1929 86.4883 32.1929V31.9774C86.9169 31.7618 87.2027 31.6181 87.5599 31.4026H87.7028C87.4885 31.69 87.2027 31.9055 86.9169 32.2648ZM85.3451 32.9832C85.2737 32.9832 85.1308 32.9832 85.1308 32.9832V32.7677C85.1308 32.4085 85.8453 32.5522 86.0596 32.7677C85.7738 32.8396 85.5595 32.8396 85.3451 32.9832ZM83.9877 32.7677C83.8448 33.0551 83.559 33.0551 83.2732 33.2706C83.2732 32.7677 83.6305 32.8396 83.9877 32.7677ZM83.4161 34.3484C83.1303 34.061 83.1303 34.061 83.559 33.9891L83.9162 33.6299C83.9877 33.2706 84.2735 33.2706 84.7736 33.3425C84.202 33.8454 83.7019 34.061 83.4161 34.3484ZM74.0568 40.6711C75.1285 38.5156 77.2718 37.0068 79.1294 35.3543C79.2008 35.5698 79.2008 35.7135 79.058 35.9291C78.415 36.5039 77.7005 37.0068 77.0575 37.5816C76.4859 38.0127 76.0573 38.5156 75.6286 39.0186C75.1285 39.3778 74.7712 39.8808 74.4855 40.4556C74.3426 40.5993 74.2711 40.6711 74.1997 40.8148L74.0568 40.6711ZM64.3402 44.4073C63.4115 44.982 62.7685 45.4131 62.1254 45.4131C61.1252 45.4131 60.6965 44.982 60.6251 43.8325C60.6251 43.2577 60.6251 42.6829 60.8394 42.0362C61.3396 40.8866 61.6253 40.4556 61.9826 39.9526C62.697 39.4497 63.4829 38.3001 64.4831 37.9408C64.9118 37.5816 65.1976 37.366 65.912 37.0068C66.0549 38.2282 66.4836 39.8089 66.1264 41.6051C65.7692 43.3295 64.6975 43.8325 64.3402 44.4073ZM62.5541 38.0845C62.697 38.0845 63.1257 37.7971 63.5544 37.5816L63.6258 37.366C63.6258 37.366 63.8401 37.5816 63.6258 37.6534L62.5541 38.5156V38.0845ZM79.1294 40.9585C79.2008 42.1081 79.058 43.0421 78.7722 44.1199C78.7007 44.8383 78.3435 45.6287 78.1292 46.3472C77.9863 46.922 77.8434 47.4968 77.4862 47.9997C76.986 48.5745 76.6288 49.5085 75.7715 49.8678C75.4857 50.0833 75.057 50.0115 74.8427 49.7241C74.3426 48.9337 74.2711 48.0716 74.3426 47.2094C74.414 46.922 74.1997 46.7064 74.1997 46.4909C74.2711 45.5568 74.2711 44.551 74.5569 43.5451C74.8427 42.6829 75.4857 41.6051 76.1287 40.5993C76.2716 40.3837 76.7003 40.1682 76.9146 39.8089C77.2718 39.2341 77.7719 39.0186 78.2721 38.6593C78.5578 38.3001 78.9865 38.0845 79.3437 37.7971C79.2723 38.8749 78.9865 39.8808 79.1294 40.9585ZM64.9833 45.1976C66.0549 44.4791 66.3407 43.8325 67.0552 43.1858C66.4836 44.6946 65.7692 45.3413 64.9833 45.1976Z" fill="#263C43"/>
<path d="M93.9487 21.4874C94.3774 21.7748 94.806 21.7748 95.1633 21.6311C95.8063 21.2 96.4493 20.7689 96.7351 19.9786C97.0208 19.1882 96.7351 18.3979 96.5207 17.6794C96.3778 17.1765 95.9492 16.9609 95.1633 17.0328C95.1633 17.0328 94.8775 17.0328 94.806 17.1046C93.8773 17.6076 93.0914 18.1105 92.7341 19.1882C92.5912 19.9067 92.7341 20.4815 93.1628 20.9845C93.3771 21.2 93.7344 21.3437 93.9487 21.4874ZM103.737 27.9538C102.808 28.8879 101.879 29.6782 101.022 30.4685C99.9501 31.4744 98.9499 32.624 97.8067 33.6299C96.7351 34.7076 95.4491 35.7135 94.3059 36.7194C93.7344 37.2223 93.0914 37.5097 92.3055 37.7253C92.3769 37.0068 92.5912 36.3602 92.5912 35.7135C92.6627 34.995 93.0914 34.3484 92.877 33.7017C92.877 33.558 92.9485 33.4862 93.0199 33.3425C93.0914 33.0551 93.2342 32.7677 93.3771 32.4803C93.6629 31.5463 93.9487 30.6841 94.163 29.8219C94.3059 29.4626 94.4488 29.1034 94.4488 28.6723C94.5203 28.3131 94.5203 27.882 94.3774 27.5946C94.2345 27.3072 93.8773 27.0198 93.5915 26.8042C93.3771 26.445 92.877 26.2294 92.6627 25.8702C92.4483 25.5109 92.234 25.6546 92.0197 25.7265C91.7339 25.7265 91.6625 25.942 91.7339 26.2294V26.8042C91.3767 28.1694 91.0194 29.3908 90.7337 30.6841C90.4479 31.6181 90.1621 32.5522 90.0192 33.4862C89.662 34.7795 89.3762 36.1446 89.5191 37.366C89.5905 37.6534 89.8049 37.7971 89.8763 38.0845C90.0192 38.2282 90.1621 38.4438 90.2336 38.6593C90.305 38.803 90.305 39.0186 90.4479 39.0904C90.948 39.4497 91.2338 40.0963 91.9482 40.24C92.4484 40.3837 92.8056 40.5993 93.3771 40.4556C93.8773 40.1682 94.3774 39.9526 94.806 39.7371C95.2347 39.5934 95.6634 39.5215 95.9492 39.2341C96.3778 38.9467 96.7351 38.6593 97.0208 38.3001C97.4495 37.7253 97.9496 37.1505 98.5212 36.7913L98.8784 36.432C99.0213 36.2883 99.0928 36.0728 99.2356 35.9291C99.45 35.6417 99.7358 35.3543 100.022 35.0669C100.093 34.995 100.022 34.9232 100.022 34.7795C99.7358 34.995 99.5214 35.2106 99.3071 35.3543C99.2356 35.2824 99.2356 35.2824 99.1642 35.2824C99.2356 35.1387 99.3071 34.995 99.3785 34.9232C99.8072 34.5639 100.236 34.3484 100.379 33.9173C100.164 34.061 99.8787 34.2765 99.6643 34.4921C99.6643 34.3484 99.7358 34.1328 99.8072 34.061C100.022 33.8454 100.164 33.6299 100.307 33.4143C100.736 33.0551 101.165 32.6959 101.45 32.3366C102.022 31.69 102.451 31.1152 102.879 30.5404L102.808 30.4685C102.736 30.4685 102.665 30.5404 102.594 30.5404C102.022 31.187 101.45 31.9055 100.736 32.4803C100.522 32.7677 100.236 32.9833 100.236 33.4143C100.022 33.4862 99.8072 33.6299 99.5929 33.7736C99.5214 33.6299 99.5214 33.558 99.45 33.4862C99.6643 33.3425 99.8072 33.3425 100.022 33.3425C100.093 33.1988 100.022 33.0551 100.022 32.9832C99.8072 32.9832 99.6643 33.0551 99.45 33.0551C99.3785 33.0551 99.3071 33.1988 99.2356 33.2706C99.0213 32.9114 99.5214 32.3366 100.236 31.9774C100.164 32.0492 100.164 32.1211 100.164 32.1211L99.8072 32.5522C99.8787 32.5522 99.9501 32.624 99.9501 32.624L100.665 31.9055C100.807 31.8337 101.022 31.7618 100.736 31.5463C100.665 31.5463 100.665 31.2589 100.736 31.1152C100.807 31.0433 100.95 30.8996 101.022 30.8996C101.308 30.8996 101.379 30.8278 101.379 30.5404C101.379 30.4685 101.45 30.4685 101.45 30.3967H101.522C101.593 30.5404 101.522 30.7559 101.593 30.8996C101.879 31.0433 102.022 30.8278 102.236 30.6122C102.522 30.3967 102.665 30.1811 102.594 29.8937C102.736 29.8937 102.951 29.9656 102.951 29.8937C103.094 29.6782 103.237 29.6782 103.308 29.5345C103.237 29.4626 103.094 29.3908 102.951 29.3189C103.094 29.2471 103.165 29.2471 103.308 29.2471C103.379 29.2471 103.522 29.2471 103.594 29.1753C103.951 28.5286 103.88 28.0975 103.737 27.9538ZM100.379 33.8454C100.45 33.9891 100.593 34.061 100.665 34.1328C100.807 33.8454 100.879 33.6299 100.95 33.4143C100.879 33.3425 100.879 33.3425 100.807 33.3425L100.379 33.8454ZM98.2354 34.1328L98.3069 34.2047C98.4497 34.2047 98.5212 34.1328 98.5926 34.1328C98.5926 34.2047 98.6641 34.2047 98.6641 34.2765C98.2354 34.4202 97.8782 34.5639 97.4495 34.7076V34.6358C98.0925 34.3484 98.2354 33.4862 98.9499 33.4862C98.7355 33.7017 98.5212 33.9173 98.2354 34.1328Z" fill="#263C43"/>
<path d="M103.138 36.9349C104.209 37.366 105.424 37.366 106.567 36.7913C107.71 36.2883 108.853 35.3543 109.711 34.7076C109.854 34.6358 109.925 34.4202 110.068 34.2765C110.568 34.2765 110.568 33.558 111.068 33.2706C111.14 33.4143 111.14 33.558 111.283 33.6299C111.497 33.9891 111.425 34.1328 111.854 34.5639C112.14 35.2106 112.64 35.498 113.069 36.0728C113.283 36.1446 113.426 36.432 113.64 36.5039C113.783 36.6476 114.212 36.6476 114.355 36.7194C114.64 36.7913 115.283 36.6476 115.569 36.6476C115.784 36.6476 116.141 36.5039 116.212 36.5039C116.427 36.5039 116.784 36.3602 116.927 36.2883C117.284 36.0728 117.498 36.1446 117.927 35.9291C118.641 35.4261 119.284 35.2824 119.856 34.6358C120.142 34.2765 120.642 33.9891 120.999 33.7017V33.558C120.642 33.7736 120.142 33.9891 119.785 34.2047V33.9173C119.999 33.9173 120.142 33.8454 120.285 33.7736L120.356 33.7017C120.213 33.7017 120.07 33.7017 119.856 33.6299C120.07 33.558 120.213 33.4862 120.356 33.3425C120.499 33.1269 120.642 32.9833 120.785 32.9114C121.356 32.624 121.928 32.1929 122.499 31.9055C122.714 31.7618 122.785 31.5463 122.785 31.4026C122.499 31.69 121.999 31.8337 121.571 32.1211C121.142 32.4803 120.785 32.4085 120.285 32.624C120.285 32.6959 120.356 32.7677 120.356 32.8396C120.142 32.6959 119.927 32.6959 119.642 32.9114C119.499 33.0551 119.284 33.0551 119.07 33.1269V32.9832C119.356 32.9114 119.57 32.6959 119.785 32.624C120.499 32.0492 121.142 31.6181 121.999 31.2589C122.499 30.8996 122.857 30.5404 123.428 30.253C123.5 30.253 123.643 30.3248 123.643 30.3967C123.714 30.6841 123.571 30.8996 123.285 31.0433C123.142 31.187 122.928 31.3307 122.857 31.3307C122.928 31.4026 122.928 31.4744 122.928 31.4744C123.142 31.4026 123.357 31.4026 123.428 31.3307C123.785 31.187 124.071 30.8278 124.286 30.6122C124.5 30.4685 125 30.253 125.357 29.9656C126.286 29.3189 127.429 28.7442 128.144 27.6664C127.786 27.5227 127.786 27.8101 127.786 27.9538C127.358 28.2412 127.358 28.2412 127.215 27.882L127.858 27.0198L127.643 26.8761C126.929 27.3072 126.357 27.6664 125.857 28.0975C124.214 29.1752 124.357 29.0316 122.642 30.1093C121.642 30.8278 120.57 31.4744 119.642 32.0492C118.641 32.7677 117.498 33.6299 116.355 34.1328C116.069 34.2765 115.784 34.2765 115.569 34.3484C115.355 34.4202 115.212 34.4202 115.069 34.3484C114.712 34.1328 114.498 33.8454 114.426 33.558C113.997 32.5522 113.997 31.4744 114.212 30.4685C114.283 30.3248 114.283 30.1811 114.355 30.1093C114.569 29.5345 114.498 28.7442 114.498 28.7442C114.355 28.2412 114.069 27.882 113.64 27.7383C112.783 27.6664 112.283 28.2412 111.711 28.3131C112.068 27.5946 112.64 26.9479 112.426 25.942C112.14 24.2895 110.425 24.0021 108.925 23.7147C107.567 23.8584 106.353 24.7206 105.495 25.6546C104.638 26.7324 103.709 27.5946 102.923 28.816C102.781 28.9597 102.638 29.3189 102.352 29.6782L101.852 30.5404C101.709 31.0433 101.495 31.4026 101.423 31.8337C101.423 31.9055 101.423 31.9055 101.352 31.9774C101.209 32.4085 101.066 32.7677 100.852 33.2706C100.566 34.3484 100.78 35.2824 101.423 36.1446C101.852 36.3602 102.423 36.7194 102.566 36.8631C102.781 36.9349 102.995 36.9349 103.138 36.9349ZM102.995 34.8513C103.352 33.4143 103.995 32.1929 104.638 31.0433C105.424 29.6782 107.925 26.3013 110.068 25.942C109.997 26.0139 109.425 29.1753 110.997 29.3189H111.068C111.068 29.3189 110.782 29.6782 110.711 29.6782C109.639 30.8278 109.139 31.69 108.067 32.8396C107.353 33.6299 106.71 34.1328 105.781 34.4921C105.067 34.7795 103.781 34.8513 102.995 34.8513ZM124.214 30.4685C124.071 30.3248 123.785 30.1811 123.643 30.1093C123.714 29.9656 124.643 29.3189 125.143 29.0316C125.5 28.816 125.857 28.6005 126 28.4568C126.072 28.4568 126.072 28.5286 126.072 28.6005C126 28.6723 125.929 28.816 125.786 28.8879V29.3189C125.643 29.3908 125.357 29.3908 125.214 29.4626C125 29.5345 124.714 29.6063 124.643 29.75C124.5 29.8219 124.357 29.8937 124.357 30.1811C124.357 30.253 124.286 30.4685 124.214 30.4685Z" fill="#263C43"/>
<path d="M126.303 40.5274C126.875 40.6711 127.161 40.5993 127.446 40.0245C127.518 39.9526 127.518 39.8808 127.661 39.8089L127.875 39.306C128.232 39.306 128.518 39.0904 128.804 38.7312C129.161 37.9408 129.59 37.2942 130.018 36.5757L129.804 36.3602C129.804 36.3602 129.876 36.3602 129.947 36.2165C129.947 36.1446 129.876 36.0728 129.804 36.0009C130.09 35.8572 130.447 35.6417 130.376 35.2106C130.447 35.2824 130.519 35.2824 130.59 35.2824C130.519 34.995 131.162 35.2824 130.947 34.7795C130.804 34.7795 131.233 34.4202 131.304 34.2047C131.519 33.8454 132.019 33.7736 131.947 33.1988C132.448 32.9832 132.805 32.624 132.948 32.0492C133.448 31.9774 133.734 31.7618 133.948 30.9715C134.019 31.187 134.162 31.2589 134.305 31.4026C134.305 31.8337 134.234 32.3366 134.234 32.6959C134.091 34.2047 134.377 35.5698 134.734 36.7913C135.02 37.7253 135.591 38.3719 136.234 38.8749C136.591 39.306 136.806 39.306 137.306 39.5215H137.377C138.449 39.306 139.664 39.306 140.664 38.5875C141.307 38.1564 141.95 37.6534 142.378 37.1505C142.879 36.6476 143.45 36.2165 143.736 35.6417C143.736 35.5698 143.95 35.5698 144.022 35.498C143.95 35.4261 143.95 35.2824 143.95 35.2824C144.308 35.0669 144.308 34.8513 144.379 34.7076L145.594 33.2706C145.879 33.0551 146.165 32.6959 146.308 32.4085C146.451 32.1211 146.451 31.8337 146.594 31.4744H146.522L146.594 30.5404C146.808 30.253 147.022 29.8937 147.237 29.75H146.88C147.094 29.3908 147.094 29.3908 147.38 29.3189C147.451 29.2471 147.451 29.1753 147.451 29.1753C147.237 28.9597 147.523 28.6723 147.594 28.5286C147.665 28.3849 147.88 28.1694 147.951 28.0257C148.023 27.9538 147.951 27.9538 147.951 27.9538C146.022 30.4685 143.95 32.9832 141.307 35.0669C141.378 35.0669 141.378 35.0669 141.45 35.1387C141.878 34.7795 142.378 34.4202 142.807 34.1328C142.736 34.2047 142.807 34.2047 142.95 34.2765C142.593 34.4921 142.164 34.7795 141.878 35.0669C141.807 35.1387 141.664 35.2824 141.45 35.3543C141.092 35.5698 140.664 36.0009 140.235 36.1446C139.878 36.432 139.449 36.6476 139.021 36.7913C137.806 37.4379 137.592 37.5097 137.52 37.5816H137.306C137.234 37.5097 137.02 37.2942 137.02 37.1505L136.806 36.432C136.806 35.9291 136.806 35.3543 136.734 34.8513C136.806 34.6358 136.734 34.4202 136.734 34.2765C136.806 33.7017 136.877 33.1269 136.877 32.5522C136.806 31.9055 136.663 31.2589 136.449 30.6122C136.449 30.3967 136.52 30.1811 136.449 30.1811C136.163 30.0374 136.234 29.6782 136.163 29.3189C135.52 29.75 135.234 29.1753 134.662 29.1034V29.0316C134.805 29.0316 135.02 28.9597 135.234 28.9597C135.02 28.7442 134.877 28.6005 134.662 28.6005C134.448 28.5286 134.305 28.4568 133.734 28.4568C133.019 28.5286 132.948 28.5286 132.59 28.7442C132.019 29.1753 131.519 29.6782 131.09 30.1811C130.233 31.0433 129.447 32.0492 128.732 33.1269C128.732 33.1988 128.732 33.1269 128.661 33.1988C128.732 33.0551 128.732 32.9833 128.732 32.9114C128.875 32.4085 129.09 31.9774 129.233 31.4744C129.375 30.9715 129.375 30.6122 129.447 30.1093C129.518 29.5345 129.59 29.0316 129.733 28.4568C129.733 28.3849 129.733 28.3849 129.661 28.3131C129.161 27.5946 128.518 26.9479 127.589 26.8761C127.161 26.8042 127.018 26.9479 126.946 27.4509C126.875 27.882 126.803 28.3131 127.018 28.5286C127.089 28.5286 127.089 28.6723 127.089 28.7442C126.946 29.6063 126.875 30.3967 126.661 31.2589C126.375 32.5522 125.946 33.8454 125.589 35.0669C125.303 36.3602 125.16 37.5097 124.946 38.7312C124.803 39.306 125.232 40.0245 125.66 40.0963C125.875 39.9526 125.375 39.5215 125.875 39.4497C125.946 39.5215 125.946 39.6652 126.018 39.8089C125.946 40.0963 125.875 40.3837 126.303 40.5274ZM129.804 32.3366C129.804 32.1929 129.733 32.1929 129.733 32.1929L130.804 30.8278L131.662 29.8937C131.947 29.6063 132.305 29.6063 132.805 29.6782C132.59 29.8219 132.448 30.0374 132.376 30.1093C132.376 30.1811 132.233 30.1093 132.162 30.0374C131.947 30.253 131.662 30.3967 131.805 30.8278C131.805 30.8278 131.733 30.9715 131.662 30.9715C131.304 30.8278 131.09 31.187 130.947 31.4026C130.947 31.4744 130.876 31.4744 130.733 31.5463C130.804 31.6181 130.876 31.6181 130.947 31.7618C130.661 31.9055 130.519 32.0492 130.233 32.1929L130.161 32.1211C130.304 31.9774 130.376 31.8337 130.447 31.6181C130.447 31.6181 130.519 31.5463 130.447 31.5463L129.804 32.3366ZM131.447 32.5522C131.376 32.4085 131.376 32.3366 131.376 32.1211C131.447 32.1211 131.662 32.0492 131.805 31.9774C131.519 31.4744 132.09 31.4744 132.162 31.2589C132.233 31.4026 132.376 31.4744 132.376 31.7618H132.162C132.162 32.3366 131.662 32.1929 131.447 32.5522ZM143.093 34.4202C143.021 34.4202 143.021 34.4202 142.95 34.3484C143.45 33.7736 143.95 33.2706 144.522 32.6959C144.593 32.6959 144.665 32.7677 144.665 32.7677C144.522 33.0551 144.308 33.1988 144.093 33.4143C143.807 33.7736 143.593 33.9891 143.236 34.2765C143.236 34.3484 143.164 34.4202 143.093 34.4202Z" fill="#263C43"/>
<path d="M39.7037 55.1523C41.529 54.5682 42.7735 53.4835 43.9351 52.0651C44.101 51.8982 44.3499 51.481 44.184 51.0638C43.6032 51.6479 43.2713 51.9816 42.7735 52.3154C41.363 53.4001 40.0355 53.567 38.0443 53.4835C34.4766 52.8995 31.5727 51.3976 29.2496 48.5607C27.5073 46.141 25.9309 43.3876 24.6863 40.6341C24.6034 40.3838 24.4374 39.9666 24.3545 39.6329C24.4374 39.6329 24.4374 39.6329 24.4374 39.5494C24.1056 38.8819 23.7737 38.131 23.3588 37.4635C23.1099 36.9629 22.944 36.7126 23.1929 36.2954C22.7781 35.7947 22.5292 35.3776 22.4462 34.9604C22.6121 33.8757 21.9484 32.9579 21.5335 31.9566C23.8567 31.2057 26.0138 30.121 28.0051 29.2032C30.0793 28.2854 31.7387 27.1172 33.564 25.5319C35.3063 24.03 37.1316 22.1944 38.2102 19.9416C38.791 18.7735 39.3718 17.6053 39.7037 16.3538C40.2844 13.6838 40.2844 11.431 39.5377 9.01126C39.0399 7.50939 38.5421 6.34126 37.7124 5.34001C36.136 3.25407 34.2277 2.0025 32.2365 0.917812C30.826 0.250312 29.3326 0 27.8391 0C25.682 0 23.5248 0 21.3676 0.333749C18.6296 0.6675 16.0576 1.50188 13.6515 2.83688C11.3284 4.08844 9.17121 5.59032 7.097 7.25907C5.27169 8.76095 3.44638 10.5131 1.78701 12.4322C1.28919 13.1831 0.791382 13.8506 0.459508 14.685C0.210602 15.3525 -0.121273 16.2703 0.0446647 16.9378C0.210602 18.1894 0.791382 19.0238 1.12326 20.1085C1.37216 20.3588 2.11888 20.6091 2.28482 20.3588C3.1145 19.6913 3.61232 19.1072 3.36341 18.2728C3.28044 16.771 3.69528 15.7697 4.35903 14.685C5.10575 13.6003 5.7695 12.766 6.51622 11.7647C8.00965 9.67876 9.91793 8.34376 11.8262 6.84188C11.9921 6.75845 12.2411 6.75845 12.324 6.67501C14.2323 5.84063 15.8917 4.50563 17.717 3.92157C17.9659 3.92157 18.0489 3.75469 18.2978 3.58782C18.8785 3.50438 19.2104 3.17063 19.8742 3.08719C21.2846 2.41969 22.861 2.33625 24.5204 2.25281C25.7649 1.91907 27.0924 1.83563 28.337 1.83563C30.7431 1.83563 32.9002 2.33625 34.6426 4.08844C36.302 5.67376 37.2976 7.42595 37.7954 9.59533C38.3762 13.1831 37.4635 16.2703 35.6382 19.1072C35.0574 20.3588 33.8129 21.36 33.1491 22.695C33.1491 22.7785 33.0662 22.9453 32.9832 22.9453C32.2365 23.0288 31.9876 23.8632 31.5727 24.3638C31.1579 24.781 30.826 25.1982 30.2452 25.5319C29.2496 26.116 28.337 26.9504 27.5073 27.6179C27.0924 27.7847 26.5117 28.2019 26.0968 28.3688C25.7649 28.6191 25.4331 28.7025 25.1842 28.8694C24.0226 29.9541 22.5292 30.6216 20.8698 31.0388C20.5379 30.705 20.0401 30.6216 19.5423 30.5382C18.7126 30.2879 17.7999 30.7885 17.3021 31.5394C17.1362 31.8732 16.9703 32.2069 16.9703 32.6241C16.8873 32.8744 16.8873 33.2082 16.8873 33.3751C17.8829 36.0451 18.9615 38.7985 20.5379 41.3016C20.6209 41.3851 20.7038 41.8022 20.7038 42.136C21.4506 43.471 22.0313 44.806 22.7781 46.0576C24.3545 48.6441 26.0138 50.8969 28.337 52.7326C31.7387 55.1523 35.5552 56.237 39.7037 55.1523ZM9.17121 51.0638C7.51184 48.7276 7.51184 46.2244 8.17559 43.5544C8.6734 41.8022 9.00528 39.8832 9.42012 38.3813C9.58606 37.3801 9.75199 36.6291 10.1668 35.8782C10.7476 34.2094 11.3284 32.8744 11.9921 31.3725C13.7345 27.7847 15.4768 24.1969 16.9703 20.6925C18.1318 18.4397 19.1274 16.4372 20.1231 14.101C20.6209 13.35 20.8698 12.4322 21.2846 11.6813C21.5335 11.1806 21.5335 10.5131 21.6165 9.92908C21.6165 9.01126 20.7868 8.09345 19.9571 8.09345C18.2978 8.01001 16.6384 8.17689 15.2279 8.76095C14.7301 10.096 15.145 11.0138 15.4768 11.8481C15.2279 12.8494 15.2279 13.2666 14.8131 13.9341C13.9834 16.4372 12.9878 18.69 12.1581 21.0263C11.6603 22.111 11.4114 22.9453 10.9136 23.7797C10.4157 24.5307 9.91793 25.0313 10.3328 26.1994C10.0839 27.3675 9.66902 28.2854 8.92231 29.37C8.92231 30.3713 8.17559 31.5394 7.67778 32.5407V32.4572C7.42887 34.126 6.68215 35.6279 6.10137 37.0463C5.93544 37.4635 5.85247 37.6304 5.93544 37.9641C5.93544 39.1322 5.68653 40.2169 5.02278 41.1347C4.52497 41.6354 4.52497 41.6354 4.60794 42.8035C4.69091 42.8035 4.93981 42.6366 5.18872 42.5532C5.18872 42.4697 5.18872 42.3029 5.10575 42.136C5.18872 42.3029 5.18872 42.3863 5.18872 42.5532C5.18872 43.0538 5.10575 43.471 5.02278 43.8882C4.85684 44.0551 4.52497 44.3054 4.1931 44.3888C4.27606 44.8894 4.35903 45.3066 4.35903 45.6404C4.35903 47.0588 4.93981 48.4773 5.43762 49.8123C7.01403 53.1498 9.42012 51.8148 9.17121 51.0638ZM13.7345 24.3638C13.6515 24.3638 13.6515 24.2803 13.4026 24.2803C13.6515 22.7785 14.3153 21.6103 15.2279 20.5257C14.7301 21.8607 14.3982 23.1122 14.0664 24.2803C13.9834 24.3638 13.9834 24.3638 13.7345 24.3638ZM13.4026 25.4485C13.4026 25.4485 12.9878 25.1147 12.8218 25.0313C12.9878 24.8644 13.0707 24.8644 13.2367 24.8644C13.2367 24.8644 13.4026 24.8644 13.5686 24.781C13.4026 24.9478 13.4026 25.1147 13.4026 25.4485ZM11.1625 29.2032C10.9965 28.1185 11.4943 27.1172 11.7432 26.2829C11.9921 26.0325 12.5729 25.7822 12.9048 26.1994C12.9048 26.6166 12.6559 26.7835 12.5729 27.0338C12.324 27.2841 12.407 27.5344 12.324 27.7013C11.9921 28.035 11.8262 28.2854 11.8262 28.6191C11.5773 28.786 11.4114 29.0363 11.1625 29.2032ZM29.4985 27.5344C29.9134 27.0338 30.2452 26.7835 30.826 26.2829C30.4941 27.0338 30.4112 27.5344 29.4985 27.5344ZM26.9265 28.7025C27.2584 28.2854 27.6732 28.2019 28.254 28.035C28.0881 28.8694 27.5073 28.6191 26.9265 28.7025ZM9.91793 31.8732C9.25418 31.2057 10.0839 31.2057 10.0009 30.705C9.91793 30.4547 9.91793 30.2044 10.0009 29.7872C10.1668 29.2866 10.5817 29.2866 11.0795 29.2032C10.9965 29.8707 10.9136 30.5382 10.5817 31.2057C10.4987 31.456 10.0839 31.5394 9.91793 31.8732ZM9.50309 33.4585V33.3751C9.33715 33.2082 9.00528 32.9579 9.33715 32.6241H9.50309C10.0009 32.791 9.75199 33.2916 9.50309 33.4585ZM8.50746 34.7935C8.50746 33.9591 8.6734 33.4585 9.50309 33.5419C9.08824 34.2929 9.08824 34.2929 8.50746 34.7935ZM8.59043 38.4647C8.59043 38.4647 8.50746 38.3813 8.50746 38.2979C8.50746 38.0476 8.59043 37.9641 8.59043 37.8807C8.75637 37.9641 8.83934 38.0476 8.83934 38.2979L8.59043 38.4647ZM6.93106 39.8832C6.84809 39.7997 6.51622 39.7163 6.51622 39.6329C6.51622 39.6329 6.68215 39.5494 6.76512 39.3826C6.84809 39.466 6.84809 39.5494 7.01403 39.5494C6.93106 39.6329 6.84809 39.7163 6.93106 39.8832Z" fill="#263C43"/>
</svg>
