<svg width="200" height="95" viewBox="0 0 200 95" fill="none" xmlns="http://www.w3.org/2000/svg">
<path d="M70.2136 40.8517C78.3853 32.4286 69.8993 24.257 58.1447 28.4057C51.0417 30.92 42.8072 36.5144 39.5385 41.6689C38.4699 43.3032 38.847 46.5719 41.99 46.6347C42.4929 46.5719 42.9957 46.3204 43.6872 45.8804C43.0586 45.7547 42.6814 45.7547 42.3671 45.629C41.99 45.5661 41.7386 45.3775 41.8014 45.0004C41.8643 44.4347 42.0528 43.9318 42.43 43.4918C43.6872 41.9203 44.8815 40.4746 46.3273 39.0917C49.6588 35.7601 55.4418 32.4915 59.779 31.1086C67.6364 28.5314 73.7337 31.2972 70.2136 37.0802C69.3336 38.5888 68.1393 39.9717 66.8192 41.166C63.6763 43.9947 60.4076 46.3833 56.7618 48.3319C54.6875 49.4634 49.4702 51.2863 47.8359 51.6634C50.5388 45.5661 52.2988 42.046 52.0474 41.2917C51.5445 40.4746 51.0417 40.2231 50.0988 40.286C49.1559 41.2917 48.7159 42.5489 48.0873 43.7432C47.0187 45.9433 46.3273 48.2691 45.4472 50.5948C45.1329 51.2863 45.0701 52.1663 44.6301 52.732C44.1272 53.4235 44.4415 54.1149 44.1272 54.8064C43.75 55.875 43.6243 56.9436 43.3729 58.0122C43.0586 60.1494 42.6814 62.4123 42.6814 64.6124C42.6186 65.9324 42.7443 67.441 43.4986 68.5096C43.6243 68.6982 43.4986 68.9496 43.8758 68.9496C45.0072 68.321 44.5672 67.5667 44.8186 66.7496C45.5729 66.8124 46.1387 66.9381 46.5787 67.0639C47.2073 67.3153 47.7101 67.441 48.4016 67.6296C48.8416 67.7553 49.4073 67.881 49.9731 67.9439C50.5388 68.0696 51.1045 68.0696 51.6703 68.1325C51.1045 67.7553 50.4131 67.6924 49.7216 67.6296C49.4702 67.5667 49.2188 67.6296 49.1559 67.3153C49.1559 67.1267 52.676 67.1267 53.8075 66.9381C53.7446 67.001 53.7446 67.0639 53.7446 67.1896C54.6875 67.3153 55.5046 66.8753 56.259 66.6238C57.3276 66.2467 58.0819 66.0581 58.9619 65.7438C59.7162 65.6181 60.5334 65.4295 61.3505 65.1152C61.0991 65.4295 60.8476 65.6181 60.5962 65.7438C60.2191 65.9953 59.9676 66.0581 59.5905 66.1838C59.2762 66.3724 58.9619 66.3724 58.6476 66.4353C58.2704 66.6238 58.019 66.8124 57.7047 66.9381C57.3904 67.001 57.0133 66.9381 56.6361 67.0639C56.3218 67.1896 56.0075 67.2524 55.6304 67.3153C55.2532 67.3782 55.0018 67.5039 54.6875 67.5667C54.3103 67.6296 53.8703 67.6296 53.556 67.6925C53.1789 67.7553 52.8646 67.6296 52.6131 68.0696C52.8017 68.0696 52.9903 68.1953 53.116 68.1325C54.1218 68.0067 55.6304 68.0696 56.6361 67.881C58.9619 67.5039 60.2819 67.1896 62.5448 65.9324C63.802 65.241 64.8078 64.5495 65.8764 63.6066C65.9392 63.6066 65.8764 63.4809 65.9392 63.2923C66.1907 63.1666 66.4421 62.9152 66.6935 62.6637C69.2707 59.5208 69.0193 55.7493 66.6307 53.3606C64.242 50.972 61.0362 50.092 57.6418 50.4691V50.3434C59.9676 48.9605 61.6648 47.8919 63.5506 46.8233C64.0535 46.509 64.5563 46.2576 64.9335 45.8804C65.4363 45.4404 66.0021 45.0633 66.1278 44.4347C66.3164 44.4347 66.5049 44.4347 66.6307 44.3718C67.1335 43.9947 67.6364 43.6804 68.0136 43.3661C68.5164 42.6746 69.3336 42.2346 69.4593 41.2917C69.4593 41.2289 69.5222 41.166 69.6479 41.166C69.8365 40.3488 70.2765 39.5945 70.9051 39.5945C70.4022 40.0345 70.2136 40.5374 70.2136 40.8517ZM52.9903 32.6801C52.1103 32.9944 50.0988 34.3772 49.5331 34.943H48.7787C49.8473 34.063 53.2417 32.0515 56.5732 30.4171L56.6361 30.6686C55.8189 30.92 53.1789 33.1829 52.9903 32.6801ZM67.9507 42.8003L66.5049 43.9947C66.5049 43.6175 66.8192 43.3032 67.1335 42.9889C67.5735 42.486 68.0764 42.046 68.5164 41.606C68.5164 42.1089 68.265 42.486 67.9507 42.8003ZM49.8473 42.046C49.8473 41.9203 49.9102 41.9832 49.9731 41.7317C50.1616 42.046 50.1616 42.046 49.9102 42.486C49.9102 42.5489 49.9102 42.6118 49.8473 42.6746C49.7845 42.6118 49.7845 42.486 49.6588 42.3603C49.8473 42.2975 49.9102 42.3603 49.9102 42.2346C49.9102 42.1717 49.9102 42.1089 49.8473 42.046ZM46.7673 49.7148H46.8301C46.893 49.0234 47.2073 48.3319 47.3959 47.8919C47.5844 47.0747 47.9616 46.3204 48.2759 45.5661C48.5273 45.0004 48.8416 44.3089 48.9673 43.8689L49.5331 42.7375C49.5959 42.7375 49.7216 42.6746 49.8473 42.7375C49.7845 43.1775 49.5959 43.5546 49.3445 44.0575C49.2816 44.1204 49.1559 44.1204 49.0302 44.1204C49.1559 44.2461 49.1559 44.2461 49.2816 44.4975C49.093 44.4975 49.0302 44.4975 48.9673 44.4347C48.9045 44.8747 48.9045 45.189 48.9673 45.5033L48.5273 45.8804C48.5273 45.8804 48.653 46.0061 48.8416 46.0061V46.1947H48.4016C48.4645 46.1947 48.3387 46.3204 48.4016 46.3833C48.3387 46.4461 48.3387 46.6976 48.2759 46.6976L47.8987 47.0747C47.9616 47.1376 47.9616 47.1376 48.0244 47.1376C47.9616 47.5148 47.773 47.829 47.5844 48.0176C47.5216 48.3319 47.4587 48.7091 47.333 49.0234C47.1444 49.4634 47.0816 49.9034 46.893 50.4063C46.7044 50.6577 46.7044 50.9091 46.453 51.2234L46.3901 51.4749L46.2644 51.2234C46.3901 50.6577 46.7044 50.2177 46.7673 49.7148ZM64.9963 44.749C62.7963 46.5719 62.1048 46.7604 57.6418 49.7148C57.0761 50.092 56.3218 50.4063 55.5675 50.2177L60.3448 47.3262C62.042 46.3204 63.5506 45.3147 65.1849 44.2461C65.3106 44.5604 65.1221 44.6232 64.9963 44.749ZM60.5334 52.6692C62.7963 52.9835 64.0534 53.7378 64.9335 55.3092C66.1278 57.5093 65.1849 60.338 63.4877 62.098C60.6591 64.9895 57.6418 65.8695 53.8075 66.121C51.1045 66.3096 48.3387 65.5552 47.1444 65.241C46.7044 65.1152 45.0072 64.6124 45.0072 63.3552C45.0072 61.9094 46.2015 57.3207 46.453 56.3779C46.6415 55.6235 46.7673 55.1207 47.0187 54.5549C47.333 54.4921 48.3387 54.1778 49.093 53.9892C52.236 53.2349 55.6304 51.9777 60.5334 52.6692ZM65.5621 62.9152C65.6878 62.8523 65.8764 62.8523 65.9392 62.7266C65.8764 62.098 66.3792 61.5951 66.8821 60.7151C66.8821 61.218 66.945 61.5323 66.8821 61.7209C66.5049 62.098 66.2535 62.4752 65.9392 62.6637V62.7266L65.8764 63.3552H65.8135C65.6878 63.2923 65.4992 63.2923 65.3735 63.2923C65.4363 63.1038 65.4363 62.9152 65.5621 62.9152Z" fill="white"/>
<path d="M74.683 57.8236C75.6259 58.2008 76.6945 58.2008 77.7002 57.6979C78.7059 57.2579 79.7117 56.4407 80.466 55.875C80.5917 55.8121 80.6546 55.6235 80.7803 55.4978C81.2203 55.4978 81.2203 54.8692 81.6603 54.6178C81.7232 54.7435 81.7232 54.8692 81.8489 54.9321C82.0375 55.2464 81.9746 55.3721 82.3518 55.7493C82.6032 56.315 83.0432 56.5664 83.4204 57.0693C83.6089 57.1322 83.7347 57.3836 83.9232 57.4465C84.049 57.5722 84.4261 57.5722 84.5518 57.635C84.8033 57.6979 85.369 57.5722 85.6204 57.5722C85.809 57.5722 86.1233 57.4465 86.1862 57.4465C86.3747 57.4465 86.689 57.3207 86.8147 57.2579C87.129 57.0693 87.3176 57.1322 87.6948 56.9436C88.3234 56.5036 88.8891 56.3778 89.392 55.8121C89.6434 55.4978 90.0834 55.2464 90.3977 54.995V54.8692C90.0834 55.0578 89.6434 55.2464 89.3291 55.435V55.1835C89.5177 55.1835 89.6434 55.1207 89.7691 55.0578L89.832 54.995C89.7063 54.995 89.5805 54.995 89.392 54.9321C89.5805 54.8692 89.7063 54.8064 89.832 54.6807C89.9577 54.4921 90.0834 54.3664 90.2091 54.3035C90.712 54.0521 91.2149 53.6749 91.7177 53.4235C91.9063 53.2978 91.9692 53.1092 91.9692 52.9835C91.7177 53.2349 91.2777 53.3606 90.9006 53.6121C90.5234 53.9264 90.2091 53.8635 89.7691 54.0521C89.7691 54.1149 89.832 54.1778 89.832 54.2407C89.6434 54.1149 89.4548 54.1149 89.2034 54.3035C89.0777 54.4292 88.8891 54.4292 88.7005 54.4921V54.3664C88.9519 54.3035 89.1405 54.1149 89.3291 54.0521C89.9577 53.5492 90.5234 53.172 91.2777 52.8578C91.7177 52.5435 92.032 52.2292 92.5349 51.9777C92.5978 51.9777 92.7235 52.0406 92.7235 52.1035C92.7863 52.3549 92.6606 52.5435 92.4092 52.6692C92.2835 52.7949 92.0949 52.9206 92.032 52.9206C92.0949 52.9835 92.0949 53.0463 92.0949 53.0463C92.2835 52.9835 92.472 52.9835 92.5349 52.9206C92.8492 52.7949 93.1006 52.4806 93.2892 52.292C93.4778 52.1663 93.9178 51.9777 94.2321 51.7263C95.0493 51.1606 96.055 50.6577 96.6836 49.7148C96.3693 49.5891 96.3693 49.8405 96.3693 49.9662C95.9921 50.2177 95.9921 50.2177 95.8664 49.9034L96.4322 49.1491L96.2436 49.0234C95.615 49.4005 95.1121 49.7148 94.6721 50.092C93.2263 51.0348 93.3521 50.9091 91.8435 51.852C90.9634 52.4806 90.0205 53.0463 89.2034 53.5492C88.3234 54.1778 87.3176 54.9321 86.3119 55.3721C86.0604 55.4978 85.809 55.4978 85.6204 55.5607C85.4319 55.6235 85.3061 55.6235 85.1804 55.5607C84.8661 55.3721 84.6775 55.1207 84.6147 54.8692C84.2375 53.9892 84.2375 53.0463 84.4261 52.1663C84.489 52.0406 84.489 51.9149 84.5518 51.852C84.7404 51.3491 84.6775 50.6577 84.6775 50.6577C84.5518 50.2177 84.3004 49.9034 83.9232 49.7777C83.1689 49.7148 82.7289 50.2177 82.226 50.2805C82.5403 49.652 83.0432 49.0862 82.8546 48.2062C82.6032 46.7604 81.0946 46.509 79.7746 46.2576C78.5802 46.3833 77.5116 47.1376 76.7573 47.9548C76.003 48.8976 75.1859 49.652 74.4944 50.7206C74.3687 50.8463 74.243 51.1606 73.9915 51.4749L73.5515 52.2292C73.4258 52.6692 73.2372 52.9835 73.1744 53.3606C73.1744 53.4235 73.1744 53.4235 73.1115 53.4863C72.9858 53.8635 72.8601 54.1778 72.6715 54.6178C72.4201 55.5607 72.6086 56.3778 73.1744 57.1322C73.5515 57.3207 74.0544 57.635 74.1801 57.7607C74.3687 57.8236 74.5573 57.8236 74.683 57.8236ZM74.5573 56.0007C74.8716 54.7435 75.4373 53.6749 76.003 52.6692C76.6945 51.4749 78.8945 48.5205 80.7803 48.2062C80.7174 48.2691 80.2146 51.0348 81.5975 51.1606H81.6603C81.6603 51.1606 81.4089 51.4749 81.346 51.4749C80.4031 52.4806 79.9631 53.2349 79.0202 54.2407C78.3917 54.9321 77.8259 55.3721 77.0088 55.6864C76.3802 55.9378 75.2487 56.0007 74.5573 56.0007ZM93.2263 52.1663C93.1006 52.0406 92.8492 51.9149 92.7235 51.852C92.7863 51.7263 93.6035 51.1606 94.0435 50.9091C94.3578 50.7206 94.6721 50.532 94.7978 50.4063C94.8607 50.4063 94.8607 50.4691 94.8607 50.532C94.7978 50.5948 94.735 50.7206 94.6092 50.7834V51.1606C94.4835 51.2234 94.2321 51.2234 94.1064 51.2863C93.9178 51.3491 93.6664 51.412 93.6035 51.5377C93.4778 51.6006 93.3521 51.6634 93.3521 51.9149C93.3521 51.9777 93.2892 52.1663 93.2263 52.1663Z" fill="white"/>
<path d="M98.4255 44.3089C98.8026 44.5604 99.1798 44.5604 99.4941 44.4347C100.06 44.0575 100.626 43.6804 100.877 42.9889C101.128 42.2975 100.877 41.606 100.688 40.9774C100.563 40.5374 100.186 40.3488 99.4941 40.4117C99.4941 40.4117 99.2426 40.4117 99.1798 40.4746C98.3626 40.9146 97.6712 41.3546 97.3569 42.2975C97.2311 42.9261 97.3569 43.4289 97.734 43.8689C97.9226 44.0575 98.2369 44.1832 98.4255 44.3089ZM107.037 49.9662C106.22 50.7834 105.403 51.4749 104.648 52.1663C103.706 53.0463 102.826 54.0521 101.82 54.9321C100.877 55.875 99.7455 56.755 98.7398 57.635C98.2369 58.075 97.6712 58.3265 96.9797 58.5151C97.0426 57.8865 97.2311 57.3207 97.2311 56.755C97.294 56.1264 97.6712 55.5607 97.4826 54.995C97.4826 54.8692 97.5454 54.8064 97.6083 54.6807C97.6712 54.4292 97.7969 54.1778 97.9226 53.9264C98.174 53.1092 98.4255 52.3549 98.614 51.6006C98.7398 51.2863 98.8655 50.972 98.8655 50.5948C98.9283 50.2805 98.9283 49.9034 98.8026 49.652C98.6769 49.4005 98.3626 49.1491 98.1112 48.9605C97.9226 48.6462 97.4826 48.4576 97.294 48.1433C97.1054 47.829 96.9168 47.9548 96.7283 48.0176C96.4768 48.0176 96.414 48.2062 96.4768 48.4576V48.9605C96.1625 50.1548 95.8482 51.2234 95.5968 52.3549C95.3454 53.172 95.0939 53.9892 94.9682 54.8064C94.6539 55.9378 94.4025 57.1322 94.5282 58.2008C94.5911 58.4522 94.7796 58.5779 94.8425 58.8293C94.9682 58.9551 95.0939 59.1436 95.1568 59.3322C95.2197 59.4579 95.2197 59.6465 95.3454 59.7094C95.7854 60.0237 96.0368 60.5894 96.6654 60.7151C97.1054 60.8408 97.4197 61.0294 97.9226 60.9037C98.3626 60.6523 98.8026 60.4637 99.1798 60.2751C99.5569 60.1494 99.9341 60.0865 100.186 59.8351C100.563 59.5837 100.877 59.3322 101.128 59.0179C101.506 58.5151 101.946 58.0122 102.448 57.6979L102.763 57.3836C102.888 57.2579 102.951 57.0693 103.077 56.9436C103.266 56.6921 103.517 56.4407 103.768 56.1893C103.831 56.1264 103.768 56.0636 103.768 55.9378C103.517 56.1264 103.328 56.315 103.14 56.4407C103.077 56.3778 103.077 56.3779 103.014 56.3779C103.077 56.2521 103.14 56.1264 103.203 56.0636C103.58 55.7493 103.957 55.5607 104.083 55.1835C103.894 55.3092 103.643 55.4978 103.454 55.6864C103.454 55.5607 103.517 55.3721 103.58 55.3092C103.768 55.1207 103.894 54.9321 104.02 54.7435C104.397 54.4292 104.774 54.1149 105.026 53.8006C105.529 53.2349 105.906 52.732 106.283 52.2292L106.22 52.1663C106.157 52.1663 106.094 52.2292 106.031 52.2292C105.529 52.7949 105.026 53.4235 104.397 53.9264C104.208 54.1778 103.957 54.3664 103.957 54.7435C103.768 54.8064 103.58 54.9321 103.391 55.0578C103.328 54.9321 103.328 54.8692 103.266 54.8064C103.454 54.6807 103.58 54.6807 103.768 54.6807C103.831 54.5549 103.768 54.4292 103.768 54.3664C103.58 54.3664 103.454 54.4292 103.266 54.4292C103.203 54.4292 103.14 54.5549 103.077 54.6178C102.888 54.3035 103.328 53.8006 103.957 53.4863C103.894 53.5492 103.894 53.6121 103.894 53.6121L103.58 53.9892C103.643 53.9892 103.706 54.0521 103.706 54.0521L104.334 53.4235C104.46 53.3606 104.648 53.2978 104.397 53.1092C104.334 53.1092 104.334 52.8578 104.397 52.732C104.46 52.6692 104.586 52.5435 104.648 52.5435C104.9 52.5435 104.963 52.4806 104.963 52.2292C104.963 52.1663 105.026 52.1663 105.026 52.1035H105.089C105.151 52.2292 105.089 52.4177 105.151 52.5435C105.403 52.6692 105.529 52.4806 105.717 52.292C105.969 52.1034 106.094 51.9149 106.031 51.6634C106.157 51.6634 106.346 51.7263 106.346 51.6634C106.471 51.4749 106.597 51.4749 106.66 51.3491C106.597 51.2863 106.471 51.2234 106.346 51.1606C106.471 51.0977 106.534 51.0977 106.66 51.0977C106.723 51.0977 106.849 51.0977 106.911 51.0348C107.226 50.4691 107.163 50.092 107.037 49.9662ZM104.083 55.1207C104.146 55.2464 104.271 55.3092 104.334 55.3721C104.46 55.1207 104.523 54.9321 104.586 54.7435C104.523 54.6807 104.523 54.6807 104.46 54.6807L104.083 55.1207ZM102.197 55.3721L102.26 55.435C102.386 55.435 102.448 55.3721 102.511 55.3721C102.511 55.435 102.574 55.435 102.574 55.4978C102.197 55.6235 101.883 55.7493 101.506 55.875V55.8121C102.071 55.5607 102.197 54.8064 102.826 54.8064C102.637 54.995 102.448 55.1835 102.197 55.3721Z" fill="white"/>
<path d="M110.833 60.7151C111.084 60.778 111.273 60.5265 111.461 60.338C111.964 60.1494 112.593 60.0237 113.159 59.7722C113.41 59.6465 113.724 59.5837 113.913 59.4579C113.913 59.2065 113.85 59.0179 113.913 58.9551C114.164 58.6408 114.353 58.1379 114.919 58.2008C114.919 58.2008 114.919 58.1379 114.981 58.1379L116.05 57.3207C115.359 57.0693 115.044 57.1322 114.919 57.5093C115.044 57.5093 115.233 57.5722 115.421 57.5722C115.107 57.6979 114.856 57.7607 114.604 57.5722C114.416 57.4465 114.164 57.5093 113.976 57.5093C114.164 56.755 114.793 57.0693 115.233 56.8807C115.296 56.755 115.359 56.755 115.359 56.6921C115.987 56.1264 116.616 55.6235 117.244 55.1207C117.559 54.9321 117.873 54.6807 118.061 54.4921H118.124C118.061 54.6807 118.061 54.8064 117.999 54.9321C118.187 55.1835 118.376 55.1207 118.627 54.9321C118.753 54.8692 118.879 54.8064 119.004 54.8064C118.942 54.9321 118.816 55.1207 118.816 55.2464C118.816 55.2464 118.816 55.3092 118.879 55.3092C119.067 55.1207 119.444 54.9321 119.444 54.5549C119.884 54.4921 120.324 54.3664 120.45 53.8635C120.199 53.7378 120.199 53.6749 120.073 53.5492C120.073 53.4863 120.073 53.4235 120.136 53.4235C120.199 53.4235 120.262 53.4235 120.324 53.3606C120.576 53.2978 120.827 53.1092 121.142 52.9206C121.267 52.8578 121.267 52.732 121.393 52.6063C121.393 52.5435 121.519 52.4177 121.582 52.3549C121.707 52.2292 121.707 52.1663 121.77 52.1035C121.833 51.852 122.21 51.7892 122.084 51.4749C122.084 51.412 122.147 51.2863 122.21 51.2863C122.587 51.0977 122.65 50.7834 122.713 50.4063C122.776 50.3434 122.65 50.2805 122.65 50.1548C122.587 50.2177 122.462 50.2805 122.399 50.2805C122.084 50.532 121.707 50.8463 121.393 51.0348C121.393 51.0348 121.393 51.1606 121.33 51.2863C121.142 51.0348 121.079 51.2863 121.016 51.3491C120.702 51.5377 120.513 51.6634 120.387 51.852C119.884 52.1663 119.256 52.5435 118.816 52.9206C118.816 52.9206 118.753 52.9835 118.816 53.0463C119.067 52.9206 119.193 52.8578 119.319 52.732C119.319 52.8578 119.256 52.9206 119.256 52.9206C118.816 53.2978 118.439 53.6121 117.936 53.9264C117.244 54.4921 116.553 55.0578 115.799 55.6235L114.227 56.6293C114.164 56.6921 114.039 56.755 113.85 56.755V56.6921C114.039 56.5664 114.164 56.5036 114.29 56.4407V56.315C114.164 56.3778 114.039 56.3779 113.913 56.5036C113.599 56.6921 113.41 56.8807 113.159 57.0064C112.781 57.2579 112.341 57.4465 111.901 57.5722C111.524 57.8236 111.021 57.8865 110.518 58.0122C109.701 58.3265 108.884 58.3893 108.13 58.3893C107.941 58.3265 107.753 58.2636 107.69 58.075C107.564 57.5093 107.501 56.8179 107.753 56.2521C108.067 55.1835 108.507 54.1149 109.136 53.1721C109.513 52.6063 109.89 52.1034 110.204 51.6006C110.518 51.0977 110.958 50.7834 111.21 50.2805C111.524 49.7148 112.09 49.3377 112.656 49.0862C112.844 48.9605 112.907 48.9605 113.033 49.2119C113.096 49.4005 113.284 49.5891 113.473 49.7777C113.724 49.9662 114.039 50.092 114.353 50.2805C114.541 50.4063 114.919 50.4691 115.044 50.2805C115.233 50.0291 115.421 49.8405 115.421 49.5891C115.547 49.3377 115.547 49.0234 115.484 48.8976C115.233 48.5834 114.919 48.2691 114.541 48.0176C114.29 47.7662 113.913 47.6405 113.536 47.4519C113.221 47.2633 112.907 47.0119 112.593 46.8862C112.341 46.7604 112.027 46.8862 111.776 46.8233C111.21 46.6347 110.644 46.7604 110.141 47.2633C109.89 47.4519 109.261 48.2062 109.198 48.2691C109.136 48.3948 109.01 48.5205 108.884 48.7091C108.758 48.7091 108.696 48.8348 108.633 48.9605C107.564 50.4063 105.867 53.0463 105.741 55.6235C105.615 56.0007 105.615 56.4407 105.615 56.755C105.678 57.2579 105.804 57.635 105.867 58.0122C105.993 58.3265 106.118 58.6408 106.307 58.8922C106.621 59.2065 106.935 59.5837 107.25 59.8351C107.69 60.0865 108.13 60.2122 108.507 60.4008C108.758 60.4637 109.136 60.4637 109.324 60.5265L110.833 60.7151ZM116.05 56.9436C116.239 56.755 116.49 56.6293 116.741 56.4407C116.679 56.5664 116.679 56.6921 116.679 56.755C117.37 56.6293 117.81 56.0636 118.376 55.6864C118.439 55.6864 118.376 55.6235 118.376 55.4978C118.25 55.5607 118.124 55.6235 117.999 55.6235C117.81 55.2464 117.433 55.5607 117.119 55.6235C116.867 55.6235 116.679 55.6864 116.616 56.0007C116.741 56.0007 116.93 56.0007 116.993 56.0636C116.867 56.1893 116.679 56.2521 116.553 56.2521C116.176 56.2521 115.987 56.4407 116.05 56.9436ZM114.164 59.3951C114.353 59.2694 114.604 59.0808 114.793 59.0179C114.101 58.9551 114.039 59.0179 114.164 59.3951Z" fill="white"/>
<path d="M123.327 57.8236C124.27 58.2008 125.339 58.2008 126.345 57.6979C127.35 57.2579 128.356 56.4407 129.11 55.875C129.236 55.8121 129.299 55.6235 129.425 55.4978C129.865 55.4978 129.865 54.8692 130.305 54.6178C130.368 54.7435 130.368 54.8692 130.493 54.9321C130.682 55.2464 130.619 55.3721 130.996 55.7493C131.248 56.315 131.688 56.5664 132.065 57.0693C132.253 57.1322 132.379 57.3836 132.568 57.4465C132.693 57.5722 133.071 57.5722 133.196 57.635C133.448 57.6979 134.013 57.5722 134.265 57.5722C134.453 57.5722 134.768 57.4465 134.831 57.4465C135.019 57.4465 135.333 57.3207 135.459 57.2579C135.773 57.0693 135.962 57.1322 136.339 56.9436C136.968 56.5036 137.534 56.3778 138.036 55.8121C138.288 55.4978 138.728 55.2464 139.042 54.995V54.8692C138.728 55.0578 138.288 55.2464 137.974 55.435V55.1835C138.162 55.1835 138.288 55.1207 138.414 55.0578L138.476 54.995C138.351 54.995 138.225 54.995 138.036 54.9321C138.225 54.8692 138.351 54.8064 138.476 54.6807C138.602 54.4921 138.728 54.3664 138.854 54.3035C139.356 54.0521 139.859 53.6749 140.362 53.4235C140.551 53.2978 140.614 53.1092 140.614 52.9835C140.362 53.2349 139.922 53.3606 139.545 53.6121C139.168 53.9264 138.854 53.8635 138.414 54.0521C138.414 54.1149 138.476 54.1778 138.476 54.2407C138.288 54.1149 138.099 54.1149 137.848 54.3035C137.722 54.4292 137.534 54.4292 137.345 54.4921V54.3664C137.596 54.3035 137.785 54.1149 137.974 54.0521C138.602 53.5492 139.168 53.172 139.922 52.8578C140.362 52.5435 140.676 52.2292 141.179 51.9777C141.242 51.9777 141.368 52.0406 141.368 52.1035C141.431 52.3549 141.305 52.5435 141.054 52.6692C140.928 52.7949 140.739 52.9206 140.676 52.9206C140.739 52.9835 140.739 53.0463 140.739 53.0463C140.928 52.9835 141.116 52.9835 141.179 52.9206C141.494 52.7949 141.745 52.4806 141.934 52.292C142.122 52.1663 142.562 51.9777 142.877 51.7263C143.694 51.1606 144.699 50.6577 145.328 49.7148C145.014 49.5891 145.014 49.8405 145.014 49.9662C144.637 50.2177 144.637 50.2177 144.511 49.9034L145.077 49.1491L144.888 49.0234C144.259 49.4005 143.757 49.7148 143.317 50.092C141.871 51.0348 141.996 50.9091 140.488 51.852C139.608 52.4806 138.665 53.0463 137.848 53.5492C136.968 54.1778 135.962 54.9321 134.956 55.3721C134.705 55.4978 134.453 55.4978 134.265 55.5607C134.076 55.6235 133.951 55.6235 133.825 55.5607C133.511 55.3721 133.322 55.1207 133.259 54.8692C132.882 53.9892 132.882 53.0463 133.071 52.1663C133.133 52.0406 133.133 51.9149 133.196 51.852C133.385 51.3491 133.322 50.6577 133.322 50.6577C133.196 50.2177 132.945 49.9034 132.568 49.7777C131.813 49.7148 131.373 50.2177 130.87 50.2805C131.185 49.652 131.688 49.0862 131.499 48.2062C131.248 46.7604 129.739 46.509 128.419 46.2576C127.225 46.3833 126.156 47.1376 125.402 47.9548C124.647 48.8976 123.83 49.652 123.139 50.7206C123.013 50.8463 122.887 51.1606 122.636 51.4749L122.196 52.2292C122.07 52.6692 121.882 52.9835 121.819 53.3606C121.819 53.4235 121.819 53.4235 121.756 53.4863C121.63 53.8635 121.504 54.1778 121.316 54.6178C121.064 55.5607 121.253 56.3778 121.819 57.1322C122.196 57.3207 122.699 57.635 122.825 57.7607C123.013 57.8236 123.202 57.8236 123.327 57.8236ZM123.202 56.0007C123.516 54.7435 124.082 53.6749 124.647 52.6692C125.339 51.4749 127.539 48.5205 129.425 48.2062C129.362 48.2691 128.859 51.0348 130.242 51.1606H130.305C130.305 51.1606 130.053 51.4749 129.99 51.4749C129.048 52.4806 128.608 53.2349 127.665 54.2407C127.036 54.9321 126.47 55.3721 125.653 55.6864C125.025 55.9378 123.893 56.0007 123.202 56.0007ZM141.871 52.1663C141.745 52.0406 141.494 51.9149 141.368 51.852C141.431 51.7263 142.248 51.1606 142.688 50.9091C143.002 50.7206 143.317 50.532 143.442 50.4063C143.505 50.4063 143.505 50.4691 143.505 50.532C143.442 50.5948 143.379 50.7206 143.254 50.7834V51.1606C143.128 51.2234 142.877 51.2234 142.751 51.2863C142.562 51.3491 142.311 51.412 142.248 51.5377C142.122 51.6006 141.996 51.6634 141.996 51.9149C141.996 51.9777 141.934 52.1663 141.871 52.1663Z" fill="white"/>
<path d="M161.481 21.9312C161.355 21.6169 161.355 21.3026 161.292 20.7997C161.355 20.7369 161.355 20.6112 161.292 20.5483L160.915 20.234C160.664 19.9826 160.349 19.7311 160.035 19.6054C159.846 19.4797 159.532 19.354 159.281 19.2283C158.401 18.9768 157.646 18.7882 156.955 19.4797C156.452 19.9826 155.886 20.5483 155.321 21.0512C154.755 21.6169 154.189 22.4341 153.749 23.2512C152.995 24.3827 152.366 25.7027 151.738 26.7713C151.675 26.9599 151.675 27.1485 151.675 27.2742C151.738 27.2742 151.738 27.1485 151.863 27.1485C152.429 27.1485 152.429 27.1485 152.681 26.8342C152.115 27.9656 151.549 28.9714 150.983 30.2286C150.983 30.1028 150.983 30.1028 151.109 29.6C150.983 29.5371 150.983 29.5371 150.858 29.5371C150.92 29.4114 150.983 29.2857 151.046 29.2228C151.298 28.9714 151.612 28.7828 151.738 28.4057C151.738 28.0285 151.612 27.8399 151.298 27.7771C151.235 27.9028 151.109 27.9028 151.046 28.0285C150.983 28.4057 150.732 28.7828 150.543 29.0971C150.418 29.6 150.292 30.1028 150.103 30.5429C150.04 30.7943 149.915 31.1086 149.726 31.4229C149.663 31.5486 149.538 31.6115 149.412 31.6743C149.412 31.8 149.538 31.8 149.663 31.8629C149.663 31.8 149.726 31.6743 149.852 31.5486C149.915 31.36 150.04 31.1086 150.166 30.92C150.292 30.5429 150.48 30.5429 150.795 30.6686C150.543 31.1086 150.355 31.6743 150.103 32.1772C150.103 32.1772 150.103 32.3029 149.978 32.3029C149.726 32.3658 149.6 32.3658 149.726 32.8058C149.789 32.9944 149.538 33.4972 149.475 33.8115C149.223 34.3772 148.846 35.0058 148.72 35.5716C148.595 35.823 148.469 36.0116 148.343 36.3259L148.029 35.4458C148.029 35.5716 147.903 35.6344 147.84 35.7601C147.589 36.1373 147.589 36.5144 147.463 36.8916C147.212 37.3945 147.023 37.9602 146.772 38.4002C146.52 39.2802 146.143 40.286 145.892 41.2289C145.577 42.046 145.452 42.9261 145.263 43.6175C145.075 44.4975 145.012 44.8118 144.823 45.5033C144.697 46.0061 144.697 46.1319 144.697 46.3833L144.32 48.4576C143.88 50.972 143.88 51.6006 143.817 52.4177C143.629 54.2407 143.629 55.3092 143.817 56.8807C143.943 57.5722 144.069 58.2636 144.257 58.8293C144.509 59.3951 144.635 59.8979 144.949 60.338C145.326 60.778 145.577 61.1551 145.892 61.5323C146.08 61.7209 146.52 62.098 146.835 62.2237C147.966 62.7266 148.532 62.6637 149.349 62.4752C150.669 62.098 151.36 59.5837 150.355 60.0237C149.349 60.7151 148.783 61.1551 147.778 60.7151C147.338 60.5265 146.772 59.6465 146.52 59.0179C146.017 57.8236 145.766 56.3778 145.703 54.6807C145.64 53.6121 145.892 51.9149 146.017 50.9091C146.143 50.092 146.457 48.8976 146.772 48.3948C147.589 47.7033 148.595 46.6347 149.286 45.8804L150.543 44.6861C150.732 44.4975 150.732 44.1832 151.046 43.9318C151.046 43.9318 151.109 43.8689 151.235 43.9318C151.172 43.4918 150.606 43.4918 150.858 43.1775C151.235 43.1775 151.423 43.2403 151.738 43.1775C151.549 42.4232 152.303 42.3603 152.555 41.8575H152.681C152.806 41.7946 152.869 41.7946 152.995 41.7946C152.995 41.7317 152.932 41.606 152.932 41.4803L152.995 41.4174C153.058 41.4803 153.121 41.4803 153.246 41.606C153.561 41.0403 153.875 40.6003 154.252 40.0974C154.126 40.0345 154.001 40.0345 153.812 40.0345C154.001 39.9088 154.126 39.7831 154.189 39.846C154.441 40.0974 154.566 39.7831 154.629 39.6574C155.069 39.0288 155.635 38.4002 156.012 37.583C156.075 37.5202 156.075 37.3316 156.012 37.2059C156.515 36.263 156.955 35.1944 157.521 34.063C157.584 34.0001 157.772 34.063 157.835 34.0001C158.212 33.9372 158.401 33.4344 158.338 33.0572C158.212 33.2458 157.961 33.4344 157.898 33.5601C157.835 33.4344 157.835 33.3715 157.961 33.3086C158.024 33.1829 158.212 32.9944 158.212 32.8686C158.275 32.4286 158.464 32.4286 158.715 32.4915V32.4286L158.526 32.3029C158.589 32.24 158.652 32.0515 158.715 31.9886C158.778 32.0515 158.778 32.1143 158.841 32.24C158.841 32.24 158.904 32.24 158.966 32.3029C159.092 31.9258 159.218 31.5486 159.155 31.1714C159.092 31.0457 158.966 30.8572 159.092 30.6686C159.218 30.5429 159.344 30.2914 159.469 30.1028C159.595 29.7886 159.909 29.3485 160.224 29.0342H159.721C159.909 28.7828 160.035 28.5942 160.286 28.5314C160.538 28.4685 160.538 28.3428 160.412 28.1542L160.286 27.9656C160.286 28.0285 160.224 28.0914 160.224 28.0914C160.224 27.6513 160.852 27.3999 160.538 27.0228C160.664 26.5199 160.726 26.2056 160.915 25.9542C160.915 25.8913 160.601 25.7656 160.412 25.6399C160.538 25.3884 160.475 25.0113 160.664 24.697C160.726 24.4455 160.538 23.8798 161.166 23.8798C161.104 23.6912 160.978 23.4398 160.852 23.2512C160.915 23.2512 160.978 23.2512 161.041 23.1884C161.104 23.2512 161.104 23.3769 161.229 23.4398C161.292 23.2512 161.418 23.1255 161.418 22.9369L160.978 22.7484C161.166 22.4341 160.852 22.0569 161.481 21.9312ZM149.6 38.5888C149.978 37.9602 150.229 37.0802 150.48 36.5144C150.606 36.2002 150.543 35.9487 150.669 35.5716C150.669 35.2573 150.858 34.8801 151.046 34.4401C151.235 34.0001 151.36 33.4972 151.675 32.9315C151.8 32.7429 151.926 32.4286 152.052 32.1772C152.303 31.4857 152.618 30.6686 152.932 30.04C153.183 29.4114 153.623 28.7828 153.938 28.1542C154.378 27.4628 155.006 26.7713 155.258 25.9542C155.572 25.137 156.138 24.4455 156.703 23.7541C157.081 23.0626 157.709 22.4969 158.275 21.9312C158.401 21.8055 158.464 21.6798 158.526 21.554L158.966 21.1769C159.092 21.2397 159.155 21.2397 159.218 21.2397C158.966 22.3083 158.904 23.4398 158.526 24.4455C158.338 25.6399 158.086 26.7085 157.646 27.7771C157.332 28.9085 156.829 29.9771 156.452 30.8572C155.823 32.1772 155.258 33.2458 154.692 34.503C154.189 35.3201 153.812 36.0744 153.309 36.8287C152.932 37.3945 152.492 38.0231 151.989 38.5259C151.298 39.5317 150.418 40.6631 149.663 41.606L148.155 43.3032C148.218 42.9261 148.155 42.486 148.218 42.1089C148.343 41.7317 148.532 41.5432 148.595 41.3546C149.035 40.4746 149.286 39.5317 149.6 38.5888ZM152.618 25.5141L153.058 25.2627C153.246 25.0741 153.435 24.9484 153.561 24.7598C153.623 24.6341 153.623 24.5713 153.749 24.5084C153.875 24.3827 154.063 24.3198 154.126 24.1941C154.315 23.5655 154.818 23.1884 155.069 22.6226C155.258 22.3712 155.446 22.1198 155.698 21.8683C155.698 21.8683 155.761 21.9941 155.761 22.0569C155.635 22.2455 155.383 22.5598 155.321 22.8741C154.755 23.7541 154.189 24.4455 153.686 25.3256C153.561 25.5141 153.309 25.7027 153.246 25.8284C153.121 25.9542 153.121 26.1427 152.995 26.3313C152.932 26.3313 152.932 26.3313 152.869 26.3313V25.7656C152.995 25.7656 153.121 25.7656 153.246 25.8284C153.183 25.7027 153.121 25.4513 153.058 25.4513C152.995 25.3884 152.806 25.5141 152.618 25.5141ZM159.784 23.3769C159.721 23.8798 159.846 24.3827 159.721 24.7598C159.469 25.1999 159.469 25.3884 159.784 25.6399H159.469C159.344 25.7027 159.344 25.7656 159.281 25.8284L159.784 26.017C159.281 26.1427 159.218 26.3942 159.218 26.8342C159.218 27.2113 158.966 27.5885 158.778 27.9656C159.092 28.3428 158.715 29.3485 157.961 29.9771C158.086 30.04 158.212 30.04 158.401 30.04C158.464 30.1028 158.464 30.1028 158.464 30.1657C158.212 30.3543 157.898 30.48 157.646 30.6057C157.772 30.7314 157.898 30.8572 158.024 30.92C157.772 30.9829 157.646 30.92 157.458 30.9829C157.521 31.1086 157.584 31.2343 157.709 31.36C157.584 31.4229 157.458 31.4229 157.206 31.4857C157.332 31.6743 157.458 31.8 157.584 31.8629C157.395 32.1772 157.332 32.3658 157.269 32.5543C157.081 32.8058 157.018 33.1201 156.829 33.3715C156.515 34.1258 156.075 34.6915 155.823 35.4458C155.698 35.7601 155.572 36.1373 155.195 36.263C155.258 36.7659 154.881 36.8287 154.629 37.0802C154.126 37.8345 153.623 38.5888 153.183 39.3431C152.869 39.7203 152.618 40.2231 152.366 40.5374L151.8 41.2289C151.109 41.8575 150.48 42.7375 149.663 43.3661C149.286 43.8689 148.846 44.4347 148.406 44.749C148.155 45.0004 147.903 45.2518 147.463 45.3775C147.715 45.1261 147.903 44.8118 148.092 44.5604C148.595 43.9318 149.098 43.3661 149.726 42.8003C149.915 42.486 150.103 42.046 150.418 41.7317C150.669 41.4803 150.983 41.2289 151.235 40.7889C151.235 40.6631 151.612 40.2231 151.675 40.0345C151.989 39.6574 152.366 39.2802 152.555 38.8402C152.618 38.8402 152.681 38.7774 152.743 38.7145C152.932 38.5888 152.995 38.3374 153.183 38.1488C153.246 37.8973 153.309 37.7716 153.498 37.583C153.938 36.7659 154.503 35.8859 155.006 35.0058C155.321 34.4401 155.698 33.8115 156.012 33.1829C156.075 33.0572 156.138 32.9315 156.138 32.8686C156.263 32.6172 156.263 32.4915 156.452 32.8686C156.326 32.0515 156.766 31.4857 157.081 30.92C157.206 30.4171 157.458 29.8514 157.709 29.16C157.835 29.0971 157.961 28.9714 158.024 28.8457C158.086 28.5942 158.086 28.4057 158.212 28.2799C158.338 28.0285 158.401 27.7771 158.338 27.5256C158.338 27.3999 158.652 27.1485 158.778 27.0228H158.904C158.841 26.897 158.778 26.8342 158.778 26.7085C158.778 26.5827 158.652 26.3942 158.778 26.3313C159.155 26.017 159.155 25.577 159.281 25.1999C159.406 24.697 159.406 24.257 159.469 23.817C159.532 23.6912 159.658 23.5655 159.784 23.3769C159.721 22.9998 159.532 22.6226 159.532 22.1198C159.972 22.1826 160.035 22.2455 159.784 22.6855C159.846 22.8741 159.784 23.1884 159.784 23.3769ZM158.338 31.6115C158.338 31.9886 158.086 32.3029 158.024 32.4915C157.835 32.8686 157.709 33.1829 157.521 33.4344C157.395 33.8744 157.144 34.063 156.955 34.4401C156.766 34.7544 156.641 35.1316 156.452 35.4458C156.389 35.6344 156.138 36.0116 155.949 36.3259H155.886C156.641 34.7544 157.458 33.1201 158.338 31.5486V31.6115ZM148.846 34.0001C148.343 34.0001 147.966 34.6915 148.218 35.4458C148.406 34.943 148.72 34.503 148.846 34.0001ZM146.457 41.4803C146.08 42.9261 145.577 44.2461 145.2 45.5033C145.075 45.8804 145.137 46.3204 145.012 46.6976C144.949 46.6976 145.012 46.069 144.949 46.069C145.829 42.7375 146.583 39.846 147.966 36.5773L148.406 36.7659C148.28 36.9545 148.155 37.143 148.092 37.3945C148.092 37.3945 148.029 37.5202 147.966 37.4573C147.526 37.3316 147.715 37.8345 147.526 38.0859C147.715 38.0859 147.778 38.0231 147.84 38.0231C147.212 38.6516 147.086 39.4688 146.898 40.3488C146.709 40.7889 146.52 41.1031 146.457 41.4803ZM155.761 37.3945C155.509 37.4573 155.383 37.4573 155.195 37.5202C155.132 37.5202 155.132 37.5202 155.132 37.583L155.698 37.8345C154.629 37.583 154.755 38.6516 154.126 38.7774C154.503 38.2745 154.881 37.6459 155.195 37.143C155.383 37.2059 155.572 37.2688 155.761 37.3316V37.3945ZM145.703 46.4461C145.829 45.5661 145.955 44.8118 146.269 44.1204C146.143 44.8747 146.017 45.629 145.703 46.4461Z" fill="white"/>
<path d="M77.929 68.9062V69.8768H75.289V72.1698H77.929V73.1405H75.289V76.4089H74.3184V68.9062H77.929Z" fill="white"/>
<path d="M85.956 69.8815V73.0327H86.8422C87.2736 73.0327 87.6425 72.8795 87.9489 72.5731C88.2584 72.2636 88.4131 71.8901 88.4131 71.4524C88.4131 71.0179 88.2584 70.6474 87.9489 70.3411C87.6425 70.0347 87.2736 69.8815 86.8422 69.8815H85.956ZM86.8422 74.008H85.956V76.4089H84.9853V68.9062H87.1142C87.7175 68.9875 88.2271 69.236 88.6429 69.6518C89.1399 70.1519 89.3884 70.7522 89.3884 71.4524C89.3884 72.1589 89.1399 72.7622 88.6429 73.2624C88.299 73.6063 88.0364 73.8001 87.8551 73.8439L89.5197 76.4089H88.3428L86.8422 74.008Z" fill="white"/>
<path d="M100.285 68.9062V69.8768H97.2137V72.1698H100.285V73.1405H97.2137V75.4335H100.285V76.4089H96.2431V68.9062H100.285Z" fill="white"/>
<path d="M111.384 68.9062V69.8768H108.312V72.1698H111.384V73.1405H108.312V75.4335H111.384V76.4089H107.341V68.9062H111.384Z" fill="white"/>
<path d="M119.41 69.8956V75.4241C120.183 75.4241 120.816 75.1756 121.31 74.6786C121.866 74.1221 122.144 73.4484 122.144 72.6575C122.144 71.8697 121.866 71.1961 121.31 70.6365C120.816 70.1426 120.183 69.8956 119.41 69.8956ZM119.153 68.9062C120.372 68.9124 121.322 69.2579 122.004 69.9425C122.751 70.6959 123.124 71.6009 123.124 72.6575C123.124 73.7173 122.751 74.6223 122.004 75.3726C121.322 76.0572 120.372 76.4026 119.153 76.4089H118.44V68.9062H119.153Z" fill="white"/>
<path d="M133.787 68.8077C134.846 68.8077 135.751 69.1828 136.502 69.9331C137.252 70.6834 137.627 71.5884 137.627 72.6481C137.627 73.7079 137.252 74.6129 136.502 75.3632C135.751 76.1134 134.846 76.4886 133.787 76.4886C132.727 76.4886 131.822 76.1134 131.071 75.3632C130.321 74.6129 129.946 73.7079 129.946 72.6481C129.946 71.5884 130.321 70.6834 131.071 69.9331C131.822 69.1828 132.727 68.8077 133.787 68.8077ZM133.787 69.7877C132.996 69.7877 132.32 70.0675 131.761 70.6271C131.204 71.1836 130.926 71.8572 130.926 72.6481C130.926 73.4391 131.206 74.1143 131.765 74.6739C132.325 75.2334 132.999 75.5132 133.787 75.5132C134.577 75.5132 135.251 75.2334 135.808 74.6739C136.367 74.1143 136.647 73.4391 136.647 72.6481C136.647 71.8572 136.367 71.1836 135.808 70.6271C135.251 70.0675 134.577 69.7877 133.787 69.7877Z" fill="white"/>
<path d="M145.804 68.9062L148.238 73.1124L150.662 68.9062H151.548V76.4089H150.578V70.9882L148.238 75.0396L145.888 70.9882V76.4089H144.918V68.9062H145.804Z" fill="white"/>
</svg>
